<?xml version="1.0" encoding="utf-8"?>
<!-- Generator: Adobe Illustrator 24.0.1, SVG Export Plug-In . SVG Version: 6.00 Build 0)  -->
<svg version="1.1" id="Layer_1" xmlns="http://www.w3.org/2000/svg" xmlns:xlink="http://www.w3.org/1999/xlink" x="0px" y="0px"
	 viewBox="0 0 26.6 30.5" style="enable-background:new 0 0 26.6 30.5;" xml:space="preserve">
<g>
	<path d="M1.5,24.7h13.2v-0.6H1.5c-0.5,0-0.9-0.4-0.9-1V5.9h5C5.8,5.9,6,5.8,6,5.6v-5h12.6c0.5,0,1,0.4,1,1v8.6h0.6V1.6
		c0-0.9-0.8-1.6-1.6-1.6H5.6l0,0c0,0,0,0-0.1,0c0,0,0,0,0,0c0,0,0,0-0.1,0l0,0L0,5.4l0,0c0,0,0,0,0,0.1v0c0,0,0,0,0,0.1l0,0v17.5
		C0,24,0.7,24.7,1.5,24.7z M5.3,5.4H1l4.3-4.3V5.4z"/>
	<path d="M22.6,14.8l2.1,0.3l0.1-0.6l-1.9-0.3l-1.1-2.3l-0.5,0.3l1.2,2.5C22.4,14.7,22.5,14.7,22.6,14.8z"/>
	<path d="M26.4,16.1L22,15.5l-2-4c0-0.1-0.2-0.2-0.3-0.2c-0.1,0-0.2,0.1-0.3,0.2l-2,4l-4.4,0.6c-0.1,0-0.2,0.1-0.3,0.2
		c0,0.1,0,0.3,0.1,0.3l3.2,3.1l-0.8,4.4c0,0.1,0,0.3,0.1,0.3c0.1,0.1,0.2,0.1,0.3,0l3.9-2.1l3.9,2.1c0,0,0.1,0,0.1,0
		c0.1,0,0.1,0,0.2,0c0.1-0.1,0.1-0.2,0.1-0.3l-0.8-4.4l3.2-3.1c0.1-0.1,0.1-0.2,0.1-0.3C26.6,16.2,26.5,16.1,26.4,16.1z M22.8,19.4
		c-0.1,0-0.1,0.2-0.1,0.3l0.7,3.9l-3.5-1.8c-0.1,0-0.2,0-0.3,0l-3.5,1.8l0.7-3.9c0-0.1,0-0.2-0.1-0.3l-2.8-2.8l3.9-0.6
		c0.1,0,0.2-0.1,0.3-0.2l1.8-3.5l1.8,3.5c0,0.1,0.1,0.2,0.3,0.2l3.9,0.6L22.8,19.4z"/>
	<rect x="7.6" y="9.3" width="8.9" height="0.6"/>
	<rect x="2.6" y="9.3" width="3.5" height="0.6"/>
	<rect x="13.4" y="13.1" width="3.1" height="0.6"/>
	<rect x="2.6" y="13.1" width="9.3" height="0.6"/>
	<rect x="2.6" y="17" width="8.8" height="0.6"/>
	<rect x="2.6" y="20.9" width="8.8" height="0.6"/>
</g>
<text transform="matrix(1 0 0 1 -19.7588 75.7)" style="font-family:'HelveticaNeue-Bold'; font-size:5px;">Created by Vectors Point</text>
<text transform="matrix(1 0 0 1 -19.7588 80.7)" style="font-family:'HelveticaNeue-Bold'; font-size:5px;">from the Noun Project</text>
</svg>
