<?xml version="1.0" encoding="utf-8"?>
<!-- Generator: Adobe Illustrator 24.0.1, SVG Export Plug-In . SVG Version: 6.00 Build 0)  -->
<svg version="1.1" xmlns="http://www.w3.org/2000/svg" xmlns:xlink="http://www.w3.org/1999/xlink" x="0px" y="0px"
	 viewBox="0 0 31.7 30.2" style="enable-background:new 0 0 31.7 30.2;" xml:space="preserve">
<g id="Layer_2">
</g>
<g id="Layer_1">
	<g>
		<path d="M5237.9,2365.5v-2c0-2.8-5-4-9.7-4s-9.7,1.3-9.7,4v2c0,1.8,0.7,3.6,2,4.9l5,4.9c0.3,0.3,0.4,0.6,0.4,1v6.4
			c0,0.4,0.2,0.7,0.6,0.8l2.9,0.9c0.5,0.1,1-0.2,1-0.8v-7.2c0-0.4,0.2-0.7,0.4-1l5.1-5C5237.2,2369.1,5237.9,2367.3,5237.9,2365.5z
			 M5228.2,2365.4c-4.8,0-7.4-1.3-7.5-1.8l0,0c0.1-0.5,2.7-1.8,7.5-1.8s7.3,1.3,7.5,1.8C5235.5,2364.1,5233,2365.4,5228.2,2365.4z"
			/>
		<path d="M5233.2,2375.7c-0.6,0-1,0.4-1,1s0.4,1,1,1h4.3c0.6,0,1-0.4,1-1s-0.4-1-1-1H5233.2z"/>
		<path d="M5237.5,2379.1h-4.3c-0.6,0-1,0.4-1,1s0.4,1,1,1h4.3c0.6,0,1-0.4,1-1C5238.5,2379.5,5238.1,2379.1,5237.5,2379.1z"/>
		<path d="M5237.5,2382.4h-4.3c-0.6,0-1,0.4-1,1s0.4,1,1,1h4.3c0.6,0,1-0.4,1-1C5238.5,2382.9,5238.1,2382.4,5237.5,2382.4z"/>
	</g>
	<g>
		<path d="M22.3,8h-2v-2c0-0.2-0.2-0.5-0.5-0.5H7.3c-0.2,0-0.5,0.2-0.5,0.5v16.3c0,0.2,0.2,0.5,0.5,0.5h2v2c0,0.2,0.2,0.5,0.5,0.5
			h12.5c0.2,0,0.5-0.2,0.5-0.5V8.4C22.8,8.2,22.6,8,22.3,8z M7.8,6.4h11.6v15.4H7.8V6.4z M21.8,24.3H10.3v-1.6h9.5
			c0.2,0,0.5-0.2,0.5-0.5V8.9h1.6L21.8,24.3L21.8,24.3z"/>
		<path d="M11.8,11.7c0.1,0.1,0.1,0.2,0.1,0.4l-0.3,1.4c-0.1,0.3,0.2,0.5,0.5,0.4l1.2-0.7c0.1-0.1,0.2-0.1,0.4,0l1.2,0.7
			c0.3,0.2,0.6-0.1,0.5-0.4l-0.3-1.4c0-0.1,0-0.3,0.1-0.4l1.1-0.9c0.2-0.2,0.1-0.6-0.2-0.6L14.7,10c-0.1,0-0.2-0.1-0.3-0.2l-0.5-1.3
			c-0.1-0.3-0.5-0.3-0.6,0l-0.6,1.3c0,0.1-0.2,0.2-0.3,0.2l-1.5,0.1c-0.3,0-0.4,0.4-0.2,0.6L11.8,11.7z"/>
		<path d="M16.6,16h-6c-0.2,0-0.5,0.2-0.5,0.5c0,0.2,0.2,0.5,0.5,0.5h6c0.2,0,0.5-0.2,0.5-0.5C17,16.2,16.8,16,16.6,16z"/>
		<path d="M16.6,18.6h-6c-0.2,0-0.5,0.2-0.5,0.5s0.2,0.5,0.5,0.5h6c0.2,0,0.5-0.2,0.5-0.5S16.8,18.6,16.6,18.6z"/>
	</g>
	<text transform="matrix(1 0 0 1 -35.2054 78.7715)" style="font-family:'HelveticaNeue-Bold'; font-size:5px;">Created by Adrien Coquet</text>
	<text transform="matrix(1 0 0 1 -35.2054 83.7715)" style="font-family:'HelveticaNeue-Bold'; font-size:5px;">from the Noun Project</text>
</g>
</svg>
