<?xml version="1.0" encoding="utf-8"?>
<!-- Generator: Adobe Illustrator 24.0.1, SVG Export Plug-In . SVG Version: 6.00 Build 0)  -->
<svg version="1.1" id="Layer_1" xmlns="http://www.w3.org/2000/svg" xmlns:xlink="http://www.w3.org/1999/xlink" x="0px" y="0px"
	 viewBox="0 0 20 20" style="enable-background:new 0 0 20 20;" xml:space="preserve">
<style type="text/css">
	.st0{fill-rule:evenodd;clip-rule:evenodd;}
</style>
<path d="M4.6,11.5H3.2L0,20h1.8l0.7-1.8h2.9L6,20h1.8L4.6,11.5z M3.9,14l0.9,2.6H3L3.9,14z"/>
<path d="M6.9,2.7L3.1,7.8h3.6v1.7H1.2V7.8l3.7-5.1H1V1h5.9V2.7z"/>
<path class="st0" d="M13.4,14h-1.7V2c0-0.5-0.4-1-0.8-1h-1C9.5,1,9.1,1.4,9.1,2v12H7.4c-0.3,0-0.5,0.3-0.3,0.6l2.9,5.2
	c0.2,0.3,0.5,0.3,0.7,0l2.9-5.2C13.9,14.2,13.7,14,13.4,14z"/>
<path class="st0" d="M13.7,7h1.7v12c0,0.5,0.4,1,0.8,1h0.9c0.5,0,0.8-0.4,0.8-1V7h1.7c0.3,0,0.5-0.3,0.3-0.6L17,1.3
	c-0.2-0.3-0.5-0.3-0.7,0l-2.9,5.2C13.2,6.8,13.3,7,13.7,7z"/>
</svg>
