<svg xmlns="http://www.w3.org/2000/svg" xmlns:xlink="http://www.w3.org/1999/xlink" viewBox="0 0 32 40" version="1.1" x="0px" y="0px"><title>ico-line-n64-cartridge</title><desc>Created with Sketch.</desc><g stroke="none" stroke-width="1" fill="none" fill-rule="evenodd"><path d="M29,18.8070406 L29,10.1906095 C28.4744768,9.62381649 26.9233059,8.89058478 25,8.21371593 L25,24.0000748 L27.1307877,24.0000748 L27.1307877,20.8539012 L29,18.8070406 Z M29,20.2899805 L28.1307877,21.2418019 L28.1307877,24.0000748 L29,24.0000748 L29,20.2899805 Z M2.99999957,18.4831292 L3.02350913,18.46166 L5.02441406,20.6527293 L5.02441406,24.0000748 L7,24.0000748 L7,8.25667947 C5.09688399,8.9321411 3.55182896,9.65757891 3.00000012,10.2116134 C2.99999999,13.9967032 2.99999994,15.1913279 2.99999957,18.4831292 Z M2.99999941,19.9188559 C2.99999928,21.0278568 2.99999912,22.3532199 2.99999893,24.0000748 L4.02441406,24.0000748 L4.02441406,21.0406301 L2.99999941,19.9188559 Z M24,7.87768279 C21.2798728,7.00463712 18.0891793,6.30013021 16.0000001,6.30013021 C13.94509,6.30013021 10.7396136,7.02692643 8,7.91713122 L8,24.0000748 L24,24.0000748 L24,7.87768279 Z M2.00000013,9.86881795 C3.05468763,8.16243668 11.6434463,5.30013021 16.0000001,5.30013021 C20.3565539,5.30013021 28.9713542,8.06510589 30,9.86881795 L30,24.0000625 C30,24.5523473 29.5522847,25.0000625 29,25.0000625 L3.00001118,25.0000748 C2.44771967,25.0000748 1.99999893,24.552354 1.99999893,24.0000625 C1.99999973,17.9191974 2.00000013,13.2087825 2.00000013,9.86881795 Z M9.22073755,11.1287844 C9.96028646,10.0410156 13.7067057,8.6500651 16,8.6500651 C18.2932943,8.6500651 21.8515625,10.0198568 22.8733724,11.1287844 C22.8733724,14.1358813 22.8733724,17.1429781 22.8733724,20.1500749 C22.8733724,20.7023596 22.4256571,21.1500749 21.8733724,21.1500749 L10.220705,21.1500423 C9.6684382,21.1500423 9.22073754,20.7023416 9.22073754,20.1500749 C9.22073755,16.5901814 9.22073755,13.5830846 9.22073755,11.1287844 Z" fill="#000000" fill-rule="nonzero"/></g><text x="0" y="47" fill="#000000" font-size="5px" font-weight="bold" font-family="'Helvetica Neue', Helvetica, Arial-Unicode, Arial, Sans-serif">Created by Billy Sweetman</text><text x="0" y="52" fill="#000000" font-size="5px" font-weight="bold" font-family="'Helvetica Neue', Helvetica, Arial-Unicode, Arial, Sans-serif">from the Noun Project</text></svg>