<?xml version="1.0" encoding="utf-8"?>
<!-- Generator: Adobe Illustrator 24.0.1, SVG Export Plug-In . SVG Version: 6.00 Build 0)  -->
<svg version="1.1" id="Layer_1" xmlns="http://www.w3.org/2000/svg" xmlns:xlink="http://www.w3.org/1999/xlink" x="0px" y="0px"
	 viewBox="0 0 30 30" style="enable-background:new 0 0 30 30;" xml:space="preserve">
<g>
	<path d="M12.9,27.2v1v1h13v-2.7c0-0.7,0.6-1.2,1.2-1.2h1.8v-24h-1.2c-0.2,0.4-0.6,0.6-1.1,0.6h-1.1c-0.4,0-0.8-0.2-1.1-0.6h-0.6v18
		c0,0.6-0.4,1-1,1h-8c-0.6,0-1-0.4-1-1v-18h-1v0.4c0,0.7-0.6,1.2-1.2,1.2H8.1c-0.7,0-1.3-0.6-1.3-1.2V1.2H5.2C5,1.6,4.6,1.9,4.1,1.9
		h-1C2.6,1.9,2.2,1.6,2,1.2H0.9v24h1.7c0.7,0,1.2,0.6,1.2,1.2v2.7h3v-1v-1v-1v-1v-1v-1v-1v-1v-1v-1v-1v-1v-1v-1v-1v-1v-1v-1v-1v-1
		v-1v-1v-1v-1V3.5c0-0.1,0.1-0.2,0.2-0.2h5.5c0.1,0,0.2,0.1,0.2,0.2v1.8v1v1v1v1v1v1v1v1v1v1v1v1v1v1v1v1v1v1v1v1v1V27.2z
		 M11.9,27.2v-1h-4v1H11.9z M11.9,28.2h-4v1h4V28.2z M11.9,25.2v-1h-4v1H11.9z M11.9,23.2v-1h-4v1H11.9z M11.9,21.2v-1h-4v1H11.9z
		 M11.9,19.2v-1h-4v1H11.9z M11.9,17.2v-1h-4v1H11.9z M11.9,15.2v-1h-4v1H11.9z M11.9,13.2v-1h-4v1H11.9z M11.9,11.2v-1h-4v1H11.9z
		 M11.9,9.2v-1h-4v1H11.9z M11.9,7.2v-1h-4v1H11.9z M11.9,5.2v-1h-4v1H11.9z M12.7,30.2C12.7,30.2,12.7,30.2,12.7,30.2l-5.5,0
		c0,0,0,0,0,0H3.9c-0.6,0-1-0.4-1-1v-2.7c0-0.1-0.1-0.2-0.2-0.2H0.9c-0.6,0-1-0.4-1-1v-24c0-0.6,0.4-1,1-1h1.7
		c0.1,0,0.2,0.1,0.2,0.2v0.1c0,0.1,0.1,0.2,0.2,0.2h1c0.1,0,0.2-0.1,0.2-0.2V0.5c0-0.1,0.1-0.2,0.2-0.2h3c0.1,0,0.2,0.1,0.2,0.2v1.1
		c0,0.1,0.1,0.2,0.2,0.2h3.5c0.1,0,0.2-0.1,0.2-0.2V0.5c0-0.1,0.1-0.2,0.2-0.2h12.9c0.1,0,0.2,0.1,0.2,0.2c0,0.2,0.1,0.3,0.2,0.3
		h1.1c0.1,0,0.2-0.1,0.2-0.2l0-0.1c0-0.1,0.1-0.2,0.2-0.2h1.7c0.6,0,1,0.4,1,1v24c0,0.6-0.4,1-1,1h-1.8c-0.1,0-0.2,0.1-0.2,0.2v2.7
		c0,0.6-0.4,1-1,1H12.7z M17,24.8l-1.1-2.2c-0.1-0.1,0-0.3,0.1-0.3c0,0,0.1,0,0.1,0h2.2c0.1,0,0.2,0.1,0.2,0.2c0,0,0,0.1,0,0.1
		l-1.1,2.2c-0.1,0.1-0.2,0.2-0.3,0.1C17.1,24.9,17.1,24.8,17,24.8z"/>
</g>
</svg>
