<?xml version="1.0" encoding="UTF-8"?>
<!--Generator: CustomSymbols by @serious_bret-->
<!DOCTYPE svg
PUBLIC "-//W3C//DTD SVG 1.1//EN"
       "http://www.w3.org/Graphics/SVG/1.1/DTD/svg11.dtd">
<svg version="1.1" xmlns="http://www.w3.org/2000/svg" xmlns:xlink="http://www.w3.org/1999/xlink" width="3300" height="2200">
 <g id="Notes">
  <rect height="2200" id="artboard" style="fill:white;opacity:1" width="3300" x="0" y="0"/>
  <line id="" style="fill:none;stroke:black;opacity:1;stroke-width:0.5;" x1="263" x2="3036" y1="292" y2="292"/>
  <text id="reftext1" style="stroke:none;fill:black;font-family:-apple-system,&quot;SF Pro Display&quot;,&quot;SF Pro Text&quot;,Helvetica,sans-serif;font-weight:bold;" transform="matrix(1 0 0 1 263 322)">Weight/Scale Variations</text>
  <text id="reftext2" style="stroke:none;fill:black;font-family:-apple-system,&quot;SF Pro Display&quot;,&quot;SF Pro Text&quot;,Helvetica,sans-serif;text-anchor:middle;" transform="matrix(1 0 0 1 559.711 322)">Ultralight</text>
  <text style="stroke:none;fill:black;font-family:-apple-system,&quot;SF Pro Display&quot;,&quot;SF Pro Text&quot;,Helvetica,sans-serif;text-anchor:middle;" transform="matrix(1 0 0 1 856.422 322)">Thin</text>
  <text style="stroke:none;fill:black;font-family:-apple-system,&quot;SF Pro Display&quot;,&quot;SF Pro Text&quot;,Helvetica,sans-serif;text-anchor:middle;" transform="matrix(1 0 0 1 1153.13 322)">Light</text>
  <text style="stroke:none;fill:black;font-family:-apple-system,&quot;SF Pro Display&quot;,&quot;SF Pro Text&quot;,Helvetica,sans-serif;text-anchor:middle;" transform="matrix(1 0 0 1 1449.84 322)">Regular</text>
  <text style="stroke:none;fill:black;font-family:-apple-system,&quot;SF Pro Display&quot;,&quot;SF Pro Text&quot;,Helvetica,sans-serif;text-anchor:middle;" transform="matrix(1 0 0 1 1746.56 322)">Medium</text>
  <text style="stroke:none;fill:black;font-family:-apple-system,&quot;SF Pro Display&quot;,&quot;SF Pro Text&quot;,Helvetica,sans-serif;text-anchor:middle;" transform="matrix(1 0 0 1 2043.27 322)">Semibold</text>
  <text style="stroke:none;fill:black;font-family:-apple-system,&quot;SF Pro Display&quot;,&quot;SF Pro Text&quot;,Helvetica,sans-serif;text-anchor:middle;" transform="matrix(1 0 0 1 2339.98 322)">Bold</text>
  <text style="stroke:none;fill:black;font-family:-apple-system,&quot;SF Pro Display&quot;,&quot;SF Pro Text&quot;,Helvetica,sans-serif;text-anchor:middle;" transform="matrix(1 0 0 1 2636.69 322)">Heavy</text>
  <text style="stroke:none;fill:black;font-family:-apple-system,&quot;SF Pro Display&quot;,&quot;SF Pro Text&quot;,Helvetica,sans-serif;text-anchor:middle;" transform="matrix(1 0 0 1 2933.4 322)">Black</text>
  <line id="" style="fill:none;stroke:black;opacity:1;stroke-width:0.5;" x1="263" x2="3036" y1="1903" y2="1903"/>
  <g id="" transform="matrix(1 0 0 1 263 1933)">
   <path d="M9.24805 0.830078C13.5547 0.830078 17.1387-2.74414 17.1387-7.05078C17.1387-11.3574 13.5449-14.9316 9.23828-14.9316C4.94141-14.9316 1.36719-11.3574 1.36719-7.05078C1.36719-2.74414 4.95117 0.830078 9.24805 0.830078ZM9.24805-0.654297C5.70312-0.654297 2.87109-3.49609 2.87109-7.05078C2.87109-10.6055 5.69336-13.4473 9.23828-13.4473C12.793-13.4473 15.6348-10.6055 15.6445-7.05078C15.6543-3.49609 12.8027-0.654297 9.24805-0.654297ZM6.39648-6.31836L8.50586-6.31836L8.50586-4.19922C8.50586-3.75977 8.79883-3.45703 9.22852-3.45703C9.67773-3.45703 9.9707-3.75977 9.9707-4.19922L9.9707-6.31836L12.0996-6.31836C12.5391-6.31836 12.8418-6.61133 12.8418-7.04102C12.8418-7.48047 12.5391-7.7832 12.0996-7.7832L9.9707-7.7832L9.9707-9.89258C9.9707-10.3418 9.67773-10.6445 9.22852-10.6445C8.79883-10.6445 8.50586-10.3418 8.50586-9.89258L8.50586-7.7832L6.39648-7.7832C5.94727-7.7832 5.64453-7.48047 5.64453-7.04102C5.64453-6.61133 5.94727-6.31836 6.39648-6.31836Z"/>
  </g>
  <g id="" transform="matrix(1 0 0 1 281.506 1933)">
   <path d="M11.709 2.91016C17.1582 2.91016 21.6699-1.61133 21.6699-7.05078C21.6699-12.5 17.1484-17.0117 11.6992-17.0117C6.25977-17.0117 1.74805-12.5 1.74805-7.05078C1.74805-1.61133 6.26953 2.91016 11.709 2.91016ZM11.709 1.25C7.09961 1.25 3.41797-2.44141 3.41797-7.05078C3.41797-11.6602 7.08984-15.3516 11.6992-15.3516C16.3086-15.3516 20-11.6602 20.0098-7.05078C20.0195-2.44141 16.3184 1.25 11.709 1.25ZM7.98828-6.23047L10.8789-6.23047L10.8789-3.32031C10.8789-2.83203 11.2109-2.5 11.6895-2.5C12.1777-2.5 12.5195-2.83203 12.5195-3.32031L12.5195-6.23047L15.4297-6.23047C15.918-6.23047 16.25-6.5625 16.25-7.04102C16.25-7.5293 15.918-7.87109 15.4297-7.87109L12.5195-7.87109L12.5195-10.7617C12.5195-11.2695 12.1777-11.6016 11.6895-11.6016C11.2109-11.6016 10.8789-11.2598 10.8789-10.7617L10.8789-7.87109L7.98828-7.87109C7.48047-7.87109 7.14844-7.5293 7.14844-7.04102C7.14844-6.5625 7.49023-6.23047 7.98828-6.23047Z"/>
  </g>
  <g id="" transform="matrix(1 0 0 1 304.924 1933)">
   <path d="M14.9707 5.66406C21.9336 5.66406 27.6953-0.0976562 27.6953-7.05078C27.6953-14.0137 21.9238-19.7754 14.9609-19.7754C8.00781-19.7754 2.25586-14.0137 2.25586-7.05078C2.25586-0.0976562 8.01758 5.66406 14.9707 5.66406ZM14.9707 3.84766C8.93555 3.84766 4.08203-1.01562 4.08203-7.05078C4.08203-13.0957 8.92578-17.9492 14.9609-17.9492C21.0059-17.9492 25.8594-13.0957 25.8691-7.05078C25.8789-1.01562 21.0156 3.84766 14.9707 3.84766ZM10.0586-6.14258L14.0625-6.14258L14.0625-2.12891C14.0625-1.5918 14.4336-1.2207 14.9512-1.2207C15.4883-1.2207 15.8594-1.5918 15.8594-2.12891L15.8594-6.14258L19.8828-6.14258C20.4102-6.14258 20.791-6.51367 20.791-7.03125C20.791-7.56836 20.4199-7.94922 19.8828-7.94922L15.8594-7.94922L15.8594-11.9531C15.8594-12.5098 15.4883-12.8809 14.9512-12.8809C14.4336-12.8809 14.0625-12.5 14.0625-11.9531L14.0625-7.94922L10.0586-7.94922C9.50195-7.94922 9.13086-7.56836 9.13086-7.03125C9.13086-6.51367 9.51172-6.14258 10.0586-6.14258Z"/>
  </g>
  <text style="stroke:none;fill:black;font-family:-apple-system,&quot;SF Pro Display&quot;,&quot;SF Pro Text&quot;,Helvetica,sans-serif;font-weight:bold;" transform="matrix(1 0 0 1 263 1953)">Design Variations</text>
  <text style="stroke:none;fill:black;font-family:-apple-system,&quot;SF Pro Display&quot;,&quot;SF Pro Text&quot;,Helvetica,sans-serif;" transform="matrix(1 0 0 1 263 1971)">Symbols are supported in up to nine weights and three scales.</text>
  <text style="stroke:none;fill:black;font-family:-apple-system,&quot;SF Pro Display&quot;,&quot;SF Pro Text&quot;,Helvetica,sans-serif;" transform="matrix(1 0 0 1 263 1989)">For optimal layout with text and other symbols, vertically align</text>
  <text style="stroke:none;fill:black;font-family:-apple-system,&quot;SF Pro Display&quot;,&quot;SF Pro Text&quot;,Helvetica,sans-serif;" transform="matrix(1 0 0 1 263 2007)">symbols with the adjacent text.</text>
  <line id="" style="fill:none;stroke:#00AEEF;stroke-width:0.5;opacity:1.0;" x1="776" x2="776" y1="1919" y2="1933"/>
  <g id="" transform="matrix(1 0 0 1 776 1933)">
   <path d="M3.31055 0.126953C3.82812 0.126953 4.08203-0.0683594 4.26758-0.605469L5.52734-4.0625L11.2891-4.0625L12.5488-0.605469C12.7344-0.0683594 12.9883 0.126953 13.4961 0.126953C14.0137 0.126953 14.3457-0.185547 14.3457-0.673828C14.3457-0.839844 14.3164-0.986328 14.2383-1.20117L9.6582-13.3887C9.43359-13.9941 9.0332-14.2871 8.4082-14.2871C7.80273-14.2871 7.39258-13.9941 7.17773-13.3984L2.59766-1.19141C2.51953-0.976562 2.49023-0.830078 2.49023-0.664062C2.49023-0.175781 2.80273 0.126953 3.31055 0.126953ZM6.00586-5.53711L8.37891-12.1094L8.42773-12.1094L10.8008-5.53711Z"/>
  </g>
  <line id="" style="fill:none;stroke:#00AEEF;stroke-width:0.5;opacity:1.0;" x1="792.836" x2="792.836" y1="1919" y2="1933"/>
  <text style="stroke:none;fill:black;font-family:-apple-system,&quot;SF Pro Display&quot;,&quot;SF Pro Text&quot;,Helvetica,sans-serif;font-weight:bold;" transform="matrix(1 0 0 1 776 1953)">Margins</text>
  <text style="stroke:none;fill:black;font-family:-apple-system,&quot;SF Pro Display&quot;,&quot;SF Pro Text&quot;,Helvetica,sans-serif;" transform="matrix(1 0 0 1 776 1971)">Leading and trailing margins on the left and right side of each symbol</text>
  <text style="stroke:none;fill:black;font-family:-apple-system,&quot;SF Pro Display&quot;,&quot;SF Pro Text&quot;,Helvetica,sans-serif;" transform="matrix(1 0 0 1 776 1989)">can be adjusted by modifying the x-location of the margin guidelines.</text>
  <text style="stroke:none;fill:black;font-family:-apple-system,&quot;SF Pro Display&quot;,&quot;SF Pro Text&quot;,Helvetica,sans-serif;" transform="matrix(1 0 0 1 776 2007)">Modifications are automatically applied proportionally to all</text>
  <text style="stroke:none;fill:black;font-family:-apple-system,&quot;SF Pro Display&quot;,&quot;SF Pro Text&quot;,Helvetica,sans-serif;" transform="matrix(1 0 0 1 776 2025)">scales and weights.</text>
  <g id="" transform="matrix(1 0 0 1 1289 1933)">
   <path d="M2.8418 1.86523L4.54102 3.57422C5.40039 4.44336 6.38672 4.38477 7.31445 3.35938L17.4902-7.85156C17.7539-7.76367 18.0273-7.7832 18.3398-7.8418L19.4043-8.03711L20.0684-7.36328L20.0293-6.80664C19.9902-6.30859 20.1172-5.92773 20.6055-5.44922L21.3672-4.70703C21.8457-4.22852 22.4609-4.19922 22.9297-4.66797L25.8398-7.58789C26.3086-8.05664 26.2891-8.65234 25.8105-9.13086L25.0391-9.89258C24.5605-10.3711 24.1895-10.5273 23.7109-10.4883L23.1348-10.4395L22.4902-11.0742L22.7344-12.1973C22.8613-12.7637 22.7051-13.2031 22.1191-13.7891L19.9219-15.9766C16.582-19.2969 12.1484-19.2188 9.25781-16.3281C8.83789-15.918 8.80859-15.3418 9.04297-14.9512C9.27734-14.5898 9.73633-14.3555 10.3809-14.5215C11.8457-14.8633 13.3691-14.9219 14.7949-13.9844L14.209-12.5293C14.0137-12.0508 13.9844-11.6504 14.1113-11.2891L3.04688-0.898438C2.06055 0.0195312 1.98242 0.996094 2.8418 1.86523ZM10.752-15.957C13.1836-17.7344 16.4746-17.4316 18.7012-15.2051L21.1328-12.793C21.3672-12.5586 21.4062-12.373 21.3379-12.0312L21.0156-10.5469L22.5195-9.0625L23.5059-9.12109C23.7598-9.13086 23.8379-9.11133 24.0332-8.91602L24.6094-8.33984L22.168-5.89844L21.5918-6.47461C21.3965-6.66992 21.3672-6.74805 21.377-7.01172L21.4453-7.98828L19.9512-9.47266L18.4277-9.21875C18.1055-9.15039 17.959-9.17969 17.7148-9.41406L15.7129-11.416C15.459-11.6504 15.4297-11.8164 15.5859-12.1875L16.4648-14.2773C14.9023-15.7324 12.8711-16.3574 10.8398-15.7617C10.6836-15.7227 10.625-15.8496 10.752-15.957ZM5.27344 2.30469L4.10156 1.14258C3.63281 0.683594 3.74023 0.341797 4.14062-0.0195312L14.9512-10.1953L16.416-8.71094L6.42578 2.27539C6.07422 2.67578 5.74219 2.77344 5.27344 2.30469Z"/>
  </g>
  <text style="stroke:none;fill:black;font-family:-apple-system,&quot;SF Pro Display&quot;,&quot;SF Pro Text&quot;,Helvetica,sans-serif;font-weight:bold;" transform="matrix(1 0 0 1 1289 1953)">Exporting</text>
  <text style="stroke:none;fill:black;font-family:-apple-system,&quot;SF Pro Display&quot;,&quot;SF Pro Text&quot;,Helvetica,sans-serif;" transform="matrix(1 0 0 1 1289 1971)">Symbols should be outlined when exporting to ensure the</text>
  <text style="stroke:none;fill:black;font-family:-apple-system,&quot;SF Pro Display&quot;,&quot;SF Pro Text&quot;,Helvetica,sans-serif;" transform="matrix(1 0 0 1 1289 1989)">design is preserved when submitting to Xcode.</text>
  <text id="template-version" style="stroke:none;fill:black;font-family:-apple-system,&quot;SF Pro Display&quot;,&quot;SF Pro Text&quot;,Helvetica,sans-serif;text-anchor:end;" transform="matrix(1 0 0 1 3036 1933)">Template v.2.0</text>
  <text style="stroke:none;fill:black;font-family:-apple-system,&quot;SF Pro Display&quot;,&quot;SF Pro Text&quot;,Helvetica,sans-serif;text-anchor:end;" transform="matrix(1 0 0 1 3036 1951)">Requires Xcode 12 or greater</text>
  <text style="stroke:none;fill:black;font-family:-apple-system,&quot;SF Pro Display&quot;,&quot;SF Pro Text&quot;,Helvetica,sans-serif;" transform="matrix(1 0 0 1 263 726)">Small</text>
  <text style="stroke:none;fill:black;font-family:-apple-system,&quot;SF Pro Display&quot;,&quot;SF Pro Text&quot;,Helvetica,sans-serif;" transform="matrix(1 0 0 1 263 1156)">Medium</text>
  <text style="stroke:none;fill:black;font-family:-apple-system,&quot;SF Pro Display&quot;,&quot;SF Pro Text&quot;,Helvetica,sans-serif;" transform="matrix(1 0 0 1 263 1586)">Large</text>
 </g>
 <g id="Guides">
  <g id="H-reference" style="fill:#27AAE1;stroke:none;" transform="matrix(1 0 0 1 339 696)">
   <path d="M0.976562 0L3.66211 0L12.9883-24.4629L45.752-24.4629L55.127 0L57.7637 0L30.6152-70.459L28.125-70.459ZM29.3457-67.1387L29.4434-67.1387L44.873-26.709L13.8672-26.709Z"/>
  </g>
  <line id="Baseline-S" style="fill:none;stroke:#27AAE1;opacity:1;stroke-width:0.5;" x1="263" x2="3036" y1="696" y2="696"/>
  <line id="Capline-S" style="fill:none;stroke:#27AAE1;opacity:1;stroke-width:0.5;" x1="263" x2="3036" y1="625.541" y2="625.541"/>
  <g id="H-reference" style="fill:#27AAE1;stroke:none;" transform="matrix(1 0 0 1 339 1126)">
   <path d="M0.976562 0L3.66211 0L12.9883-24.4629L45.752-24.4629L55.127 0L57.7637 0L30.6152-70.459L28.125-70.459ZM29.3457-67.1387L29.4434-67.1387L44.873-26.709L13.8672-26.709Z"/>
  </g>
  <line id="Baseline-M" style="fill:none;stroke:#27AAE1;opacity:1;stroke-width:0.5;" x1="263" x2="3036" y1="1126" y2="1126"/>
  <line id="Capline-M" style="fill:none;stroke:#27AAE1;opacity:1;stroke-width:0.5;" x1="263" x2="3036" y1="1055.54" y2="1055.54"/>
  <g id="H-reference" style="fill:#27AAE1;stroke:none;" transform="matrix(1 0 0 1 339 1556)">
   <path d="M0.976562 0L3.66211 0L12.9883-24.4629L45.752-24.4629L55.127 0L57.7637 0L30.6152-70.459L28.125-70.459ZM29.3457-67.1387L29.4434-67.1387L44.873-26.709L13.8672-26.709Z"/>
  </g>
  <line id="Baseline-L" style="fill:none;stroke:#27AAE1;opacity:1;stroke-width:0.5;" x1="263" x2="3036" y1="1556" y2="1556"/>
  <line id="Capline-L" style="fill:none;stroke:#27AAE1;opacity:1;stroke-width:0.5;" x1="263" x2="3036" y1="1485.54" y2="1485.54"/>
  <line id="left-margin" x1="1422.946015625" x2="1422.946015625" y1="1030.79" y2="1150.12" style="fill:none;stroke:#00AEEF;stroke-width:0.5;opacity:1.0;"/>
  <line id="right-margin" x1="1479.3139843749998" x2="1479.3139843749998" y1="1030.79" y2="1150.12" style="fill:none;stroke:#00AEEF;stroke-width:0.5;opacity:1.0;"/>
 </g>
 <g id="Symbols">
  <g id="Black-L" transform="matrix(1.0,0.0,0.0,1.0,2898.3226601562496,1475.3233447265625)">  <path xml:space="preserve" stroke-width="1px" version="1.1" stroke-opacity="1" stroke-miterlimit="4" fill-opacity="1" xmlns:xlink="http://www.w3.org/1999/xlink" y="0px" stroke-linecap="butt" stroke-dasharray="none" stroke="none" stroke-linejoin="miter" fill="#000000" fill-rule="nonzero" x="0px" d="M11.634,39.266L16.506,39.266L28.141,66.098L21.524,66.098L19.197,60.426L8.798,60.426L6.544,66.098L0,66.098L11.634,39.266ZM13.961,47.046L10.689,55.409L17.233,55.409L13.961,47.046ZM13.961,47.046"/>
  <path version="1.1" stroke-dasharray="none" x="0px" stroke-linejoin="miter" fill-opacity="1" fill="#000000" stroke="none" stroke-width="1px" stroke-linecap="butt" stroke-miterlimit="4" y="0px" xml:space="preserve" xmlns:xlink="http://www.w3.org/1999/xlink" stroke-opacity="1" fill-rule="nonzero" d="M24.578,11.707L10.98,27.85L24.069,27.85L24.069,33.085L3.781,33.085L3.781,27.85L17.161,11.707L3.345,11.707L3.345,6.253L24.578,6.253L24.578,11.707ZM24.578,11.707"/>
  <path stroke-dasharray="none" stroke="none" xmlns:xlink="http://www.w3.org/1999/xlink" xml:space="preserve" stroke-linejoin="miter" fill-rule="evenodd" fill="#000000" stroke-width="1px" stroke-linecap="butt" fill-opacity="1" y="0px" stroke-miterlimit="4" stroke-opacity="1" x="0px" version="1.1" d="M48.064,49.01L58.681,65.37C59.335,66.389,60.426,66.389,61.08,65.37L71.697,49.01C72.351,47.992,71.842,47.192,70.606,47.192L64.571,47.192L64.571,9.307C64.571,7.635,63.189,6.253,61.517,6.253L58.244,6.253C56.572,6.253,55.19,7.635,55.19,9.307L55.19,47.192L49.155,47.192C47.919,47.192,47.41,47.992,48.064,49.01ZM48.064,49.01"/>
  <path stroke-linejoin="miter" xml:space="preserve" stroke-linecap="butt" stroke-dasharray="none" stroke="none" x="0px" fill="#000000" version="1.1" fill-opacity="1" y="0px" stroke-width="1px" fill-rule="evenodd" stroke-miterlimit="4" stroke-opacity="1" xmlns:xlink="http://www.w3.org/1999/xlink" d="M49.228,23.414L38.611,7.053C37.957,6.035,36.866,6.035,36.212,7.053L25.596,23.341C24.941,24.359,25.45,25.159,26.686,25.159L32.722,25.159L32.722,63.044C32.722,64.716,34.103,66.098,35.776,66.098L39.048,66.098C40.72,66.098,42.102,64.716,42.102,63.044L42.102,25.159L48.137,25.159C49.373,25.232,49.882,24.432,49.228,23.414ZM49.228,23.414"/>
</g>
  <g id="Heavy-L" transform="matrix(1.0,0.0,0.0,1.0,2601.6126601562496,1475.3233447265625)">  <path xmlns:xlink="http://www.w3.org/1999/xlink" stroke="none" xml:space="preserve" fill-rule="nonzero" fill-opacity="1" stroke-linejoin="miter" stroke-linecap="butt" x="0px" stroke-width="1px" stroke-miterlimit="4" stroke-opacity="1" y="0px" fill="#000000" stroke-dasharray="none" version="1.1" d="M11.634,39.266L16.506,39.266L28.141,66.098L21.524,66.098L19.197,60.426L8.798,60.426L6.544,66.098L0,66.098L11.634,39.266ZM13.961,47.046L10.689,55.409L17.233,55.409L13.961,47.046ZM13.961,47.046"/>
  <path version="1.1" xml:space="preserve" stroke-linecap="butt" y="0px" stroke="none" stroke-linejoin="miter" stroke-dasharray="none" stroke-opacity="1" fill-opacity="1" stroke-miterlimit="4" x="0px" fill="#000000" stroke-width="1px" fill-rule="nonzero" xmlns:xlink="http://www.w3.org/1999/xlink" d="M24.578,11.707L10.98,27.85L24.069,27.85L24.069,33.085L3.781,33.085L3.781,27.85L17.161,11.707L3.345,11.707L3.345,6.253L24.578,6.253L24.578,11.707ZM24.578,11.707"/>
  <path stroke-miterlimit="4" xml:space="preserve" stroke-opacity="1" fill-opacity="1" fill="#000000" stroke-width="1px" xmlns:xlink="http://www.w3.org/1999/xlink" stroke-linejoin="miter" y="0px" x="0px" stroke-dasharray="none" stroke-linecap="butt" fill-rule="evenodd" version="1.1" stroke="none" d="M48.064,49.01L58.681,65.37C59.335,66.389,60.426,66.389,61.08,65.37L71.697,49.01C72.351,47.992,71.842,47.192,70.606,47.192L64.571,47.192L64.571,9.307C64.571,7.635,63.189,6.253,61.517,6.253L58.244,6.253C56.572,6.253,55.19,7.635,55.19,9.307L55.19,47.192L49.155,47.192C47.919,47.192,47.41,47.992,48.064,49.01ZM48.064,49.01"/>
  <path xmlns:xlink="http://www.w3.org/1999/xlink" y="0px" stroke="none" stroke-linejoin="miter" fill-rule="evenodd" stroke-dasharray="none" fill-opacity="1" fill="#000000" xml:space="preserve" stroke-width="1px" x="0px" stroke-miterlimit="4" stroke-opacity="1" version="1.1" stroke-linecap="butt" d="M49.228,23.414L38.611,7.053C37.957,6.035,36.866,6.035,36.212,7.053L25.596,23.341C24.941,24.359,25.45,25.159,26.686,25.159L32.722,25.159L32.722,63.044C32.722,64.716,34.103,66.098,35.776,66.098L39.048,66.098C40.72,66.098,42.102,64.716,42.102,63.044L42.102,25.159L48.137,25.159C49.373,25.232,49.882,24.432,49.228,23.414ZM49.228,23.414"/>
</g>
  <g id="Bold-L" transform="matrix(1.0,0.0,0.0,1.0,2304.9026601562496,1475.3233447265625)">  <path fill="#000000" stroke-dasharray="none" stroke-linejoin="miter" stroke-miterlimit="4" stroke-width="1px" fill-opacity="1" stroke-linecap="butt" xmlns:xlink="http://www.w3.org/1999/xlink" x="0px" fill-rule="nonzero" version="1.1" y="0px" stroke="none" xml:space="preserve" stroke-opacity="1" d="M11.634,39.266L16.506,39.266L28.141,66.098L21.524,66.098L19.197,60.426L8.798,60.426L6.544,66.098L0,66.098L11.634,39.266ZM13.961,47.046L10.689,55.409L17.233,55.409L13.961,47.046ZM13.961,47.046"/>
  <path stroke-linecap="butt" y="0px" xml:space="preserve" stroke-width="1px" stroke-linejoin="miter" fill-opacity="1" x="0px" xmlns:xlink="http://www.w3.org/1999/xlink" stroke-miterlimit="4" stroke="none" fill="#000000" stroke-opacity="1" version="1.1" fill-rule="nonzero" stroke-dasharray="none" d="M24.578,11.707L10.98,27.85L24.069,27.85L24.069,33.085L3.781,33.085L3.781,27.85L17.161,11.707L3.345,11.707L3.345,6.253L24.578,6.253L24.578,11.707ZM24.578,11.707"/>
  <path stroke="none" xmlns:xlink="http://www.w3.org/1999/xlink" stroke-dasharray="none" fill-rule="evenodd" y="0px" stroke-linejoin="miter" stroke-miterlimit="4" fill="#000000" xml:space="preserve" fill-opacity="1" stroke-width="1px" version="1.1" stroke-linecap="butt" stroke-opacity="1" x="0px" d="M48.064,49.01L58.681,65.37C59.335,66.389,60.426,66.389,61.08,65.37L71.697,49.01C72.351,47.992,71.842,47.192,70.606,47.192L64.571,47.192L64.571,9.307C64.571,7.635,63.189,6.253,61.517,6.253L58.244,6.253C56.572,6.253,55.19,7.635,55.19,9.307L55.19,47.192L49.155,47.192C47.919,47.192,47.41,47.992,48.064,49.01ZM48.064,49.01"/>
  <path stroke-width="1px" y="0px" stroke="none" xml:space="preserve" stroke-opacity="1" stroke-dasharray="none" stroke-miterlimit="4" fill="#000000" version="1.1" stroke-linejoin="miter" stroke-linecap="butt" x="0px" fill-opacity="1" fill-rule="evenodd" xmlns:xlink="http://www.w3.org/1999/xlink" d="M49.228,23.414L38.611,7.053C37.957,6.035,36.866,6.035,36.212,7.053L25.596,23.341C24.941,24.359,25.45,25.159,26.686,25.159L32.722,25.159L32.722,63.044C32.722,64.716,34.103,66.098,35.776,66.098L39.048,66.098C40.72,66.098,42.102,64.716,42.102,63.044L42.102,25.159L48.137,25.159C49.373,25.232,49.882,24.432,49.228,23.414ZM49.228,23.414"/>
</g>
  <g id="Semibold-L" transform="matrix(1.0,0.0,0.0,1.0,2008.19266015625,1475.3233447265625)">  <path y="0px" fill-rule="nonzero" xmlns:xlink="http://www.w3.org/1999/xlink" version="1.1" stroke-width="1px" stroke-opacity="1" stroke-linecap="butt" fill-opacity="1" xml:space="preserve" x="0px" stroke-dasharray="none" stroke-linejoin="miter" stroke="none" stroke-miterlimit="4" fill="#000000" d="M11.634,39.266L16.506,39.266L28.141,66.098L21.524,66.098L19.197,60.426L8.798,60.426L6.544,66.098L0,66.098L11.634,39.266ZM13.961,47.046L10.689,55.409L17.233,55.409L13.961,47.046ZM13.961,47.046"/>
  <path stroke="none" fill-rule="nonzero" fill-opacity="1" stroke-miterlimit="4" y="0px" stroke-opacity="1" stroke-dasharray="none" stroke-linejoin="miter" stroke-width="1px" xml:space="preserve" fill="#000000" stroke-linecap="butt" x="0px" version="1.1" xmlns:xlink="http://www.w3.org/1999/xlink" d="M24.578,11.707L10.98,27.85L24.069,27.85L24.069,33.085L3.781,33.085L3.781,27.85L17.161,11.707L3.345,11.707L3.345,6.253L24.578,6.253L24.578,11.707ZM24.578,11.707"/>
  <path xmlns:xlink="http://www.w3.org/1999/xlink" stroke-opacity="1" fill="#000000" stroke-width="1px" fill-opacity="1" y="0px" stroke-linejoin="miter" fill-rule="evenodd" version="1.1" stroke-dasharray="none" xml:space="preserve" stroke-miterlimit="4" x="0px" stroke="none" stroke-linecap="butt" d="M48.064,49.01L58.681,65.37C59.335,66.389,60.426,66.389,61.08,65.37L71.697,49.01C72.351,47.992,71.842,47.192,70.606,47.192L64.571,47.192L64.571,9.307C64.571,7.635,63.189,6.253,61.517,6.253L58.244,6.253C56.572,6.253,55.19,7.635,55.19,9.307L55.19,47.192L49.155,47.192C47.919,47.192,47.41,47.992,48.064,49.01ZM48.064,49.01"/>
  <path version="1.1" stroke-miterlimit="4" xml:space="preserve" xmlns:xlink="http://www.w3.org/1999/xlink" fill="#000000" y="0px" stroke-width="1px" fill-rule="evenodd" stroke-linejoin="miter" stroke="none" x="0px" stroke-linecap="butt" stroke-dasharray="none" stroke-opacity="1" fill-opacity="1" d="M49.228,23.414L38.611,7.053C37.957,6.035,36.866,6.035,36.212,7.053L25.596,23.341C24.941,24.359,25.45,25.159,26.686,25.159L32.722,25.159L32.722,63.044C32.722,64.716,34.103,66.098,35.776,66.098L39.048,66.098C40.72,66.098,42.102,64.716,42.102,63.044L42.102,25.159L48.137,25.159C49.373,25.232,49.882,24.432,49.228,23.414ZM49.228,23.414"/>
</g>
  <g id="Medium-L" transform="matrix(1.0,0.0,0.0,1.0,1711.48266015625,1475.3233447265625)">  <path fill="#000000" xmlns:xlink="http://www.w3.org/1999/xlink" y="0px" stroke-width="1px" stroke-linecap="butt" stroke-dasharray="none" stroke-linejoin="miter" stroke="none" fill-opacity="1" fill-rule="nonzero" stroke-opacity="1" x="0px" version="1.1" xml:space="preserve" stroke-miterlimit="4" d="M11.634,39.266L16.506,39.266L28.141,66.098L21.524,66.098L19.197,60.426L8.798,60.426L6.544,66.098L0,66.098L11.634,39.266ZM13.961,47.046L10.689,55.409L17.233,55.409L13.961,47.046ZM13.961,47.046"/>
  <path stroke-dasharray="none" xmlns:xlink="http://www.w3.org/1999/xlink" stroke="none" version="1.1" xml:space="preserve" stroke-linejoin="miter" fill="#000000" fill-opacity="1" stroke-opacity="1" y="0px" stroke-miterlimit="4" stroke-linecap="butt" stroke-width="1px" fill-rule="nonzero" x="0px" d="M24.578,11.707L10.98,27.85L24.069,27.85L24.069,33.085L3.781,33.085L3.781,27.85L17.161,11.707L3.345,11.707L3.345,6.253L24.578,6.253L24.578,11.707ZM24.578,11.707"/>
  <path stroke-dasharray="none" stroke="none" stroke-opacity="1" fill-rule="evenodd" xmlns:xlink="http://www.w3.org/1999/xlink" stroke-linejoin="miter" fill="#000000" x="0px" stroke-width="1px" version="1.1" fill-opacity="1" xml:space="preserve" y="0px" stroke-linecap="butt" stroke-miterlimit="4" d="M48.064,49.01L58.681,65.37C59.335,66.389,60.426,66.389,61.08,65.37L71.697,49.01C72.351,47.992,71.842,47.192,70.606,47.192L64.571,47.192L64.571,9.307C64.571,7.635,63.189,6.253,61.517,6.253L58.244,6.253C56.572,6.253,55.19,7.635,55.19,9.307L55.19,47.192L49.155,47.192C47.919,47.192,47.41,47.992,48.064,49.01ZM48.064,49.01"/>
  <path stroke-linejoin="miter" fill-opacity="1" stroke-linecap="butt" stroke-width="1px" fill="#000000" xmlns:xlink="http://www.w3.org/1999/xlink" stroke-miterlimit="4" stroke-dasharray="none" fill-rule="evenodd" stroke-opacity="1" version="1.1" stroke="none" y="0px" x="0px" xml:space="preserve" d="M49.228,23.414L38.611,7.053C37.957,6.035,36.866,6.035,36.212,7.053L25.596,23.341C24.941,24.359,25.45,25.159,26.686,25.159L32.722,25.159L32.722,63.044C32.722,64.716,34.103,66.098,35.776,66.098L39.048,66.098C40.72,66.098,42.102,64.716,42.102,63.044L42.102,25.159L48.137,25.159C49.373,25.232,49.882,24.432,49.228,23.414ZM49.228,23.414"/>
</g>
  <g id="Regular-L" transform="matrix(1.0,0.0,0.0,1.0,1414.77266015625,1475.3233447265625)">  <path y="0px" stroke-width="1px" stroke-miterlimit="4" x="0px" version="1.1" stroke-linejoin="miter" stroke="none" xmlns:xlink="http://www.w3.org/1999/xlink" stroke-opacity="1" xml:space="preserve" fill="#000000" fill-rule="nonzero" stroke-linecap="butt" stroke-dasharray="none" fill-opacity="1" d="M11.634,39.266L16.506,39.266L28.141,66.098L21.524,66.098L19.197,60.426L8.798,60.426L6.544,66.098L0,66.098L11.634,39.266ZM13.961,47.046L10.689,55.409L17.233,55.409L13.961,47.046ZM13.961,47.046"/>
  <path stroke-opacity="1" stroke-miterlimit="4" y="0px" fill-rule="nonzero" fill-opacity="1" stroke-dasharray="none" x="0px" xml:space="preserve" xmlns:xlink="http://www.w3.org/1999/xlink" stroke-linecap="butt" version="1.1" stroke="none" stroke-width="1px" stroke-linejoin="miter" fill="#000000" d="M24.578,11.707L10.98,27.85L24.069,27.85L24.069,33.085L3.781,33.085L3.781,27.85L17.161,11.707L3.345,11.707L3.345,6.253L24.578,6.253L24.578,11.707ZM24.578,11.707"/>
  <path stroke="none" x="0px" stroke-miterlimit="4" stroke-opacity="1" fill-rule="evenodd" y="0px" fill="#000000" stroke-dasharray="none" stroke-width="1px" version="1.1" xml:space="preserve" xmlns:xlink="http://www.w3.org/1999/xlink" stroke-linecap="butt" fill-opacity="1" stroke-linejoin="miter" d="M48.064,49.01L58.681,65.37C59.335,66.389,60.426,66.389,61.08,65.37L71.697,49.01C72.351,47.992,71.842,47.192,70.606,47.192L64.571,47.192L64.571,9.307C64.571,7.635,63.189,6.253,61.517,6.253L58.244,6.253C56.572,6.253,55.19,7.635,55.19,9.307L55.19,47.192L49.155,47.192C47.919,47.192,47.41,47.992,48.064,49.01ZM48.064,49.01"/>
  <path version="1.1" xml:space="preserve" y="0px" fill-opacity="1" fill="#000000" stroke-linejoin="miter" stroke-width="1px" stroke="none" fill-rule="evenodd" stroke-linecap="butt" xmlns:xlink="http://www.w3.org/1999/xlink" stroke-opacity="1" stroke-dasharray="none" x="0px" stroke-miterlimit="4" d="M49.228,23.414L38.611,7.053C37.957,6.035,36.866,6.035,36.212,7.053L25.596,23.341C24.941,24.359,25.45,25.159,26.686,25.159L32.722,25.159L32.722,63.044C32.722,64.716,34.103,66.098,35.776,66.098L39.048,66.098C40.72,66.098,42.102,64.716,42.102,63.044L42.102,25.159L48.137,25.159C49.373,25.232,49.882,24.432,49.228,23.414ZM49.228,23.414"/>
</g>
  <g id="Light-L" transform="matrix(1.0,0.0,0.0,1.0,1118.06266015625,1475.3233447265625)">  <path stroke-miterlimit="4" stroke-linejoin="miter" fill-rule="nonzero" fill="#000000" stroke="none" fill-opacity="1" stroke-width="1px" xmlns:xlink="http://www.w3.org/1999/xlink" stroke-dasharray="none" xml:space="preserve" x="0px" y="0px" stroke-opacity="1" version="1.1" stroke-linecap="butt" d="M11.634,39.266L16.506,39.266L28.141,66.098L21.524,66.098L19.197,60.426L8.798,60.426L6.544,66.098L0,66.098L11.634,39.266ZM13.961,47.046L10.689,55.409L17.233,55.409L13.961,47.046ZM13.961,47.046"/>
  <path version="1.1" fill-opacity="1" xmlns:xlink="http://www.w3.org/1999/xlink" fill-rule="nonzero" stroke-linejoin="miter" fill="#000000" y="0px" stroke-dasharray="none" stroke-width="1px" xml:space="preserve" stroke-linecap="butt" x="0px" stroke-miterlimit="4" stroke="none" stroke-opacity="1" d="M24.578,11.707L10.98,27.85L24.069,27.85L24.069,33.085L3.781,33.085L3.781,27.85L17.161,11.707L3.345,11.707L3.345,6.253L24.578,6.253L24.578,11.707ZM24.578,11.707"/>
  <path fill="#000000" xmlns:xlink="http://www.w3.org/1999/xlink" stroke-dasharray="none" stroke-linecap="butt" stroke-linejoin="miter" fill-opacity="1" fill-rule="evenodd" stroke-opacity="1" stroke-width="1px" y="0px" version="1.1" x="0px" stroke-miterlimit="4" xml:space="preserve" stroke="none" d="M48.064,49.01L58.681,65.37C59.335,66.389,60.426,66.389,61.08,65.37L71.697,49.01C72.351,47.992,71.842,47.192,70.606,47.192L64.571,47.192L64.571,9.307C64.571,7.635,63.189,6.253,61.517,6.253L58.244,6.253C56.572,6.253,55.19,7.635,55.19,9.307L55.19,47.192L49.155,47.192C47.919,47.192,47.41,47.992,48.064,49.01ZM48.064,49.01"/>
  <path fill="#000000" x="0px" stroke-linecap="butt" stroke-dasharray="none" xmlns:xlink="http://www.w3.org/1999/xlink" stroke-linejoin="miter" fill-opacity="1" version="1.1" y="0px" stroke-miterlimit="4" stroke="none" stroke-opacity="1" stroke-width="1px" xml:space="preserve" fill-rule="evenodd" d="M49.228,23.414L38.611,7.053C37.957,6.035,36.866,6.035,36.212,7.053L25.596,23.341C24.941,24.359,25.45,25.159,26.686,25.159L32.722,25.159L32.722,63.044C32.722,64.716,34.103,66.098,35.776,66.098L39.048,66.098C40.72,66.098,42.102,64.716,42.102,63.044L42.102,25.159L48.137,25.159C49.373,25.232,49.882,24.432,49.228,23.414ZM49.228,23.414"/>
</g>
  <g id="Thin-L" transform="matrix(1.0,0.0,0.0,1.0,821.3526601562501,1475.3233447265625)">  <path stroke-linecap="butt" stroke="none" xml:space="preserve" stroke-width="1px" fill="#000000" y="0px" stroke-linejoin="miter" x="0px" version="1.1" fill-rule="nonzero" stroke-dasharray="none" stroke-opacity="1" fill-opacity="1" stroke-miterlimit="4" xmlns:xlink="http://www.w3.org/1999/xlink" d="M11.634,39.266L16.506,39.266L28.141,66.098L21.524,66.098L19.197,60.426L8.798,60.426L6.544,66.098L0,66.098L11.634,39.266ZM13.961,47.046L10.689,55.409L17.233,55.409L13.961,47.046ZM13.961,47.046"/>
  <path x="0px" stroke-linejoin="miter" version="1.1" stroke-width="1px" stroke-dasharray="none" stroke-miterlimit="4" fill-rule="nonzero" fill="#000000" stroke-opacity="1" stroke-linecap="butt" xmlns:xlink="http://www.w3.org/1999/xlink" xml:space="preserve" y="0px" stroke="none" fill-opacity="1" d="M24.578,11.707L10.98,27.85L24.069,27.85L24.069,33.085L3.781,33.085L3.781,27.85L17.161,11.707L3.345,11.707L3.345,6.253L24.578,6.253L24.578,11.707ZM24.578,11.707"/>
  <path stroke-width="1px" fill-opacity="1" stroke-opacity="1" xml:space="preserve" stroke="none" stroke-linejoin="miter" y="0px" fill="#000000" version="1.1" xmlns:xlink="http://www.w3.org/1999/xlink" x="0px" stroke-dasharray="none" fill-rule="evenodd" stroke-linecap="butt" stroke-miterlimit="4" d="M48.064,49.01L58.681,65.37C59.335,66.389,60.426,66.389,61.08,65.37L71.697,49.01C72.351,47.992,71.842,47.192,70.606,47.192L64.571,47.192L64.571,9.307C64.571,7.635,63.189,6.253,61.517,6.253L58.244,6.253C56.572,6.253,55.19,7.635,55.19,9.307L55.19,47.192L49.155,47.192C47.919,47.192,47.41,47.992,48.064,49.01ZM48.064,49.01"/>
  <path version="1.1" fill-rule="evenodd" xml:space="preserve" stroke-linejoin="miter" stroke-linecap="butt" stroke-dasharray="none" stroke-miterlimit="4" stroke="none" x="0px" fill="#000000" stroke-opacity="1" y="0px" xmlns:xlink="http://www.w3.org/1999/xlink" fill-opacity="1" stroke-width="1px" d="M49.228,23.414L38.611,7.053C37.957,6.035,36.866,6.035,36.212,7.053L25.596,23.341C24.941,24.359,25.45,25.159,26.686,25.159L32.722,25.159L32.722,63.044C32.722,64.716,34.103,66.098,35.776,66.098L39.048,66.098C40.72,66.098,42.102,64.716,42.102,63.044L42.102,25.159L48.137,25.159C49.373,25.232,49.882,24.432,49.228,23.414ZM49.228,23.414"/>
</g>
  <g id="Ultralight-L" transform="matrix(1.0,0.0,0.0,1.0,524.64266015625,1475.3233447265625)">  <path xmlns:xlink="http://www.w3.org/1999/xlink" y="0px" xml:space="preserve" version="1.1" fill-opacity="1" stroke-linejoin="miter" stroke="none" stroke-width="1px" stroke-miterlimit="4" stroke-dasharray="none" stroke-linecap="butt" fill="#000000" x="0px" stroke-opacity="1" fill-rule="nonzero" d="M11.634,39.266L16.506,39.266L28.141,66.098L21.524,66.098L19.197,60.426L8.798,60.426L6.544,66.098L0,66.098L11.634,39.266ZM13.961,47.046L10.689,55.409L17.233,55.409L13.961,47.046ZM13.961,47.046"/>
  <path stroke-miterlimit="4" version="1.1" fill-rule="nonzero" xmlns:xlink="http://www.w3.org/1999/xlink" xml:space="preserve" fill="#000000" y="0px" x="0px" stroke-width="1px" stroke-opacity="1" stroke="none" fill-opacity="1" stroke-linecap="butt" stroke-dasharray="none" stroke-linejoin="miter" d="M24.578,11.707L10.98,27.85L24.069,27.85L24.069,33.085L3.781,33.085L3.781,27.85L17.161,11.707L3.345,11.707L3.345,6.253L24.578,6.253L24.578,11.707ZM24.578,11.707"/>
  <path stroke-linecap="butt" stroke-linejoin="miter" stroke-miterlimit="4" x="0px" fill="#000000" fill-rule="evenodd" fill-opacity="1" y="0px" xmlns:xlink="http://www.w3.org/1999/xlink" stroke-opacity="1" xml:space="preserve" stroke-dasharray="none" stroke-width="1px" version="1.1" stroke="none" d="M48.064,49.01L58.681,65.37C59.335,66.389,60.426,66.389,61.08,65.37L71.697,49.01C72.351,47.992,71.842,47.192,70.606,47.192L64.571,47.192L64.571,9.307C64.571,7.635,63.189,6.253,61.517,6.253L58.244,6.253C56.572,6.253,55.19,7.635,55.19,9.307L55.19,47.192L49.155,47.192C47.919,47.192,47.41,47.992,48.064,49.01ZM48.064,49.01"/>
  <path stroke-linejoin="miter" stroke-miterlimit="4" version="1.1" y="0px" fill="#000000" stroke-opacity="1" fill-opacity="1" stroke-linecap="butt" xml:space="preserve" stroke="none" fill-rule="evenodd" x="0px" stroke-dasharray="none" xmlns:xlink="http://www.w3.org/1999/xlink" stroke-width="1px" d="M49.228,23.414L38.611,7.053C37.957,6.035,36.866,6.035,36.212,7.053L25.596,23.341C24.941,24.359,25.45,25.159,26.686,25.159L32.722,25.159L32.722,63.044C32.722,64.716,34.103,66.098,35.776,66.098L39.048,66.098C40.72,66.098,42.102,64.716,42.102,63.044L42.102,25.159L48.137,25.159C49.373,25.232,49.882,24.432,49.228,23.414ZM49.228,23.414"/>
</g>
  <g id="Black-M" transform="matrix(1.0,0.0,0.0,1.0,2906.496015625,1055.5400390625)">  <path xml:space="preserve" stroke-width="1px" version="1.1" stroke-opacity="1" stroke-miterlimit="4" fill-opacity="1" xmlns:xlink="http://www.w3.org/1999/xlink" y="0px" stroke-linecap="butt" stroke-dasharray="none" stroke="none" stroke-linejoin="miter" fill="#000000" fill-rule="nonzero" x="0px" d="M9.019,30.439L12.796,30.439L21.814,51.238L16.685,51.238L14.881,46.842L6.821,46.842L5.073,51.238L0,51.238L9.019,30.439ZM10.823,36.47L8.286,42.952L13.359,42.952L10.823,36.47ZM10.823,36.47"/>
  <path version="1.1" stroke-dasharray="none" x="0px" stroke-linejoin="miter" fill-opacity="1" fill="#000000" stroke="none" stroke-width="1px" stroke-linecap="butt" stroke-miterlimit="4" y="0px" xml:space="preserve" xmlns:xlink="http://www.w3.org/1999/xlink" stroke-opacity="1" fill-rule="nonzero" d="M19.052,9.075L8.512,21.589L18.658,21.589L18.658,25.647L2.931,25.647L2.931,21.589L13.303,9.075L2.593,9.075L2.593,4.848L19.052,4.848L19.052,9.075ZM19.052,9.075"/>
  <path stroke-dasharray="none" stroke="none" xmlns:xlink="http://www.w3.org/1999/xlink" xml:space="preserve" stroke-linejoin="miter" fill-rule="evenodd" fill="#000000" stroke-width="1px" stroke-linecap="butt" fill-opacity="1" y="0px" stroke-miterlimit="4" stroke-opacity="1" x="0px" version="1.1" d="M37.259,37.992L45.489,50.675C45.996,51.464,46.842,51.464,47.349,50.675L55.579,37.992C56.086,37.203,55.692,36.583,54.733,36.583L50.055,36.583L50.055,7.215C50.055,5.919,48.984,4.848,47.687,4.848L45.151,4.848C43.854,4.848,42.783,5.919,42.783,7.215L42.783,36.583L38.105,36.583C37.146,36.583,36.752,37.203,37.259,37.992ZM37.259,37.992"/>
  <path stroke-linejoin="miter" xml:space="preserve" stroke-linecap="butt" stroke-dasharray="none" stroke="none" x="0px" fill="#000000" version="1.1" fill-opacity="1" y="0px" stroke-width="1px" fill-rule="evenodd" stroke-miterlimit="4" stroke-opacity="1" xmlns:xlink="http://www.w3.org/1999/xlink" d="M38.161,18.15L29.931,5.468C29.424,4.679,28.579,4.679,28.071,5.468L19.842,18.094C19.334,18.883,19.729,19.503,20.687,19.503L25.366,19.503L25.366,48.871C25.366,50.167,26.437,51.238,27.733,51.238L30.27,51.238C31.566,51.238,32.637,50.167,32.637,48.871L32.637,19.503L37.316,19.503C38.274,19.56,38.668,18.94,38.161,18.15ZM38.161,18.15"/>
</g>
  <g id="Heavy-M" transform="matrix(1.0,0.0,0.0,1.0,2609.786015625,1055.5400390625)">  <path xmlns:xlink="http://www.w3.org/1999/xlink" stroke="none" xml:space="preserve" fill-rule="nonzero" fill-opacity="1" stroke-linejoin="miter" stroke-linecap="butt" x="0px" stroke-width="1px" stroke-miterlimit="4" stroke-opacity="1" y="0px" fill="#000000" stroke-dasharray="none" version="1.1" d="M9.019,30.439L12.796,30.439L21.814,51.238L16.685,51.238L14.881,46.842L6.821,46.842L5.073,51.238L0,51.238L9.019,30.439ZM10.823,36.47L8.286,42.952L13.359,42.952L10.823,36.47ZM10.823,36.47"/>
  <path version="1.1" xml:space="preserve" stroke-linecap="butt" y="0px" stroke="none" stroke-linejoin="miter" stroke-dasharray="none" stroke-opacity="1" fill-opacity="1" stroke-miterlimit="4" x="0px" fill="#000000" stroke-width="1px" fill-rule="nonzero" xmlns:xlink="http://www.w3.org/1999/xlink" d="M19.052,9.075L8.512,21.589L18.658,21.589L18.658,25.647L2.931,25.647L2.931,21.589L13.303,9.075L2.593,9.075L2.593,4.848L19.052,4.848L19.052,9.075ZM19.052,9.075"/>
  <path stroke-miterlimit="4" xml:space="preserve" stroke-opacity="1" fill-opacity="1" fill="#000000" stroke-width="1px" xmlns:xlink="http://www.w3.org/1999/xlink" stroke-linejoin="miter" y="0px" x="0px" stroke-dasharray="none" stroke-linecap="butt" fill-rule="evenodd" version="1.1" stroke="none" d="M37.259,37.992L45.489,50.675C45.996,51.464,46.842,51.464,47.349,50.675L55.579,37.992C56.086,37.203,55.692,36.583,54.733,36.583L50.055,36.583L50.055,7.215C50.055,5.919,48.984,4.848,47.687,4.848L45.151,4.848C43.854,4.848,42.783,5.919,42.783,7.215L42.783,36.583L38.105,36.583C37.146,36.583,36.752,37.203,37.259,37.992ZM37.259,37.992"/>
  <path xmlns:xlink="http://www.w3.org/1999/xlink" y="0px" stroke="none" stroke-linejoin="miter" fill-rule="evenodd" stroke-dasharray="none" fill-opacity="1" fill="#000000" xml:space="preserve" stroke-width="1px" x="0px" stroke-miterlimit="4" stroke-opacity="1" version="1.1" stroke-linecap="butt" d="M38.161,18.15L29.931,5.468C29.424,4.679,28.579,4.679,28.071,5.468L19.842,18.094C19.334,18.883,19.729,19.503,20.687,19.503L25.366,19.503L25.366,48.871C25.366,50.167,26.437,51.238,27.733,51.238L30.27,51.238C31.566,51.238,32.637,50.167,32.637,48.871L32.637,19.503L37.316,19.503C38.274,19.56,38.668,18.94,38.161,18.15ZM38.161,18.15"/>
</g>
  <g id="Bold-M" transform="matrix(1.0,0.0,0.0,1.0,2313.076015625,1055.5400390625)">  <path fill="#000000" stroke-dasharray="none" stroke-linejoin="miter" stroke-miterlimit="4" stroke-width="1px" fill-opacity="1" stroke-linecap="butt" xmlns:xlink="http://www.w3.org/1999/xlink" x="0px" fill-rule="nonzero" version="1.1" y="0px" stroke="none" xml:space="preserve" stroke-opacity="1" d="M9.019,30.439L12.796,30.439L21.814,51.238L16.685,51.238L14.881,46.842L6.821,46.842L5.073,51.238L0,51.238L9.019,30.439ZM10.823,36.47L8.286,42.952L13.359,42.952L10.823,36.47ZM10.823,36.47"/>
  <path stroke-linecap="butt" y="0px" xml:space="preserve" stroke-width="1px" stroke-linejoin="miter" fill-opacity="1" x="0px" xmlns:xlink="http://www.w3.org/1999/xlink" stroke-miterlimit="4" stroke="none" fill="#000000" stroke-opacity="1" version="1.1" fill-rule="nonzero" stroke-dasharray="none" d="M19.052,9.075L8.512,21.589L18.658,21.589L18.658,25.647L2.931,25.647L2.931,21.589L13.303,9.075L2.593,9.075L2.593,4.848L19.052,4.848L19.052,9.075ZM19.052,9.075"/>
  <path stroke="none" xmlns:xlink="http://www.w3.org/1999/xlink" stroke-dasharray="none" fill-rule="evenodd" y="0px" stroke-linejoin="miter" stroke-miterlimit="4" fill="#000000" xml:space="preserve" fill-opacity="1" stroke-width="1px" version="1.1" stroke-linecap="butt" stroke-opacity="1" x="0px" d="M37.259,37.992L45.489,50.675C45.996,51.464,46.842,51.464,47.349,50.675L55.579,37.992C56.086,37.203,55.692,36.583,54.733,36.583L50.055,36.583L50.055,7.215C50.055,5.919,48.984,4.848,47.687,4.848L45.151,4.848C43.854,4.848,42.783,5.919,42.783,7.215L42.783,36.583L38.105,36.583C37.146,36.583,36.752,37.203,37.259,37.992ZM37.259,37.992"/>
  <path stroke-width="1px" y="0px" stroke="none" xml:space="preserve" stroke-opacity="1" stroke-dasharray="none" stroke-miterlimit="4" fill="#000000" version="1.1" stroke-linejoin="miter" stroke-linecap="butt" x="0px" fill-opacity="1" fill-rule="evenodd" xmlns:xlink="http://www.w3.org/1999/xlink" d="M38.161,18.15L29.931,5.468C29.424,4.679,28.579,4.679,28.071,5.468L19.842,18.094C19.334,18.883,19.729,19.503,20.687,19.503L25.366,19.503L25.366,48.871C25.366,50.167,26.437,51.238,27.733,51.238L30.27,51.238C31.566,51.238,32.637,50.167,32.637,48.871L32.637,19.503L37.316,19.503C38.274,19.56,38.668,18.94,38.161,18.15ZM38.161,18.15"/>
</g>
  <g id="Semibold-M" transform="matrix(1.0,0.0,0.0,1.0,2016.366015625,1055.5400390625)">  <path y="0px" fill-rule="nonzero" xmlns:xlink="http://www.w3.org/1999/xlink" version="1.1" stroke-width="1px" stroke-opacity="1" stroke-linecap="butt" fill-opacity="1" xml:space="preserve" x="0px" stroke-dasharray="none" stroke-linejoin="miter" stroke="none" stroke-miterlimit="4" fill="#000000" d="M9.019,30.439L12.796,30.439L21.814,51.238L16.685,51.238L14.881,46.842L6.821,46.842L5.073,51.238L0,51.238L9.019,30.439ZM10.823,36.47L8.286,42.952L13.359,42.952L10.823,36.47ZM10.823,36.47"/>
  <path stroke="none" fill-rule="nonzero" fill-opacity="1" stroke-miterlimit="4" y="0px" stroke-opacity="1" stroke-dasharray="none" stroke-linejoin="miter" stroke-width="1px" xml:space="preserve" fill="#000000" stroke-linecap="butt" x="0px" version="1.1" xmlns:xlink="http://www.w3.org/1999/xlink" d="M19.052,9.075L8.512,21.589L18.658,21.589L18.658,25.647L2.931,25.647L2.931,21.589L13.303,9.075L2.593,9.075L2.593,4.848L19.052,4.848L19.052,9.075ZM19.052,9.075"/>
  <path xmlns:xlink="http://www.w3.org/1999/xlink" stroke-opacity="1" fill="#000000" stroke-width="1px" fill-opacity="1" y="0px" stroke-linejoin="miter" fill-rule="evenodd" version="1.1" stroke-dasharray="none" xml:space="preserve" stroke-miterlimit="4" x="0px" stroke="none" stroke-linecap="butt" d="M37.259,37.992L45.489,50.675C45.996,51.464,46.842,51.464,47.349,50.675L55.579,37.992C56.086,37.203,55.692,36.583,54.733,36.583L50.055,36.583L50.055,7.215C50.055,5.919,48.984,4.848,47.687,4.848L45.151,4.848C43.854,4.848,42.783,5.919,42.783,7.215L42.783,36.583L38.105,36.583C37.146,36.583,36.752,37.203,37.259,37.992ZM37.259,37.992"/>
  <path version="1.1" stroke-miterlimit="4" xml:space="preserve" xmlns:xlink="http://www.w3.org/1999/xlink" fill="#000000" y="0px" stroke-width="1px" fill-rule="evenodd" stroke-linejoin="miter" stroke="none" x="0px" stroke-linecap="butt" stroke-dasharray="none" stroke-opacity="1" fill-opacity="1" d="M38.161,18.15L29.931,5.468C29.424,4.679,28.579,4.679,28.071,5.468L19.842,18.094C19.334,18.883,19.729,19.503,20.687,19.503L25.366,19.503L25.366,48.871C25.366,50.167,26.437,51.238,27.733,51.238L30.27,51.238C31.566,51.238,32.637,50.167,32.637,48.871L32.637,19.503L37.316,19.503C38.274,19.56,38.668,18.94,38.161,18.15ZM38.161,18.15"/>
</g>
  <g id="Medium-M" transform="matrix(1.0,0.0,0.0,1.0,1719.656015625,1055.5400390625)">  <path fill="#000000" xmlns:xlink="http://www.w3.org/1999/xlink" y="0px" stroke-width="1px" stroke-linecap="butt" stroke-dasharray="none" stroke-linejoin="miter" stroke="none" fill-opacity="1" fill-rule="nonzero" stroke-opacity="1" x="0px" version="1.1" xml:space="preserve" stroke-miterlimit="4" d="M9.019,30.439L12.796,30.439L21.814,51.238L16.685,51.238L14.881,46.842L6.821,46.842L5.073,51.238L0,51.238L9.019,30.439ZM10.823,36.47L8.286,42.952L13.359,42.952L10.823,36.47ZM10.823,36.47"/>
  <path stroke-dasharray="none" xmlns:xlink="http://www.w3.org/1999/xlink" stroke="none" version="1.1" xml:space="preserve" stroke-linejoin="miter" fill="#000000" fill-opacity="1" stroke-opacity="1" y="0px" stroke-miterlimit="4" stroke-linecap="butt" stroke-width="1px" fill-rule="nonzero" x="0px" d="M19.052,9.075L8.512,21.589L18.658,21.589L18.658,25.647L2.931,25.647L2.931,21.589L13.303,9.075L2.593,9.075L2.593,4.848L19.052,4.848L19.052,9.075ZM19.052,9.075"/>
  <path stroke-dasharray="none" stroke="none" stroke-opacity="1" fill-rule="evenodd" xmlns:xlink="http://www.w3.org/1999/xlink" stroke-linejoin="miter" fill="#000000" x="0px" stroke-width="1px" version="1.1" fill-opacity="1" xml:space="preserve" y="0px" stroke-linecap="butt" stroke-miterlimit="4" d="M37.259,37.992L45.489,50.675C45.996,51.464,46.842,51.464,47.349,50.675L55.579,37.992C56.086,37.203,55.692,36.583,54.733,36.583L50.055,36.583L50.055,7.215C50.055,5.919,48.984,4.848,47.687,4.848L45.151,4.848C43.854,4.848,42.783,5.919,42.783,7.215L42.783,36.583L38.105,36.583C37.146,36.583,36.752,37.203,37.259,37.992ZM37.259,37.992"/>
  <path stroke-linejoin="miter" fill-opacity="1" stroke-linecap="butt" stroke-width="1px" fill="#000000" xmlns:xlink="http://www.w3.org/1999/xlink" stroke-miterlimit="4" stroke-dasharray="none" fill-rule="evenodd" stroke-opacity="1" version="1.1" stroke="none" y="0px" x="0px" xml:space="preserve" d="M38.161,18.15L29.931,5.468C29.424,4.679,28.579,4.679,28.071,5.468L19.842,18.094C19.334,18.883,19.729,19.503,20.687,19.503L25.366,19.503L25.366,48.871C25.366,50.167,26.437,51.238,27.733,51.238L30.27,51.238C31.566,51.238,32.637,50.167,32.637,48.871L32.637,19.503L37.316,19.503C38.274,19.56,38.668,18.94,38.161,18.15ZM38.161,18.15"/>
</g>
  <g id="Regular-M" transform="matrix(1.0,0.0,0.0,1.0,1422.946015625,1055.5400390625)">  <path y="0px" stroke-width="1px" stroke-miterlimit="4" x="0px" version="1.1" stroke-linejoin="miter" stroke="none" xmlns:xlink="http://www.w3.org/1999/xlink" stroke-opacity="1" xml:space="preserve" fill="#000000" fill-rule="nonzero" stroke-linecap="butt" stroke-dasharray="none" fill-opacity="1" d="M9.019,30.439L12.796,30.439L21.814,51.238L16.685,51.238L14.881,46.842L6.821,46.842L5.073,51.238L0,51.238L9.019,30.439ZM10.823,36.47L8.286,42.952L13.359,42.952L10.823,36.47ZM10.823,36.47"/>
  <path stroke-opacity="1" stroke-miterlimit="4" y="0px" fill-rule="nonzero" fill-opacity="1" stroke-dasharray="none" x="0px" xml:space="preserve" xmlns:xlink="http://www.w3.org/1999/xlink" stroke-linecap="butt" version="1.1" stroke="none" stroke-width="1px" stroke-linejoin="miter" fill="#000000" d="M19.052,9.075L8.512,21.589L18.658,21.589L18.658,25.647L2.931,25.647L2.931,21.589L13.303,9.075L2.593,9.075L2.593,4.848L19.052,4.848L19.052,9.075ZM19.052,9.075"/>
  <path stroke="none" x="0px" stroke-miterlimit="4" stroke-opacity="1" fill-rule="evenodd" y="0px" fill="#000000" stroke-dasharray="none" stroke-width="1px" version="1.1" xml:space="preserve" xmlns:xlink="http://www.w3.org/1999/xlink" stroke-linecap="butt" fill-opacity="1" stroke-linejoin="miter" d="M37.259,37.992L45.489,50.675C45.996,51.464,46.842,51.464,47.349,50.675L55.579,37.992C56.086,37.203,55.692,36.583,54.733,36.583L50.055,36.583L50.055,7.215C50.055,5.919,48.984,4.848,47.687,4.848L45.151,4.848C43.854,4.848,42.783,5.919,42.783,7.215L42.783,36.583L38.105,36.583C37.146,36.583,36.752,37.203,37.259,37.992ZM37.259,37.992"/>
  <path version="1.1" xml:space="preserve" y="0px" fill-opacity="1" fill="#000000" stroke-linejoin="miter" stroke-width="1px" stroke="none" fill-rule="evenodd" stroke-linecap="butt" xmlns:xlink="http://www.w3.org/1999/xlink" stroke-opacity="1" stroke-dasharray="none" x="0px" stroke-miterlimit="4" d="M38.161,18.15L29.931,5.468C29.424,4.679,28.579,4.679,28.071,5.468L19.842,18.094C19.334,18.883,19.729,19.503,20.687,19.503L25.366,19.503L25.366,48.871C25.366,50.167,26.437,51.238,27.733,51.238L30.27,51.238C31.566,51.238,32.637,50.167,32.637,48.871L32.637,19.503L37.316,19.503C38.274,19.56,38.668,18.94,38.161,18.15ZM38.161,18.15"/>
</g>
  <g id="Light-M" transform="matrix(1.0,0.0,0.0,1.0,1126.2360156250002,1055.5400390625)">  <path stroke-miterlimit="4" stroke-linejoin="miter" fill-rule="nonzero" fill="#000000" stroke="none" fill-opacity="1" stroke-width="1px" xmlns:xlink="http://www.w3.org/1999/xlink" stroke-dasharray="none" xml:space="preserve" x="0px" y="0px" stroke-opacity="1" version="1.1" stroke-linecap="butt" d="M9.019,30.439L12.796,30.439L21.814,51.238L16.685,51.238L14.881,46.842L6.821,46.842L5.073,51.238L0,51.238L9.019,30.439ZM10.823,36.47L8.286,42.952L13.359,42.952L10.823,36.47ZM10.823,36.47"/>
  <path version="1.1" fill-opacity="1" xmlns:xlink="http://www.w3.org/1999/xlink" fill-rule="nonzero" stroke-linejoin="miter" fill="#000000" y="0px" stroke-dasharray="none" stroke-width="1px" xml:space="preserve" stroke-linecap="butt" x="0px" stroke-miterlimit="4" stroke="none" stroke-opacity="1" d="M19.052,9.075L8.512,21.589L18.658,21.589L18.658,25.647L2.931,25.647L2.931,21.589L13.303,9.075L2.593,9.075L2.593,4.848L19.052,4.848L19.052,9.075ZM19.052,9.075"/>
  <path fill="#000000" xmlns:xlink="http://www.w3.org/1999/xlink" stroke-dasharray="none" stroke-linecap="butt" stroke-linejoin="miter" fill-opacity="1" fill-rule="evenodd" stroke-opacity="1" stroke-width="1px" y="0px" version="1.1" x="0px" stroke-miterlimit="4" xml:space="preserve" stroke="none" d="M37.259,37.992L45.489,50.675C45.996,51.464,46.842,51.464,47.349,50.675L55.579,37.992C56.086,37.203,55.692,36.583,54.733,36.583L50.055,36.583L50.055,7.215C50.055,5.919,48.984,4.848,47.687,4.848L45.151,4.848C43.854,4.848,42.783,5.919,42.783,7.215L42.783,36.583L38.105,36.583C37.146,36.583,36.752,37.203,37.259,37.992ZM37.259,37.992"/>
  <path fill="#000000" x="0px" stroke-linecap="butt" stroke-dasharray="none" xmlns:xlink="http://www.w3.org/1999/xlink" stroke-linejoin="miter" fill-opacity="1" version="1.1" y="0px" stroke-miterlimit="4" stroke="none" stroke-opacity="1" stroke-width="1px" xml:space="preserve" fill-rule="evenodd" d="M38.161,18.15L29.931,5.468C29.424,4.679,28.579,4.679,28.071,5.468L19.842,18.094C19.334,18.883,19.729,19.503,20.687,19.503L25.366,19.503L25.366,48.871C25.366,50.167,26.437,51.238,27.733,51.238L30.27,51.238C31.566,51.238,32.637,50.167,32.637,48.871L32.637,19.503L37.316,19.503C38.274,19.56,38.668,18.94,38.161,18.15ZM38.161,18.15"/>
</g>
  <g id="Thin-M" transform="matrix(1.0,0.0,0.0,1.0,829.526015625,1055.5400390625)">  <path stroke-linecap="butt" stroke="none" xml:space="preserve" stroke-width="1px" fill="#000000" y="0px" stroke-linejoin="miter" x="0px" version="1.1" fill-rule="nonzero" stroke-dasharray="none" stroke-opacity="1" fill-opacity="1" stroke-miterlimit="4" xmlns:xlink="http://www.w3.org/1999/xlink" d="M9.019,30.439L12.796,30.439L21.814,51.238L16.685,51.238L14.881,46.842L6.821,46.842L5.073,51.238L0,51.238L9.019,30.439ZM10.823,36.47L8.286,42.952L13.359,42.952L10.823,36.47ZM10.823,36.47"/>
  <path x="0px" stroke-linejoin="miter" version="1.1" stroke-width="1px" stroke-dasharray="none" stroke-miterlimit="4" fill-rule="nonzero" fill="#000000" stroke-opacity="1" stroke-linecap="butt" xmlns:xlink="http://www.w3.org/1999/xlink" xml:space="preserve" y="0px" stroke="none" fill-opacity="1" d="M19.052,9.075L8.512,21.589L18.658,21.589L18.658,25.647L2.931,25.647L2.931,21.589L13.303,9.075L2.593,9.075L2.593,4.848L19.052,4.848L19.052,9.075ZM19.052,9.075"/>
  <path stroke-width="1px" fill-opacity="1" stroke-opacity="1" xml:space="preserve" stroke="none" stroke-linejoin="miter" y="0px" fill="#000000" version="1.1" xmlns:xlink="http://www.w3.org/1999/xlink" x="0px" stroke-dasharray="none" fill-rule="evenodd" stroke-linecap="butt" stroke-miterlimit="4" d="M37.259,37.992L45.489,50.675C45.996,51.464,46.842,51.464,47.349,50.675L55.579,37.992C56.086,37.203,55.692,36.583,54.733,36.583L50.055,36.583L50.055,7.215C50.055,5.919,48.984,4.848,47.687,4.848L45.151,4.848C43.854,4.848,42.783,5.919,42.783,7.215L42.783,36.583L38.105,36.583C37.146,36.583,36.752,37.203,37.259,37.992ZM37.259,37.992"/>
  <path version="1.1" fill-rule="evenodd" xml:space="preserve" stroke-linejoin="miter" stroke-linecap="butt" stroke-dasharray="none" stroke-miterlimit="4" stroke="none" x="0px" fill="#000000" stroke-opacity="1" y="0px" xmlns:xlink="http://www.w3.org/1999/xlink" fill-opacity="1" stroke-width="1px" d="M38.161,18.15L29.931,5.468C29.424,4.679,28.579,4.679,28.071,5.468L19.842,18.094C19.334,18.883,19.729,19.503,20.687,19.503L25.366,19.503L25.366,48.871C25.366,50.167,26.437,51.238,27.733,51.238L30.27,51.238C31.566,51.238,32.637,50.167,32.637,48.871L32.637,19.503L37.316,19.503C38.274,19.56,38.668,18.94,38.161,18.15ZM38.161,18.15"/>
</g>
  <g id="Ultralight-M" transform="matrix(1.0,0.0,0.0,1.0,532.816015625,1055.5400390625)">  <path xmlns:xlink="http://www.w3.org/1999/xlink" y="0px" xml:space="preserve" version="1.1" fill-opacity="1" stroke-linejoin="miter" stroke="none" stroke-width="1px" stroke-miterlimit="4" stroke-dasharray="none" stroke-linecap="butt" fill="#000000" x="0px" stroke-opacity="1" fill-rule="nonzero" d="M9.019,30.439L12.796,30.439L21.814,51.238L16.685,51.238L14.881,46.842L6.821,46.842L5.073,51.238L0,51.238L9.019,30.439ZM10.823,36.47L8.286,42.952L13.359,42.952L10.823,36.47ZM10.823,36.47"/>
  <path stroke-miterlimit="4" version="1.1" fill-rule="nonzero" xmlns:xlink="http://www.w3.org/1999/xlink" xml:space="preserve" fill="#000000" y="0px" x="0px" stroke-width="1px" stroke-opacity="1" stroke="none" fill-opacity="1" stroke-linecap="butt" stroke-dasharray="none" stroke-linejoin="miter" d="M19.052,9.075L8.512,21.589L18.658,21.589L18.658,25.647L2.931,25.647L2.931,21.589L13.303,9.075L2.593,9.075L2.593,4.848L19.052,4.848L19.052,9.075ZM19.052,9.075"/>
  <path stroke-linecap="butt" stroke-linejoin="miter" stroke-miterlimit="4" x="0px" fill="#000000" fill-rule="evenodd" fill-opacity="1" y="0px" xmlns:xlink="http://www.w3.org/1999/xlink" stroke-opacity="1" xml:space="preserve" stroke-dasharray="none" stroke-width="1px" version="1.1" stroke="none" d="M37.259,37.992L45.489,50.675C45.996,51.464,46.842,51.464,47.349,50.675L55.579,37.992C56.086,37.203,55.692,36.583,54.733,36.583L50.055,36.583L50.055,7.215C50.055,5.919,48.984,4.848,47.687,4.848L45.151,4.848C43.854,4.848,42.783,5.919,42.783,7.215L42.783,36.583L38.105,36.583C37.146,36.583,36.752,37.203,37.259,37.992ZM37.259,37.992"/>
  <path stroke-linejoin="miter" stroke-miterlimit="4" version="1.1" y="0px" fill="#000000" stroke-opacity="1" fill-opacity="1" stroke-linecap="butt" xml:space="preserve" stroke="none" fill-rule="evenodd" x="0px" stroke-dasharray="none" xmlns:xlink="http://www.w3.org/1999/xlink" stroke-width="1px" d="M38.161,18.15L29.931,5.468C29.424,4.679,28.579,4.679,28.071,5.468L19.842,18.094C19.334,18.883,19.729,19.503,20.687,19.503L25.366,19.503L25.366,48.871C25.366,50.167,26.437,51.238,27.733,51.238L30.27,51.238C31.566,51.238,32.637,50.167,32.637,48.871L32.637,19.503L37.316,19.503C38.274,19.56,38.668,18.94,38.161,18.15ZM38.161,18.15"/>
</g>
  <g id="Black-S" transform="matrix(1.0,0.0,0.0,1.0,2912.6119402343747,633.1849448242187)">  <path xml:space="preserve" stroke-width="1px" version="1.1" stroke-opacity="1" stroke-miterlimit="4" fill-opacity="1" xmlns:xlink="http://www.w3.org/1999/xlink" y="0px" stroke-linecap="butt" stroke-dasharray="none" stroke="none" stroke-linejoin="miter" fill="#000000" fill-rule="nonzero" x="0px" d="M7.062,23.834L10.019,23.834L17.081,40.12L13.064,40.12L11.652,36.677L5.34,36.677L3.972,40.12L0,40.12L7.062,23.834ZM8.474,28.556L6.488,33.632L10.46,33.632L8.474,28.556ZM8.474,28.556"/>
  <path version="1.1" stroke-dasharray="none" x="0px" stroke-linejoin="miter" fill-opacity="1" fill="#000000" stroke="none" stroke-width="1px" stroke-linecap="butt" stroke-miterlimit="4" y="0px" xml:space="preserve" xmlns:xlink="http://www.w3.org/1999/xlink" stroke-opacity="1" fill-rule="nonzero" d="M14.918,7.106L6.665,16.904L14.609,16.904L14.609,20.082L2.295,20.082L2.295,16.904L10.416,7.106L2.03,7.106L2.03,3.796L14.918,3.796L14.918,7.106ZM14.918,7.106"/>
  <path stroke-dasharray="none" stroke="none" xmlns:xlink="http://www.w3.org/1999/xlink" xml:space="preserve" stroke-linejoin="miter" fill-rule="evenodd" fill="#000000" stroke-width="1px" stroke-linecap="butt" fill-opacity="1" y="0px" stroke-miterlimit="4" stroke-opacity="1" x="0px" version="1.1" d="M29.174,29.748L35.618,39.678C36.015,40.296,36.677,40.296,37.074,39.678L43.518,29.748C43.915,29.13,43.606,28.644,42.856,28.644L39.193,28.644L39.193,5.649C39.193,4.634,38.354,3.796,37.339,3.796L35.353,3.796C34.338,3.796,33.499,4.634,33.499,5.649L33.499,28.644L29.836,28.644C29.086,28.644,28.777,29.13,29.174,29.748ZM29.174,29.748"/>
  <path stroke-linejoin="miter" xml:space="preserve" stroke-linecap="butt" stroke-dasharray="none" stroke="none" x="0px" fill="#000000" version="1.1" fill-opacity="1" y="0px" stroke-width="1px" fill-rule="evenodd" stroke-miterlimit="4" stroke-opacity="1" xmlns:xlink="http://www.w3.org/1999/xlink" d="M29.88,14.212L23.436,4.281C23.039,3.663,22.377,3.663,21.98,4.281L15.536,14.168C15.139,14.786,15.448,15.271,16.198,15.271L19.861,15.271L19.861,38.266C19.861,39.281,20.7,40.12,21.715,40.12L23.701,40.12C24.716,40.12,25.555,39.281,25.555,38.266L25.555,15.271L29.218,15.271C29.968,15.315,30.277,14.83,29.88,14.212ZM29.88,14.212"/>
</g>
  <g id="Heavy-S" transform="matrix(1.0,0.0,0.0,1.0,2615.9019402343747,633.1849448242187)">  <path xmlns:xlink="http://www.w3.org/1999/xlink" stroke="none" xml:space="preserve" fill-rule="nonzero" fill-opacity="1" stroke-linejoin="miter" stroke-linecap="butt" x="0px" stroke-width="1px" stroke-miterlimit="4" stroke-opacity="1" y="0px" fill="#000000" stroke-dasharray="none" version="1.1" d="M7.062,23.834L10.019,23.834L17.081,40.12L13.064,40.12L11.652,36.677L5.34,36.677L3.972,40.12L0,40.12L7.062,23.834ZM8.474,28.556L6.488,33.632L10.46,33.632L8.474,28.556ZM8.474,28.556"/>
  <path version="1.1" xml:space="preserve" stroke-linecap="butt" y="0px" stroke="none" stroke-linejoin="miter" stroke-dasharray="none" stroke-opacity="1" fill-opacity="1" stroke-miterlimit="4" x="0px" fill="#000000" stroke-width="1px" fill-rule="nonzero" xmlns:xlink="http://www.w3.org/1999/xlink" d="M14.918,7.106L6.665,16.904L14.609,16.904L14.609,20.082L2.295,20.082L2.295,16.904L10.416,7.106L2.03,7.106L2.03,3.796L14.918,3.796L14.918,7.106ZM14.918,7.106"/>
  <path stroke-miterlimit="4" xml:space="preserve" stroke-opacity="1" fill-opacity="1" fill="#000000" stroke-width="1px" xmlns:xlink="http://www.w3.org/1999/xlink" stroke-linejoin="miter" y="0px" x="0px" stroke-dasharray="none" stroke-linecap="butt" fill-rule="evenodd" version="1.1" stroke="none" d="M29.174,29.748L35.618,39.678C36.015,40.296,36.677,40.296,37.074,39.678L43.518,29.748C43.915,29.13,43.606,28.644,42.856,28.644L39.193,28.644L39.193,5.649C39.193,4.634,38.354,3.796,37.339,3.796L35.353,3.796C34.338,3.796,33.499,4.634,33.499,5.649L33.499,28.644L29.836,28.644C29.086,28.644,28.777,29.13,29.174,29.748ZM29.174,29.748"/>
  <path xmlns:xlink="http://www.w3.org/1999/xlink" y="0px" stroke="none" stroke-linejoin="miter" fill-rule="evenodd" stroke-dasharray="none" fill-opacity="1" fill="#000000" xml:space="preserve" stroke-width="1px" x="0px" stroke-miterlimit="4" stroke-opacity="1" version="1.1" stroke-linecap="butt" d="M29.88,14.212L23.436,4.281C23.039,3.663,22.377,3.663,21.98,4.281L15.536,14.168C15.139,14.786,15.448,15.271,16.198,15.271L19.861,15.271L19.861,38.266C19.861,39.281,20.7,40.12,21.715,40.12L23.701,40.12C24.716,40.12,25.555,39.281,25.555,38.266L25.555,15.271L29.218,15.271C29.968,15.315,30.277,14.83,29.88,14.212ZM29.88,14.212"/>
</g>
  <g id="Bold-S" transform="matrix(1.0,0.0,0.0,1.0,2319.1919402343747,633.1849448242187)">  <path fill="#000000" stroke-dasharray="none" stroke-linejoin="miter" stroke-miterlimit="4" stroke-width="1px" fill-opacity="1" stroke-linecap="butt" xmlns:xlink="http://www.w3.org/1999/xlink" x="0px" fill-rule="nonzero" version="1.1" y="0px" stroke="none" xml:space="preserve" stroke-opacity="1" d="M7.062,23.834L10.019,23.834L17.081,40.12L13.064,40.12L11.652,36.677L5.34,36.677L3.972,40.12L0,40.12L7.062,23.834ZM8.474,28.556L6.488,33.632L10.46,33.632L8.474,28.556ZM8.474,28.556"/>
  <path stroke-linecap="butt" y="0px" xml:space="preserve" stroke-width="1px" stroke-linejoin="miter" fill-opacity="1" x="0px" xmlns:xlink="http://www.w3.org/1999/xlink" stroke-miterlimit="4" stroke="none" fill="#000000" stroke-opacity="1" version="1.1" fill-rule="nonzero" stroke-dasharray="none" d="M14.918,7.106L6.665,16.904L14.609,16.904L14.609,20.082L2.295,20.082L2.295,16.904L10.416,7.106L2.03,7.106L2.03,3.796L14.918,3.796L14.918,7.106ZM14.918,7.106"/>
  <path stroke="none" xmlns:xlink="http://www.w3.org/1999/xlink" stroke-dasharray="none" fill-rule="evenodd" y="0px" stroke-linejoin="miter" stroke-miterlimit="4" fill="#000000" xml:space="preserve" fill-opacity="1" stroke-width="1px" version="1.1" stroke-linecap="butt" stroke-opacity="1" x="0px" d="M29.174,29.748L35.618,39.678C36.015,40.296,36.677,40.296,37.074,39.678L43.518,29.748C43.915,29.13,43.606,28.644,42.856,28.644L39.193,28.644L39.193,5.649C39.193,4.634,38.354,3.796,37.339,3.796L35.353,3.796C34.338,3.796,33.499,4.634,33.499,5.649L33.499,28.644L29.836,28.644C29.086,28.644,28.777,29.13,29.174,29.748ZM29.174,29.748"/>
  <path stroke-width="1px" y="0px" stroke="none" xml:space="preserve" stroke-opacity="1" stroke-dasharray="none" stroke-miterlimit="4" fill="#000000" version="1.1" stroke-linejoin="miter" stroke-linecap="butt" x="0px" fill-opacity="1" fill-rule="evenodd" xmlns:xlink="http://www.w3.org/1999/xlink" d="M29.88,14.212L23.436,4.281C23.039,3.663,22.377,3.663,21.98,4.281L15.536,14.168C15.139,14.786,15.448,15.271,16.198,15.271L19.861,15.271L19.861,38.266C19.861,39.281,20.7,40.12,21.715,40.12L23.701,40.12C24.716,40.12,25.555,39.281,25.555,38.266L25.555,15.271L29.218,15.271C29.968,15.315,30.277,14.83,29.88,14.212ZM29.88,14.212"/>
</g>
  <g id="Semibold-S" transform="matrix(1.0,0.0,0.0,1.0,2022.4819402343749,633.1849448242187)">  <path y="0px" fill-rule="nonzero" xmlns:xlink="http://www.w3.org/1999/xlink" version="1.1" stroke-width="1px" stroke-opacity="1" stroke-linecap="butt" fill-opacity="1" xml:space="preserve" x="0px" stroke-dasharray="none" stroke-linejoin="miter" stroke="none" stroke-miterlimit="4" fill="#000000" d="M7.062,23.834L10.019,23.834L17.081,40.12L13.064,40.12L11.652,36.677L5.34,36.677L3.972,40.12L0,40.12L7.062,23.834ZM8.474,28.556L6.488,33.632L10.46,33.632L8.474,28.556ZM8.474,28.556"/>
  <path stroke="none" fill-rule="nonzero" fill-opacity="1" stroke-miterlimit="4" y="0px" stroke-opacity="1" stroke-dasharray="none" stroke-linejoin="miter" stroke-width="1px" xml:space="preserve" fill="#000000" stroke-linecap="butt" x="0px" version="1.1" xmlns:xlink="http://www.w3.org/1999/xlink" d="M14.918,7.106L6.665,16.904L14.609,16.904L14.609,20.082L2.295,20.082L2.295,16.904L10.416,7.106L2.03,7.106L2.03,3.796L14.918,3.796L14.918,7.106ZM14.918,7.106"/>
  <path xmlns:xlink="http://www.w3.org/1999/xlink" stroke-opacity="1" fill="#000000" stroke-width="1px" fill-opacity="1" y="0px" stroke-linejoin="miter" fill-rule="evenodd" version="1.1" stroke-dasharray="none" xml:space="preserve" stroke-miterlimit="4" x="0px" stroke="none" stroke-linecap="butt" d="M29.174,29.748L35.618,39.678C36.015,40.296,36.677,40.296,37.074,39.678L43.518,29.748C43.915,29.13,43.606,28.644,42.856,28.644L39.193,28.644L39.193,5.649C39.193,4.634,38.354,3.796,37.339,3.796L35.353,3.796C34.338,3.796,33.499,4.634,33.499,5.649L33.499,28.644L29.836,28.644C29.086,28.644,28.777,29.13,29.174,29.748ZM29.174,29.748"/>
  <path version="1.1" stroke-miterlimit="4" xml:space="preserve" xmlns:xlink="http://www.w3.org/1999/xlink" fill="#000000" y="0px" stroke-width="1px" fill-rule="evenodd" stroke-linejoin="miter" stroke="none" x="0px" stroke-linecap="butt" stroke-dasharray="none" stroke-opacity="1" fill-opacity="1" d="M29.88,14.212L23.436,4.281C23.039,3.663,22.377,3.663,21.98,4.281L15.536,14.168C15.139,14.786,15.448,15.271,16.198,15.271L19.861,15.271L19.861,38.266C19.861,39.281,20.7,40.12,21.715,40.12L23.701,40.12C24.716,40.12,25.555,39.281,25.555,38.266L25.555,15.271L29.218,15.271C29.968,15.315,30.277,14.83,29.88,14.212ZM29.88,14.212"/>
</g>
  <g id="Medium-S" transform="matrix(1.0,0.0,0.0,1.0,1725.7719402343748,633.1849448242187)">  <path fill="#000000" xmlns:xlink="http://www.w3.org/1999/xlink" y="0px" stroke-width="1px" stroke-linecap="butt" stroke-dasharray="none" stroke-linejoin="miter" stroke="none" fill-opacity="1" fill-rule="nonzero" stroke-opacity="1" x="0px" version="1.1" xml:space="preserve" stroke-miterlimit="4" d="M7.062,23.834L10.019,23.834L17.081,40.12L13.064,40.12L11.652,36.677L5.34,36.677L3.972,40.12L0,40.12L7.062,23.834ZM8.474,28.556L6.488,33.632L10.46,33.632L8.474,28.556ZM8.474,28.556"/>
  <path stroke-dasharray="none" xmlns:xlink="http://www.w3.org/1999/xlink" stroke="none" version="1.1" xml:space="preserve" stroke-linejoin="miter" fill="#000000" fill-opacity="1" stroke-opacity="1" y="0px" stroke-miterlimit="4" stroke-linecap="butt" stroke-width="1px" fill-rule="nonzero" x="0px" d="M14.918,7.106L6.665,16.904L14.609,16.904L14.609,20.082L2.295,20.082L2.295,16.904L10.416,7.106L2.03,7.106L2.03,3.796L14.918,3.796L14.918,7.106ZM14.918,7.106"/>
  <path stroke-dasharray="none" stroke="none" stroke-opacity="1" fill-rule="evenodd" xmlns:xlink="http://www.w3.org/1999/xlink" stroke-linejoin="miter" fill="#000000" x="0px" stroke-width="1px" version="1.1" fill-opacity="1" xml:space="preserve" y="0px" stroke-linecap="butt" stroke-miterlimit="4" d="M29.174,29.748L35.618,39.678C36.015,40.296,36.677,40.296,37.074,39.678L43.518,29.748C43.915,29.13,43.606,28.644,42.856,28.644L39.193,28.644L39.193,5.649C39.193,4.634,38.354,3.796,37.339,3.796L35.353,3.796C34.338,3.796,33.499,4.634,33.499,5.649L33.499,28.644L29.836,28.644C29.086,28.644,28.777,29.13,29.174,29.748ZM29.174,29.748"/>
  <path stroke-linejoin="miter" fill-opacity="1" stroke-linecap="butt" stroke-width="1px" fill="#000000" xmlns:xlink="http://www.w3.org/1999/xlink" stroke-miterlimit="4" stroke-dasharray="none" fill-rule="evenodd" stroke-opacity="1" version="1.1" stroke="none" y="0px" x="0px" xml:space="preserve" d="M29.88,14.212L23.436,4.281C23.039,3.663,22.377,3.663,21.98,4.281L15.536,14.168C15.139,14.786,15.448,15.271,16.198,15.271L19.861,15.271L19.861,38.266C19.861,39.281,20.7,40.12,21.715,40.12L23.701,40.12C24.716,40.12,25.555,39.281,25.555,38.266L25.555,15.271L29.218,15.271C29.968,15.315,30.277,14.83,29.88,14.212ZM29.88,14.212"/>
</g>
  <g id="Regular-S" transform="matrix(1.0,0.0,0.0,1.0,1429.0619402343748,633.1849448242187)">  <path y="0px" stroke-width="1px" stroke-miterlimit="4" x="0px" version="1.1" stroke-linejoin="miter" stroke="none" xmlns:xlink="http://www.w3.org/1999/xlink" stroke-opacity="1" xml:space="preserve" fill="#000000" fill-rule="nonzero" stroke-linecap="butt" stroke-dasharray="none" fill-opacity="1" d="M7.062,23.834L10.019,23.834L17.081,40.12L13.064,40.12L11.652,36.677L5.34,36.677L3.972,40.12L0,40.12L7.062,23.834ZM8.474,28.556L6.488,33.632L10.46,33.632L8.474,28.556ZM8.474,28.556"/>
  <path stroke-opacity="1" stroke-miterlimit="4" y="0px" fill-rule="nonzero" fill-opacity="1" stroke-dasharray="none" x="0px" xml:space="preserve" xmlns:xlink="http://www.w3.org/1999/xlink" stroke-linecap="butt" version="1.1" stroke="none" stroke-width="1px" stroke-linejoin="miter" fill="#000000" d="M14.918,7.106L6.665,16.904L14.609,16.904L14.609,20.082L2.295,20.082L2.295,16.904L10.416,7.106L2.03,7.106L2.03,3.796L14.918,3.796L14.918,7.106ZM14.918,7.106"/>
  <path stroke="none" x="0px" stroke-miterlimit="4" stroke-opacity="1" fill-rule="evenodd" y="0px" fill="#000000" stroke-dasharray="none" stroke-width="1px" version="1.1" xml:space="preserve" xmlns:xlink="http://www.w3.org/1999/xlink" stroke-linecap="butt" fill-opacity="1" stroke-linejoin="miter" d="M29.174,29.748L35.618,39.678C36.015,40.296,36.677,40.296,37.074,39.678L43.518,29.748C43.915,29.13,43.606,28.644,42.856,28.644L39.193,28.644L39.193,5.649C39.193,4.634,38.354,3.796,37.339,3.796L35.353,3.796C34.338,3.796,33.499,4.634,33.499,5.649L33.499,28.644L29.836,28.644C29.086,28.644,28.777,29.13,29.174,29.748ZM29.174,29.748"/>
  <path version="1.1" xml:space="preserve" y="0px" fill-opacity="1" fill="#000000" stroke-linejoin="miter" stroke-width="1px" stroke="none" fill-rule="evenodd" stroke-linecap="butt" xmlns:xlink="http://www.w3.org/1999/xlink" stroke-opacity="1" stroke-dasharray="none" x="0px" stroke-miterlimit="4" d="M29.88,14.212L23.436,4.281C23.039,3.663,22.377,3.663,21.98,4.281L15.536,14.168C15.139,14.786,15.448,15.271,16.198,15.271L19.861,15.271L19.861,38.266C19.861,39.281,20.7,40.12,21.715,40.12L23.701,40.12C24.716,40.12,25.555,39.281,25.555,38.266L25.555,15.271L29.218,15.271C29.968,15.315,30.277,14.83,29.88,14.212ZM29.88,14.212"/>
</g>
  <g id="Light-S" transform="matrix(1.0,0.0,0.0,1.0,1132.351940234375,633.1849448242187)">  <path stroke-miterlimit="4" stroke-linejoin="miter" fill-rule="nonzero" fill="#000000" stroke="none" fill-opacity="1" stroke-width="1px" xmlns:xlink="http://www.w3.org/1999/xlink" stroke-dasharray="none" xml:space="preserve" x="0px" y="0px" stroke-opacity="1" version="1.1" stroke-linecap="butt" d="M7.062,23.834L10.019,23.834L17.081,40.12L13.064,40.12L11.652,36.677L5.34,36.677L3.972,40.12L0,40.12L7.062,23.834ZM8.474,28.556L6.488,33.632L10.46,33.632L8.474,28.556ZM8.474,28.556"/>
  <path version="1.1" fill-opacity="1" xmlns:xlink="http://www.w3.org/1999/xlink" fill-rule="nonzero" stroke-linejoin="miter" fill="#000000" y="0px" stroke-dasharray="none" stroke-width="1px" xml:space="preserve" stroke-linecap="butt" x="0px" stroke-miterlimit="4" stroke="none" stroke-opacity="1" d="M14.918,7.106L6.665,16.904L14.609,16.904L14.609,20.082L2.295,20.082L2.295,16.904L10.416,7.106L2.03,7.106L2.03,3.796L14.918,3.796L14.918,7.106ZM14.918,7.106"/>
  <path fill="#000000" xmlns:xlink="http://www.w3.org/1999/xlink" stroke-dasharray="none" stroke-linecap="butt" stroke-linejoin="miter" fill-opacity="1" fill-rule="evenodd" stroke-opacity="1" stroke-width="1px" y="0px" version="1.1" x="0px" stroke-miterlimit="4" xml:space="preserve" stroke="none" d="M29.174,29.748L35.618,39.678C36.015,40.296,36.677,40.296,37.074,39.678L43.518,29.748C43.915,29.13,43.606,28.644,42.856,28.644L39.193,28.644L39.193,5.649C39.193,4.634,38.354,3.796,37.339,3.796L35.353,3.796C34.338,3.796,33.499,4.634,33.499,5.649L33.499,28.644L29.836,28.644C29.086,28.644,28.777,29.13,29.174,29.748ZM29.174,29.748"/>
  <path fill="#000000" x="0px" stroke-linecap="butt" stroke-dasharray="none" xmlns:xlink="http://www.w3.org/1999/xlink" stroke-linejoin="miter" fill-opacity="1" version="1.1" y="0px" stroke-miterlimit="4" stroke="none" stroke-opacity="1" stroke-width="1px" xml:space="preserve" fill-rule="evenodd" d="M29.88,14.212L23.436,4.281C23.039,3.663,22.377,3.663,21.98,4.281L15.536,14.168C15.139,14.786,15.448,15.271,16.198,15.271L19.861,15.271L19.861,38.266C19.861,39.281,20.7,40.12,21.715,40.12L23.701,40.12C24.716,40.12,25.555,39.281,25.555,38.266L25.555,15.271L29.218,15.271C29.968,15.315,30.277,14.83,29.88,14.212ZM29.88,14.212"/>
</g>
  <g id="Thin-S" transform="matrix(1.0,0.0,0.0,1.0,835.641940234375,633.1849448242187)">  <path stroke-linecap="butt" stroke="none" xml:space="preserve" stroke-width="1px" fill="#000000" y="0px" stroke-linejoin="miter" x="0px" version="1.1" fill-rule="nonzero" stroke-dasharray="none" stroke-opacity="1" fill-opacity="1" stroke-miterlimit="4" xmlns:xlink="http://www.w3.org/1999/xlink" d="M7.062,23.834L10.019,23.834L17.081,40.12L13.064,40.12L11.652,36.677L5.34,36.677L3.972,40.12L0,40.12L7.062,23.834ZM8.474,28.556L6.488,33.632L10.46,33.632L8.474,28.556ZM8.474,28.556"/>
  <path x="0px" stroke-linejoin="miter" version="1.1" stroke-width="1px" stroke-dasharray="none" stroke-miterlimit="4" fill-rule="nonzero" fill="#000000" stroke-opacity="1" stroke-linecap="butt" xmlns:xlink="http://www.w3.org/1999/xlink" xml:space="preserve" y="0px" stroke="none" fill-opacity="1" d="M14.918,7.106L6.665,16.904L14.609,16.904L14.609,20.082L2.295,20.082L2.295,16.904L10.416,7.106L2.03,7.106L2.03,3.796L14.918,3.796L14.918,7.106ZM14.918,7.106"/>
  <path stroke-width="1px" fill-opacity="1" stroke-opacity="1" xml:space="preserve" stroke="none" stroke-linejoin="miter" y="0px" fill="#000000" version="1.1" xmlns:xlink="http://www.w3.org/1999/xlink" x="0px" stroke-dasharray="none" fill-rule="evenodd" stroke-linecap="butt" stroke-miterlimit="4" d="M29.174,29.748L35.618,39.678C36.015,40.296,36.677,40.296,37.074,39.678L43.518,29.748C43.915,29.13,43.606,28.644,42.856,28.644L39.193,28.644L39.193,5.649C39.193,4.634,38.354,3.796,37.339,3.796L35.353,3.796C34.338,3.796,33.499,4.634,33.499,5.649L33.499,28.644L29.836,28.644C29.086,28.644,28.777,29.13,29.174,29.748ZM29.174,29.748"/>
  <path version="1.1" fill-rule="evenodd" xml:space="preserve" stroke-linejoin="miter" stroke-linecap="butt" stroke-dasharray="none" stroke-miterlimit="4" stroke="none" x="0px" fill="#000000" stroke-opacity="1" y="0px" xmlns:xlink="http://www.w3.org/1999/xlink" fill-opacity="1" stroke-width="1px" d="M29.88,14.212L23.436,4.281C23.039,3.663,22.377,3.663,21.98,4.281L15.536,14.168C15.139,14.786,15.448,15.271,16.198,15.271L19.861,15.271L19.861,38.266C19.861,39.281,20.7,40.12,21.715,40.12L23.701,40.12C24.716,40.12,25.555,39.281,25.555,38.266L25.555,15.271L29.218,15.271C29.968,15.315,30.277,14.83,29.88,14.212ZM29.88,14.212"/>
</g>
  <g id="Ultralight-S" transform="matrix(1.0,0.0,0.0,1.0,538.931940234375,633.1849448242187)">  <path xmlns:xlink="http://www.w3.org/1999/xlink" y="0px" xml:space="preserve" version="1.1" fill-opacity="1" stroke-linejoin="miter" stroke="none" stroke-width="1px" stroke-miterlimit="4" stroke-dasharray="none" stroke-linecap="butt" fill="#000000" x="0px" stroke-opacity="1" fill-rule="nonzero" d="M7.062,23.834L10.019,23.834L17.081,40.12L13.064,40.12L11.652,36.677L5.34,36.677L3.972,40.12L0,40.12L7.062,23.834ZM8.474,28.556L6.488,33.632L10.46,33.632L8.474,28.556ZM8.474,28.556"/>
  <path stroke-miterlimit="4" version="1.1" fill-rule="nonzero" xmlns:xlink="http://www.w3.org/1999/xlink" xml:space="preserve" fill="#000000" y="0px" x="0px" stroke-width="1px" stroke-opacity="1" stroke="none" fill-opacity="1" stroke-linecap="butt" stroke-dasharray="none" stroke-linejoin="miter" d="M14.918,7.106L6.665,16.904L14.609,16.904L14.609,20.082L2.295,20.082L2.295,16.904L10.416,7.106L2.03,7.106L2.03,3.796L14.918,3.796L14.918,7.106ZM14.918,7.106"/>
  <path stroke-linecap="butt" stroke-linejoin="miter" stroke-miterlimit="4" x="0px" fill="#000000" fill-rule="evenodd" fill-opacity="1" y="0px" xmlns:xlink="http://www.w3.org/1999/xlink" stroke-opacity="1" xml:space="preserve" stroke-dasharray="none" stroke-width="1px" version="1.1" stroke="none" d="M29.174,29.748L35.618,39.678C36.015,40.296,36.677,40.296,37.074,39.678L43.518,29.748C43.915,29.13,43.606,28.644,42.856,28.644L39.193,28.644L39.193,5.649C39.193,4.634,38.354,3.796,37.339,3.796L35.353,3.796C34.338,3.796,33.499,4.634,33.499,5.649L33.499,28.644L29.836,28.644C29.086,28.644,28.777,29.13,29.174,29.748ZM29.174,29.748"/>
  <path stroke-linejoin="miter" stroke-miterlimit="4" version="1.1" y="0px" fill="#000000" stroke-opacity="1" fill-opacity="1" stroke-linecap="butt" xml:space="preserve" stroke="none" fill-rule="evenodd" x="0px" stroke-dasharray="none" xmlns:xlink="http://www.w3.org/1999/xlink" stroke-width="1px" d="M29.88,14.212L23.436,4.281C23.039,3.663,22.377,3.663,21.98,4.281L15.536,14.168C15.139,14.786,15.448,15.271,16.198,15.271L19.861,15.271L19.861,38.266C19.861,39.281,20.7,40.12,21.715,40.12L23.701,40.12C24.716,40.12,25.555,39.281,25.555,38.266L25.555,15.271L29.218,15.271C29.968,15.315,30.277,14.83,29.88,14.212ZM29.88,14.212"/>
</g>
 </g>
</svg>
