<?xml version="1.0" encoding="utf-8"?>
<!-- Generator: Adobe Illustrator 24.0.1, SVG Export Plug-In . SVG Version: 6.00 Build 0)  -->
<svg version="1.1"
	 id="Layer_1" xmlns:cc="http://creativecommons.org/ns#" xmlns:dc="http://purl.org/dc/elements/1.1/" xmlns:inkscape="http://www.inkscape.org/namespaces/inkscape" xmlns:rdf="http://www.w3.org/1999/02/22-rdf-syntax-ns#" xmlns:sodipodi="http://sodipodi.sourceforge.net/DTD/sodipodi-0.dtd" xmlns:svg="http://www.w3.org/2000/svg"
	 xmlns="http://www.w3.org/2000/svg" xmlns:xlink="http://www.w3.org/1999/xlink" x="0px" y="0px" viewBox="0 0 31.7 30.5"
	 style="enable-background:new 0 0 31.7 30.5;" xml:space="preserve">
<style type="text/css">
	.st0{fill-rule:evenodd;clip-rule:evenodd;}
</style>
<g transform="translate(0,-952.36218)">
	<path class="st0" d="M21.9,978c1.1,0,2.2-0.2,3-0.6c0.8-0.4,1.3-0.9,1.3-1.6c0-0.4-0.2-0.8-0.6-1.1c0,0,0,0,0,0l-6.9-6.8l4.7-9.2
		c0.1-0.1,0-0.3-0.1-0.3c-0.1,0-0.2,0-0.3,0l-6.9,6.9l-6.9-6.9c-0.1-0.1-0.2-0.1-0.3,0c-0.1,0.1-0.1,0.2,0,0.3l4.7,9.2l-6.9,6.9
		c0,0,0,0,0,0l0,0c0,0,0,0,0,0c-0.3,0.3-0.4,0.6-0.4,1c0,0.7,0.5,1.2,1.3,1.6s1.8,0.6,3,0.6c1.1,0,2.2-0.2,3-0.6
		c0.7-0.4,1.2-0.9,1.3-1.5c0,0,0,0,0-0.1l1.5-2.9l1.5,2.9c0,0,0,0,0,0.1c0.1,0.6,0.6,1.1,1.3,1.5C19.8,977.8,20.8,978,21.9,978
		L21.9,978z M21.9,977.5c-1.1,0-2.1-0.2-2.7-0.6c-0.7-0.3-1.1-0.8-1.1-1.2s0.4-0.9,1.1-1.2c0.7-0.3,1.7-0.6,2.7-0.6
		c1.1,0,2.1,0.2,2.7,0.6c0.3,0.1,0.5,0.3,0.7,0.4l0.1,0.1c0.2,0.2,0.3,0.5,0.3,0.7c0,0.4-0.4,0.9-1.1,1.2
		C24,977.3,23,977.5,21.9,977.5z M10.4,977.5c-1.1,0-2.1-0.2-2.7-0.6s-1.1-0.8-1.1-1.2s0.4-0.9,1.1-1.2s1.7-0.6,2.7-0.6
		c1.1,0,2.1,0.2,2.7,0.6c0.7,0.3,1.1,0.8,1.1,1.2s-0.4,0.9-1.1,1.2C12.5,977.3,11.5,977.5,10.4,977.5z M17.8,975.1l-1.4-2.7l2.1-4.2
		l5.6,5.6c-0.7-0.2-1.4-0.3-2.2-0.3c-1.1,0-2.2,0.2-3,0.6C18.5,974.4,18,974.7,17.8,975.1z M14.5,975.1c-0.2-0.4-0.6-0.8-1.2-1
		c-0.8-0.4-1.8-0.6-3-0.6c-0.8,0-1.6,0.1-2.2,0.3l5.6-5.6l2.1,4.2L14.5,975.1L14.5,975.1z M16.2,971.9l-2-4l2-2l2,2
		C18.2,967.9,16.2,971.9,16.2,971.9z M18.4,967.4l-1.9-1.9l5.9-5.8L18.4,967.4L18.4,967.4z M13.9,967.4l-4-7.8l5.9,5.8L13.9,967.4
		L13.9,967.4z"/>
</g>
<text transform="matrix(1 0 0 1 -34.16 72.7808)" style="font-family:'HelveticaNeue-Bold'; font-size:5px;">Created by chabib ali machbubi</text>
<text transform="matrix(1 0 0 1 -34.16 77.7808)" style="font-family:'HelveticaNeue-Bold'; font-size:5px;">from the Noun Project</text>
</svg>
