<?xml version="1.0" encoding="utf-8"?>
<!-- Generator: Adobe Illustrator 24.0.1, SVG Export Plug-In . SVG Version: 6.00 Build 0)  -->
<svg version="1.1" id="Layer_1" xmlns="http://www.w3.org/2000/svg" xmlns:xlink="http://www.w3.org/1999/xlink" x="0px" y="0px"
	 viewBox="0 0 20 20" style="enable-background:new 0 0 20 20;" xml:space="preserve">
<style type="text/css">
	.st0{fill:#4E707B;}
	.st1{fill:#33C6D4;}
	.st2{fill-rule:evenodd;clip-rule:evenodd;fill:#4E707B;}
	.st3{fill-rule:evenodd;clip-rule:evenodd;fill:#33C6D4;}
</style>
<path class="st0" d="M4.6,11.5H3.2L0,20h1.8l0.7-1.8h2.9L6,20h1.8L4.6,11.5z M3.9,14l0.9,2.6H3L3.9,14z"/>
<path class="st1" d="M6.9,2.7L3.1,7.8h3.6v1.7H1.2V7.8l3.7-5.1H1V1h5.9V2.7z"/>
<path class="st2" d="M13.4,7h-1.7v12c0,0.5-0.4,1-0.8,1h-1c-0.4,0-0.8-0.4-0.8-1V7H7.4C7.1,7,6.9,6.7,7.1,6.4L10,1.2
	c0.2-0.3,0.5-0.3,0.7,0l2.9,5.2C13.9,6.8,13.7,7,13.4,7z"/>
<path class="st3" d="M13.7,14.1h1.7v-12c0-0.5,0.4-1,0.8-1h0.9c0.5,0,0.8,0.4,0.8,1v12h1.7c0.3,0,0.5,0.3,0.3,0.6L17,19.8
	c-0.2,0.3-0.5,0.3-0.7,0l-2.9-5.2C13.2,14.3,13.3,14.1,13.7,14.1z"/>
</svg>
