<?xml version="1.0" encoding="utf-8"?>
<!-- Generator: Adobe Illustrator 24.0.1, SVG Export Plug-In . SVG Version: 6.00 Build 0)  -->
<svg version="1.1" id="Layer_1" xmlns="http://www.w3.org/2000/svg" xmlns:xlink="http://www.w3.org/1999/xlink" x="0px" y="0px"
	 viewBox="0 0 20.7 30" style="enable-background:new 0 0 20.7 30;" xml:space="preserve">
<g>
	<path d="M18.5,0L1.9,0c-2.5,0.5-1.8,4.3-1.7,4.5c0,0.2,0.2,0.3,0.4,0.3h3.2v18.4c0,0.2,0.2,0.4,0.4,0.4h16.1c0.2,0,0.4-0.2,0.4-0.4
		V2.2C20.7,1,19.7,0,18.5,0z M1.9,0.8h14.9c-0.3,0.4-0.5,0.8-0.5,1.4V4H0.8C0.8,3.2,0.6,1.1,1.9,0.8z M4.5,4.8h12.2
		c0.2,0,0.4-0.2,0.4-0.4V2.2c0-0.7,0.6-1.4,1.4-1.4c0.8,0,1.4,0.6,1.4,1.4v20.7H4.5V4.8z"/>
	<path d="M11.9,10.5c0-0.2-0.2-0.4-0.4-0.4H6.4c-0.2,0-0.4,0.2-0.4,0.4s0.2,0.4,0.4,0.4h5.1C11.7,10.9,11.9,10.7,11.9,10.5z"/>
	<path d="M6.4,7.3h9.4c0.2,0,0.4-0.2,0.4-0.4S16,6.5,15.8,6.5H6.4C6.2,6.5,6,6.7,6,6.9S6.2,7.3,6.4,7.3z"/>
	<path d="M6.4,9.1h9.4c0.2,0,0.4-0.2,0.4-0.4S16,8.3,15.8,8.3H6.4C6.2,8.3,6,8.5,6,8.7S6.2,9.1,6.4,9.1z"/>
	<path d="M16,12.3c-1.6-0.9-3,0.1-3.8,1c-0.8-0.9-2.2-1.9-3.8-1c-0.8,0.5-1.4,1.2-1.7,2.2c-0.3,1-0.1,2,0.4,2.9
		c0.9,1.5,2.5,2.9,4.9,4.3c0.1,0,0.1,0.1,0.2,0.1s0.1,0,0.2-0.1c2.4-1.4,4-2.8,4.9-4.3c0.5-0.9,0.6-1.9,0.4-2.9
		C17.4,13.6,16.8,12.8,16,12.3z M16.6,17c-0.8,1.3-2.2,2.6-4.4,3.9C10,19.6,8.5,18.3,7.8,17c-0.4-0.7-0.5-1.5-0.3-2.3
		C7.7,14,8.2,13.4,8.8,13c0.3-0.2,0.6-0.2,0.9-0.2c1.2,0,2.1,1.3,2.2,1.4c0.1,0.1,0.2,0.2,0.3,0.2c0,0,0,0,0,0
		c0.1,0,0.3-0.1,0.3-0.2c0.1-0.1,1.4-2.1,3.1-1.2c0.6,0.4,1.1,1,1.3,1.7C17.1,15.5,17,16.3,16.6,17z"/>
	<path d="M14.2,16.2l-1.1-0.2l-0.5-1c-0.1-0.3-0.6-0.3-0.7,0l-0.5,1l-1.1,0.2c-0.1,0-0.3,0.1-0.3,0.3c0,0.1,0,0.3,0.1,0.4l0.8,0.8
		l-0.2,1.1c0,0.1,0,0.3,0.2,0.4c0.1,0.1,0.3,0.1,0.4,0l1-0.5l1,0.5c0.1,0,0.1,0,0.2,0c0.1,0,0.2,0,0.2-0.1c0.1-0.1,0.2-0.2,0.2-0.4
		l-0.2-1.1l0.8-0.8c0.1-0.1,0.1-0.3,0.1-0.4C14.5,16.3,14.3,16.2,14.2,16.2z M12.9,17.3c-0.1,0.1-0.1,0.2-0.1,0.4l0.1,0.5l-0.5-0.3
		c-0.1,0-0.1,0-0.2,0s-0.1,0-0.2,0l-0.5,0.3l0.1-0.5c0-0.1,0-0.3-0.1-0.4l-0.4-0.4l0.5-0.1c0.1,0,0.2-0.1,0.3-0.2l0.2-0.5l0.2,0.5
		c0.1,0.1,0.2,0.2,0.3,0.2l0.5,0.1L12.9,17.3z"/>
</g>
<text transform="matrix(1 0 0 1 -1.6708 38.817)" style="font-family:'HelveticaNeue-Bold'; font-size:5px;">Created by Atif Arshad</text>
<text transform="matrix(1 0 0 1 -1.6708 43.817)" style="font-family:'HelveticaNeue-Bold'; font-size:5px;">from the Noun Project</text>
</svg>
