<?xml version="1.0" encoding="utf-8"?>
<!-- Generator: Adobe Illustrator 24.0.1, SVG Export Plug-In . SVG Version: 6.00 Build 0)  -->
<svg version="1.1" id="Layer_1" xmlns="http://www.w3.org/2000/svg" xmlns:xlink="http://www.w3.org/1999/xlink" x="0px" y="0px"
	 viewBox="0 0 1172.4 2283" style="enable-background:new 0 0 1172.4 2283;" xml:space="preserve">
<style type="text/css">
	.st0{fill:none;stroke:#B3B3B3;stroke-width:10;stroke-miterlimit:10;}
	.st1{fill:none;stroke:#B3B3B3;stroke-width:15;stroke-linecap:round;stroke-miterlimit:10;}
	.st2{fill:none;stroke:#B3B3B3;stroke-width:15;stroke-miterlimit:10;}
	.st3{opacity:0;fill:#B3B3B3;enable-background:new    ;}
</style>
<title>Asset 2</title>
<g id="Layer_2_1_">
	<g id="Layer_1-2">
		<path class="st0" d="M519,81.4h116c5,0,9,4,9,9l0,0c0,5-4,9-9,9H519c-5,0-9-4-9-9l0,0C510,85.5,514,81.4,519,81.4z"/>
		<circle class="st0" cx="701.8" cy="90.4" r="13.6"/>
		<line class="st1" x1="9.4" y1="312.8" x2="9.4" y2="380.8"/>
		<line class="st1" x1="9.4" y1="475.4" x2="9.4" y2="625.3"/>
		<line class="st1" x1="9.4" y1="687.3" x2="9.4" y2="829.3"/>
		<line class="st1" x1="1159.8" y1="533.3" x2="1159.8" y2="777.3"/>
		<path class="st2" d="M191.3,7.5h782c90,0,163,73,163,163v1942c0,90-73,163-163,163h-782c-90,0-163-73-163-163v-1942
			C28.3,80.5,101.2,7.5,191.3,7.5z"/>
		<path class="st3" d="M861.5,82.8L861.5,82.8c0-9.9,8.1-18,18-18h88.5c67.3,0,121.9,54.6,121.9,121.8c0,0,0,0,0,0v1840.7
			c0,67.3-54.6,121.8-121.8,121.8H196.6c-67.3,0-121.8-54.5-121.8-121.8c0,0,0,0,0,0V186.7c0-67.3,54.5-121.8,121.8-121.8
			c0,0,0,0,0,0h88.2c9.9,0,18,8.1,18,18l0,0c0,35.9,29.1,65,65,65l0,0h428.6C832.4,147.9,861.5,118.7,861.5,82.8L861.5,82.8z"/>
		<line class="st1" x1="7.5" y1="315.1" x2="7.5" y2="383.1"/>
		<line class="st1" x1="7.5" y1="477.7" x2="7.5" y2="627.7"/>
		<line class="st1" x1="7.5" y1="689.7" x2="7.5" y2="831.7"/>
		<line class="st1" x1="1164.9" y1="535.7" x2="1164.9" y2="779.7"/>
		<line class="st1" x1="324" y1="2207.4" x2="840.5" y2="2207.4"/>
	</g>
</g>
</svg>
