<?xml version="1.0" encoding="UTF-8"?>
<svg width="50px" height="41px" viewBox="0 0 50 41" version="1.1" xmlns="http://www.w3.org/2000/svg" xmlns:xlink="http://www.w3.org/1999/xlink">
    <title>Asset 1</title>
    <g id="Page-1" stroke="none" stroke-width="1" fill="none" fill-rule="evenodd">
        <g id="Asset-1" fill="#000000" fill-rule="nonzero">
            <path d="M33.1474538,0 C33.1886316,0.232684818 33.2661991,0.465369636 33.2661991,0.699019951 C33.2732217,6.55636945 33.2751369,12.411788 33.2719449,18.2652755 L33.2719449,19.1882908 C33.6693586,19.0193288 33.9719677,18.8880211 34.2774496,18.7625065 C39.1756939,16.7455829 44.9070707,18.4728574 47.9034748,22.8658695 C51.0243698,27.4374986 50.6413204,33.273929 46.8855209,37.348327 C44.8476981,39.5564191 42.2994619,40.7787385 39.2906087,40.9737689 C36.0653327,41.1823163 33.2748177,40.1424759 30.8414963,38.0280371 C30.6499716,37.862937 30.3262949,37.7847318 30.063906,37.7847318 C21.814937,37.7725021 13.5659679,37.768962 5.3169988,37.7741113 C4.37597408,37.7741113 3.43431094,37.7741113 2.49200939,37.7741113 C1.82167292,37.7741113 1.81305431,37.7625253 1.81305431,37.1079183 C1.81305431,35.2097508 1.79964758,33.3115834 1.82071529,31.4114849 C1.82646104,30.9548048 1.69718186,30.7954978 1.22890395,30.8003252 C-0.134751952,30.8157732 0.00697633035,30.9673562 0.0021882127,29.5664199 C0.0021882127,19.9944809 0.0044226676,10.4228638 0.0088915774,0.851568504 C0.0258544931,0.565973372 0.0594290509,0.281628249 0.109442048,0 L1.35435264,0 C1.52576725,0.131307615 1.67898701,0.314752078 1.87146934,0.378474891 C2.06395167,0.442197704 2.30910329,0.384267874 2.52935671,0.396819337 C2.82430475,0.413232789 3.01678708,0.30026962 3.07807499,0 L5.18484675,0 C5.24900753,0.518471981 5.57555715,0.579298302 6.02755546,0.570608828 C7.58656656,0.544540404 9.14653529,0.560953856 10.706504,0.560953856 L12.1917781,0.560953856 L12.4627856,0 L29.9872962,0 C30.2870323,0.588953274 30.834793,0.33792401 31.292537,0.393922846 C31.6085528,0.432542732 31.8067809,0.297373129 31.9025432,0 L33.1474538,0 Z M12.2817947,9.2465664 L12.2750914,8.59292482 L12.2750914,7.80411363 L12.28371,7.15723053 C12.28371,6.91682173 12.28371,6.67448194 12.28371,6.43793513 L12.2635999,5.78332805 C12.2693456,5.07014748 12.2747722,4.3569669 12.2798795,3.64378632 L12.2741337,2.99304123 C12.2741337,2.7294605 12.2741337,2.46684527 12.2741337,2.20423004 C12.2741337,1.989246 12.2766874,1.77329647 12.2817947,1.55638144 L12.2817947,0.913360323 C12.0701599,0.90080886 11.9150249,0.884395408 11.7589323,0.884395408 C9.81304127,0.884395408 7.86587343,0.884395408 5.91742875,0.884395408 C5.29305821,0.884395408 5.29305821,0.884395408 5.28922772,1.536106 L5.28922772,37.3087417 C5.35338849,36.3596579 5.349558,35.4115397 5.35530374,34.464387 C5.35530374,33.8657788 5.53725221,33.6784723 6.12140256,33.6765413 C7.87576887,33.6707483 9.631412,33.6707483 11.388332,33.6765413 C12.0586684,33.6765413 12.2042272,33.8310209 12.2061425,34.4981794 C12.2061425,35.4530561 12.2061425,36.4069673 12.2061425,37.361844 L12.2712609,37.361844 L12.2712609,33.0045553 L12.2770066,32.3567067 C12.2770066,32.1172634 12.2770066,31.8778201 12.2770066,31.6383768 C12.2693456,31.4211399 12.2626423,31.2029376 12.2559389,30.9857007 L12.2703032,30.2026825 L12.276049,29.5586959 L12.276049,28.844228 L12.2664727,28.1944484 L12.2664727,27.4104647 L12.2865828,26.7674436 C12.2865828,26.5251038 12.2798795,26.284695 12.276049,26.0394587 C12.2693456,25.8212563 12.2616846,25.603054 12.2549813,25.3848516 C12.2549813,25.1241674 12.2655151,24.8625176 12.2703032,24.6018334 C12.2703032,24.387493 12.2703032,24.1728308 12.2703032,23.9578468 C12.2703032,23.7203345 12.2703032,23.4818567 12.2703032,23.2443444 C12.2703032,23.0274294 12.2671112,22.8108362 12.260727,22.5945648 L12.260727,21.8096156 C12.2677496,21.5952752 12.2738145,21.3809348 12.2789219,21.1665945 L12.2703032,20.4405406 C12.2645575,20.2223382 12.2578541,20.0051014 12.2521084,19.7878645 L12.2635999,19.0048463 L12.2722185,18.3608597 L12.2664727,17.6463918 C12.2664727,17.4301204 12.2664727,17.2128836 12.2597694,16.9966122 L12.2597694,16.2203525 L12.2540236,16.2271109 L12.2722185,14.8435535 L12.2511508,14.1899119 C12.2562581,13.932446 12.2604078,13.6724054 12.2635999,13.4097902 L12.2731761,12.7648381 L12.2731761,12.0494047 C12.2731761,11.8331333 12.268388,11.616862 12.2655151,11.4005906 C12.2655151,11.1408719 12.2655151,10.8801876 12.2655151,10.6204689 L12.2597694,10.6272274 C12.269984,10.165076 12.2773258,9.70485573 12.2817947,9.2465664 Z M13.430943,12.9280071 C13.430943,16.9000625 13.430943,20.8724397 13.430943,24.8451387 C13.430943,25.2313376 13.4692479,25.4939528 13.9585935,25.4929899 C18.4402716,25.482045 22.9225882,25.482045 27.4055431,25.4929899 C27.7129403,25.4929899 27.8489228,25.3616797 27.9647953,25.088444 C28.184091,24.5728685 28.4656324,24.0833614 28.6935468,23.5706824 C28.815459,23.3304652 28.8871646,23.0675735 28.9042239,22.7982847 C28.9157154,15.528091 28.9099697,8.2588628 28.924334,0.9896346 C28.924334,0.518471981 28.7778176,0.391991851 28.3239041,0.393901159 C23.5702609,0.408405303 18.8166177,0.40261232 14.0629745,0.40261232 C13.4376463,0.40261232 13.4357311,0.40261232 13.4347735,1.05432291 L13.430943,12.9280071 Z M38.7323142,18.4516164 C32.6571506,18.3444462 27.4400176,23.3022742 27.6162203,29.8608965 C27.7713553,35.6326386 32.5001003,40.5431572 38.5800521,40.4900548 C44.8639777,40.434056 49.5036637,35.4279532 49.4586554,29.4215953 C49.4059861,22.513463 43.6698211,18.4014106 38.7313566,18.4516164 L38.7323142,18.4516164 Z M17.6033087,28.0660373 L15.384495,28.0660373 C15.7675444,28.7196788 16.1055855,29.3086321 16.501084,29.9902731 L17.6033087,28.0660373 Z" id="Shape"></path>
            <path d="M12.2865828,31.6383768 C12.0682447,31.6769967 11.8508641,31.7484435 11.6334836,31.749409 C9.74026188,31.7590639 7.84608254,31.7609949 5.9519032,31.749409 C5.76037849,31.749409 5.4797948,31.6634797 5.39360868,31.5225171 C5.19346536,31.1971446 5.40222729,30.88722 5.79293769,30.8862545 C7.81352334,30.8791742 9.83442819,30.8791742 11.8556523,30.8862545 C11.9958477,30.904211 12.1334321,30.9388899 12.2655151,30.9895627 C12.2722185,31.2029376 12.2789219,31.4211399 12.2865828,31.6383768 Z M11.8412879,31.3438834 L11.8412879,31.2632256 L5.8178359,31.2632256 L5.8178359,31.3438834 L11.8412879,31.3438834 Z" id="Shape"></path>
            <path d="M12.2817947,17.6463918 C12.1142106,17.6869427 11.9456689,17.7612859 11.7780847,17.7612859 C9.81878701,17.7699754 7.86044689,17.7728719 5.90210678,17.7612859 C5.72590405,17.7612859 5.46734569,17.6647362 5.39169343,17.5353596 C5.20016873,17.1993666 5.40222729,16.8981315 5.79581056,16.8962005 C7.81831146,16.8891202 9.84081235,16.8891202 11.8633132,16.8962005 C12.0041188,16.9136951 12.1423536,16.9480518 12.2750914,16.9985432 C12.2779642,17.2128836 12.2798795,17.4301204 12.2817947,17.6463918 Z M5.75750562,17.2601929 L5.75750562,17.3789491 L11.8862962,17.3789491 L11.8862962,17.2601929 L5.75750562,17.2601929 Z" id="Shape"></path>
            <path d="M12.2789219,19.0048463 C12.0950581,19.0453972 11.912152,19.120706 11.7282883,19.1216715 C9.78431256,19.1300391 7.84065601,19.1300391 5.89731866,19.1216715 C5.40988828,19.1216715 5.29305821,18.9855364 5.35530374,18.5694071 C5.41276115,18.1899667 5.70579395,18.2498275 5.94711508,18.248862 C7.79852057,18.2417817 9.64673398,18.2417817 11.4917553,18.248862 C11.7590361,18.2666703 12.0248693,18.3021481 12.2875405,18.3550667 L12.2789219,19.0048463 Z M11.8901267,18.7451276 C11.4486623,18.4931328 6.02659783,18.5269252 5.72781929,18.7451276 L11.8901267,18.7451276 Z" id="Shape"></path>
            <path d="M12.2789219,33.0045553 C12.0960158,33.0460717 11.912152,33.1223459 11.7292459,33.1233114 C9.78527019,33.1320009 7.84225204,33.1281389 5.8992339,33.1281389 C5.61769259,33.1281389 5.35434612,33.1348974 5.3457275,32.7206991 C5.33710889,32.3065008 5.57651478,32.2476055 5.89636103,32.2476055 C7.26576268,32.2476055 8.63612195,32.235054 10.0055236,32.2476055 C10.7658767,32.2572605 11.5243145,32.3142248 12.28371,32.3499482 C12.2830716,32.5707252 12.2814755,32.7889276 12.2789219,33.0045553 Z M5.76133612,32.6338044 L5.75559038,32.753526 L11.884381,32.753526 L11.884381,32.6338044 L5.76133612,32.6338044 Z" id="Shape"></path>
            <path d="M12.2779642,7.80701012 C12.0950581,7.847561 11.912152,7.92383528 11.7282883,7.92480078 C9.78527019,7.93349025 7.84129442,7.93059376 5.89731866,7.93059376 C5.6100316,7.93059376 5.35434612,7.93059376 5.3457275,7.52122296 C5.33710889,7.11185216 5.57843002,7.04812935 5.89731866,7.04812935 C7.2992795,7.04812935 8.70124035,7.03557788 10.1032012,7.04812935 C10.8309951,7.05681882 11.558789,7.11571415 12.2865828,7.15143754 L12.2779642,7.80701012 Z M5.76420899,7.43432821 L5.756548,7.55308437 L11.8853386,7.55308437 L11.8853386,7.43432821 L5.76420899,7.43432821 Z" id="Shape"></path>
            <path d="M12.2798795,30.2026825 C12.0969734,30.2451644 11.9140673,30.3243351 11.7311612,30.3253006 C9.78718543,30.3339901 7.84225204,30.3253006 5.89731866,30.3339901 C5.53533696,30.3339901 5.31412593,30.2557848 5.34860038,29.8242076 C5.3782867,29.4438017 5.63588743,29.4515257 5.89444579,29.4505602 C7.05827758,29.4486292 8.22242859,29.4476637 9.3868988,29.4476637 C10.136718,29.4476637 10.8855796,29.4399397 11.6344412,29.4524912 C11.8540817,29.4714459 12.0720472,29.50662 12.2865828,29.5577304 C12.2846676,29.7733581 12.2824331,29.9883421 12.2798795,30.2026825 Z M5.75846325,29.8164836 L5.75846325,29.9362053 L11.8872538,29.9362053 L11.8872538,29.8164836 L5.75846325,29.8164836 Z" id="Shape"></path>
            <path d="M12.2817947,9.2465664 C12.113253,9.28518629 11.9447112,9.35663308 11.7761695,9.35759858 C9.81782939,9.36532255 7.85948927,9.37015004 5.90210678,9.3508401 C5.72111593,9.3508401 5.44627798,9.22532546 5.38115958,9.08243188 C5.22219407,8.72905992 5.40414254,8.49154762 5.79772581,8.49058212 C7.81894987,8.48414547 9.84081235,8.48414547 11.8633132,8.49058212 C12.0002534,8.49058212 12.1371936,8.55816692 12.2750914,8.59389032 C12.2770066,8.81305817 12.2798795,9.02932954 12.2817947,9.2465664 Z M5.74792939,8.86905701 L5.74792939,8.97912369 L11.8872538,8.97912369 L11.8872538,8.86905701 L5.74792939,8.86905701 Z" id="Shape"></path>
            <path d="M12.2827523,28.844228 C12.1151682,28.8838134 11.9466265,28.9562256 11.7780847,28.9571911 C9.81942542,28.9649151 7.8607661,28.9649151 5.90210678,28.9571911 C5.67227713,28.9571911 5.39935442,28.991949 5.35721899,28.6414736 C5.31795642,28.306446 5.38499007,28.0785887 5.79581056,28.0795512 C7.81831146,28.0882437 9.84081235,28.0795512 11.8623556,28.0892092 C11.9992958,28.0892092 12.1362359,28.156794 12.2731761,28.1925174 C12.2770066,28.4107197 12.2798795,28.6279566 12.2827523,28.844228 Z M5.75750562,28.4638221 L5.75750562,28.5835437 L11.8862962,28.5835437 L11.8862962,28.4638221 L5.75750562,28.4638221 Z" id="Shape"></path>
            <path d="M12.2817947,3.64668281 C12.113253,3.6853027 11.9447112,3.75674949 11.7761695,3.75771499 C9.81782939,3.76543897 7.85948927,3.76930095 5.90114915,3.75095651 C5.72111593,3.75095651 5.44627798,3.62447638 5.3821172,3.4815828 C5.22219407,3.12821083 5.40414254,2.89166403 5.79772581,2.88973303 C7.81894987,2.88265272 9.84081235,2.88265272 11.8633132,2.88973303 C12.0039018,2.90724599 12.1418552,2.94193686 12.2741337,2.99304123 C12.2770066,3.21317458 12.2789219,3.43041145 12.2817947,3.64668281 Z M11.87672,3.3792401 L11.884381,3.26048395 L5.75559038,3.26048395 L5.75559038,3.3792401 L11.87672,3.3792401 Z" id="Shape"></path>
            <path d="M12.2827523,12.0455427 C12.1142106,12.0851281 11.9466265,12.1594714 11.7780847,12.1604369 C9.81878701,12.1681608 7.85948927,12.1681608 5.90019153,12.1604369 C5.64450605,12.1604369 5.37445621,12.1729883 5.35051562,11.7916169 C5.3294479,11.4575549 5.42808313,11.2779724 5.79581056,11.2789341 C7.81926908,11.2856964 9.84176997,11.2789341 11.8652285,11.2876274 C12.0021687,11.2876274 12.1381512,11.3571432 12.2750914,11.3938321 C12.2779642,11.613 12.2798795,11.8292713 12.2827523,12.0455427 Z M5.75750562,11.6593438 L5.75750562,11.7790655 L11.8862962,11.7790655 L11.8862962,11.6603093 L5.75750562,11.6593438 Z" id="Shape"></path>
            <path d="M12.2779642,13.4059282 C12.0950581,13.4474446 11.9111944,13.5227534 11.7282883,13.5237189 C9.78431256,13.5314428 7.8403368,13.5314428 5.89636103,13.5237189 C5.4108459,13.5237189 5.29305821,13.3866183 5.35530374,12.970489 C5.41276115,12.5900831 5.70675158,12.6518749 5.94711508,12.6509094 C7.79852057,12.6444728 9.64673398,12.6444728 11.4917553,12.6509094 C11.7590828,12.6682407 12.0249473,12.7037227 12.2875405,12.7571141 C12.2846676,12.976282 12.2808371,13.1906223 12.2779642,13.4059282 Z M5.75559038,13.0245568 L5.76325136,13.143313 L11.8920419,13.143313 L11.8920419,13.0245568 L5.75559038,13.0245568 Z" id="Shape"></path>
            <path d="M12.2798795,24.6018334 C12.0969734,24.6443153 11.9140673,24.7205896 11.7302036,24.7215551 C9.78622781,24.7299227 7.84193284,24.7299227 5.89731866,24.7215551 C5.4108459,24.7215551 5.29497346,24.5863854 5.35530374,24.1692907 C5.40988828,23.7830918 5.70196346,23.8458491 5.94328459,23.8448836 C7.79469008,23.8390906 9.6435419,23.8390906 11.4898401,23.8448836 C11.7568513,23.8632826 12.0223694,23.8994061 12.2846676,23.9530193 C12.2840292,24.1718653 12.2824331,24.3881367 12.2798795,24.6018334 Z M11.8786352,24.3411492 L11.8872538,24.222393 L5.75846325,24.222393 L5.75846325,24.3411492 L11.8786352,24.3411492 Z" id="Shape"></path>
            <path d="M12.2779642,2.20712653 C12.0950581,2.24864291 11.9111944,2.32395169 11.7282883,2.32491719 C9.78431256,2.33360666 7.84129442,2.32974467 5.89827628,2.32974467 C5.61098922,2.32974467 5.35434612,2.33457216 5.3457275,1.92133937 C5.33710889,1.50810658 5.57938765,1.45210774 5.89731866,1.45307324 C7.2992795,1.45307324 8.70124035,1.44052178 10.1032012,1.45307324 C10.8309951,1.46176272 11.5578313,1.51969255 12.2856252,1.55541594 C12.28371,1.77426197 12.2811563,1.99149883 12.2779642,2.20712653 Z M5.76420899,1.83444462 L5.756548,1.95320078 L11.8853386,1.95320078 L11.8853386,1.83444462 L5.76420899,1.83444462 Z" id="Shape"></path>
            <path d="M12.2827523,23.2443444 C12.1151682,23.2839298 11.9466265,23.3563421 11.7780847,23.3573076 C9.81974463,23.3650315 7.86140452,23.369859 5.9030644,23.3505491 C5.72207355,23.3505491 5.4472356,23.2259999 5.3821172,23.0821409 C5.22027882,22.7306999 5.40318492,22.4912566 5.79581056,22.4902911 C7.81831146,22.4825671 9.84049314,22.4825671 11.8623556,22.4902911 C12.0029139,22.5074361 12.140873,22.5418042 12.2731761,22.5926338 C12.2770066,22.8101925 12.2801987,23.0274294 12.2827523,23.2443444 Z M11.8862962,22.9884876 L11.8795928,22.868766 L5.75080226,22.868766 L5.75080226,22.9884876 L11.8862962,22.9884876 Z" id="Shape"></path>
            <path d="M12.2856252,26.0394587 C12.0682447,26.0780786 11.8508641,26.1485599 11.6334836,26.1495254 C9.73930426,26.1582148 7.84512492,26.1611113 5.95094558,26.1495254 C5.75942087,26.1495254 5.4797948,26.0626306 5.39360868,25.9207025 C5.19442299,25.5943645 5.40318492,25.2854054 5.79198007,25.2844399 C7.81320413,25.2780033 9.83442819,25.2780033 11.8556523,25.2844399 C11.9956738,25.3021902 12.1330034,25.3372102 12.2645575,25.3887136 C12.2712609,25.603054 12.2789219,25.8212563 12.2856252,26.0394587 Z M11.8872538,25.7710505 C11.431425,25.5161592 6.02851308,25.5518826 5.73356503,25.7710505 L11.8872538,25.7710505 Z" id="Shape"></path>
            <path d="M12.276049,27.4104647 C12.0941005,27.453912 11.9111944,27.5330828 11.7292459,27.5340483 C9.78335494,27.5427378 7.8365063,27.5398413 5.88774242,27.5388758 C5.63014169,27.5388758 5.3658376,27.5639787 5.3457275,27.1729524 C5.32657503,26.799305 5.50469301,26.7056517 5.83698838,26.7085482 C6.92197583,26.7191687 8.00696329,26.7085482 9.09290837,26.7143412 C10.1606586,26.7230307 11.2274512,26.7490991 12.2952015,26.7674436 L12.276049,27.4104647 Z M11.8403303,27.1732561 L11.8403303,27.077475 L5.80730205,27.077475 L5.80730205,27.1732561 L11.8403303,27.1732561 Z" id="Shape"></path>
            <path d="M12.2856252,6.44083162 C12.1623495,6.4711999 12.0367908,6.49122195 11.9102368,6.50069245 C9.8714563,6.50069245 7.83267581,6.50069245 5.79389532,6.50648543 C5.50660826,6.50648543 5.34860038,6.4157287 5.34763823,6.09325264 C5.34668513,5.77077659 5.49798965,5.67326137 5.7891072,5.67421979 C7.81160809,5.67421979 9.83410899,5.67421979 11.8575675,5.68098535 C11.99355,5.68098535 12.1295326,5.74953565 12.2655151,5.78622454 L12.2856252,6.44083162 Z M11.8412879,6.1433563 L11.8412879,6.06673142 L5.74792939,6.06673142 L5.74792939,6.1433563 L11.8412879,6.1433563 Z" id="Shape"></path>
            <path d="M12.2865828,14.8396915 C12.1631972,14.8695051 12.0376832,14.8895201 11.9111944,14.8995523 C9.87241393,14.8995523 7.83267581,14.8995523 5.79389532,14.9043798 C5.50660826,14.9043798 5.34764275,14.8155541 5.34764275,14.4921125 C5.34764275,14.168671 5.49703202,14.0721213 5.7891072,14.0721213 C7.81160809,14.0769487 9.83506661,14.0721213 11.8585251,14.0798452 C11.9945077,14.0798452 12.1304902,14.149361 12.2655151,14.1860499 C12.2731761,14.4042523 12.2798795,14.6214892 12.2865828,14.8396915 Z M11.8403303,14.5548698 C11.1699938,14.3067371 5.99882675,14.3714254 5.74505652,14.5548698 L11.8403303,14.5548698 Z" id="Shape"></path>
            <path d="M12.276049,21.8096156 C12.0941005,21.853063 11.912152,21.9322337 11.7302036,21.9331992 C9.78335494,21.9418887 7.83746393,21.9389922 5.88870005,21.9380267 C5.63109932,21.9380267 5.3620071,21.9640951 5.34764275,21.5721033 C5.33519365,21.2476962 5.45489659,21.1019062 5.7891072,21.1057681 C6.7620527,21.1154231 7.73499821,21.1057681 8.70794372,21.1057681 C9.90305788,21.1173541 11.0972144,21.142457 12.2923286,21.1627325 C12.2878597,21.3796475 12.2824331,21.5952752 12.276049,21.8096156 Z M11.8403303,21.5704333 L11.8403303,21.4766686 L5.74792939,21.4766686 L5.74792939,21.5704333 L11.8403303,21.5704333 Z" id="Shape"></path>
            <path d="M12.2856252,20.4405406 C12.0040839,20.462747 11.7225426,20.5042634 11.4410013,20.5061944 C9.5784235,20.5168149 7.71584574,20.5139184 5.85326798,20.5274353 C5.56598092,20.5274353 5.35721899,20.5061944 5.3457275,20.136409 C5.33423602,19.7666236 5.51331162,19.6700739 5.84177649,19.6710322 C7.83171819,19.6777978 9.82165988,19.6710322 11.8116016,19.6797288 C11.9638637,19.6797288 12.1151682,19.7502101 12.2674304,19.7878645 C12.2731761,20.0051014 12.2798795,20.2223382 12.2856252,20.4405406 Z M12.0280245,20.1788909 C11.3739676,19.8892417 5.94041172,19.9587575 5.79676819,20.1788909 L12.0280245,20.1788909 Z" id="Shape"></path>
            <path d="M40.2290798,27.7831466 C41.5218716,27.7831466 42.7476297,27.7648021 43.9724302,27.7966635 C44.2856926,27.8014286 44.5900503,27.9024803 44.8448252,28.0863127 C45.323637,28.4725116 45.2996964,30.5048831 44.8170541,30.8862545 C44.5578935,31.065221 44.2520501,31.1629685 43.9379557,31.1672142 C42.9027647,31.2019721 41.8647008,31.2000411 40.8275945,31.1759036 C40.3698505,31.1652832 40.2080121,31.3274867 40.2195036,31.7889943 C40.2434441,32.8182143 40.2319527,33.8483998 40.2195036,34.8785853 C40.2128002,35.7958076 39.8709286,36.1337316 38.974593,36.1404901 C38.6078232,36.1404901 38.2400957,36.1501451 37.8742835,36.1404901 C37.2594892,36.1095942 36.8706941,35.7233953 36.8706941,35.0871327 C36.8572874,33.961363 36.8534569,32.8346278 36.8706941,31.7078926 C36.8773974,31.3149352 36.7509911,31.1652832 36.3487893,31.1739726 C35.3758438,31.1952136 34.4019406,31.1836276 33.4289951,31.1739726 C33.1752249,31.1739726 32.8821921,31.2048686 32.6772606,31.0919054 C32.4100837,30.9432188 32.071085,30.697017 32.0165004,30.4372983 C31.9015856,29.8975854 31.9111618,29.3182871 31.9465939,28.7602297 C31.9877717,28.0843817 32.3296433,27.7947325 33.0124289,27.7860431 C34.0811367,27.7754226 35.1508022,27.7860431 36.2195101,27.7812156 C36.8611178,27.7812156 36.8630331,27.7812156 36.8639907,27.1517114 C36.8639907,26.106078 36.8639907,25.0604446 36.8639907,24.0148111 C36.8687788,23.1458637 37.1905403,22.8031122 38.0418677,22.7924917 C38.504022,22.7884927 38.9660267,22.8110575 39.4256337,22.8600765 C39.9111488,22.9083514 40.1917325,23.2375859 40.2118426,23.8468146 C40.2444018,24.6983831 40.2271645,25.5518826 40.2290798,26.4044166 C40.2300374,26.8408213 40.2290798,27.2714331 40.2290798,27.7831466 Z" id="Path"></path>
            <path d="M12.2741337,10.6204689 C12.09027,10.6600543 11.9073639,10.7343975 11.7235002,10.735363 C9.79293117,10.7440525 7.86236214,10.741156 5.93083548,10.741156 C5.63780268,10.741156 5.34668513,10.7710864 5.34476988,10.3192338 C5.34476988,9.89151851 5.60332823,9.8625536 5.91359826,9.8625536 C7.82884532,9.8625536 9.74409237,9.8625536 11.6593394,9.8625536 C12.2243373,9.8625536 12.2798795,9.94848285 12.2693456,10.6252964 L12.2741337,10.6204689 Z M5.80442918,10.2806139 L5.80442918,10.3814361 L11.8374574,10.3814361 L11.8374574,10.2806139 L5.80442918,10.2806139 Z" id="Shape"></path>
            <path d="M12.2741337,16.2203525 C12.1391088,16.2609033 12.0040839,16.3362121 11.869059,16.3362121 C9.84176997,16.3439361 7.81543859,16.3362121 5.7891072,16.3458671 C5.41180353,16.3458671 5.28922772,16.1440782 5.36871047,15.8312571 C5.40222729,15.6980185 5.59662487,15.510712 5.7201583,15.5097465 C7.76276929,15.4894711 9.80442266,15.4933331 11.8489489,15.4942986 C12.3986248,15.4942986 12.253066,15.9104279 12.2703032,16.2271109 L12.2741337,16.2203525 Z M11.8345845,15.9948366 L11.8403303,15.8940144 L5.80730205,15.8940144 L5.80730205,15.9948366 L11.8345845,15.9948366 Z" id="Shape"></path>
            <path d="M8.78934172,5.13741053 C7.81735383,5.13741053 6.84632357,5.13741053 5.87433569,5.13741053 C5.57555715,5.13741053 5.33902414,5.10844553 5.34668513,4.70679871 C5.35338849,4.33025481 5.57555715,4.30515188 5.8542256,4.30515188 C7.81352334,4.30515188 9.77282108,4.30515188 11.7321188,4.30515188 C12.0366431,4.30515188 12.276049,4.34859926 12.2703032,4.73576362 C12.2635999,5.13934144 11.9887619,5.13741053 11.7043477,5.13741053 C10.7339559,5.13612312 9.76228722,5.13612312 8.78934172,5.13741053 Z M5.80442918,4.67993569 L5.80442918,4.77269212 L11.8374574,4.77269212 L11.8374574,4.67993569 L5.80442918,4.67993569 Z" id="Shape"></path>
        </g>
    </g>
</svg>