<svg id="Layer_1" data-name="Layer 1" xmlns="http://www.w3.org/2000/svg" viewBox="0 0 522.1 424.63"><title>nes-plus-button</title><path d="M605.48,262.75c.43,2.41,1.24,4.82,1.24,7.23q.1,91,.06,182v9.56c4.15-1.75,7.31-3.12,10.5-4.42,51.15-20.88,111-3,142.29,42.51,32.59,47.35,28.59,107.79-10.63,150-21.28,22.88-47.88,35.54-79.3,37.55-33.69,2.16-62.83-8.6-88.24-30.5-2-1.72-5.38-2.52-8.12-2.53q-129.21-.18-258.42-.1-14.75,0-29.49,0c-7,0-7.09-.12-7.1-6.9,0-19.67-.14-39.33.09-59,.05-4.73-1.3-6.38-6.19-6.32-14.24.17-12.76,1.74-12.77-12.77q0-148.71,0-297.41a75.73,75.73,0,0,1,1.05-8.82h13c1.79,1.36,3.39,3.26,5.4,3.92s4.57.05,6.87.18c3.08.18,5.09-1,5.73-4.1h22c.67,5.36,4.08,6,8.8,5.91,16.28-.27,32.57-.1,48.86-.1h15.52l2.82-5.81h183c3.13,6.1,8.85,3.49,13.64,4.07,3.29.4,5.36-1,6.36-4.07ZM387.6,358.52l-.08-6.74,0-8.18.09-6.7c0-2.48,0-5,0-7.44l-.21-6.79q.09-11.07.17-22.15l-.08-6.75c0-2.72,0-5.44,0-8.16,0-2.24.06-4.47.08-6.71v-6.69c-2.21-.13-3.83-.3-5.45-.31q-30.49,0-61,0c-6.52,0-6.52,0-6.56,6.75V649.17c.67-9.83.63-19.65.69-29.46,0-6.2,1.9-8.14,8-8.16q27.5-.09,55,0c7,0,8.52,1.61,8.54,8.52,0,9.88,0,19.77,0,29.66h.68V604.59l.06-6.71q0-3.72,0-7.44c-.08-2.25-.15-4.51-.22-6.76l.15-8.11.06-6.68,0-7.4-.1-6.72,0-8.12.21-6.66c0-2.51-.07-5-.1-7.54-.08-2.26-.16-4.53-.23-6.79,0-2.7.11-5.4.16-8.1,0-2.22,0-4.45.05-6.67q0-3.69,0-7.4,0-3.36-.1-6.72,0-4.06,0-8.13.09-3.33.19-6.66l-.1-7.53c-.06-2.25-.13-4.5-.19-6.75l.12-8.11.09-6.68-.06-7.39c0-2.24,0-4.49-.07-6.73v-8.08l-.06.06.19-14.33-.22-6.76c.05-2.69.09-5.39.13-8.08l.1-6.69,0-7.4c0-2.24-.05-4.48-.08-6.72,0-2.7,0-5.39,0-8.09l-.06.07Zm12,38.12q0,61.73,0,123.44c0,4,.4,6.72,5.51,6.7q70.21-.15,140.42,0c3.21,0,4.63-1.35,5.84-4.18,2.29-5.35,5.23-10.41,7.61-15.72a20.47,20.47,0,0,0,2.2-8Q561.3,386,561.33,273c0-4.87-1.53-6.18-6.27-6.16-49.64.14-99.28.08-148.92.09-6.53,0-6.55,0-6.56,6.75Zm264.21,57.21C600.4,452.78,545.88,504.09,547.72,572c1.62,59.78,51,110.64,114.49,110.08,65.62-.57,114.07-52.43,113.6-114.64C775.26,495.92,715.33,453.34,663.79,453.85ZM443.16,553.43H420l11.65,19.94Z" transform="translate(-259.36 -262.75)"/><path d="M387.64,590.44c-2.27.4-4.54,1.14-6.82,1.15-19.77.09-39.55.12-59.33-.05-2,0-4.93-.89-5.83-2.35-2.09-3.37.09-6.58,4.17-6.6q31.65-.11,63.31,0a18.64,18.64,0,0,1,4.28,1.07C387.49,585.93,387.56,588.19,387.64,590.44ZM383,587.35v-.81H320.09v.81Z" transform="translate(-259.36 -262.75)"/><path d="M387.59,445.52c-1.75.41-3.5,1.18-5.26,1.19-20.46.09-40.91.12-61.36,0-1.84,0-4.54-1-5.33-2.34-2-3.47.11-6.59,4.23-6.61q31.67-.1,63.35,0a18.64,18.64,0,0,1,4.3,1.06C387.55,441,387.57,443.28,387.59,445.52Zm-68.13-4v1.23h64v-1.23Z" transform="translate(-259.36 -262.75)"/><path d="M387.56,459.59c-1.92.42-3.83,1.2-5.75,1.21q-30.45.13-60.89,0c-5.09,0-6.31-1.41-5.66-5.72.6-3.94,3.66-3.31,6.18-3.32q28.95-.1,57.9,0a63.92,63.92,0,0,1,8.31,1.1Zm-4.06-2.7c-4.6-2.6-61.23-2.25-64.34,0Z" transform="translate(-259.36 -262.75)"/><path d="M387.56,604.59c-1.91.43-3.83,1.22-5.74,1.22-20.3.09-40.59.06-60.88.06-2.94,0-5.69.07-5.78-4.22s2.41-4.88,5.75-4.88c14.31,0,28.61-.12,42.92.05,7.93.09,15.85.69,23.79,1.06Zm-68.06-3.85-.06,1.23h64v-1.23Z" transform="translate(-259.36 -262.75)"/><path d="M387.55,343.6c-1.91.43-3.82,1.22-5.74,1.23-20.29.09-40.59.05-60.89.06-2.95,0-5.67,0-5.76-4.24s2.43-4.87,5.76-4.87c14.64,0,29.29-.12,43.92.05,7.6.09,15.2.7,22.8,1.07Zm-68-3.85-.08,1.23h64v-1.23Z" transform="translate(-259.36 -262.75)"/><path d="M387.57,575.57c-1.91.44-3.82,1.26-5.73,1.26-20.3.1-40.61,0-60.92.1-3.78,0-6.09-.81-5.73-5.28.31-3.94,3-3.86,5.7-3.87,12.15,0,24.3,0,36.45,0,7.83,0,15.65-.08,23.47,0a47.42,47.42,0,0,1,6.82,1.09Zm-68.1-4v1.23h64v-1.23Z" transform="translate(-259.36 -262.75)"/><path d="M387.6,358.52c-1.77.4-3.52,1.14-5.29,1.15-20.45.08-40.9.12-61.34-.07-1.89,0-4.76-1.3-5.43-2.79-1.67-3.65.23-6.11,4.34-6.12q31.67-.12,63.34,0c1.44,0,2.87.7,4.3,1.07C387.54,354,387.57,356.27,387.6,358.52Zm-68.2-3.91v1.18H383.5v-1.18Z" transform="translate(-259.36 -262.75)"/><path d="M387.6,561.49c-1.75.41-3.51,1.17-5.27,1.18q-30.68.12-61.35,0c-2.41,0-5.26.36-5.7-3.28-.41-3.47.29-5.82,4.58-5.81,21.12.08,42.24,0,63.35.09a18.24,18.24,0,0,1,4.29,1.08Q387.56,558.13,387.6,561.49Zm-68.14-3.93,0,1.23h64v-1.23Z" transform="translate(-259.36 -262.75)"/><path d="M387.59,300.52c-1.76.4-3.52,1.14-5.28,1.14-20.45.09-40.9.13-61.35-.07-1.88,0-4.75-1.3-5.42-2.78-1.67-3.66.23-6.12,4.34-6.13q31.67-.1,63.34,0a18.72,18.72,0,0,1,4.29,1.07C387.54,296,387.56,298.27,387.59,300.52Zm-4.2-2.76.07-1.23h-64v1.23Z" transform="translate(-259.36 -262.75)"/><path d="M387.6,387.51c-1.76.41-3.51,1.18-5.27,1.18q-30.69.13-61.38,0c-2.67,0-5.49.13-5.74-3.82-.22-3.46.82-5.33,4.65-5.31,21.13.07,42.25,0,63.38.09,1.43,0,2.86.71,4.28,1.1C387.55,383,387.57,385.27,387.6,387.51Zm-68.14-4v1.22h64v-1.22Z" transform="translate(-259.36 -262.75)"/><path d="M387.55,401.6c-1.91.42-3.83,1.2-5.74,1.21q-30.45.13-60.9,0c-5.07,0-6.3-1.42-5.65-5.73.6-3.94,3.67-3.31,6.18-3.31q28.95-.1,57.9,0a65.69,65.69,0,0,1,8.31,1.1Q387.61,398.26,387.55,401.6Zm-68.11-4,.08,1.23h64v-1.23Z" transform="translate(-259.36 -262.75)"/><path d="M387.57,517.56c-1.91.43-3.82,1.23-5.74,1.24q-30.45.13-60.91,0c-5.08,0-6.29-1.4-5.66-5.73.58-3.94,3.62-3.34,6.14-3.35q29-.11,57.93,0c2.76,0,5.53.73,8.29,1.12C387.61,513.11,387.59,515.34,387.57,517.56Zm-4.19-2.7.09-1.23H319.42v1.23Z" transform="translate(-259.36 -262.75)"/><path d="M387.55,285.61c-1.91.42-3.82,1.21-5.74,1.21-20.29.09-40.59.06-60.88.06-3,0-5.68.05-5.77-4.23s2.44-4.86,5.76-4.86c14.64,0,29.28-.12,43.92,0,7.6.08,15.2.69,22.79,1.06C387.61,281.14,387.58,283.37,387.55,285.61Zm-68-3.85-.08,1.22h64v-1.22Z" transform="translate(-259.36 -262.75)"/><path d="M387.6,503.49c-1.75.41-3.51,1.17-5.27,1.18-20.45.08-40.9.12-61.35-.07-1.89,0-4.75-1.29-5.44-2.78-1.68-3.64.22-6.12,4.32-6.14q31.68-.1,63.35,0a18.72,18.72,0,0,1,4.29,1.07Q387.56,500.13,387.6,503.49Zm-4.13-2.64-.08-1.24h-64v1.24Z" transform="translate(-259.36 -262.75)"/><path d="M387.64,532.45c-2.28.39-4.55,1.12-6.82,1.13-19.78.09-39.56.12-59.34-.05-2,0-4.92-.9-5.82-2.36-2.08-3.38.1-6.58,4.16-6.6q31.67-.11,63.32,0c1.43,0,2.85.7,4.27,1.07C387.48,527.92,387.56,530.19,387.64,532.45Zm-4.17-2.78c-4.76-2.64-61.18-2.27-64.26,0Z" transform="translate(-259.36 -262.75)"/><path d="M387.53,546.65c-1.9.44-3.8,1.26-5.71,1.27-20.32.1-40.64.07-61,.05-2.69,0-5.45.27-5.66-3.78-.2-3.87,1.66-4.84,5.13-4.81,11.33.11,22.66,0,34,.06,11.15.09,22.29.35,33.44.55ZM383,544.14v-.95H320v.95Z" transform="translate(-259.36 -262.75)"/><path d="M387.63,329.46a25.16,25.16,0,0,1-3.92.62c-21.29,0-42.58,0-63.87.06-3,0-4.65-.94-4.66-4.28s1.57-4.35,4.61-4.35c21.12,0,42.24,0,63.37.07,1.42,0,2.84.72,4.26,1.09ZM383,326.34l0-.77h-63.6v.77Z" transform="translate(-259.36 -262.75)"/><path d="M387.64,416.44a24.2,24.2,0,0,1-3.92.62c-21.29,0-42.59,0-63.88.06-3,0-4.65-.92-4.66-4.27s1.56-4.36,4.61-4.35c21.12,0,42.25,0,63.38.07,1.42,0,2.84.73,4.25,1.11Q387.54,413.07,387.64,416.44ZM383,413.5c-7-2.57-61-1.9-63.65,0Z" transform="translate(-259.36 -262.75)"/><path d="M387.54,488.64c-1.91.44-3.81,1.27-5.71,1.28-20.33.09-40.65.06-61,.05-2.69,0-5.5.26-5.65-3.79-.13-3.37,1.12-4.87,4.61-4.83,10.16.1,20.32-.06,30.48,0,12.48.11,25,.38,37.43.58ZM383,486.12v-.94H319.37v.94Z" transform="translate(-259.36 -262.75)"/><path d="M387.63,474.45c-2.94.24-5.88.67-8.82.69-19.45.1-38.9.08-58.35.22-3,0-5.18-.23-5.3-4.06s1.75-4.82,5.18-4.81c20.78.07,41.56,0,62.34.09,1.59,0,3.17.73,4.76,1.12C387.5,470,387.57,472.2,387.63,474.45Zm-2.69-2.74c-6.83-3-63.57-2.28-65.07,0Z" transform="translate(-259.36 -262.75)"/><path d="M679.43,550.51c13.5,0,26.3-.19,39.1.13a16.07,16.07,0,0,1,9.1,3c5,4,4.75,25-.29,29a16.63,16.63,0,0,1-9.17,2.91c-10.82.35-21.66.33-32.49.09-4.78-.11-6.47,1.57-6.35,6.35.25,10.66.13,21.33,0,32-.07,9.49-3.64,13-13,13.07-3.83,0-7.67.1-11.49,0-6.5-.25-10.53-4.24-10.6-10.8-.14-11.66-.18-23.33,0-35,.07-4.07-1.25-5.62-5.45-5.53-10.16.22-20.33.09-30.49,0-2.65,0-5.71.33-7.85-.84-2.79-1.54-6.32-4.09-6.9-6.78-1.2-5.59-1.1-11.59-.73-17.37.43-7,4.05-10,11.13-10.1,11.16-.11,22.33,0,33.49,0,6.7,0,6.72,0,6.73-6.52,0-10.83,0-21.66,0-32.49.05-9,3.41-12.55,12.3-12.67a129.34,129.34,0,0,1,14.45.71c5.07.5,8,3.9,8.21,10.22.34,8.82.16,17.66.18,26.49C679.44,540.73,679.43,545.21,679.43,550.51Z" transform="translate(-259.36 -262.75)"/><path d="M387.51,372.7c-1.92.42-3.83,1.19-5.75,1.2-20.16.09-40.32.06-60.49.05-3.06,0-6.1.32-6.12-4.36,0-4.43,2.7-4.74,5.94-4.74,20,0,40,0,60,0,5.9,0,6.48.89,6.37,7.89ZM320,369.19v1h63v-1Z" transform="translate(-259.36 -262.75)"/><path d="M387.51,430.71c-1.41.42-2.82,1.2-4.23,1.2-21.17.08-42.33,0-63.49.1-3.94,0-5.22-2.09-4.39-5.33.35-1.38,2.38-3.32,3.67-3.33,21.33-.21,42.65-.17,64-.16,5.74,0,4.22,4.31,4.4,7.58Zm-4.59-2.38.06-1h-63v1Z" transform="translate(-259.36 -262.75)"/><path d="M351.12,316c-10.15,0-20.29,0-30.44,0-3.12,0-5.58-.29-5.51-4.46.07-3.89,2.39-4.15,5.3-4.15q30.69,0,61.39,0c3.17,0,5.67.45,5.61,4.46-.07,4.18-2.94,4.16-5.91,4.16Q366.35,315.94,351.12,316ZM320,311.21v.93h63v-.93Z" transform="translate(-259.36 -262.75)"/></svg>