<?xml version="1.0" encoding="UTF-8"?>
<!--Generator: CustomSymbols by @serious_bret-->
<!DOCTYPE svg
PUBLIC "-//W3C//DTD SVG 1.1//EN"
       "http://www.w3.org/Graphics/SVG/1.1/DTD/svg11.dtd">
<svg version="1.1" xmlns="http://www.w3.org/2000/svg" xmlns:xlink="http://www.w3.org/1999/xlink" width="3300" height="2200">
 <g id="Notes">
  <rect height="2200" id="artboard" style="fill:white;opacity:1" width="3300" x="0" y="0"/>
  <line id="" style="fill:none;stroke:black;opacity:1;stroke-width:0.5;" x1="263" x2="3036" y1="292" y2="292"/>
  <text id="reftext1" style="stroke:none;fill:black;font-family:-apple-system,&quot;SF Pro Display&quot;,&quot;SF Pro Text&quot;,Helvetica,sans-serif;font-weight:bold;" transform="matrix(1 0 0 1 263 322)">Weight/Scale Variations</text>
  <text id="reftext2" style="stroke:none;fill:black;font-family:-apple-system,&quot;SF Pro Display&quot;,&quot;SF Pro Text&quot;,Helvetica,sans-serif;text-anchor:middle;" transform="matrix(1 0 0 1 559.711 322)">Ultralight</text>
  <text style="stroke:none;fill:black;font-family:-apple-system,&quot;SF Pro Display&quot;,&quot;SF Pro Text&quot;,Helvetica,sans-serif;text-anchor:middle;" transform="matrix(1 0 0 1 856.422 322)">Thin</text>
  <text style="stroke:none;fill:black;font-family:-apple-system,&quot;SF Pro Display&quot;,&quot;SF Pro Text&quot;,Helvetica,sans-serif;text-anchor:middle;" transform="matrix(1 0 0 1 1153.13 322)">Light</text>
  <text style="stroke:none;fill:black;font-family:-apple-system,&quot;SF Pro Display&quot;,&quot;SF Pro Text&quot;,Helvetica,sans-serif;text-anchor:middle;" transform="matrix(1 0 0 1 1449.84 322)">Regular</text>
  <text style="stroke:none;fill:black;font-family:-apple-system,&quot;SF Pro Display&quot;,&quot;SF Pro Text&quot;,Helvetica,sans-serif;text-anchor:middle;" transform="matrix(1 0 0 1 1746.56 322)">Medium</text>
  <text style="stroke:none;fill:black;font-family:-apple-system,&quot;SF Pro Display&quot;,&quot;SF Pro Text&quot;,Helvetica,sans-serif;text-anchor:middle;" transform="matrix(1 0 0 1 2043.27 322)">Semibold</text>
  <text style="stroke:none;fill:black;font-family:-apple-system,&quot;SF Pro Display&quot;,&quot;SF Pro Text&quot;,Helvetica,sans-serif;text-anchor:middle;" transform="matrix(1 0 0 1 2339.98 322)">Bold</text>
  <text style="stroke:none;fill:black;font-family:-apple-system,&quot;SF Pro Display&quot;,&quot;SF Pro Text&quot;,Helvetica,sans-serif;text-anchor:middle;" transform="matrix(1 0 0 1 2636.69 322)">Heavy</text>
  <text style="stroke:none;fill:black;font-family:-apple-system,&quot;SF Pro Display&quot;,&quot;SF Pro Text&quot;,Helvetica,sans-serif;text-anchor:middle;" transform="matrix(1 0 0 1 2933.4 322)">Black</text>
  <line id="" style="fill:none;stroke:black;opacity:1;stroke-width:0.5;" x1="263" x2="3036" y1="1903" y2="1903"/>
  <g id="" transform="matrix(1 0 0 1 263 1933)">
   <path d="M9.24805 0.830078C13.5547 0.830078 17.1387-2.74414 17.1387-7.05078C17.1387-11.3574 13.5449-14.9316 9.23828-14.9316C4.94141-14.9316 1.36719-11.3574 1.36719-7.05078C1.36719-2.74414 4.95117 0.830078 9.24805 0.830078ZM9.24805-0.654297C5.70312-0.654297 2.87109-3.49609 2.87109-7.05078C2.87109-10.6055 5.69336-13.4473 9.23828-13.4473C12.793-13.4473 15.6348-10.6055 15.6445-7.05078C15.6543-3.49609 12.8027-0.654297 9.24805-0.654297ZM6.39648-6.31836L8.50586-6.31836L8.50586-4.19922C8.50586-3.75977 8.79883-3.45703 9.22852-3.45703C9.67773-3.45703 9.9707-3.75977 9.9707-4.19922L9.9707-6.31836L12.0996-6.31836C12.5391-6.31836 12.8418-6.61133 12.8418-7.04102C12.8418-7.48047 12.5391-7.7832 12.0996-7.7832L9.9707-7.7832L9.9707-9.89258C9.9707-10.3418 9.67773-10.6445 9.22852-10.6445C8.79883-10.6445 8.50586-10.3418 8.50586-9.89258L8.50586-7.7832L6.39648-7.7832C5.94727-7.7832 5.64453-7.48047 5.64453-7.04102C5.64453-6.61133 5.94727-6.31836 6.39648-6.31836Z"/>
  </g>
  <g id="" transform="matrix(1 0 0 1 281.506 1933)">
   <path d="M11.709 2.91016C17.1582 2.91016 21.6699-1.61133 21.6699-7.05078C21.6699-12.5 17.1484-17.0117 11.6992-17.0117C6.25977-17.0117 1.74805-12.5 1.74805-7.05078C1.74805-1.61133 6.26953 2.91016 11.709 2.91016ZM11.709 1.25C7.09961 1.25 3.41797-2.44141 3.41797-7.05078C3.41797-11.6602 7.08984-15.3516 11.6992-15.3516C16.3086-15.3516 20-11.6602 20.0098-7.05078C20.0195-2.44141 16.3184 1.25 11.709 1.25ZM7.98828-6.23047L10.8789-6.23047L10.8789-3.32031C10.8789-2.83203 11.2109-2.5 11.6895-2.5C12.1777-2.5 12.5195-2.83203 12.5195-3.32031L12.5195-6.23047L15.4297-6.23047C15.918-6.23047 16.25-6.5625 16.25-7.04102C16.25-7.5293 15.918-7.87109 15.4297-7.87109L12.5195-7.87109L12.5195-10.7617C12.5195-11.2695 12.1777-11.6016 11.6895-11.6016C11.2109-11.6016 10.8789-11.2598 10.8789-10.7617L10.8789-7.87109L7.98828-7.87109C7.48047-7.87109 7.14844-7.5293 7.14844-7.04102C7.14844-6.5625 7.49023-6.23047 7.98828-6.23047Z"/>
  </g>
  <g id="" transform="matrix(1 0 0 1 304.924 1933)">
   <path d="M14.9707 5.66406C21.9336 5.66406 27.6953-0.0976562 27.6953-7.05078C27.6953-14.0137 21.9238-19.7754 14.9609-19.7754C8.00781-19.7754 2.25586-14.0137 2.25586-7.05078C2.25586-0.0976562 8.01758 5.66406 14.9707 5.66406ZM14.9707 3.84766C8.93555 3.84766 4.08203-1.01562 4.08203-7.05078C4.08203-13.0957 8.92578-17.9492 14.9609-17.9492C21.0059-17.9492 25.8594-13.0957 25.8691-7.05078C25.8789-1.01562 21.0156 3.84766 14.9707 3.84766ZM10.0586-6.14258L14.0625-6.14258L14.0625-2.12891C14.0625-1.5918 14.4336-1.2207 14.9512-1.2207C15.4883-1.2207 15.8594-1.5918 15.8594-2.12891L15.8594-6.14258L19.8828-6.14258C20.4102-6.14258 20.791-6.51367 20.791-7.03125C20.791-7.56836 20.4199-7.94922 19.8828-7.94922L15.8594-7.94922L15.8594-11.9531C15.8594-12.5098 15.4883-12.8809 14.9512-12.8809C14.4336-12.8809 14.0625-12.5 14.0625-11.9531L14.0625-7.94922L10.0586-7.94922C9.50195-7.94922 9.13086-7.56836 9.13086-7.03125C9.13086-6.51367 9.51172-6.14258 10.0586-6.14258Z"/>
  </g>
  <text style="stroke:none;fill:black;font-family:-apple-system,&quot;SF Pro Display&quot;,&quot;SF Pro Text&quot;,Helvetica,sans-serif;font-weight:bold;" transform="matrix(1 0 0 1 263 1953)">Design Variations</text>
  <text style="stroke:none;fill:black;font-family:-apple-system,&quot;SF Pro Display&quot;,&quot;SF Pro Text&quot;,Helvetica,sans-serif;" transform="matrix(1 0 0 1 263 1971)">Symbols are supported in up to nine weights and three scales.</text>
  <text style="stroke:none;fill:black;font-family:-apple-system,&quot;SF Pro Display&quot;,&quot;SF Pro Text&quot;,Helvetica,sans-serif;" transform="matrix(1 0 0 1 263 1989)">For optimal layout with text and other symbols, vertically align</text>
  <text style="stroke:none;fill:black;font-family:-apple-system,&quot;SF Pro Display&quot;,&quot;SF Pro Text&quot;,Helvetica,sans-serif;" transform="matrix(1 0 0 1 263 2007)">symbols with the adjacent text.</text>
  <line id="" style="fill:none;stroke:#00AEEF;stroke-width:0.5;opacity:1.0;" x1="776" x2="776" y1="1919" y2="1933"/>
  <g id="" transform="matrix(1 0 0 1 776 1933)">
   <path d="M3.31055 0.126953C3.82812 0.126953 4.08203-0.0683594 4.26758-0.605469L5.52734-4.0625L11.2891-4.0625L12.5488-0.605469C12.7344-0.0683594 12.9883 0.126953 13.4961 0.126953C14.0137 0.126953 14.3457-0.185547 14.3457-0.673828C14.3457-0.839844 14.3164-0.986328 14.2383-1.20117L9.6582-13.3887C9.43359-13.9941 9.0332-14.2871 8.4082-14.2871C7.80273-14.2871 7.39258-13.9941 7.17773-13.3984L2.59766-1.19141C2.51953-0.976562 2.49023-0.830078 2.49023-0.664062C2.49023-0.175781 2.80273 0.126953 3.31055 0.126953ZM6.00586-5.53711L8.37891-12.1094L8.42773-12.1094L10.8008-5.53711Z"/>
  </g>
  <line id="" style="fill:none;stroke:#00AEEF;stroke-width:0.5;opacity:1.0;" x1="792.836" x2="792.836" y1="1919" y2="1933"/>
  <text style="stroke:none;fill:black;font-family:-apple-system,&quot;SF Pro Display&quot;,&quot;SF Pro Text&quot;,Helvetica,sans-serif;font-weight:bold;" transform="matrix(1 0 0 1 776 1953)">Margins</text>
  <text style="stroke:none;fill:black;font-family:-apple-system,&quot;SF Pro Display&quot;,&quot;SF Pro Text&quot;,Helvetica,sans-serif;" transform="matrix(1 0 0 1 776 1971)">Leading and trailing margins on the left and right side of each symbol</text>
  <text style="stroke:none;fill:black;font-family:-apple-system,&quot;SF Pro Display&quot;,&quot;SF Pro Text&quot;,Helvetica,sans-serif;" transform="matrix(1 0 0 1 776 1989)">can be adjusted by modifying the x-location of the margin guidelines.</text>
  <text style="stroke:none;fill:black;font-family:-apple-system,&quot;SF Pro Display&quot;,&quot;SF Pro Text&quot;,Helvetica,sans-serif;" transform="matrix(1 0 0 1 776 2007)">Modifications are automatically applied proportionally to all</text>
  <text style="stroke:none;fill:black;font-family:-apple-system,&quot;SF Pro Display&quot;,&quot;SF Pro Text&quot;,Helvetica,sans-serif;" transform="matrix(1 0 0 1 776 2025)">scales and weights.</text>
  <g id="" transform="matrix(1 0 0 1 1289 1933)">
   <path d="M2.8418 1.86523L4.54102 3.57422C5.40039 4.44336 6.38672 4.38477 7.31445 3.35938L17.4902-7.85156C17.7539-7.76367 18.0273-7.7832 18.3398-7.8418L19.4043-8.03711L20.0684-7.36328L20.0293-6.80664C19.9902-6.30859 20.1172-5.92773 20.6055-5.44922L21.3672-4.70703C21.8457-4.22852 22.4609-4.19922 22.9297-4.66797L25.8398-7.58789C26.3086-8.05664 26.2891-8.65234 25.8105-9.13086L25.0391-9.89258C24.5605-10.3711 24.1895-10.5273 23.7109-10.4883L23.1348-10.4395L22.4902-11.0742L22.7344-12.1973C22.8613-12.7637 22.7051-13.2031 22.1191-13.7891L19.9219-15.9766C16.582-19.2969 12.1484-19.2188 9.25781-16.3281C8.83789-15.918 8.80859-15.3418 9.04297-14.9512C9.27734-14.5898 9.73633-14.3555 10.3809-14.5215C11.8457-14.8633 13.3691-14.9219 14.7949-13.9844L14.209-12.5293C14.0137-12.0508 13.9844-11.6504 14.1113-11.2891L3.04688-0.898438C2.06055 0.0195312 1.98242 0.996094 2.8418 1.86523ZM10.752-15.957C13.1836-17.7344 16.4746-17.4316 18.7012-15.2051L21.1328-12.793C21.3672-12.5586 21.4062-12.373 21.3379-12.0312L21.0156-10.5469L22.5195-9.0625L23.5059-9.12109C23.7598-9.13086 23.8379-9.11133 24.0332-8.91602L24.6094-8.33984L22.168-5.89844L21.5918-6.47461C21.3965-6.66992 21.3672-6.74805 21.377-7.01172L21.4453-7.98828L19.9512-9.47266L18.4277-9.21875C18.1055-9.15039 17.959-9.17969 17.7148-9.41406L15.7129-11.416C15.459-11.6504 15.4297-11.8164 15.5859-12.1875L16.4648-14.2773C14.9023-15.7324 12.8711-16.3574 10.8398-15.7617C10.6836-15.7227 10.625-15.8496 10.752-15.957ZM5.27344 2.30469L4.10156 1.14258C3.63281 0.683594 3.74023 0.341797 4.14062-0.0195312L14.9512-10.1953L16.416-8.71094L6.42578 2.27539C6.07422 2.67578 5.74219 2.77344 5.27344 2.30469Z"/>
  </g>
  <text style="stroke:none;fill:black;font-family:-apple-system,&quot;SF Pro Display&quot;,&quot;SF Pro Text&quot;,Helvetica,sans-serif;font-weight:bold;" transform="matrix(1 0 0 1 1289 1953)">Exporting</text>
  <text style="stroke:none;fill:black;font-family:-apple-system,&quot;SF Pro Display&quot;,&quot;SF Pro Text&quot;,Helvetica,sans-serif;" transform="matrix(1 0 0 1 1289 1971)">Symbols should be outlined when exporting to ensure the</text>
  <text style="stroke:none;fill:black;font-family:-apple-system,&quot;SF Pro Display&quot;,&quot;SF Pro Text&quot;,Helvetica,sans-serif;" transform="matrix(1 0 0 1 1289 1989)">design is preserved when submitting to Xcode.</text>
  <text id="template-version" style="stroke:none;fill:black;font-family:-apple-system,&quot;SF Pro Display&quot;,&quot;SF Pro Text&quot;,Helvetica,sans-serif;text-anchor:end;" transform="matrix(1 0 0 1 3036 1933)">Template v.2.0</text>
  <text style="stroke:none;fill:black;font-family:-apple-system,&quot;SF Pro Display&quot;,&quot;SF Pro Text&quot;,Helvetica,sans-serif;text-anchor:end;" transform="matrix(1 0 0 1 3036 1951)">Requires Xcode 12 or greater</text>
  <text style="stroke:none;fill:black;font-family:-apple-system,&quot;SF Pro Display&quot;,&quot;SF Pro Text&quot;,Helvetica,sans-serif;" transform="matrix(1 0 0 1 263 726)">Small</text>
  <text style="stroke:none;fill:black;font-family:-apple-system,&quot;SF Pro Display&quot;,&quot;SF Pro Text&quot;,Helvetica,sans-serif;" transform="matrix(1 0 0 1 263 1156)">Medium</text>
  <text style="stroke:none;fill:black;font-family:-apple-system,&quot;SF Pro Display&quot;,&quot;SF Pro Text&quot;,Helvetica,sans-serif;" transform="matrix(1 0 0 1 263 1586)">Large</text>
 </g>
 <g id="Guides">
  <g id="H-reference" style="fill:#27AAE1;stroke:none;" transform="matrix(1 0 0 1 339 696)">
   <path d="M0.976562 0L3.66211 0L12.9883-24.4629L45.752-24.4629L55.127 0L57.7637 0L30.6152-70.459L28.125-70.459ZM29.3457-67.1387L29.4434-67.1387L44.873-26.709L13.8672-26.709Z"/>
  </g>
  <line id="Baseline-S" style="fill:none;stroke:#27AAE1;opacity:1;stroke-width:0.5;" x1="263" x2="3036" y1="696" y2="696"/>
  <line id="Capline-S" style="fill:none;stroke:#27AAE1;opacity:1;stroke-width:0.5;" x1="263" x2="3036" y1="625.541" y2="625.541"/>
  <g id="H-reference" style="fill:#27AAE1;stroke:none;" transform="matrix(1 0 0 1 339 1126)">
   <path d="M0.976562 0L3.66211 0L12.9883-24.4629L45.752-24.4629L55.127 0L57.7637 0L30.6152-70.459L28.125-70.459ZM29.3457-67.1387L29.4434-67.1387L44.873-26.709L13.8672-26.709Z"/>
  </g>
  <line id="Baseline-M" style="fill:none;stroke:#27AAE1;opacity:1;stroke-width:0.5;" x1="263" x2="3036" y1="1126" y2="1126"/>
  <line id="Capline-M" style="fill:none;stroke:#27AAE1;opacity:1;stroke-width:0.5;" x1="263" x2="3036" y1="1055.54" y2="1055.54"/>
  <g id="H-reference" style="fill:#27AAE1;stroke:none;" transform="matrix(1 0 0 1 339 1556)">
   <path d="M0.976562 0L3.66211 0L12.9883-24.4629L45.752-24.4629L55.127 0L57.7637 0L30.6152-70.459L28.125-70.459ZM29.3457-67.1387L29.4434-67.1387L44.873-26.709L13.8672-26.709Z"/>
  </g>
  <line id="Baseline-L" style="fill:none;stroke:#27AAE1;opacity:1;stroke-width:0.5;" x1="263" x2="3036" y1="1556" y2="1556"/>
  <line id="Capline-L" style="fill:none;stroke:#27AAE1;opacity:1;stroke-width:0.5;" x1="263" x2="3036" y1="1485.54" y2="1485.54"/>
  <line id="left-margin" x1="1422.946015625" x2="1422.946015625" y1="1030.79" y2="1150.12" style="fill:none;stroke:#00AEEF;stroke-width:0.5;opacity:1.0;"/>
  <line id="right-margin" x1="1479.3139843749998" x2="1479.3139843749998" y1="1030.79" y2="1150.12" style="fill:none;stroke:#00AEEF;stroke-width:0.5;opacity:1.0;"/>
 </g>
 <g id="Symbols">
  <g id="Black-L" transform="matrix(1.0,0.0,0.0,1.0,2898.3226601562496,1475.3233447265625)">  <path xml:space="preserve" fill-opacity="1" stroke-linejoin="miter" version="1.1" stroke-linecap="butt" fill="#000000" x="0px" y="0px" stroke-width="1px" fill-rule="nonzero" stroke-miterlimit="4" stroke-dasharray="none" stroke="none" xmlns:xlink="http://www.w3.org/1999/xlink" stroke-opacity="1" d="M11.634,6.253L16.506,6.253L28.141,33.085L21.524,33.085L19.197,27.413L8.798,27.413L6.544,33.085L0,33.085L11.634,6.253ZM13.961,14.034L10.689,22.396L17.233,22.396L13.961,14.034ZM13.961,14.034"/>
  <path stroke-dasharray="none" version="1.1" xmlns:xlink="http://www.w3.org/1999/xlink" stroke-miterlimit="4" y="0px" fill-rule="nonzero" fill-opacity="1" stroke-opacity="1" stroke="none" stroke-width="1px" stroke-linecap="butt" x="0px" xml:space="preserve" stroke-linejoin="miter" fill="#000000" d="M24.578,44.72L10.98,60.862L24.069,60.862L24.069,66.098L3.781,66.098L3.781,60.862L17.161,44.72L3.345,44.72L3.345,39.266L24.578,39.266L24.578,44.72ZM24.578,44.72"/>
  <path y="0px" xml:space="preserve" fill-rule="evenodd" stroke-opacity="1" fill-opacity="1" stroke-dasharray="none" stroke-linejoin="miter" version="1.1" stroke-miterlimit="4" stroke="none" stroke-width="1px" xmlns:xlink="http://www.w3.org/1999/xlink" stroke-linecap="butt" fill="#000000" x="0px" d="M48.137,47.192L42.102,47.192L42.102,9.307C42.102,7.635,40.72,6.253,39.048,6.253L35.776,6.253C34.103,6.253,32.722,7.635,32.722,9.307L32.722,47.192L26.686,47.192C25.45,47.192,24.941,47.992,25.596,49.01L36.212,65.37C36.866,66.389,37.957,66.389,38.611,65.37L49.228,49.01C49.882,47.992,49.373,47.192,48.137,47.192ZM48.137,47.192"/>
  <path stroke-linecap="butt" stroke="none" x="0px" fill-opacity="1" version="1.1" fill="#000000" xmlns:xlink="http://www.w3.org/1999/xlink" stroke-dasharray="none" xml:space="preserve" stroke-opacity="1" stroke-linejoin="miter" stroke-width="1px" y="0px" fill-rule="evenodd" stroke-miterlimit="4" d="M49.155,25.232L55.19,25.232L55.19,63.116C55.19,64.789,56.572,66.17,58.244,66.17L61.517,66.17C63.189,66.17,64.571,64.789,64.571,63.116L64.571,25.232L70.606,25.232C71.842,25.232,72.351,24.432,71.697,23.414L61.08,7.053C60.426,6.035,59.335,6.035,58.681,7.053L48.064,23.414C47.41,24.432,47.919,25.232,49.155,25.232ZM49.155,25.232"/>
</g>
  <g id="Heavy-L" transform="matrix(1.0,0.0,0.0,1.0,2601.6126601562496,1475.3233447265625)">  <path y="0px" xmlns:xlink="http://www.w3.org/1999/xlink" xml:space="preserve" fill-rule="nonzero" stroke-linecap="butt" version="1.1" stroke-width="1px" stroke-opacity="1" x="0px" stroke-linejoin="miter" fill="#000000" stroke-dasharray="none" stroke="none" fill-opacity="1" stroke-miterlimit="4" d="M11.634,6.253L16.506,6.253L28.141,33.085L21.524,33.085L19.197,27.413L8.798,27.413L6.544,33.085L0,33.085L11.634,6.253ZM13.961,14.034L10.689,22.396L17.233,22.396L13.961,14.034ZM13.961,14.034"/>
  <path fill-rule="nonzero" version="1.1" stroke-opacity="1" stroke-width="1px" fill-opacity="1" stroke-miterlimit="4" x="0px" y="0px" stroke-dasharray="none" xml:space="preserve" xmlns:xlink="http://www.w3.org/1999/xlink" stroke-linecap="butt" stroke-linejoin="miter" stroke="none" fill="#000000" d="M24.578,44.72L10.98,60.862L24.069,60.862L24.069,66.098L3.781,66.098L3.781,60.862L17.161,44.72L3.345,44.72L3.345,39.266L24.578,39.266L24.578,44.72ZM24.578,44.72"/>
  <path stroke="none" xml:space="preserve" stroke-linecap="butt" stroke-miterlimit="4" fill-rule="evenodd" stroke-width="1px" stroke-linejoin="miter" xmlns:xlink="http://www.w3.org/1999/xlink" stroke-opacity="1" fill-opacity="1" x="0px" fill="#000000" stroke-dasharray="none" version="1.1" y="0px" d="M48.137,47.192L42.102,47.192L42.102,9.307C42.102,7.635,40.72,6.253,39.048,6.253L35.776,6.253C34.103,6.253,32.722,7.635,32.722,9.307L32.722,47.192L26.686,47.192C25.45,47.192,24.941,47.992,25.596,49.01L36.212,65.37C36.866,66.389,37.957,66.389,38.611,65.37L49.228,49.01C49.882,47.992,49.373,47.192,48.137,47.192ZM48.137,47.192"/>
  <path x="0px" y="0px" stroke-opacity="1" fill-rule="evenodd" stroke-linejoin="miter" version="1.1" fill-opacity="1" xml:space="preserve" stroke="none" stroke-miterlimit="4" fill="#000000" stroke-dasharray="none" stroke-width="1px" xmlns:xlink="http://www.w3.org/1999/xlink" stroke-linecap="butt" d="M49.155,25.232L55.19,25.232L55.19,63.116C55.19,64.789,56.572,66.17,58.244,66.17L61.517,66.17C63.189,66.17,64.571,64.789,64.571,63.116L64.571,25.232L70.606,25.232C71.842,25.232,72.351,24.432,71.697,23.414L61.08,7.053C60.426,6.035,59.335,6.035,58.681,7.053L48.064,23.414C47.41,24.432,47.919,25.232,49.155,25.232ZM49.155,25.232"/>
</g>
  <g id="Bold-L" transform="matrix(1.0,0.0,0.0,1.0,2304.9026601562496,1475.3233447265625)">  <path stroke-dasharray="none" stroke-opacity="1" stroke-width="1px" x="0px" stroke-linejoin="miter" xml:space="preserve" fill-rule="nonzero" version="1.1" fill="#000000" stroke="none" stroke-miterlimit="4" y="0px" xmlns:xlink="http://www.w3.org/1999/xlink" fill-opacity="1" stroke-linecap="butt" d="M11.634,6.253L16.506,6.253L28.141,33.085L21.524,33.085L19.197,27.413L8.798,27.413L6.544,33.085L0,33.085L11.634,6.253ZM13.961,14.034L10.689,22.396L17.233,22.396L13.961,14.034ZM13.961,14.034"/>
  <path stroke-width="1px" fill-opacity="1" fill="#000000" stroke-linecap="butt" xml:space="preserve" stroke-opacity="1" stroke="none" y="0px" fill-rule="nonzero" x="0px" stroke-miterlimit="4" stroke-linejoin="miter" xmlns:xlink="http://www.w3.org/1999/xlink" version="1.1" stroke-dasharray="none" d="M24.578,44.72L10.98,60.862L24.069,60.862L24.069,66.098L3.781,66.098L3.781,60.862L17.161,44.72L3.345,44.72L3.345,39.266L24.578,39.266L24.578,44.72ZM24.578,44.72"/>
  <path version="1.1" xmlns:xlink="http://www.w3.org/1999/xlink" stroke-width="1px" stroke-linecap="butt" fill-rule="evenodd" xml:space="preserve" stroke-opacity="1" x="0px" stroke-dasharray="none" fill-opacity="1" stroke-linejoin="miter" y="0px" stroke-miterlimit="4" fill="#000000" stroke="none" d="M48.137,47.192L42.102,47.192L42.102,9.307C42.102,7.635,40.72,6.253,39.048,6.253L35.776,6.253C34.103,6.253,32.722,7.635,32.722,9.307L32.722,47.192L26.686,47.192C25.45,47.192,24.941,47.992,25.596,49.01L36.212,65.37C36.866,66.389,37.957,66.389,38.611,65.37L49.228,49.01C49.882,47.992,49.373,47.192,48.137,47.192ZM48.137,47.192"/>
  <path fill-opacity="1" x="0px" fill-rule="evenodd" fill="#000000" xmlns:xlink="http://www.w3.org/1999/xlink" stroke-linejoin="miter" stroke-miterlimit="4" xml:space="preserve" y="0px" stroke="none" stroke-opacity="1" stroke-dasharray="none" version="1.1" stroke-width="1px" stroke-linecap="butt" d="M49.155,25.232L55.19,25.232L55.19,63.116C55.19,64.789,56.572,66.17,58.244,66.17L61.517,66.17C63.189,66.17,64.571,64.789,64.571,63.116L64.571,25.232L70.606,25.232C71.842,25.232,72.351,24.432,71.697,23.414L61.08,7.053C60.426,6.035,59.335,6.035,58.681,7.053L48.064,23.414C47.41,24.432,47.919,25.232,49.155,25.232ZM49.155,25.232"/>
</g>
  <g id="Semibold-L" transform="matrix(1.0,0.0,0.0,1.0,2008.19266015625,1475.3233447265625)">  <path xmlns:xlink="http://www.w3.org/1999/xlink" y="0px" x="0px" fill="#000000" stroke-dasharray="none" stroke-linejoin="miter" stroke-miterlimit="4" stroke-opacity="1" version="1.1" xml:space="preserve" stroke="none" fill-opacity="1" fill-rule="nonzero" stroke-linecap="butt" stroke-width="1px" d="M11.634,6.253L16.506,6.253L28.141,33.085L21.524,33.085L19.197,27.413L8.798,27.413L6.544,33.085L0,33.085L11.634,6.253ZM13.961,14.034L10.689,22.396L17.233,22.396L13.961,14.034ZM13.961,14.034"/>
  <path xmlns:xlink="http://www.w3.org/1999/xlink" fill="#000000" stroke-miterlimit="4" stroke-dasharray="none" stroke-width="1px" stroke="none" fill-opacity="1" stroke-opacity="1" stroke-linejoin="miter" x="0px" xml:space="preserve" version="1.1" y="0px" stroke-linecap="butt" fill-rule="nonzero" d="M24.578,44.72L10.98,60.862L24.069,60.862L24.069,66.098L3.781,66.098L3.781,60.862L17.161,44.72L3.345,44.72L3.345,39.266L24.578,39.266L24.578,44.72ZM24.578,44.72"/>
  <path stroke-miterlimit="4" fill-rule="evenodd" fill="#000000" xmlns:xlink="http://www.w3.org/1999/xlink" xml:space="preserve" version="1.1" stroke-dasharray="none" fill-opacity="1" stroke-linecap="butt" stroke-linejoin="miter" stroke-opacity="1" stroke-width="1px" y="0px" stroke="none" x="0px" d="M48.137,47.192L42.102,47.192L42.102,9.307C42.102,7.635,40.72,6.253,39.048,6.253L35.776,6.253C34.103,6.253,32.722,7.635,32.722,9.307L32.722,47.192L26.686,47.192C25.45,47.192,24.941,47.992,25.596,49.01L36.212,65.37C36.866,66.389,37.957,66.389,38.611,65.37L49.228,49.01C49.882,47.992,49.373,47.192,48.137,47.192ZM48.137,47.192"/>
  <path stroke-linecap="butt" fill-opacity="1" stroke-miterlimit="4" stroke-opacity="1" version="1.1" x="0px" xmlns:xlink="http://www.w3.org/1999/xlink" stroke-width="1px" fill="#000000" stroke-dasharray="none" xml:space="preserve" stroke-linejoin="miter" stroke="none" fill-rule="evenodd" y="0px" d="M49.155,25.232L55.19,25.232L55.19,63.116C55.19,64.789,56.572,66.17,58.244,66.17L61.517,66.17C63.189,66.17,64.571,64.789,64.571,63.116L64.571,25.232L70.606,25.232C71.842,25.232,72.351,24.432,71.697,23.414L61.08,7.053C60.426,6.035,59.335,6.035,58.681,7.053L48.064,23.414C47.41,24.432,47.919,25.232,49.155,25.232ZM49.155,25.232"/>
</g>
  <g id="Medium-L" transform="matrix(1.0,0.0,0.0,1.0,1711.48266015625,1475.3233447265625)">  <path stroke-dasharray="none" stroke-miterlimit="4" x="0px" stroke-linecap="butt" stroke-linejoin="miter" xml:space="preserve" fill-rule="nonzero" stroke-width="1px" stroke-opacity="1" version="1.1" stroke="none" fill-opacity="1" fill="#000000" y="0px" xmlns:xlink="http://www.w3.org/1999/xlink" d="M11.634,6.253L16.506,6.253L28.141,33.085L21.524,33.085L19.197,27.413L8.798,27.413L6.544,33.085L0,33.085L11.634,6.253ZM13.961,14.034L10.689,22.396L17.233,22.396L13.961,14.034ZM13.961,14.034"/>
  <path stroke="none" fill-rule="nonzero" xmlns:xlink="http://www.w3.org/1999/xlink" y="0px" xml:space="preserve" stroke-opacity="1" stroke-miterlimit="4" stroke-linejoin="miter" stroke-width="1px" stroke-dasharray="none" fill-opacity="1" x="0px" stroke-linecap="butt" fill="#000000" version="1.1" d="M24.578,44.72L10.98,60.862L24.069,60.862L24.069,66.098L3.781,66.098L3.781,60.862L17.161,44.72L3.345,44.72L3.345,39.266L24.578,39.266L24.578,44.72ZM24.578,44.72"/>
  <path stroke="none" stroke-linecap="butt" x="0px" stroke-linejoin="miter" stroke-miterlimit="4" xml:space="preserve" fill-rule="evenodd" stroke-width="1px" version="1.1" stroke-dasharray="none" fill-opacity="1" xmlns:xlink="http://www.w3.org/1999/xlink" stroke-opacity="1" fill="#000000" y="0px" d="M48.137,47.192L42.102,47.192L42.102,9.307C42.102,7.635,40.72,6.253,39.048,6.253L35.776,6.253C34.103,6.253,32.722,7.635,32.722,9.307L32.722,47.192L26.686,47.192C25.45,47.192,24.941,47.992,25.596,49.01L36.212,65.37C36.866,66.389,37.957,66.389,38.611,65.37L49.228,49.01C49.882,47.992,49.373,47.192,48.137,47.192ZM48.137,47.192"/>
  <path stroke-miterlimit="4" fill-opacity="1" stroke-width="1px" stroke-dasharray="none" y="0px" xmlns:xlink="http://www.w3.org/1999/xlink" stroke-opacity="1" fill-rule="evenodd" fill="#000000" x="0px" stroke="none" stroke-linejoin="miter" version="1.1" xml:space="preserve" stroke-linecap="butt" d="M49.155,25.232L55.19,25.232L55.19,63.116C55.19,64.789,56.572,66.17,58.244,66.17L61.517,66.17C63.189,66.17,64.571,64.789,64.571,63.116L64.571,25.232L70.606,25.232C71.842,25.232,72.351,24.432,71.697,23.414L61.08,7.053C60.426,6.035,59.335,6.035,58.681,7.053L48.064,23.414C47.41,24.432,47.919,25.232,49.155,25.232ZM49.155,25.232"/>
</g>
  <g id="Regular-L" transform="matrix(1.0,0.0,0.0,1.0,1414.77266015625,1475.3233447265625)">  <path stroke="none" fill-rule="nonzero" fill-opacity="1" stroke-miterlimit="4" y="0px" stroke-opacity="1" stroke-dasharray="none" stroke-linejoin="miter" stroke-width="1px" xml:space="preserve" fill="#000000" stroke-linecap="butt" x="0px" version="1.1" xmlns:xlink="http://www.w3.org/1999/xlink" d="M11.634,6.253L16.506,6.253L28.141,33.085L21.524,33.085L19.197,27.413L8.798,27.413L6.544,33.085L0,33.085L11.634,6.253ZM13.961,14.034L10.689,22.396L17.233,22.396L13.961,14.034ZM13.961,14.034"/>
  <path y="0px" fill-rule="nonzero" xmlns:xlink="http://www.w3.org/1999/xlink" version="1.1" stroke-width="1px" stroke-opacity="1" stroke-linecap="butt" fill-opacity="1" xml:space="preserve" x="0px" stroke-dasharray="none" stroke-linejoin="miter" stroke="none" stroke-miterlimit="4" fill="#000000" d="M24.578,44.72L10.98,60.862L24.069,60.862L24.069,66.098L3.781,66.098L3.781,60.862L17.161,44.72L3.345,44.72L3.345,39.266L24.578,39.266L24.578,44.72ZM24.578,44.72"/>
  <path version="1.1" xml:space="preserve" y="0px" fill-opacity="1" fill="#000000" stroke-linejoin="miter" stroke-width="1px" stroke="none" fill-rule="evenodd" stroke-linecap="butt" xmlns:xlink="http://www.w3.org/1999/xlink" stroke-opacity="1" stroke-dasharray="none" x="0px" stroke-miterlimit="4" d="M48.137,47.192L42.102,47.192L42.102,9.307C42.102,7.635,40.72,6.253,39.048,6.253L35.776,6.253C34.103,6.253,32.722,7.635,32.722,9.307L32.722,47.192L26.686,47.192C25.45,47.192,24.941,47.992,25.596,49.01L36.212,65.37C36.866,66.389,37.957,66.389,38.611,65.37L49.228,49.01C49.882,47.992,49.373,47.192,48.137,47.192ZM48.137,47.192"/>
  <path stroke="none" x="0px" stroke-miterlimit="4" stroke-opacity="1" fill-rule="evenodd" y="0px" fill="#000000" stroke-dasharray="none" stroke-width="1px" version="1.1" xml:space="preserve" xmlns:xlink="http://www.w3.org/1999/xlink" stroke-linecap="butt" fill-opacity="1" stroke-linejoin="miter" d="M49.155,25.232L55.19,25.232L55.19,63.116C55.19,64.789,56.572,66.17,58.244,66.17L61.517,66.17C63.189,66.17,64.571,64.789,64.571,63.116L64.571,25.232L70.606,25.232C71.842,25.232,72.351,24.432,71.697,23.414L61.08,7.053C60.426,6.035,59.335,6.035,58.681,7.053L48.064,23.414C47.41,24.432,47.919,25.232,49.155,25.232ZM49.155,25.232"/>
</g>
  <g id="Light-L" transform="matrix(1.0,0.0,0.0,1.0,1118.06266015625,1475.3233447265625)">  <path x="0px" version="1.1" y="0px" xml:space="preserve" fill="#000000" stroke-width="1px" stroke-miterlimit="4" stroke-opacity="1" fill-rule="nonzero" stroke="none" stroke-linejoin="miter" stroke-dasharray="none" xmlns:xlink="http://www.w3.org/1999/xlink" stroke-linecap="butt" fill-opacity="1" d="M11.634,6.253L16.506,6.253L28.141,33.085L21.524,33.085L19.197,27.413L8.798,27.413L6.544,33.085L0,33.085L11.634,6.253ZM13.961,14.034L10.689,22.396L17.233,22.396L13.961,14.034ZM13.961,14.034"/>
  <path stroke-dasharray="none" y="0px" stroke="none" version="1.1" fill="#000000" stroke-width="1px" stroke-miterlimit="4" stroke-linecap="butt" fill-opacity="1" fill-rule="nonzero" x="0px" xmlns:xlink="http://www.w3.org/1999/xlink" xml:space="preserve" stroke-linejoin="miter" stroke-opacity="1" d="M24.578,44.72L10.98,60.862L24.069,60.862L24.069,66.098L3.781,66.098L3.781,60.862L17.161,44.72L3.345,44.72L3.345,39.266L24.578,39.266L24.578,44.72ZM24.578,44.72"/>
  <path xmlns:xlink="http://www.w3.org/1999/xlink" fill="#000000" version="1.1" stroke-opacity="1" fill-rule="evenodd" stroke-dasharray="none" fill-opacity="1" xml:space="preserve" stroke-linecap="butt" stroke-linejoin="miter" x="0px" stroke="none" stroke-miterlimit="4" stroke-width="1px" y="0px" d="M48.137,47.192L42.102,47.192L42.102,9.307C42.102,7.635,40.72,6.253,39.048,6.253L35.776,6.253C34.103,6.253,32.722,7.635,32.722,9.307L32.722,47.192L26.686,47.192C25.45,47.192,24.941,47.992,25.596,49.01L36.212,65.37C36.866,66.389,37.957,66.389,38.611,65.37L49.228,49.01C49.882,47.992,49.373,47.192,48.137,47.192ZM48.137,47.192"/>
  <path stroke="none" fill-opacity="1" fill="#000000" stroke-width="1px" version="1.1" stroke-linejoin="miter" xmlns:xlink="http://www.w3.org/1999/xlink" stroke-linecap="butt" x="0px" stroke-miterlimit="4" fill-rule="evenodd" xml:space="preserve" stroke-dasharray="none" y="0px" stroke-opacity="1" d="M49.155,25.232L55.19,25.232L55.19,63.116C55.19,64.789,56.572,66.17,58.244,66.17L61.517,66.17C63.189,66.17,64.571,64.789,64.571,63.116L64.571,25.232L70.606,25.232C71.842,25.232,72.351,24.432,71.697,23.414L61.08,7.053C60.426,6.035,59.335,6.035,58.681,7.053L48.064,23.414C47.41,24.432,47.919,25.232,49.155,25.232ZM49.155,25.232"/>
</g>
  <g id="Thin-L" transform="matrix(1.0,0.0,0.0,1.0,821.3526601562501,1475.3233447265625)">  <path stroke-miterlimit="4" y="0px" fill="#000000" fill-rule="nonzero" stroke-linecap="butt" xmlns:xlink="http://www.w3.org/1999/xlink" fill-opacity="1" x="0px" stroke-dasharray="none" version="1.1" stroke-linejoin="miter" stroke="none" xml:space="preserve" stroke-width="1px" stroke-opacity="1" d="M11.634,6.253L16.506,6.253L28.141,33.085L21.524,33.085L19.197,27.413L8.798,27.413L6.544,33.085L0,33.085L11.634,6.253ZM13.961,14.034L10.689,22.396L17.233,22.396L13.961,14.034ZM13.961,14.034"/>
  <path stroke-width="1px" xml:space="preserve" stroke-linecap="butt" y="0px" fill-opacity="1" stroke-opacity="1" stroke-linejoin="miter" stroke-dasharray="none" stroke="none" fill-rule="nonzero" fill="#000000" x="0px" stroke-miterlimit="4" xmlns:xlink="http://www.w3.org/1999/xlink" version="1.1" d="M24.578,44.72L10.98,60.862L24.069,60.862L24.069,66.098L3.781,66.098L3.781,60.862L17.161,44.72L3.345,44.72L3.345,39.266L24.578,39.266L24.578,44.72ZM24.578,44.72"/>
  <path y="0px" xml:space="preserve" fill="#000000" fill-rule="evenodd" stroke="none" stroke-dasharray="none" stroke-opacity="1" fill-opacity="1" x="0px" stroke-linejoin="miter" stroke-miterlimit="4" stroke-width="1px" version="1.1" xmlns:xlink="http://www.w3.org/1999/xlink" stroke-linecap="butt" d="M48.137,47.192L42.102,47.192L42.102,9.307C42.102,7.635,40.72,6.253,39.048,6.253L35.776,6.253C34.103,6.253,32.722,7.635,32.722,9.307L32.722,47.192L26.686,47.192C25.45,47.192,24.941,47.992,25.596,49.01L36.212,65.37C36.866,66.389,37.957,66.389,38.611,65.37L49.228,49.01C49.882,47.992,49.373,47.192,48.137,47.192ZM48.137,47.192"/>
  <path stroke-width="1px" version="1.1" stroke-linejoin="miter" xmlns:xlink="http://www.w3.org/1999/xlink" y="0px" fill-opacity="1" stroke-linecap="butt" stroke="none" x="0px" fill-rule="evenodd" stroke-dasharray="none" stroke-miterlimit="4" fill="#000000" stroke-opacity="1" xml:space="preserve" d="M49.155,25.232L55.19,25.232L55.19,63.116C55.19,64.789,56.572,66.17,58.244,66.17L61.517,66.17C63.189,66.17,64.571,64.789,64.571,63.116L64.571,25.232L70.606,25.232C71.842,25.232,72.351,24.432,71.697,23.414L61.08,7.053C60.426,6.035,59.335,6.035,58.681,7.053L48.064,23.414C47.41,24.432,47.919,25.232,49.155,25.232ZM49.155,25.232"/>
</g>
  <g id="Ultralight-L" transform="matrix(1.0,0.0,0.0,1.0,524.64266015625,1475.3233447265625)">  <path stroke="none" stroke-linecap="butt" stroke-dasharray="none" version="1.1" stroke-linejoin="miter" xml:space="preserve" xmlns:xlink="http://www.w3.org/1999/xlink" stroke-width="1px" y="0px" fill="#000000" x="0px" fill-opacity="1" stroke-miterlimit="4" stroke-opacity="1" fill-rule="nonzero" d="M11.634,6.253L16.506,6.253L28.141,33.085L21.524,33.085L19.197,27.413L8.798,27.413L6.544,33.085L0,33.085L11.634,6.253ZM13.961,14.034L10.689,22.396L17.233,22.396L13.961,14.034ZM13.961,14.034"/>
  <path fill-opacity="1" stroke="none" xml:space="preserve" version="1.1" fill="#000000" y="0px" stroke-width="1px" stroke-linejoin="miter" stroke-miterlimit="4" stroke-dasharray="none" stroke-linecap="butt" x="0px" fill-rule="nonzero" stroke-opacity="1" xmlns:xlink="http://www.w3.org/1999/xlink" d="M24.578,44.72L10.98,60.862L24.069,60.862L24.069,66.098L3.781,66.098L3.781,60.862L17.161,44.72L3.345,44.72L3.345,39.266L24.578,39.266L24.578,44.72ZM24.578,44.72"/>
  <path xml:space="preserve" x="0px" xmlns:xlink="http://www.w3.org/1999/xlink" stroke-linejoin="miter" stroke-width="1px" stroke-linecap="butt" fill-rule="evenodd" stroke-miterlimit="4" y="0px" fill-opacity="1" stroke-dasharray="none" version="1.1" stroke-opacity="1" fill="#000000" stroke="none" d="M48.137,47.192L42.102,47.192L42.102,9.307C42.102,7.635,40.72,6.253,39.048,6.253L35.776,6.253C34.103,6.253,32.722,7.635,32.722,9.307L32.722,47.192L26.686,47.192C25.45,47.192,24.941,47.992,25.596,49.01L36.212,65.37C36.866,66.389,37.957,66.389,38.611,65.37L49.228,49.01C49.882,47.992,49.373,47.192,48.137,47.192ZM48.137,47.192"/>
  <path fill-rule="evenodd" fill-opacity="1" xml:space="preserve" stroke-linecap="butt" stroke-dasharray="none" stroke-width="1px" xmlns:xlink="http://www.w3.org/1999/xlink" y="0px" fill="#000000" stroke="none" stroke-miterlimit="4" stroke-linejoin="miter" x="0px" stroke-opacity="1" version="1.1" d="M49.155,25.232L55.19,25.232L55.19,63.116C55.19,64.789,56.572,66.17,58.244,66.17L61.517,66.17C63.189,66.17,64.571,64.789,64.571,63.116L64.571,25.232L70.606,25.232C71.842,25.232,72.351,24.432,71.697,23.414L61.08,7.053C60.426,6.035,59.335,6.035,58.681,7.053L48.064,23.414C47.41,24.432,47.919,25.232,49.155,25.232ZM49.155,25.232"/>
</g>
  <g id="Black-M" transform="matrix(1.0,0.0,0.0,1.0,2906.496015625,1055.5400390625)">  <path xml:space="preserve" fill-opacity="1" stroke-linejoin="miter" version="1.1" stroke-linecap="butt" fill="#000000" x="0px" y="0px" stroke-width="1px" fill-rule="nonzero" stroke-miterlimit="4" stroke-dasharray="none" stroke="none" xmlns:xlink="http://www.w3.org/1999/xlink" stroke-opacity="1" d="M9.019,4.848L12.796,4.848L21.814,25.647L16.685,25.647L14.881,21.251L6.821,21.251L5.073,25.647L0,25.647L9.019,4.848ZM10.823,10.879L8.286,17.361L13.359,17.361L10.823,10.879ZM10.823,10.879"/>
  <path stroke-dasharray="none" version="1.1" xmlns:xlink="http://www.w3.org/1999/xlink" stroke-miterlimit="4" y="0px" fill-rule="nonzero" fill-opacity="1" stroke-opacity="1" stroke="none" stroke-width="1px" stroke-linecap="butt" x="0px" xml:space="preserve" stroke-linejoin="miter" fill="#000000" d="M19.052,34.666L8.512,47.18L18.658,47.18L18.658,51.238L2.931,51.238L2.931,47.18L13.303,34.666L2.593,34.666L2.593,30.439L19.052,30.439L19.052,34.666ZM19.052,34.666"/>
  <path y="0px" xml:space="preserve" fill-rule="evenodd" stroke-opacity="1" fill-opacity="1" stroke-dasharray="none" stroke-linejoin="miter" version="1.1" stroke-miterlimit="4" stroke="none" stroke-width="1px" xmlns:xlink="http://www.w3.org/1999/xlink" stroke-linecap="butt" fill="#000000" x="0px" d="M37.316,36.583L32.637,36.583L32.637,7.215C32.637,5.919,31.566,4.848,30.27,4.848L27.733,4.848C26.437,4.848,25.366,5.919,25.366,7.215L25.366,36.583L20.687,36.583C19.729,36.583,19.334,37.203,19.842,37.992L28.071,50.675C28.579,51.464,29.424,51.464,29.931,50.675L38.161,37.992C38.668,37.203,38.274,36.583,37.316,36.583ZM37.316,36.583"/>
  <path stroke-linecap="butt" stroke="none" x="0px" fill-opacity="1" version="1.1" fill="#000000" xmlns:xlink="http://www.w3.org/1999/xlink" stroke-dasharray="none" xml:space="preserve" stroke-opacity="1" stroke-linejoin="miter" stroke-width="1px" y="0px" fill-rule="evenodd" stroke-miterlimit="4" d="M38.105,19.56L42.783,19.56L42.783,48.927C42.783,50.224,43.854,51.295,45.151,51.295L47.687,51.295C48.984,51.295,50.055,50.224,50.055,48.927L50.055,19.56L54.733,19.56C55.692,19.56,56.086,18.94,55.579,18.15L47.349,5.468C46.842,4.679,45.996,4.679,45.489,5.468L37.259,18.15C36.752,18.94,37.146,19.56,38.105,19.56ZM38.105,19.56"/>
</g>
  <g id="Heavy-M" transform="matrix(1.0,0.0,0.0,1.0,2609.786015625,1055.5400390625)">  <path y="0px" xmlns:xlink="http://www.w3.org/1999/xlink" xml:space="preserve" fill-rule="nonzero" stroke-linecap="butt" version="1.1" stroke-width="1px" stroke-opacity="1" x="0px" stroke-linejoin="miter" fill="#000000" stroke-dasharray="none" stroke="none" fill-opacity="1" stroke-miterlimit="4" d="M9.019,4.848L12.796,4.848L21.814,25.647L16.685,25.647L14.881,21.251L6.821,21.251L5.073,25.647L0,25.647L9.019,4.848ZM10.823,10.879L8.286,17.361L13.359,17.361L10.823,10.879ZM10.823,10.879"/>
  <path fill-rule="nonzero" version="1.1" stroke-opacity="1" stroke-width="1px" fill-opacity="1" stroke-miterlimit="4" x="0px" y="0px" stroke-dasharray="none" xml:space="preserve" xmlns:xlink="http://www.w3.org/1999/xlink" stroke-linecap="butt" stroke-linejoin="miter" stroke="none" fill="#000000" d="M19.052,34.666L8.512,47.18L18.658,47.18L18.658,51.238L2.931,51.238L2.931,47.18L13.303,34.666L2.593,34.666L2.593,30.439L19.052,30.439L19.052,34.666ZM19.052,34.666"/>
  <path stroke="none" xml:space="preserve" stroke-linecap="butt" stroke-miterlimit="4" fill-rule="evenodd" stroke-width="1px" stroke-linejoin="miter" xmlns:xlink="http://www.w3.org/1999/xlink" stroke-opacity="1" fill-opacity="1" x="0px" fill="#000000" stroke-dasharray="none" version="1.1" y="0px" d="M37.316,36.583L32.637,36.583L32.637,7.215C32.637,5.919,31.566,4.848,30.27,4.848L27.733,4.848C26.437,4.848,25.366,5.919,25.366,7.215L25.366,36.583L20.687,36.583C19.729,36.583,19.334,37.203,19.842,37.992L28.071,50.675C28.579,51.464,29.424,51.464,29.931,50.675L38.161,37.992C38.668,37.203,38.274,36.583,37.316,36.583ZM37.316,36.583"/>
  <path x="0px" y="0px" stroke-opacity="1" fill-rule="evenodd" stroke-linejoin="miter" version="1.1" fill-opacity="1" xml:space="preserve" stroke="none" stroke-miterlimit="4" fill="#000000" stroke-dasharray="none" stroke-width="1px" xmlns:xlink="http://www.w3.org/1999/xlink" stroke-linecap="butt" d="M38.105,19.56L42.783,19.56L42.783,48.927C42.783,50.224,43.854,51.295,45.151,51.295L47.687,51.295C48.984,51.295,50.055,50.224,50.055,48.927L50.055,19.56L54.733,19.56C55.692,19.56,56.086,18.94,55.579,18.15L47.349,5.468C46.842,4.679,45.996,4.679,45.489,5.468L37.259,18.15C36.752,18.94,37.146,19.56,38.105,19.56ZM38.105,19.56"/>
</g>
  <g id="Bold-M" transform="matrix(1.0,0.0,0.0,1.0,2313.076015625,1055.5400390625)">  <path stroke-dasharray="none" stroke-opacity="1" stroke-width="1px" x="0px" stroke-linejoin="miter" xml:space="preserve" fill-rule="nonzero" version="1.1" fill="#000000" stroke="none" stroke-miterlimit="4" y="0px" xmlns:xlink="http://www.w3.org/1999/xlink" fill-opacity="1" stroke-linecap="butt" d="M9.019,4.848L12.796,4.848L21.814,25.647L16.685,25.647L14.881,21.251L6.821,21.251L5.073,25.647L0,25.647L9.019,4.848ZM10.823,10.879L8.286,17.361L13.359,17.361L10.823,10.879ZM10.823,10.879"/>
  <path stroke-width="1px" fill-opacity="1" fill="#000000" stroke-linecap="butt" xml:space="preserve" stroke-opacity="1" stroke="none" y="0px" fill-rule="nonzero" x="0px" stroke-miterlimit="4" stroke-linejoin="miter" xmlns:xlink="http://www.w3.org/1999/xlink" version="1.1" stroke-dasharray="none" d="M19.052,34.666L8.512,47.18L18.658,47.18L18.658,51.238L2.931,51.238L2.931,47.18L13.303,34.666L2.593,34.666L2.593,30.439L19.052,30.439L19.052,34.666ZM19.052,34.666"/>
  <path version="1.1" xmlns:xlink="http://www.w3.org/1999/xlink" stroke-width="1px" stroke-linecap="butt" fill-rule="evenodd" xml:space="preserve" stroke-opacity="1" x="0px" stroke-dasharray="none" fill-opacity="1" stroke-linejoin="miter" y="0px" stroke-miterlimit="4" fill="#000000" stroke="none" d="M37.316,36.583L32.637,36.583L32.637,7.215C32.637,5.919,31.566,4.848,30.27,4.848L27.733,4.848C26.437,4.848,25.366,5.919,25.366,7.215L25.366,36.583L20.687,36.583C19.729,36.583,19.334,37.203,19.842,37.992L28.071,50.675C28.579,51.464,29.424,51.464,29.931,50.675L38.161,37.992C38.668,37.203,38.274,36.583,37.316,36.583ZM37.316,36.583"/>
  <path fill-opacity="1" x="0px" fill-rule="evenodd" fill="#000000" xmlns:xlink="http://www.w3.org/1999/xlink" stroke-linejoin="miter" stroke-miterlimit="4" xml:space="preserve" y="0px" stroke="none" stroke-opacity="1" stroke-dasharray="none" version="1.1" stroke-width="1px" stroke-linecap="butt" d="M38.105,19.56L42.783,19.56L42.783,48.927C42.783,50.224,43.854,51.295,45.151,51.295L47.687,51.295C48.984,51.295,50.055,50.224,50.055,48.927L50.055,19.56L54.733,19.56C55.692,19.56,56.086,18.94,55.579,18.15L47.349,5.468C46.842,4.679,45.996,4.679,45.489,5.468L37.259,18.15C36.752,18.94,37.146,19.56,38.105,19.56ZM38.105,19.56"/>
</g>
  <g id="Semibold-M" transform="matrix(1.0,0.0,0.0,1.0,2016.366015625,1055.5400390625)">  <path xmlns:xlink="http://www.w3.org/1999/xlink" y="0px" x="0px" fill="#000000" stroke-dasharray="none" stroke-linejoin="miter" stroke-miterlimit="4" stroke-opacity="1" version="1.1" xml:space="preserve" stroke="none" fill-opacity="1" fill-rule="nonzero" stroke-linecap="butt" stroke-width="1px" d="M9.019,4.848L12.796,4.848L21.814,25.647L16.685,25.647L14.881,21.251L6.821,21.251L5.073,25.647L0,25.647L9.019,4.848ZM10.823,10.879L8.286,17.361L13.359,17.361L10.823,10.879ZM10.823,10.879"/>
  <path xmlns:xlink="http://www.w3.org/1999/xlink" fill="#000000" stroke-miterlimit="4" stroke-dasharray="none" stroke-width="1px" stroke="none" fill-opacity="1" stroke-opacity="1" stroke-linejoin="miter" x="0px" xml:space="preserve" version="1.1" y="0px" stroke-linecap="butt" fill-rule="nonzero" d="M19.052,34.666L8.512,47.18L18.658,47.18L18.658,51.238L2.931,51.238L2.931,47.18L13.303,34.666L2.593,34.666L2.593,30.439L19.052,30.439L19.052,34.666ZM19.052,34.666"/>
  <path stroke-miterlimit="4" fill-rule="evenodd" fill="#000000" xmlns:xlink="http://www.w3.org/1999/xlink" xml:space="preserve" version="1.1" stroke-dasharray="none" fill-opacity="1" stroke-linecap="butt" stroke-linejoin="miter" stroke-opacity="1" stroke-width="1px" y="0px" stroke="none" x="0px" d="M37.316,36.583L32.637,36.583L32.637,7.215C32.637,5.919,31.566,4.848,30.27,4.848L27.733,4.848C26.437,4.848,25.366,5.919,25.366,7.215L25.366,36.583L20.687,36.583C19.729,36.583,19.334,37.203,19.842,37.992L28.071,50.675C28.579,51.464,29.424,51.464,29.931,50.675L38.161,37.992C38.668,37.203,38.274,36.583,37.316,36.583ZM37.316,36.583"/>
  <path stroke-linecap="butt" fill-opacity="1" stroke-miterlimit="4" stroke-opacity="1" version="1.1" x="0px" xmlns:xlink="http://www.w3.org/1999/xlink" stroke-width="1px" fill="#000000" stroke-dasharray="none" xml:space="preserve" stroke-linejoin="miter" stroke="none" fill-rule="evenodd" y="0px" d="M38.105,19.56L42.783,19.56L42.783,48.927C42.783,50.224,43.854,51.295,45.151,51.295L47.687,51.295C48.984,51.295,50.055,50.224,50.055,48.927L50.055,19.56L54.733,19.56C55.692,19.56,56.086,18.94,55.579,18.15L47.349,5.468C46.842,4.679,45.996,4.679,45.489,5.468L37.259,18.15C36.752,18.94,37.146,19.56,38.105,19.56ZM38.105,19.56"/>
</g>
  <g id="Medium-M" transform="matrix(1.0,0.0,0.0,1.0,1719.656015625,1055.5400390625)">  <path stroke-dasharray="none" stroke-miterlimit="4" x="0px" stroke-linecap="butt" stroke-linejoin="miter" xml:space="preserve" fill-rule="nonzero" stroke-width="1px" stroke-opacity="1" version="1.1" stroke="none" fill-opacity="1" fill="#000000" y="0px" xmlns:xlink="http://www.w3.org/1999/xlink" d="M9.019,4.848L12.796,4.848L21.814,25.647L16.685,25.647L14.881,21.251L6.821,21.251L5.073,25.647L0,25.647L9.019,4.848ZM10.823,10.879L8.286,17.361L13.359,17.361L10.823,10.879ZM10.823,10.879"/>
  <path stroke="none" fill-rule="nonzero" xmlns:xlink="http://www.w3.org/1999/xlink" y="0px" xml:space="preserve" stroke-opacity="1" stroke-miterlimit="4" stroke-linejoin="miter" stroke-width="1px" stroke-dasharray="none" fill-opacity="1" x="0px" stroke-linecap="butt" fill="#000000" version="1.1" d="M19.052,34.666L8.512,47.18L18.658,47.18L18.658,51.238L2.931,51.238L2.931,47.18L13.303,34.666L2.593,34.666L2.593,30.439L19.052,30.439L19.052,34.666ZM19.052,34.666"/>
  <path stroke="none" stroke-linecap="butt" x="0px" stroke-linejoin="miter" stroke-miterlimit="4" xml:space="preserve" fill-rule="evenodd" stroke-width="1px" version="1.1" stroke-dasharray="none" fill-opacity="1" xmlns:xlink="http://www.w3.org/1999/xlink" stroke-opacity="1" fill="#000000" y="0px" d="M37.316,36.583L32.637,36.583L32.637,7.215C32.637,5.919,31.566,4.848,30.27,4.848L27.733,4.848C26.437,4.848,25.366,5.919,25.366,7.215L25.366,36.583L20.687,36.583C19.729,36.583,19.334,37.203,19.842,37.992L28.071,50.675C28.579,51.464,29.424,51.464,29.931,50.675L38.161,37.992C38.668,37.203,38.274,36.583,37.316,36.583ZM37.316,36.583"/>
  <path stroke-miterlimit="4" fill-opacity="1" stroke-width="1px" stroke-dasharray="none" y="0px" xmlns:xlink="http://www.w3.org/1999/xlink" stroke-opacity="1" fill-rule="evenodd" fill="#000000" x="0px" stroke="none" stroke-linejoin="miter" version="1.1" xml:space="preserve" stroke-linecap="butt" d="M38.105,19.56L42.783,19.56L42.783,48.927C42.783,50.224,43.854,51.295,45.151,51.295L47.687,51.295C48.984,51.295,50.055,50.224,50.055,48.927L50.055,19.56L54.733,19.56C55.692,19.56,56.086,18.94,55.579,18.15L47.349,5.468C46.842,4.679,45.996,4.679,45.489,5.468L37.259,18.15C36.752,18.94,37.146,19.56,38.105,19.56ZM38.105,19.56"/>
</g>
  <g id="Regular-M" transform="matrix(1.0,0.0,0.0,1.0,1422.946015625,1055.5400390625)">  <path stroke="none" fill-rule="nonzero" fill-opacity="1" stroke-miterlimit="4" y="0px" stroke-opacity="1" stroke-dasharray="none" stroke-linejoin="miter" stroke-width="1px" xml:space="preserve" fill="#000000" stroke-linecap="butt" x="0px" version="1.1" xmlns:xlink="http://www.w3.org/1999/xlink" d="M9.019,4.848L12.796,4.848L21.814,25.647L16.685,25.647L14.881,21.251L6.821,21.251L5.073,25.647L0,25.647L9.019,4.848ZM10.823,10.879L8.286,17.361L13.359,17.361L10.823,10.879ZM10.823,10.879"/>
  <path y="0px" fill-rule="nonzero" xmlns:xlink="http://www.w3.org/1999/xlink" version="1.1" stroke-width="1px" stroke-opacity="1" stroke-linecap="butt" fill-opacity="1" xml:space="preserve" x="0px" stroke-dasharray="none" stroke-linejoin="miter" stroke="none" stroke-miterlimit="4" fill="#000000" d="M19.052,34.666L8.512,47.18L18.658,47.18L18.658,51.238L2.931,51.238L2.931,47.18L13.303,34.666L2.593,34.666L2.593,30.439L19.052,30.439L19.052,34.666ZM19.052,34.666"/>
  <path version="1.1" xml:space="preserve" y="0px" fill-opacity="1" fill="#000000" stroke-linejoin="miter" stroke-width="1px" stroke="none" fill-rule="evenodd" stroke-linecap="butt" xmlns:xlink="http://www.w3.org/1999/xlink" stroke-opacity="1" stroke-dasharray="none" x="0px" stroke-miterlimit="4" d="M37.316,36.583L32.637,36.583L32.637,7.215C32.637,5.919,31.566,4.848,30.27,4.848L27.733,4.848C26.437,4.848,25.366,5.919,25.366,7.215L25.366,36.583L20.687,36.583C19.729,36.583,19.334,37.203,19.842,37.992L28.071,50.675C28.579,51.464,29.424,51.464,29.931,50.675L38.161,37.992C38.668,37.203,38.274,36.583,37.316,36.583ZM37.316,36.583"/>
  <path stroke="none" x="0px" stroke-miterlimit="4" stroke-opacity="1" fill-rule="evenodd" y="0px" fill="#000000" stroke-dasharray="none" stroke-width="1px" version="1.1" xml:space="preserve" xmlns:xlink="http://www.w3.org/1999/xlink" stroke-linecap="butt" fill-opacity="1" stroke-linejoin="miter" d="M38.105,19.56L42.783,19.56L42.783,48.927C42.783,50.224,43.854,51.295,45.151,51.295L47.687,51.295C48.984,51.295,50.055,50.224,50.055,48.927L50.055,19.56L54.733,19.56C55.692,19.56,56.086,18.94,55.579,18.15L47.349,5.468C46.842,4.679,45.996,4.679,45.489,5.468L37.259,18.15C36.752,18.94,37.146,19.56,38.105,19.56ZM38.105,19.56"/>
</g>
  <g id="Light-M" transform="matrix(1.0,0.0,0.0,1.0,1126.2360156250002,1055.5400390625)">  <path x="0px" version="1.1" y="0px" xml:space="preserve" fill="#000000" stroke-width="1px" stroke-miterlimit="4" stroke-opacity="1" fill-rule="nonzero" stroke="none" stroke-linejoin="miter" stroke-dasharray="none" xmlns:xlink="http://www.w3.org/1999/xlink" stroke-linecap="butt" fill-opacity="1" d="M9.019,4.848L12.796,4.848L21.814,25.647L16.685,25.647L14.881,21.251L6.821,21.251L5.073,25.647L0,25.647L9.019,4.848ZM10.823,10.879L8.286,17.361L13.359,17.361L10.823,10.879ZM10.823,10.879"/>
  <path stroke-dasharray="none" y="0px" stroke="none" version="1.1" fill="#000000" stroke-width="1px" stroke-miterlimit="4" stroke-linecap="butt" fill-opacity="1" fill-rule="nonzero" x="0px" xmlns:xlink="http://www.w3.org/1999/xlink" xml:space="preserve" stroke-linejoin="miter" stroke-opacity="1" d="M19.052,34.666L8.512,47.18L18.658,47.18L18.658,51.238L2.931,51.238L2.931,47.18L13.303,34.666L2.593,34.666L2.593,30.439L19.052,30.439L19.052,34.666ZM19.052,34.666"/>
  <path xmlns:xlink="http://www.w3.org/1999/xlink" fill="#000000" version="1.1" stroke-opacity="1" fill-rule="evenodd" stroke-dasharray="none" fill-opacity="1" xml:space="preserve" stroke-linecap="butt" stroke-linejoin="miter" x="0px" stroke="none" stroke-miterlimit="4" stroke-width="1px" y="0px" d="M37.316,36.583L32.637,36.583L32.637,7.215C32.637,5.919,31.566,4.848,30.27,4.848L27.733,4.848C26.437,4.848,25.366,5.919,25.366,7.215L25.366,36.583L20.687,36.583C19.729,36.583,19.334,37.203,19.842,37.992L28.071,50.675C28.579,51.464,29.424,51.464,29.931,50.675L38.161,37.992C38.668,37.203,38.274,36.583,37.316,36.583ZM37.316,36.583"/>
  <path stroke="none" fill-opacity="1" fill="#000000" stroke-width="1px" version="1.1" stroke-linejoin="miter" xmlns:xlink="http://www.w3.org/1999/xlink" stroke-linecap="butt" x="0px" stroke-miterlimit="4" fill-rule="evenodd" xml:space="preserve" stroke-dasharray="none" y="0px" stroke-opacity="1" d="M38.105,19.56L42.783,19.56L42.783,48.927C42.783,50.224,43.854,51.295,45.151,51.295L47.687,51.295C48.984,51.295,50.055,50.224,50.055,48.927L50.055,19.56L54.733,19.56C55.692,19.56,56.086,18.94,55.579,18.15L47.349,5.468C46.842,4.679,45.996,4.679,45.489,5.468L37.259,18.15C36.752,18.94,37.146,19.56,38.105,19.56ZM38.105,19.56"/>
</g>
  <g id="Thin-M" transform="matrix(1.0,0.0,0.0,1.0,829.526015625,1055.5400390625)">  <path stroke-miterlimit="4" y="0px" fill="#000000" fill-rule="nonzero" stroke-linecap="butt" xmlns:xlink="http://www.w3.org/1999/xlink" fill-opacity="1" x="0px" stroke-dasharray="none" version="1.1" stroke-linejoin="miter" stroke="none" xml:space="preserve" stroke-width="1px" stroke-opacity="1" d="M9.019,4.848L12.796,4.848L21.814,25.647L16.685,25.647L14.881,21.251L6.821,21.251L5.073,25.647L0,25.647L9.019,4.848ZM10.823,10.879L8.286,17.361L13.359,17.361L10.823,10.879ZM10.823,10.879"/>
  <path stroke-width="1px" xml:space="preserve" stroke-linecap="butt" y="0px" fill-opacity="1" stroke-opacity="1" stroke-linejoin="miter" stroke-dasharray="none" stroke="none" fill-rule="nonzero" fill="#000000" x="0px" stroke-miterlimit="4" xmlns:xlink="http://www.w3.org/1999/xlink" version="1.1" d="M19.052,34.666L8.512,47.18L18.658,47.18L18.658,51.238L2.931,51.238L2.931,47.18L13.303,34.666L2.593,34.666L2.593,30.439L19.052,30.439L19.052,34.666ZM19.052,34.666"/>
  <path y="0px" xml:space="preserve" fill="#000000" fill-rule="evenodd" stroke="none" stroke-dasharray="none" stroke-opacity="1" fill-opacity="1" x="0px" stroke-linejoin="miter" stroke-miterlimit="4" stroke-width="1px" version="1.1" xmlns:xlink="http://www.w3.org/1999/xlink" stroke-linecap="butt" d="M37.316,36.583L32.637,36.583L32.637,7.215C32.637,5.919,31.566,4.848,30.27,4.848L27.733,4.848C26.437,4.848,25.366,5.919,25.366,7.215L25.366,36.583L20.687,36.583C19.729,36.583,19.334,37.203,19.842,37.992L28.071,50.675C28.579,51.464,29.424,51.464,29.931,50.675L38.161,37.992C38.668,37.203,38.274,36.583,37.316,36.583ZM37.316,36.583"/>
  <path stroke-width="1px" version="1.1" stroke-linejoin="miter" xmlns:xlink="http://www.w3.org/1999/xlink" y="0px" fill-opacity="1" stroke-linecap="butt" stroke="none" x="0px" fill-rule="evenodd" stroke-dasharray="none" stroke-miterlimit="4" fill="#000000" stroke-opacity="1" xml:space="preserve" d="M38.105,19.56L42.783,19.56L42.783,48.927C42.783,50.224,43.854,51.295,45.151,51.295L47.687,51.295C48.984,51.295,50.055,50.224,50.055,48.927L50.055,19.56L54.733,19.56C55.692,19.56,56.086,18.94,55.579,18.15L47.349,5.468C46.842,4.679,45.996,4.679,45.489,5.468L37.259,18.15C36.752,18.94,37.146,19.56,38.105,19.56ZM38.105,19.56"/>
</g>
  <g id="Ultralight-M" transform="matrix(1.0,0.0,0.0,1.0,532.816015625,1055.5400390625)">  <path stroke="none" stroke-linecap="butt" stroke-dasharray="none" version="1.1" stroke-linejoin="miter" xml:space="preserve" xmlns:xlink="http://www.w3.org/1999/xlink" stroke-width="1px" y="0px" fill="#000000" x="0px" fill-opacity="1" stroke-miterlimit="4" stroke-opacity="1" fill-rule="nonzero" d="M9.019,4.848L12.796,4.848L21.814,25.647L16.685,25.647L14.881,21.251L6.821,21.251L5.073,25.647L0,25.647L9.019,4.848ZM10.823,10.879L8.286,17.361L13.359,17.361L10.823,10.879ZM10.823,10.879"/>
  <path fill-opacity="1" stroke="none" xml:space="preserve" version="1.1" fill="#000000" y="0px" stroke-width="1px" stroke-linejoin="miter" stroke-miterlimit="4" stroke-dasharray="none" stroke-linecap="butt" x="0px" fill-rule="nonzero" stroke-opacity="1" xmlns:xlink="http://www.w3.org/1999/xlink" d="M19.052,34.666L8.512,47.18L18.658,47.18L18.658,51.238L2.931,51.238L2.931,47.18L13.303,34.666L2.593,34.666L2.593,30.439L19.052,30.439L19.052,34.666ZM19.052,34.666"/>
  <path xml:space="preserve" x="0px" xmlns:xlink="http://www.w3.org/1999/xlink" stroke-linejoin="miter" stroke-width="1px" stroke-linecap="butt" fill-rule="evenodd" stroke-miterlimit="4" y="0px" fill-opacity="1" stroke-dasharray="none" version="1.1" stroke-opacity="1" fill="#000000" stroke="none" d="M37.316,36.583L32.637,36.583L32.637,7.215C32.637,5.919,31.566,4.848,30.27,4.848L27.733,4.848C26.437,4.848,25.366,5.919,25.366,7.215L25.366,36.583L20.687,36.583C19.729,36.583,19.334,37.203,19.842,37.992L28.071,50.675C28.579,51.464,29.424,51.464,29.931,50.675L38.161,37.992C38.668,37.203,38.274,36.583,37.316,36.583ZM37.316,36.583"/>
  <path fill-rule="evenodd" fill-opacity="1" xml:space="preserve" stroke-linecap="butt" stroke-dasharray="none" stroke-width="1px" xmlns:xlink="http://www.w3.org/1999/xlink" y="0px" fill="#000000" stroke="none" stroke-miterlimit="4" stroke-linejoin="miter" x="0px" stroke-opacity="1" version="1.1" d="M38.105,19.56L42.783,19.56L42.783,48.927C42.783,50.224,43.854,51.295,45.151,51.295L47.687,51.295C48.984,51.295,50.055,50.224,50.055,48.927L50.055,19.56L54.733,19.56C55.692,19.56,56.086,18.94,55.579,18.15L47.349,5.468C46.842,4.679,45.996,4.679,45.489,5.468L37.259,18.15C36.752,18.94,37.146,19.56,38.105,19.56ZM38.105,19.56"/>
</g>
  <g id="Black-S" transform="matrix(1.0,0.0,0.0,1.0,2912.6119402343747,633.1849448242187)">  <path xml:space="preserve" fill-opacity="1" stroke-linejoin="miter" version="1.1" stroke-linecap="butt" fill="#000000" x="0px" y="0px" stroke-width="1px" fill-rule="nonzero" stroke-miterlimit="4" stroke-dasharray="none" stroke="none" xmlns:xlink="http://www.w3.org/1999/xlink" stroke-opacity="1" d="M7.062,3.796L10.019,3.796L17.081,20.082L13.064,20.082L11.652,16.639L5.34,16.639L3.972,20.082L0,20.082L7.062,3.796ZM8.474,8.518L6.488,13.594L10.46,13.594L8.474,8.518ZM8.474,8.518"/>
  <path stroke-dasharray="none" version="1.1" xmlns:xlink="http://www.w3.org/1999/xlink" stroke-miterlimit="4" y="0px" fill-rule="nonzero" fill-opacity="1" stroke-opacity="1" stroke="none" stroke-width="1px" stroke-linecap="butt" x="0px" xml:space="preserve" stroke-linejoin="miter" fill="#000000" d="M14.918,27.144L6.665,36.942L14.609,36.942L14.609,40.12L2.295,40.12L2.295,36.942L10.416,27.144L2.03,27.144L2.03,23.834L14.918,23.834L14.918,27.144ZM14.918,27.144"/>
  <path y="0px" xml:space="preserve" fill-rule="evenodd" stroke-opacity="1" fill-opacity="1" stroke-dasharray="none" stroke-linejoin="miter" version="1.1" stroke-miterlimit="4" stroke="none" stroke-width="1px" xmlns:xlink="http://www.w3.org/1999/xlink" stroke-linecap="butt" fill="#000000" x="0px" d="M29.218,28.644L25.555,28.644L25.555,5.649C25.555,4.634,24.716,3.796,23.701,3.796L21.715,3.796C20.7,3.796,19.861,4.634,19.861,5.649L19.861,28.644L16.198,28.644C15.448,28.644,15.139,29.13,15.536,29.748L21.98,39.678C22.377,40.296,23.039,40.296,23.436,39.678L29.88,29.748C30.277,29.13,29.968,28.644,29.218,28.644ZM29.218,28.644"/>
  <path stroke-linecap="butt" stroke="none" x="0px" fill-opacity="1" version="1.1" fill="#000000" xmlns:xlink="http://www.w3.org/1999/xlink" stroke-dasharray="none" xml:space="preserve" stroke-opacity="1" stroke-linejoin="miter" stroke-width="1px" y="0px" fill-rule="evenodd" stroke-miterlimit="4" d="M29.836,15.315L33.499,15.315L33.499,38.31C33.499,39.325,34.338,40.164,35.353,40.164L37.339,40.164C38.354,40.164,39.193,39.325,39.193,38.31L39.193,15.315L42.856,15.315C43.606,15.315,43.915,14.83,43.518,14.212L37.074,4.281C36.677,3.663,36.015,3.663,35.618,4.281L29.174,14.212C28.777,14.83,29.086,15.315,29.836,15.315ZM29.836,15.315"/>
</g>
  <g id="Heavy-S" transform="matrix(1.0,0.0,0.0,1.0,2615.9019402343747,633.1849448242187)">  <path y="0px" xmlns:xlink="http://www.w3.org/1999/xlink" xml:space="preserve" fill-rule="nonzero" stroke-linecap="butt" version="1.1" stroke-width="1px" stroke-opacity="1" x="0px" stroke-linejoin="miter" fill="#000000" stroke-dasharray="none" stroke="none" fill-opacity="1" stroke-miterlimit="4" d="M7.062,3.796L10.019,3.796L17.081,20.082L13.064,20.082L11.652,16.639L5.34,16.639L3.972,20.082L0,20.082L7.062,3.796ZM8.474,8.518L6.488,13.594L10.46,13.594L8.474,8.518ZM8.474,8.518"/>
  <path fill-rule="nonzero" version="1.1" stroke-opacity="1" stroke-width="1px" fill-opacity="1" stroke-miterlimit="4" x="0px" y="0px" stroke-dasharray="none" xml:space="preserve" xmlns:xlink="http://www.w3.org/1999/xlink" stroke-linecap="butt" stroke-linejoin="miter" stroke="none" fill="#000000" d="M14.918,27.144L6.665,36.942L14.609,36.942L14.609,40.12L2.295,40.12L2.295,36.942L10.416,27.144L2.03,27.144L2.03,23.834L14.918,23.834L14.918,27.144ZM14.918,27.144"/>
  <path stroke="none" xml:space="preserve" stroke-linecap="butt" stroke-miterlimit="4" fill-rule="evenodd" stroke-width="1px" stroke-linejoin="miter" xmlns:xlink="http://www.w3.org/1999/xlink" stroke-opacity="1" fill-opacity="1" x="0px" fill="#000000" stroke-dasharray="none" version="1.1" y="0px" d="M29.218,28.644L25.555,28.644L25.555,5.649C25.555,4.634,24.716,3.796,23.701,3.796L21.715,3.796C20.7,3.796,19.861,4.634,19.861,5.649L19.861,28.644L16.198,28.644C15.448,28.644,15.139,29.13,15.536,29.748L21.98,39.678C22.377,40.296,23.039,40.296,23.436,39.678L29.88,29.748C30.277,29.13,29.968,28.644,29.218,28.644ZM29.218,28.644"/>
  <path x="0px" y="0px" stroke-opacity="1" fill-rule="evenodd" stroke-linejoin="miter" version="1.1" fill-opacity="1" xml:space="preserve" stroke="none" stroke-miterlimit="4" fill="#000000" stroke-dasharray="none" stroke-width="1px" xmlns:xlink="http://www.w3.org/1999/xlink" stroke-linecap="butt" d="M29.836,15.315L33.499,15.315L33.499,38.31C33.499,39.325,34.338,40.164,35.353,40.164L37.339,40.164C38.354,40.164,39.193,39.325,39.193,38.31L39.193,15.315L42.856,15.315C43.606,15.315,43.915,14.83,43.518,14.212L37.074,4.281C36.677,3.663,36.015,3.663,35.618,4.281L29.174,14.212C28.777,14.83,29.086,15.315,29.836,15.315ZM29.836,15.315"/>
</g>
  <g id="Bold-S" transform="matrix(1.0,0.0,0.0,1.0,2319.1919402343747,633.1849448242187)">  <path stroke-dasharray="none" stroke-opacity="1" stroke-width="1px" x="0px" stroke-linejoin="miter" xml:space="preserve" fill-rule="nonzero" version="1.1" fill="#000000" stroke="none" stroke-miterlimit="4" y="0px" xmlns:xlink="http://www.w3.org/1999/xlink" fill-opacity="1" stroke-linecap="butt" d="M7.062,3.796L10.019,3.796L17.081,20.082L13.064,20.082L11.652,16.639L5.34,16.639L3.972,20.082L0,20.082L7.062,3.796ZM8.474,8.518L6.488,13.594L10.46,13.594L8.474,8.518ZM8.474,8.518"/>
  <path stroke-width="1px" fill-opacity="1" fill="#000000" stroke-linecap="butt" xml:space="preserve" stroke-opacity="1" stroke="none" y="0px" fill-rule="nonzero" x="0px" stroke-miterlimit="4" stroke-linejoin="miter" xmlns:xlink="http://www.w3.org/1999/xlink" version="1.1" stroke-dasharray="none" d="M14.918,27.144L6.665,36.942L14.609,36.942L14.609,40.12L2.295,40.12L2.295,36.942L10.416,27.144L2.03,27.144L2.03,23.834L14.918,23.834L14.918,27.144ZM14.918,27.144"/>
  <path version="1.1" xmlns:xlink="http://www.w3.org/1999/xlink" stroke-width="1px" stroke-linecap="butt" fill-rule="evenodd" xml:space="preserve" stroke-opacity="1" x="0px" stroke-dasharray="none" fill-opacity="1" stroke-linejoin="miter" y="0px" stroke-miterlimit="4" fill="#000000" stroke="none" d="M29.218,28.644L25.555,28.644L25.555,5.649C25.555,4.634,24.716,3.796,23.701,3.796L21.715,3.796C20.7,3.796,19.861,4.634,19.861,5.649L19.861,28.644L16.198,28.644C15.448,28.644,15.139,29.13,15.536,29.748L21.98,39.678C22.377,40.296,23.039,40.296,23.436,39.678L29.88,29.748C30.277,29.13,29.968,28.644,29.218,28.644ZM29.218,28.644"/>
  <path fill-opacity="1" x="0px" fill-rule="evenodd" fill="#000000" xmlns:xlink="http://www.w3.org/1999/xlink" stroke-linejoin="miter" stroke-miterlimit="4" xml:space="preserve" y="0px" stroke="none" stroke-opacity="1" stroke-dasharray="none" version="1.1" stroke-width="1px" stroke-linecap="butt" d="M29.836,15.315L33.499,15.315L33.499,38.31C33.499,39.325,34.338,40.164,35.353,40.164L37.339,40.164C38.354,40.164,39.193,39.325,39.193,38.31L39.193,15.315L42.856,15.315C43.606,15.315,43.915,14.83,43.518,14.212L37.074,4.281C36.677,3.663,36.015,3.663,35.618,4.281L29.174,14.212C28.777,14.83,29.086,15.315,29.836,15.315ZM29.836,15.315"/>
</g>
  <g id="Semibold-S" transform="matrix(1.0,0.0,0.0,1.0,2022.4819402343749,633.1849448242187)">  <path xmlns:xlink="http://www.w3.org/1999/xlink" y="0px" x="0px" fill="#000000" stroke-dasharray="none" stroke-linejoin="miter" stroke-miterlimit="4" stroke-opacity="1" version="1.1" xml:space="preserve" stroke="none" fill-opacity="1" fill-rule="nonzero" stroke-linecap="butt" stroke-width="1px" d="M7.062,3.796L10.019,3.796L17.081,20.082L13.064,20.082L11.652,16.639L5.34,16.639L3.972,20.082L0,20.082L7.062,3.796ZM8.474,8.518L6.488,13.594L10.46,13.594L8.474,8.518ZM8.474,8.518"/>
  <path xmlns:xlink="http://www.w3.org/1999/xlink" fill="#000000" stroke-miterlimit="4" stroke-dasharray="none" stroke-width="1px" stroke="none" fill-opacity="1" stroke-opacity="1" stroke-linejoin="miter" x="0px" xml:space="preserve" version="1.1" y="0px" stroke-linecap="butt" fill-rule="nonzero" d="M14.918,27.144L6.665,36.942L14.609,36.942L14.609,40.12L2.295,40.12L2.295,36.942L10.416,27.144L2.03,27.144L2.03,23.834L14.918,23.834L14.918,27.144ZM14.918,27.144"/>
  <path stroke-miterlimit="4" fill-rule="evenodd" fill="#000000" xmlns:xlink="http://www.w3.org/1999/xlink" xml:space="preserve" version="1.1" stroke-dasharray="none" fill-opacity="1" stroke-linecap="butt" stroke-linejoin="miter" stroke-opacity="1" stroke-width="1px" y="0px" stroke="none" x="0px" d="M29.218,28.644L25.555,28.644L25.555,5.649C25.555,4.634,24.716,3.796,23.701,3.796L21.715,3.796C20.7,3.796,19.861,4.634,19.861,5.649L19.861,28.644L16.198,28.644C15.448,28.644,15.139,29.13,15.536,29.748L21.98,39.678C22.377,40.296,23.039,40.296,23.436,39.678L29.88,29.748C30.277,29.13,29.968,28.644,29.218,28.644ZM29.218,28.644"/>
  <path stroke-linecap="butt" fill-opacity="1" stroke-miterlimit="4" stroke-opacity="1" version="1.1" x="0px" xmlns:xlink="http://www.w3.org/1999/xlink" stroke-width="1px" fill="#000000" stroke-dasharray="none" xml:space="preserve" stroke-linejoin="miter" stroke="none" fill-rule="evenodd" y="0px" d="M29.836,15.315L33.499,15.315L33.499,38.31C33.499,39.325,34.338,40.164,35.353,40.164L37.339,40.164C38.354,40.164,39.193,39.325,39.193,38.31L39.193,15.315L42.856,15.315C43.606,15.315,43.915,14.83,43.518,14.212L37.074,4.281C36.677,3.663,36.015,3.663,35.618,4.281L29.174,14.212C28.777,14.83,29.086,15.315,29.836,15.315ZM29.836,15.315"/>
</g>
  <g id="Medium-S" transform="matrix(1.0,0.0,0.0,1.0,1725.7719402343748,633.1849448242187)">  <path stroke-dasharray="none" stroke-miterlimit="4" x="0px" stroke-linecap="butt" stroke-linejoin="miter" xml:space="preserve" fill-rule="nonzero" stroke-width="1px" stroke-opacity="1" version="1.1" stroke="none" fill-opacity="1" fill="#000000" y="0px" xmlns:xlink="http://www.w3.org/1999/xlink" d="M7.062,3.796L10.019,3.796L17.081,20.082L13.064,20.082L11.652,16.639L5.34,16.639L3.972,20.082L0,20.082L7.062,3.796ZM8.474,8.518L6.488,13.594L10.46,13.594L8.474,8.518ZM8.474,8.518"/>
  <path stroke="none" fill-rule="nonzero" xmlns:xlink="http://www.w3.org/1999/xlink" y="0px" xml:space="preserve" stroke-opacity="1" stroke-miterlimit="4" stroke-linejoin="miter" stroke-width="1px" stroke-dasharray="none" fill-opacity="1" x="0px" stroke-linecap="butt" fill="#000000" version="1.1" d="M14.918,27.144L6.665,36.942L14.609,36.942L14.609,40.12L2.295,40.12L2.295,36.942L10.416,27.144L2.03,27.144L2.03,23.834L14.918,23.834L14.918,27.144ZM14.918,27.144"/>
  <path stroke="none" stroke-linecap="butt" x="0px" stroke-linejoin="miter" stroke-miterlimit="4" xml:space="preserve" fill-rule="evenodd" stroke-width="1px" version="1.1" stroke-dasharray="none" fill-opacity="1" xmlns:xlink="http://www.w3.org/1999/xlink" stroke-opacity="1" fill="#000000" y="0px" d="M29.218,28.644L25.555,28.644L25.555,5.649C25.555,4.634,24.716,3.796,23.701,3.796L21.715,3.796C20.7,3.796,19.861,4.634,19.861,5.649L19.861,28.644L16.198,28.644C15.448,28.644,15.139,29.13,15.536,29.748L21.98,39.678C22.377,40.296,23.039,40.296,23.436,39.678L29.88,29.748C30.277,29.13,29.968,28.644,29.218,28.644ZM29.218,28.644"/>
  <path stroke-miterlimit="4" fill-opacity="1" stroke-width="1px" stroke-dasharray="none" y="0px" xmlns:xlink="http://www.w3.org/1999/xlink" stroke-opacity="1" fill-rule="evenodd" fill="#000000" x="0px" stroke="none" stroke-linejoin="miter" version="1.1" xml:space="preserve" stroke-linecap="butt" d="M29.836,15.315L33.499,15.315L33.499,38.31C33.499,39.325,34.338,40.164,35.353,40.164L37.339,40.164C38.354,40.164,39.193,39.325,39.193,38.31L39.193,15.315L42.856,15.315C43.606,15.315,43.915,14.83,43.518,14.212L37.074,4.281C36.677,3.663,36.015,3.663,35.618,4.281L29.174,14.212C28.777,14.83,29.086,15.315,29.836,15.315ZM29.836,15.315"/>
</g>
  <g id="Regular-S" transform="matrix(1.0,0.0,0.0,1.0,1429.0619402343748,633.1849448242187)">  <path stroke="none" fill-rule="nonzero" fill-opacity="1" stroke-miterlimit="4" y="0px" stroke-opacity="1" stroke-dasharray="none" stroke-linejoin="miter" stroke-width="1px" xml:space="preserve" fill="#000000" stroke-linecap="butt" x="0px" version="1.1" xmlns:xlink="http://www.w3.org/1999/xlink" d="M7.062,3.796L10.019,3.796L17.081,20.082L13.064,20.082L11.652,16.639L5.34,16.639L3.972,20.082L0,20.082L7.062,3.796ZM8.474,8.518L6.488,13.594L10.46,13.594L8.474,8.518ZM8.474,8.518"/>
  <path y="0px" fill-rule="nonzero" xmlns:xlink="http://www.w3.org/1999/xlink" version="1.1" stroke-width="1px" stroke-opacity="1" stroke-linecap="butt" fill-opacity="1" xml:space="preserve" x="0px" stroke-dasharray="none" stroke-linejoin="miter" stroke="none" stroke-miterlimit="4" fill="#000000" d="M14.918,27.144L6.665,36.942L14.609,36.942L14.609,40.12L2.295,40.12L2.295,36.942L10.416,27.144L2.03,27.144L2.03,23.834L14.918,23.834L14.918,27.144ZM14.918,27.144"/>
  <path version="1.1" xml:space="preserve" y="0px" fill-opacity="1" fill="#000000" stroke-linejoin="miter" stroke-width="1px" stroke="none" fill-rule="evenodd" stroke-linecap="butt" xmlns:xlink="http://www.w3.org/1999/xlink" stroke-opacity="1" stroke-dasharray="none" x="0px" stroke-miterlimit="4" d="M29.218,28.644L25.555,28.644L25.555,5.649C25.555,4.634,24.716,3.796,23.701,3.796L21.715,3.796C20.7,3.796,19.861,4.634,19.861,5.649L19.861,28.644L16.198,28.644C15.448,28.644,15.139,29.13,15.536,29.748L21.98,39.678C22.377,40.296,23.039,40.296,23.436,39.678L29.88,29.748C30.277,29.13,29.968,28.644,29.218,28.644ZM29.218,28.644"/>
  <path stroke="none" x="0px" stroke-miterlimit="4" stroke-opacity="1" fill-rule="evenodd" y="0px" fill="#000000" stroke-dasharray="none" stroke-width="1px" version="1.1" xml:space="preserve" xmlns:xlink="http://www.w3.org/1999/xlink" stroke-linecap="butt" fill-opacity="1" stroke-linejoin="miter" d="M29.836,15.315L33.499,15.315L33.499,38.31C33.499,39.325,34.338,40.164,35.353,40.164L37.339,40.164C38.354,40.164,39.193,39.325,39.193,38.31L39.193,15.315L42.856,15.315C43.606,15.315,43.915,14.83,43.518,14.212L37.074,4.281C36.677,3.663,36.015,3.663,35.618,4.281L29.174,14.212C28.777,14.83,29.086,15.315,29.836,15.315ZM29.836,15.315"/>
</g>
  <g id="Light-S" transform="matrix(1.0,0.0,0.0,1.0,1132.351940234375,633.1849448242187)">  <path x="0px" version="1.1" y="0px" xml:space="preserve" fill="#000000" stroke-width="1px" stroke-miterlimit="4" stroke-opacity="1" fill-rule="nonzero" stroke="none" stroke-linejoin="miter" stroke-dasharray="none" xmlns:xlink="http://www.w3.org/1999/xlink" stroke-linecap="butt" fill-opacity="1" d="M7.062,3.796L10.019,3.796L17.081,20.082L13.064,20.082L11.652,16.639L5.34,16.639L3.972,20.082L0,20.082L7.062,3.796ZM8.474,8.518L6.488,13.594L10.46,13.594L8.474,8.518ZM8.474,8.518"/>
  <path stroke-dasharray="none" y="0px" stroke="none" version="1.1" fill="#000000" stroke-width="1px" stroke-miterlimit="4" stroke-linecap="butt" fill-opacity="1" fill-rule="nonzero" x="0px" xmlns:xlink="http://www.w3.org/1999/xlink" xml:space="preserve" stroke-linejoin="miter" stroke-opacity="1" d="M14.918,27.144L6.665,36.942L14.609,36.942L14.609,40.12L2.295,40.12L2.295,36.942L10.416,27.144L2.03,27.144L2.03,23.834L14.918,23.834L14.918,27.144ZM14.918,27.144"/>
  <path xmlns:xlink="http://www.w3.org/1999/xlink" fill="#000000" version="1.1" stroke-opacity="1" fill-rule="evenodd" stroke-dasharray="none" fill-opacity="1" xml:space="preserve" stroke-linecap="butt" stroke-linejoin="miter" x="0px" stroke="none" stroke-miterlimit="4" stroke-width="1px" y="0px" d="M29.218,28.644L25.555,28.644L25.555,5.649C25.555,4.634,24.716,3.796,23.701,3.796L21.715,3.796C20.7,3.796,19.861,4.634,19.861,5.649L19.861,28.644L16.198,28.644C15.448,28.644,15.139,29.13,15.536,29.748L21.98,39.678C22.377,40.296,23.039,40.296,23.436,39.678L29.88,29.748C30.277,29.13,29.968,28.644,29.218,28.644ZM29.218,28.644"/>
  <path stroke="none" fill-opacity="1" fill="#000000" stroke-width="1px" version="1.1" stroke-linejoin="miter" xmlns:xlink="http://www.w3.org/1999/xlink" stroke-linecap="butt" x="0px" stroke-miterlimit="4" fill-rule="evenodd" xml:space="preserve" stroke-dasharray="none" y="0px" stroke-opacity="1" d="M29.836,15.315L33.499,15.315L33.499,38.31C33.499,39.325,34.338,40.164,35.353,40.164L37.339,40.164C38.354,40.164,39.193,39.325,39.193,38.31L39.193,15.315L42.856,15.315C43.606,15.315,43.915,14.83,43.518,14.212L37.074,4.281C36.677,3.663,36.015,3.663,35.618,4.281L29.174,14.212C28.777,14.83,29.086,15.315,29.836,15.315ZM29.836,15.315"/>
</g>
  <g id="Thin-S" transform="matrix(1.0,0.0,0.0,1.0,835.641940234375,633.1849448242187)">  <path stroke-miterlimit="4" y="0px" fill="#000000" fill-rule="nonzero" stroke-linecap="butt" xmlns:xlink="http://www.w3.org/1999/xlink" fill-opacity="1" x="0px" stroke-dasharray="none" version="1.1" stroke-linejoin="miter" stroke="none" xml:space="preserve" stroke-width="1px" stroke-opacity="1" d="M7.062,3.796L10.019,3.796L17.081,20.082L13.064,20.082L11.652,16.639L5.34,16.639L3.972,20.082L0,20.082L7.062,3.796ZM8.474,8.518L6.488,13.594L10.46,13.594L8.474,8.518ZM8.474,8.518"/>
  <path stroke-width="1px" xml:space="preserve" stroke-linecap="butt" y="0px" fill-opacity="1" stroke-opacity="1" stroke-linejoin="miter" stroke-dasharray="none" stroke="none" fill-rule="nonzero" fill="#000000" x="0px" stroke-miterlimit="4" xmlns:xlink="http://www.w3.org/1999/xlink" version="1.1" d="M14.918,27.144L6.665,36.942L14.609,36.942L14.609,40.12L2.295,40.12L2.295,36.942L10.416,27.144L2.03,27.144L2.03,23.834L14.918,23.834L14.918,27.144ZM14.918,27.144"/>
  <path y="0px" xml:space="preserve" fill="#000000" fill-rule="evenodd" stroke="none" stroke-dasharray="none" stroke-opacity="1" fill-opacity="1" x="0px" stroke-linejoin="miter" stroke-miterlimit="4" stroke-width="1px" version="1.1" xmlns:xlink="http://www.w3.org/1999/xlink" stroke-linecap="butt" d="M29.218,28.644L25.555,28.644L25.555,5.649C25.555,4.634,24.716,3.796,23.701,3.796L21.715,3.796C20.7,3.796,19.861,4.634,19.861,5.649L19.861,28.644L16.198,28.644C15.448,28.644,15.139,29.13,15.536,29.748L21.98,39.678C22.377,40.296,23.039,40.296,23.436,39.678L29.88,29.748C30.277,29.13,29.968,28.644,29.218,28.644ZM29.218,28.644"/>
  <path stroke-width="1px" version="1.1" stroke-linejoin="miter" xmlns:xlink="http://www.w3.org/1999/xlink" y="0px" fill-opacity="1" stroke-linecap="butt" stroke="none" x="0px" fill-rule="evenodd" stroke-dasharray="none" stroke-miterlimit="4" fill="#000000" stroke-opacity="1" xml:space="preserve" d="M29.836,15.315L33.499,15.315L33.499,38.31C33.499,39.325,34.338,40.164,35.353,40.164L37.339,40.164C38.354,40.164,39.193,39.325,39.193,38.31L39.193,15.315L42.856,15.315C43.606,15.315,43.915,14.83,43.518,14.212L37.074,4.281C36.677,3.663,36.015,3.663,35.618,4.281L29.174,14.212C28.777,14.83,29.086,15.315,29.836,15.315ZM29.836,15.315"/>
</g>
  <g id="Ultralight-S" transform="matrix(1.0,0.0,0.0,1.0,538.931940234375,633.1849448242187)">  <path stroke="none" stroke-linecap="butt" stroke-dasharray="none" version="1.1" stroke-linejoin="miter" xml:space="preserve" xmlns:xlink="http://www.w3.org/1999/xlink" stroke-width="1px" y="0px" fill="#000000" x="0px" fill-opacity="1" stroke-miterlimit="4" stroke-opacity="1" fill-rule="nonzero" d="M7.062,3.796L10.019,3.796L17.081,20.082L13.064,20.082L11.652,16.639L5.34,16.639L3.972,20.082L0,20.082L7.062,3.796ZM8.474,8.518L6.488,13.594L10.46,13.594L8.474,8.518ZM8.474,8.518"/>
  <path fill-opacity="1" stroke="none" xml:space="preserve" version="1.1" fill="#000000" y="0px" stroke-width="1px" stroke-linejoin="miter" stroke-miterlimit="4" stroke-dasharray="none" stroke-linecap="butt" x="0px" fill-rule="nonzero" stroke-opacity="1" xmlns:xlink="http://www.w3.org/1999/xlink" d="M14.918,27.144L6.665,36.942L14.609,36.942L14.609,40.12L2.295,40.12L2.295,36.942L10.416,27.144L2.03,27.144L2.03,23.834L14.918,23.834L14.918,27.144ZM14.918,27.144"/>
  <path xml:space="preserve" x="0px" xmlns:xlink="http://www.w3.org/1999/xlink" stroke-linejoin="miter" stroke-width="1px" stroke-linecap="butt" fill-rule="evenodd" stroke-miterlimit="4" y="0px" fill-opacity="1" stroke-dasharray="none" version="1.1" stroke-opacity="1" fill="#000000" stroke="none" d="M29.218,28.644L25.555,28.644L25.555,5.649C25.555,4.634,24.716,3.796,23.701,3.796L21.715,3.796C20.7,3.796,19.861,4.634,19.861,5.649L19.861,28.644L16.198,28.644C15.448,28.644,15.139,29.13,15.536,29.748L21.98,39.678C22.377,40.296,23.039,40.296,23.436,39.678L29.88,29.748C30.277,29.13,29.968,28.644,29.218,28.644ZM29.218,28.644"/>
  <path fill-rule="evenodd" fill-opacity="1" xml:space="preserve" stroke-linecap="butt" stroke-dasharray="none" stroke-width="1px" xmlns:xlink="http://www.w3.org/1999/xlink" y="0px" fill="#000000" stroke="none" stroke-miterlimit="4" stroke-linejoin="miter" x="0px" stroke-opacity="1" version="1.1" d="M29.836,15.315L33.499,15.315L33.499,38.31C33.499,39.325,34.338,40.164,35.353,40.164L37.339,40.164C38.354,40.164,39.193,39.325,39.193,38.31L39.193,15.315L42.856,15.315C43.606,15.315,43.915,14.83,43.518,14.212L37.074,4.281C36.677,3.663,36.015,3.663,35.618,4.281L29.174,14.212C28.777,14.83,29.086,15.315,29.836,15.315ZM29.836,15.315"/>
</g>
 </g>
</svg>
