<?xml version="1.0" encoding="utf-8"?>
<!-- Generator: Adobe Illustrator 24.0.1, SVG Export Plug-In . SVG Version: 6.00 Build 0)  -->
<svg version="1.1" id="Layer_1" xmlns="http://www.w3.org/2000/svg" xmlns:xlink="http://www.w3.org/1999/xlink" x="0px" y="0px"
	 viewBox="0 0 28 30.5" style="enable-background:new 0 0 28 30.5;" xml:space="preserve">
<g>
	<path d="M4.8,24.4h10.6v-0.5H4.8c-0.4,0-0.7-0.3-0.7-0.8V9.4h4c0.1,0,0.3-0.1,0.3-0.3v-4h10c0.4,0,0.8,0.3,0.8,0.8v6.9h0.5V5.9
		c0-0.7-0.6-1.3-1.3-1.3H8.1l0,0c0,0,0,0-0.1,0c0,0,0,0,0,0c0,0,0,0-0.1,0l0,0L3.7,9l0,0c0,0,0,0,0,0.1v0c0,0,0,0,0,0.1l0,0v13.9
		C3.6,23.8,4.2,24.4,4.8,24.4z M7.8,8.9H4.4l3.4-3.4V8.9z"/>
	<path d="M21.7,16.4l1.6,0.2l0.1-0.5l-1.5-0.2L21,14.1l-0.4,0.2l1,2C21.5,16.4,21.6,16.4,21.7,16.4z"/>
	<path d="M24.7,17.5L21.2,17l-1.6-3.2c0-0.1-0.1-0.1-0.2-0.1s-0.2,0.1-0.2,0.1L17.6,17l-3.5,0.5c-0.1,0-0.2,0.1-0.2,0.2
		c0,0.1,0,0.2,0.1,0.3l2.5,2.5l-0.6,3.5c0,0.1,0,0.2,0.1,0.2c0.1,0.1,0.2,0.1,0.3,0l3.1-1.6l3.1,1.6c0,0,0.1,0,0.1,0
		c0.1,0,0.1,0,0.1,0c0.1-0.1,0.1-0.2,0.1-0.2l-0.6-3.5l2.5-2.5c0.1-0.1,0.1-0.2,0.1-0.3C24.8,17.6,24.8,17.5,24.7,17.5z M21.8,20.1
		c-0.1,0-0.1,0.1-0.1,0.2l0.5,3.1L19.5,22c-0.1,0-0.2,0-0.2,0l-2.8,1.5l0.5-3.1c0-0.1,0-0.2-0.1-0.2l-2.2-2.2l3.1-0.5
		c0.1,0,0.2-0.1,0.2-0.1l1.4-2.8l1.4,2.8c0,0.1,0.1,0.1,0.2,0.1l3.1,0.5L21.8,20.1z"/>
	<rect x="9.7" y="12" width="7.1" height="0.5"/>
	<rect x="5.7" y="12" width="2.8" height="0.5"/>
	<rect x="14.3" y="15.1" width="2.4" height="0.5"/>
	<rect x="5.7" y="15.1" width="7.5" height="0.5"/>
	<rect x="5.7" y="18.2" width="7.1" height="0.5"/>
	<rect x="5.7" y="21.3" width="7.1" height="0.5"/>
</g>
<text transform="matrix(1 0 0 1 -19.0429 75.7)" style="font-family:'HelveticaNeue-Bold'; font-size:5px;">Created by Vectors Point</text>
<text transform="matrix(1 0 0 1 -19.0429 80.7)" style="font-family:'HelveticaNeue-Bold'; font-size:5px;">from the Noun Project</text>
</svg>
