<svg xmlns="http://www.w3.org/2000/svg" viewBox="0 0 1172.4 2283"><defs><style>.cls-1,.cls-2,.cls-3{fill:none;stroke:#b3b3b3;stroke-miterlimit:10;}.cls-1{stroke-width:10px;}.cls-2{stroke-linecap:round;}.cls-2,.cls-3{stroke-width:15px;}.cls-4{fill:#b3b3b3;opacity:0.3;}</style></defs><title>Asset 2</title><g id="Layer_2" data-name="Layer 2"><g id="Layer_1-2" data-name="Layer 1"><rect class="cls-1" x="509.96" y="81.45" width="134.01" height="18" rx="9"/><circle class="cls-1" cx="701.84" cy="90.45" r="13.62"/><line class="cls-2" x1="9.41" y1="312.75" x2="9.41" y2="380.75"/><line class="cls-2" x1="9.41" y1="475.35" x2="9.41" y2="625.35"/><line class="cls-2" x1="9.41" y1="687.35" x2="9.41" y2="829.35"/><line class="cls-2" x1="1159.81" y1="533.35" x2="1159.81" y2="777.35"/><rect class="cls-3" x="28.27" y="7.5" width="1108" height="2268" rx="163"/><path class="cls-4" d="M861.47,82.85h0a18,18,0,0,1,18-18h88.45A121.85,121.85,0,0,1,1089.77,186.7V2027.38a121.85,121.85,0,0,1-121.85,121.85H196.62A121.84,121.84,0,0,1,74.77,2027.38V186.7A121.84,121.84,0,0,1,196.62,64.85h88.25a18,18,0,0,1,18,18h0a65,65,0,0,0,65,65h428.6A65,65,0,0,0,861.47,82.85Z"/><line class="cls-2" x1="7.5" y1="315.08" x2="7.5" y2="383.08"/><line class="cls-2" x1="7.5" y1="477.68" x2="7.5" y2="627.68"/><line class="cls-2" x1="7.5" y1="689.68" x2="7.5" y2="831.68"/><line class="cls-2" x1="1164.9" y1="535.68" x2="1164.9" y2="779.68"/><line class="cls-2" x1="324" y1="2207.4" x2="840.53" y2="2207.4"/></g></g></svg>