<?xml version="1.0" encoding="UTF-8"?>
<svg width="70px" height="58px" viewBox="0 0 70 58" version="1.1" xmlns="http://www.w3.org/2000/svg" xmlns:xlink="http://www.w3.org/1999/xlink">
    <title>Asset 1</title>
    <g id="Page-1" stroke="none" stroke-width="1" fill="none" fill-rule="evenodd">
        <g id="Asset-1" fill="#FFFFFF" fill-rule="nonzero">
            <path d="M46.4064353,0 C46.4640843,0.325758745 46.5726788,0.651517491 46.5726788,0.978627932 C46.5825104,9.17891723 46.5851917,17.3765031 46.5807228,25.5713857 L46.5807228,26.8636071 C47.1371021,26.6270603 47.5607547,26.4432296 47.9884294,26.2675091 C54.8459715,23.4438161 62.869899,25.8620003 67.0648647,32.0122173 C71.4341178,38.412498 70.8978486,46.5835006 65.6397293,52.2876579 C62.7867773,55.3789867 59.2192466,57.0902339 55.0068522,57.3632765 C50.4914658,57.6552428 46.5847448,56.1994662 43.1780949,53.2392519 C42.9099603,53.0081119 42.4568128,52.8986245 42.0894685,52.8986245 C30.5409117,52.881503 18.992355,52.8765468 7.44379832,52.8837558 C6.12636371,52.8837558 4.80803532,52.8837558 3.48881314,52.8837558 C2.55034209,52.8837558 2.53827603,52.8675355 2.53827603,51.9510856 C2.53827603,49.2936511 2.51950661,46.6362167 2.54900141,43.9760789 C2.55704545,43.3367267 2.3760546,43.1136969 1.72046553,43.1204553 C-0.188652733,43.1420825 0.00976686248,43.3542987 0.00306349778,41.3929878 C0.00306349778,27.9922733 0.00619173464,14.5920093 0.0124482084,1.19219591 C0.0361962904,0.792362721 0.0832006713,0.394279548 0.153218867,0 L1.89609369,0 C2.13607415,0.183830661 2.35058182,0.440652909 2.62005708,0.529864847 C2.88953234,0.619076786 3.23274461,0.537975023 3.54109939,0.555547072 C3.95402665,0.578525905 4.22350191,0.420377468 4.30930498,0 L7.25878545,0 C7.34861054,0.725860773 7.80578001,0.811017623 8.43857764,0.798852359 C10.6211932,0.762356566 12.8051494,0.785335399 14.9891056,0.785335399 L17.0684894,0.785335399 L17.4478998,0 L41.9822146,0 C42.4018452,0.824534584 43.1687102,0.473093614 43.8095518,0.551491984 C44.2519739,0.605559825 44.5294932,0.41632238 44.6635605,0 L46.4064353,0 Z M17.1945126,12.945193 L17.1851279,12.0300947 L17.1851279,10.9257591 L17.197194,10.0201227 C17.197194,9.68355042 17.197194,9.34427472 17.197194,9.01310919 L17.1690398,8.09665927 C17.1770839,7.09820647 17.184681,6.09975366 17.1918313,5.10130085 L17.1837872,4.19025772 C17.1837872,3.8212447 17.1837872,3.45358338 17.1837872,3.08592206 C17.1837872,2.78494441 17.1873624,2.48261506 17.1945126,2.17893401 L17.1945126,1.27870445 C16.8982239,1.2611324 16.6810349,1.23815357 16.4625052,1.23815357 C13.7382578,1.23815357 11.0122228,1.23815357 8.28440025,1.23815357 C7.41028149,1.23815357 7.41028149,1.23815357 7.4049188,2.1505484 L7.4049188,52.2322383 C7.49474389,50.9035211 7.4893812,49.5761556 7.49742524,48.2501418 C7.49742524,47.4120903 7.75215309,47.1498612 8.56996359,47.1471578 C11.0260764,47.1390477 13.4839768,47.1390477 15.9436648,47.1471578 C16.8821358,47.1471578 17.0859181,47.3634292 17.0885995,48.2974512 C17.0885995,49.6342785 17.0885995,50.9697542 17.0885995,52.3065816 L17.1797652,52.3065816 L17.1797652,46.2063774 L17.1878093,45.2993893 C17.1878093,44.9641687 17.1878093,44.6289481 17.1878093,44.2937275 C17.1770839,43.9895959 17.1676992,43.6841126 17.1583144,43.379981 L17.1784245,42.2837555 L17.1864686,41.3821742 L17.1864686,40.3819192 L17.1730618,39.4722277 L17.1730618,38.3746505 L17.201216,37.474421 C17.201216,37.1351453 17.1918313,36.798573 17.1864686,36.4552422 C17.1770839,36.1497589 17.1663585,35.8442756 17.1569738,35.5387923 C17.1569738,35.1738343 17.1717212,34.8075247 17.1784245,34.4425668 C17.1784245,34.1424902 17.1784245,33.8419632 17.1784245,33.5409855 C17.1784245,33.2084683 17.1784245,32.8745994 17.1784245,32.5420821 C17.1784245,32.2384011 17.1739556,31.9351706 17.1650178,31.6323907 L17.1650178,30.5334618 C17.1748494,30.2333853 17.1833403,29.9333088 17.1904906,29.6332323 L17.1784245,28.6167568 C17.1703805,28.3112735 17.1609958,28.0071419 17.1529518,27.7030103 L17.1690398,26.6067848 L17.1811059,25.7052036 L17.1730618,24.7049485 C17.1730618,24.4021686 17.1730618,24.098037 17.1636771,23.7952571 L17.1636771,22.7084935 L17.1556331,22.7179553 L17.1811059,20.7809749 L17.1516111,19.8658767 C17.1587613,19.5054244 17.1645709,19.1413676 17.1690398,18.7737063 L17.1824466,17.8707733 L17.1824466,16.8691666 C17.1824466,16.5663867 17.1757432,16.2636067 17.1717212,15.9608268 C17.1717212,15.5972206 17.1717212,15.2322627 17.1717212,14.8686564 L17.1636771,14.8781183 C17.1779776,14.2311065 17.1882561,13.586798 17.1945126,12.945193 Z M18.8033201,18.09921 C18.8033201,23.6600875 18.8033201,29.2214155 18.8033201,34.7831942 C18.8033201,35.3238726 18.8569471,35.6915339 19.5420309,35.6901859 C25.8163803,35.674863 32.0916234,35.674863 38.3677604,35.6901859 C38.7981164,35.6901859 38.9884919,35.5063515 39.1507134,35.1238216 C39.4577275,34.4020159 39.8518853,33.716706 40.1709655,32.9989554 C40.3416426,32.6626513 40.4420305,32.2946029 40.4659135,31.9175986 C40.4820016,21.7393274 40.4739576,11.5624079 40.4940677,1.38548844 C40.4940677,0.725860773 40.2889447,0.548788592 39.6534657,0.551461622 C32.9983652,0.571767424 26.3432648,0.563657248 19.6881643,0.563657248 C18.8127049,0.563657248 18.8100235,0.563657248 18.8086828,1.47605207 L18.8033201,18.09921 Z M54.2252399,25.832263 C45.7200108,25.6822247 38.4160246,32.6231839 38.6627084,41.8052551 C38.8798974,49.885694 45.5001404,56.7604201 54.0120729,56.6860768 C62.8095687,56.6076784 69.3051291,49.5991344 69.2421175,41.1902334 C69.1683805,31.5188482 61.1377496,25.7619748 54.2238992,25.832263 L54.2252399,25.832263 Z M24.6446321,39.2924522 L21.5382929,39.2924522 C22.0745621,40.2075504 22.5478197,41.032085 23.1015176,41.9863824 L24.6446321,39.2924522 Z" id="Shape"></path>
            <path d="M17.201216,44.2937275 C16.8955425,44.3477953 16.5912098,44.4478208 16.286877,44.4491725 C13.6363666,44.4626895 10.9845156,44.4653929 8.33266448,44.4491725 C8.06452989,44.4491725 7.67171272,44.3288716 7.55105215,44.131524 C7.27085151,43.6760024 7.56311821,43.242108 8.11011277,43.2407563 C10.9389327,43.2308438 13.7681995,43.2308438 16.5979132,43.2407563 C16.7941868,43.2658954 16.9868049,43.3144458 17.1717212,43.3853878 C17.1811059,43.6841126 17.1904906,43.9895959 17.201216,44.2937275 Z M16.5778031,43.8814368 L16.5778031,43.7685159 L8.14497027,43.7685159 L8.14497027,43.8814368 L16.5778031,43.8814368 Z" id="Shape"></path>
            <path d="M17.1945126,24.7049485 C16.9598949,24.7617197 16.7239364,24.8658003 16.4893186,24.8658003 C13.7463018,24.8779656 11.0046256,24.8820207 8.26294949,24.8658003 C8.01626566,24.8658003 7.65428397,24.7306307 7.54837081,24.5495035 C7.28023622,24.0791132 7.56311821,23.6573841 8.11413479,23.6546807 C10.945636,23.6447682 13.7771373,23.6447682 16.6086385,23.6546807 C16.8057663,23.6791732 16.999295,23.7272725 17.1851279,23.7979605 C17.1891499,24.098037 17.1918313,24.4021686 17.1945126,24.7049485 Z M8.06050787,24.1642701 L8.06050787,24.3305287 L16.6408147,24.3305287 L16.6408147,24.1642701 L8.06050787,24.1642701 Z" id="Shape"></path>
            <path d="M17.1904906,26.6067848 C16.9330814,26.6635561 16.6770129,26.7689884 16.4196037,26.77034 C13.6980376,26.7820547 10.9769184,26.7820547 8.25624612,26.77034 C7.57384359,26.77034 7.41028149,26.5797509 7.49742524,25.9971699 C7.57786561,25.4659534 7.98811153,25.5497585 8.32596111,25.5484068 C10.9179288,25.5384944 13.5054276,25.5384944 16.0884574,25.5484068 C16.4626506,25.5733384 16.834817,25.6230074 17.2025567,25.6970934 L17.1904906,26.6067848 Z M16.6461774,26.2431786 C16.0281272,25.8903859 8.43723697,25.9376953 8.01894701,26.2431786 L16.6461774,26.2431786 Z" id="Shape"></path>
            <path d="M17.1904906,46.2063774 C16.9344221,46.2645003 16.6770129,46.3712843 16.4209443,46.372636 C13.6993783,46.3848013 10.9791529,46.3793945 8.25892747,46.3793945 C7.86476962,46.3793945 7.49608456,46.3888564 7.48401851,45.8089788 C7.47195245,45.2291012 7.80712069,45.1466477 8.25490545,45.1466477 C10.1720678,45.1466477 12.0905707,45.1290756 14.007733,45.1466477 C15.0722274,45.1601647 16.1340403,45.2399147 17.197194,45.2899275 C17.1963002,45.5990153 17.1940657,45.9044986 17.1904906,46.2063774 Z M8.06587056,45.6873261 L8.05782653,45.8549364 L16.6381333,45.8549364 L16.6381333,45.6873261 L8.06587056,45.6873261 Z" id="Shape"></path>
            <path d="M17.1891499,10.9298142 C16.9330814,10.9865854 16.6770129,11.0933694 16.4196037,11.0947211 C13.6993783,11.1068864 10.9778122,11.1028313 8.25624612,11.1028313 C7.85404424,11.1028313 7.49608456,11.1028313 7.48401851,10.5297121 C7.47195245,9.95659302 7.80980203,9.86738108 8.25624612,9.86738108 C10.2189913,9.86738108 12.1817365,9.84980903 14.1444817,9.86738108 C15.1633931,9.87954635 16.1823045,9.96199981 17.201216,10.0120126 L17.1891499,10.9298142 Z M8.06989258,10.4080595 L8.0591672,10.5743181 L16.639474,10.5743181 L16.639474,10.4080595 L8.06989258,10.4080595 Z" id="Shape"></path>
            <path d="M17.1918313,42.2837555 C16.9357627,42.3432301 16.6796942,42.4540692 16.4236257,42.4554209 C13.7020596,42.4675861 10.9791529,42.4554209 8.25624612,42.4675861 C7.74947175,42.4675861 7.4397763,42.3580988 7.48804053,41.7538906 C7.52960139,41.2213224 7.89024241,41.232136 8.2522241,41.2307843 C9.88158862,41.2280809 11.5114,41.2267292 13.1416583,41.2267292 C14.1914052,41.2267292 15.2398115,41.2159156 16.2882177,41.2334877 C16.5957144,41.2600243 16.900866,41.3092681 17.201216,41.3808225 C17.1985346,41.6827013 17.1954064,41.983679 17.1918313,42.2837555 Z M8.06184854,41.7430771 L8.06184854,41.9106874 L16.6421554,41.9106874 L16.6421554,41.7430771 L8.06184854,41.7430771 Z" id="Shape"></path>
            <path d="M17.1945126,12.945193 C16.9585542,12.9992608 16.7225957,13.0992863 16.4866373,13.100638 C13.7449611,13.1114516 11.003285,13.1182101 8.26294949,13.0911761 C8.0095623,13.0911761 7.62478917,12.9154557 7.53362341,12.7154046 C7.3110717,12.2206839 7.56579956,11.8881667 8.11681613,11.886815 C10.9465298,11.8778037 13.7771373,11.8778037 16.6086385,11.886815 C16.8003548,11.886815 16.992071,11.9814337 17.1851279,12.0314464 C17.1878093,12.3382814 17.1918313,12.6410614 17.1945126,12.945193 Z M8.04710114,12.4166798 L8.04710114,12.5707732 L16.6421554,12.5707732 L16.6421554,12.4166798 L8.04710114,12.4166798 Z" id="Shape"></path>
            <path d="M17.1958533,40.3819192 C16.9612355,40.4373387 16.7252771,40.5387159 16.4893186,40.5400676 C13.7471956,40.5508812 11.0050725,40.5508812 8.26294949,40.5400676 C7.94118798,40.5400676 7.55909619,40.5887287 7.50010658,40.098063 C7.44513899,39.6290245 7.5389861,39.3100242 8.11413479,39.3113716 C10.945636,39.3235412 13.7771373,39.3113716 16.6072979,39.3248929 C16.7990141,39.3248929 16.9907303,39.4195116 17.1824466,39.4695243 C17.1878093,39.7750076 17.1918313,40.0791392 17.1958533,40.3819192 Z M8.06050787,39.8493509 L8.06050787,40.0169612 L16.6408147,40.0169612 L16.6408147,39.8493509 L8.06050787,39.8493509 Z" id="Shape"></path>
            <path d="M17.1945126,5.10535594 C16.9585542,5.15942378 16.7225957,5.25944929 16.4866373,5.26080098 C13.7449611,5.27161455 11.003285,5.27702134 8.26160881,5.25133911 C8.0095623,5.25133911 7.62478917,5.07426693 7.53496408,4.87421592 C7.3110717,4.37949517 7.56579956,4.04832964 8.11681613,4.04562624 C10.9465298,4.03571381 13.7771373,4.03571381 16.6086385,4.04562624 C16.8054625,4.07014438 16.9985973,4.1187116 17.1837872,4.19025772 C17.1878093,4.49844442 17.1904906,4.80257603 17.1945126,5.10535594 Z M16.627408,4.73093614 L16.6381333,4.56467752 L8.05782653,4.56467752 L8.05782653,4.73093614 L16.627408,4.73093614 Z" id="Shape"></path>
            <path d="M17.1958533,16.8637598 C16.9598949,16.9191793 16.7252771,17.0232599 16.4893186,17.0246116 C13.7463018,17.0354252 11.003285,17.0354252 8.26026814,17.0246116 C7.90230846,17.0246116 7.52423869,17.0421837 7.49072187,16.5082637 C7.46122707,16.0405769 7.59931638,15.7891614 8.11413479,15.7905077 C10.9469767,15.799975 13.778478,15.7905077 16.6113199,15.8026784 C16.8030361,15.8026784 16.9934117,15.9000005 17.1851279,15.951365 C17.1891499,16.2582 17.1918313,16.5609799 17.1958533,16.8637598 Z M8.06050787,16.3230814 L8.06050787,16.4906917 L16.6408147,16.4906917 L16.6408147,16.3244331 L8.06050787,16.3230814 Z" id="Shape"></path>
            <path d="M17.1891499,18.7682995 C16.9330814,18.8264224 16.6756722,18.9318547 16.4196037,18.9332064 C13.6980376,18.94402 10.9764715,18.94402 8.25490545,18.9332064 C7.57518427,18.9332064 7.41028149,18.7412656 7.49742524,18.1586846 C7.57786561,17.6261163 7.98945221,17.7126249 8.32596111,17.7112732 C10.9179288,17.7022619 13.5054276,17.7022619 16.0884574,17.7112732 C16.4627159,17.735537 16.8349263,17.7852118 17.2025567,17.8599598 C17.1985346,18.1667948 17.1931719,18.4668713 17.1891499,18.7682995 Z M8.05782653,18.2343796 L8.06855191,18.4006382 L16.6488587,18.4006382 L16.6488587,18.2343796 L8.05782653,18.2343796 Z" id="Shape"></path>
            <path d="M17.1918313,34.4425668 C16.9357627,34.5020414 16.6796942,34.6088254 16.422285,34.6101771 C13.7007189,34.6218918 10.978706,34.6218918 8.25624612,34.6101771 C7.57518427,34.6101771 7.41296284,34.4209396 7.49742524,33.8370069 C7.57384359,33.2963285 7.98274884,33.3841888 8.32059842,33.3828371 C10.9125661,33.3747269 13.5009587,33.3747269 16.0857761,33.3828371 C16.4595919,33.4085956 16.8313171,33.4591685 17.1985346,33.534227 C17.1976409,33.8406115 17.1954064,34.1433914 17.1918313,34.4425668 Z M16.6300893,34.0776088 L16.6421554,33.9113502 L8.06184854,33.9113502 L8.06184854,34.0776088 L16.6300893,34.0776088 Z" id="Shape"></path>
            <path d="M17.1891499,3.08997714 C16.9330814,3.14810007 16.6756722,3.25353237 16.4196037,3.25488406 C13.6980376,3.26704933 10.9778122,3.26164254 8.25758679,3.26164254 C7.85538491,3.26164254 7.49608456,3.26840102 7.48401851,2.68987512 C7.47195245,2.11134921 7.8111427,2.03295084 8.25624612,2.03430254 C10.2189913,2.03430254 12.1817365,2.01673049 14.1444817,2.03430254 C15.1633931,2.0464678 16.1809639,2.12756957 17.1998753,2.17758232 C17.197194,2.48396675 17.1936188,2.78809836 17.1891499,3.08997714 Z M8.06989258,2.56822247 L8.0591672,2.73448109 L16.639474,2.73448109 L16.639474,2.56822247 L8.06989258,2.56822247 Z" id="Shape"></path>
            <path d="M17.1958533,32.5420821 C16.9612355,32.5975017 16.7252771,32.6988789 16.4893186,32.7002306 C13.7476425,32.7110441 11.0059663,32.7178026 8.26429016,32.6907687 C8.01090297,32.6907687 7.62612984,32.5163999 7.53496408,32.3149972 C7.30839035,31.8229798 7.56445888,31.4877592 8.11413479,31.4864075 C10.945636,31.475594 13.7766904,31.475594 16.6072979,31.4864075 C16.8040795,31.5104106 16.9972221,31.5585258 17.1824466,31.6296873 C17.1878093,31.9342695 17.1922782,32.2384011 17.1958533,32.5420821 Z M16.6408147,32.1838827 L16.63143,32.0162724 L8.05112316,32.0162724 L8.05112316,32.1838827 L16.6408147,32.1838827 Z" id="Shape"></path>
            <path d="M17.1998753,36.4552422 C16.8955425,36.50931 16.5912098,36.6079838 16.286877,36.6093355 C13.635026,36.6215008 10.9831749,36.6255559 8.33132381,36.6093355 C8.06318922,36.6093355 7.67171272,36.4876829 7.55105215,36.2889836 C7.27219218,35.8321103 7.56445888,35.3995676 8.1087721,35.3982159 C10.9384858,35.3892046 13.7681995,35.3892046 16.5979132,35.3982159 C16.7939433,35.4230663 16.9862047,35.4720943 17.1703805,35.544199 C17.1797652,35.8442756 17.1904906,36.1497589 17.1998753,36.4552422 Z M16.6421554,36.0794707 C16.003995,35.7226229 8.43991831,35.7726357 8.02699105,36.0794707 L16.6421554,36.0794707 Z" id="Shape"></path>
            <path d="M17.1864686,38.3746505 C16.9317407,38.4354769 16.6756722,38.5463159 16.4209443,38.5476676 C13.6966969,38.5598329 10.9711088,38.5557778 8.24283939,38.5544261 C7.88219837,38.5544261 7.51217264,38.5895702 7.48401851,38.0421333 C7.45720505,37.5190269 7.70657021,37.3879124 8.17178373,37.3919675 C9.69076617,37.4068362 11.2097486,37.3919675 12.7300717,37.4000777 C14.2249221,37.412243 15.7184317,37.4487388 17.213282,37.474421 L17.1864686,38.3746505 Z M16.5764624,38.0425585 L16.5764624,37.9084649 L8.13022286,37.9084649 L8.13022286,38.0425585 L16.5764624,38.0425585 Z" id="Shape"></path>
            <path d="M17.1998753,9.01716427 C17.0272893,9.05967986 16.8515072,9.08771073 16.6743315,9.10096943 C13.8200388,9.10096943 10.9657461,9.10096943 8.11145344,9.10907961 C7.70925156,9.10907961 7.48804053,8.98202018 7.48669353,8.5305537 C7.48535918,8.07908722 7.6971855,7.94256592 8.10475008,7.9439077 C10.9362513,7.9439077 13.7677526,7.9439077 16.6005945,7.95337949 C16.7909701,7.95337949 16.9813456,8.04934991 17.1717212,8.10071436 L17.1998753,9.01716427 Z M16.5778031,8.60069882 L16.5778031,8.49342399 L8.04710114,8.49342399 L8.04710114,8.60069882 L16.5778031,8.60069882 Z" id="Shape"></path>
            <path d="M17.201216,20.7755681 C17.0284761,20.8173072 16.8527565,20.8453281 16.6756722,20.8593733 C13.8213795,20.8593733 10.9657461,20.8593733 8.11145344,20.8661318 C7.70925156,20.8661318 7.48669985,20.7417757 7.48669985,20.2889575 C7.48669985,19.8361394 7.69584483,19.7009698 8.10475008,19.7009698 C10.9362513,19.7077282 13.7690933,19.7009698 16.6019352,19.7117833 C16.7923107,19.7117833 16.9826863,19.8091054 17.1717212,19.8604699 C17.1824466,20.1659532 17.1918313,20.4700848 17.201216,20.7755681 Z M16.5764624,20.3768178 C15.6379913,20.0294319 8.39835745,20.1199955 8.04307912,20.3768178 L16.5764624,20.3768178 Z" id="Shape"></path>
            <path d="M17.1864686,30.5334618 C16.9317407,30.5942881 16.6770129,30.7051272 16.422285,30.7064789 C13.6966969,30.7186442 10.9724495,30.7145891 8.24418006,30.7132374 C7.88353904,30.7132374 7.50680995,30.7497332 7.48669985,30.2009446 C7.4692711,29.7467747 7.63685522,29.5426686 8.10475008,29.5480754 C9.46687379,29.5615924 10.8289975,29.5480754 12.1911212,29.5480754 C13.864281,29.5642958 15.5361002,29.5994399 17.20926,29.6278255 C17.2030035,29.9315065 17.1954064,30.2333853 17.1864686,30.5334618 Z M16.5764624,30.1986066 L16.5764624,30.067336 L8.04710114,30.067336 L8.04710114,30.1986066 L16.5764624,30.1986066 Z" id="Shape"></path>
            <path d="M17.1998753,28.6167568 C16.8057175,28.6478458 16.4115596,28.7059688 16.0174018,28.7086722 C13.4097929,28.7235408 10.802184,28.7194857 8.19457517,28.7384095 C7.79237328,28.7384095 7.50010658,28.7086722 7.48401851,28.1909726 C7.46793043,27.673273 7.71863627,27.5381034 8.17848709,27.5394451 C10.9644055,27.548917 13.7503238,27.5394451 16.5362422,27.5516204 C16.7494092,27.5516204 16.9612355,27.6502942 17.1744025,27.7030103 C17.1824466,28.0071419 17.1918313,28.3112735 17.1998753,28.6167568 Z M16.8392343,28.2504472 C15.9235547,27.8449384 8.3165764,27.9422605 8.11547546,28.2504472 L16.8392343,28.2504472 Z" id="Shape"></path>
            <path d="M56.3207117,38.8964052 C58.1306202,38.8964052 59.8466815,38.870723 61.5614022,38.915329 C61.9999696,38.9220001 62.4260704,39.0634724 62.7827553,39.3208378 C63.4530918,39.8615162 63.4195749,42.7068363 62.7438758,43.2407563 C62.3810509,43.4913094 61.9528701,43.6281559 61.513138,43.6340998 C60.0638706,43.6827609 58.6105811,43.6800575 57.1586323,43.6462651 C56.5177906,43.6313964 56.2912169,43.8584814 56.307305,44.5045921 C56.3408218,45.9455001 56.3247337,47.3877597 56.307305,48.8300194 C56.2979203,50.1141306 55.8193,50.5872243 54.5644302,50.5966861 C54.0509524,50.5966861 53.536134,50.6102031 53.023997,50.5966861 C52.1632849,50.5534319 51.6189717,50.0127534 51.6189717,49.1219857 C51.6002023,47.5459082 51.5948396,45.9684789 51.6189717,44.3910496 C51.6283564,43.8409093 51.4513876,43.6313964 50.888305,43.6435617 C49.5261813,43.673299 48.1627169,43.6570787 46.8005932,43.6435617 C46.4453148,43.6435617 46.0350689,43.686816 45.7481649,43.5286675 C45.3741172,43.3205063 44.8995189,42.9758239 44.8231006,42.6122176 C44.6622198,41.8566195 44.6756266,41.0456019 44.7252315,40.2643216 C44.7828804,39.3181344 45.2615006,38.9126256 46.2174004,38.9004603 C47.7135914,38.8855916 49.2111231,38.9004603 50.7073141,38.8937018 C51.605565,38.8937018 51.6082463,38.8937018 51.609587,38.012396 C51.609587,36.5485092 51.609587,35.0846224 51.609587,33.6207356 C51.6162904,32.4042091 52.0667565,31.924357 53.2586147,31.9094884 C53.9056308,31.9038897 54.5524374,31.9354806 55.1958871,32.0041071 C55.8756083,32.0716919 56.2684255,32.5326203 56.2965796,33.3855405 C56.3421625,34.5777364 56.3180304,35.7726357 56.3207117,36.9661833 C56.3220524,37.5771499 56.3207117,38.1800063 56.3207117,38.8964052 Z" id="Path"></path>
            <path d="M17.1837872,14.8686564 C16.926378,14.924076 16.6703095,15.0281566 16.4129003,15.0295083 C13.7101036,15.0416735 11.007307,15.0376184 8.30316967,15.0376184 C7.89292375,15.0376184 7.48535918,15.079521 7.48267783,14.4469273 C7.48267783,13.8481259 7.84465953,13.807575 8.27903756,13.807575 C10.9603834,13.807575 13.6417293,13.807575 16.3230752,13.807575 C17.1140722,13.807575 17.1918313,13.927876 17.1770839,14.8754149 L17.1837872,14.8686564 Z M8.12620085,14.3928594 L8.12620085,14.5340105 L16.5724404,14.5340105 L16.5724404,14.3928594 L8.12620085,14.3928594 Z" id="Shape"></path>
            <path d="M17.1837872,22.7084935 C16.9947523,22.7652647 16.8057175,22.870697 16.6166826,22.870697 C13.778478,22.8815105 10.941614,22.870697 8.10475008,22.8842139 C7.57652494,22.8842139 7.4049188,22.6017095 7.51619466,22.1637599 C7.56311821,21.9772259 7.83527482,21.7149969 8.00822163,21.7136452 C10.867877,21.6852596 13.7261917,21.6906663 16.5885284,21.692018 C17.3580747,21.692018 17.1542924,22.274599 17.1784245,22.7179553 L17.1837872,22.7084935 Z M16.5684184,22.3927713 L16.5764624,22.2516202 L8.13022286,22.2516202 L8.13022286,22.3927713 L16.5684184,22.3927713 Z" id="Shape"></path>
            <path d="M12.3050784,7.19237474 C10.9442954,7.19237474 9.584853,7.19237474 8.22406997,7.19237474 C7.80578001,7.19237474 7.4746338,7.15182374 7.48535918,6.58951819 C7.49474389,6.06235673 7.80578001,6.02721264 8.19591584,6.02721264 C10.9389327,6.02721264 13.6819495,6.02721264 16.4249663,6.02721264 C16.8513003,6.02721264 17.1864686,6.08803896 17.1784245,6.63006907 C17.1690398,7.19507801 16.7842667,7.19237474 16.3860868,7.19237474 C15.0275383,7.19057236 13.6672021,7.19057236 12.3050784,7.19237474 Z M8.12620085,6.55190996 L8.12620085,6.68176896 L16.5724404,6.68176896 L16.5724404,6.55190996 L8.12620085,6.55190996 Z" id="Shape"></path>
        </g>
    </g>
</svg>