<svg xmlns="http://www.w3.org/2000/svg" viewBox="0 0 522.1 424.63"><title>Asset 1</title><g id="Layer_2" data-name="Layer 2"><g id="Layer_1-2" data-name="Layer 1"><path d="M346.12,0c.43,2.41,1.24,4.82,1.24,7.24q.11,91,.06,181.94v9.56c4.15-1.75,7.31-3.11,10.5-4.41,51.15-20.89,111-3,142.29,42.5,32.59,47.35,28.59,107.8-10.63,150-21.28,22.87-47.89,35.53-79.31,37.55-33.68,2.16-62.82-8.61-88.23-30.51-2-1.71-5.38-2.52-8.12-2.52q-129.21-.19-258.42-.11-14.74,0-29.5,0c-7,0-7.09-.12-7.09-6.9,0-19.66-.14-39.32.08-59,.06-4.73-1.29-6.38-6.18-6.33C-1.43,319.17.05,320.74,0,306.23Q0,157.52.07,8.82A75.73,75.73,0,0,1,1.12,0h13c1.79,1.36,3.39,3.26,5.4,3.92s4.57.06,6.87.19c3.08.17,5.09-1,5.73-4.11h22c.67,5.37,4.08,6,8.8,5.91,16.28-.27,32.57-.1,48.86-.1h15.51L130.12,0h183c3.13,6.1,8.85,3.5,13.63,4.08,3.3.4,5.37-1,6.37-4.08ZM128.23,95.77,128.16,89l0-8.17.09-6.7c0-2.49,0-5,0-7.45l-.21-6.78q.09-11.08.17-22.16L128.15,31c0-2.73,0-5.45,0-8.17q0-3.34.08-6.71V9.46c-2.21-.13-3.83-.3-5.46-.3q-30.48,0-61,0c-6.52,0-6.52,0-6.56,6.75V386.42c.67-9.83.63-19.65.69-29.46,0-6.2,1.9-8.14,8-8.16q27.48-.09,55,0c7,0,8.52,1.6,8.54,8.51,0,9.89,0,19.77,0,29.66h.68V341.84l.06-6.71q0-3.72,0-7.44c-.08-2.25-.15-4.51-.22-6.76l.15-8.11.06-6.67,0-7.4-.1-6.73,0-8.12.21-6.66c0-2.51-.07-5-.11-7.54-.07-2.26-.15-4.52-.22-6.78,0-2.7.11-5.41.16-8.11q0-3.33,0-6.67c0-2.46,0-4.93,0-7.39q0-3.37-.1-6.73l0-8.13q.11-3.33.19-6.66l-.09-7.52c-.06-2.26-.13-4.51-.19-6.76l.12-8.11.09-6.67-.06-7.4c0-2.24,0-4.49-.07-6.73V168l-.06.07.19-14.33-.22-6.77q.08-4,.13-8.08l.1-6.68,0-7.41c0-2.24-.05-4.48-.08-6.72,0-2.69,0-5.39,0-8.08l-.06.07Q128.16,102.89,128.23,95.77Zm12,38.13q0,61.71,0,123.43c0,4,.4,6.72,5.51,6.71q70.2-.17,140.42,0c3.21,0,4.63-1.36,5.84-4.19,2.29-5.34,5.23-10.41,7.61-15.72a20.42,20.42,0,0,0,2.2-8c.12-75.3.06-150.59.21-225.88,0-4.88-1.53-6.19-6.27-6.17-49.64.15-99.28.09-148.92.09-6.53,0-6.55,0-6.56,6.75Zm264.21,57.21C341,190,286.52,241.35,288.36,309.28c1.62,59.78,51,110.64,114.49,110.09,65.62-.58,114.07-52.43,113.6-114.64C515.9,233.18,456,190.59,404.43,191.11ZM183.8,290.69H160.63c4,6.77,7.53,12.87,11.66,19.93Z"/><path d="M128.28,327.69c-2.28.4-4.55,1.14-6.82,1.15-19.77.1-39.55.12-59.33,0-2,0-4.93-.89-5.83-2.35-2.09-3.37.09-6.58,4.17-6.59q31.65-.11,63.31,0a18.64,18.64,0,0,1,4.28,1.07C128.13,323.18,128.2,325.44,128.28,327.69Zm-4.65-3.09v-.8H60.73v.8Z"/><path d="M128.23,182.77c-1.75.42-3.51,1.19-5.26,1.19-20.46.09-40.91.12-61.36,0-1.84,0-4.54-1-5.33-2.34-2-3.48.11-6.6,4.22-6.62q31.68-.11,63.36,0a18.64,18.64,0,0,1,4.3,1.06C128.19,178.28,128.21,180.53,128.23,182.77Zm-68.13-4V180h64v-1.23Z"/><path d="M128.2,196.84c-1.92.42-3.83,1.2-5.75,1.21q-30.45.13-60.89,0c-5.09,0-6.31-1.41-5.66-5.72.6-3.93,3.66-3.31,6.18-3.32q29-.11,57.9,0a63.92,63.92,0,0,1,8.31,1.1Zm-4.06-2.69c-4.61-2.61-61.23-2.26-64.35,0Z"/><path d="M128.2,341.84c-1.91.43-3.83,1.22-5.74,1.23-20.3.09-40.59.05-60.88.05-2.94,0-5.69.07-5.78-4.22S58.21,334,61.55,334c14.3,0,28.61-.13,42.91,0,7.94.1,15.86.69,23.79,1.06Q128.24,338.49,128.2,341.84ZM60.14,338l-.06,1.24h64V338Z"/><path d="M128.19,80.86c-1.91.42-3.82,1.21-5.74,1.22-20.29.09-40.59.06-60.89.06-3,0-5.67,0-5.76-4.24S58.23,73,61.56,73c14.64,0,29.28-.13,43.92,0,7.6.09,15.2.7,22.8,1.07ZM60.17,77l-.08,1.23h64V77Z"/><path d="M128.21,312.82c-1.91.44-3.82,1.26-5.73,1.27-20.3.09-40.61,0-60.92.09-3.78,0-6.09-.81-5.73-5.28.31-3.94,3-3.86,5.7-3.87Q79.76,305,98,305c7.83,0,15.65-.08,23.47.05a47.07,47.07,0,0,1,6.81,1.09Q128.25,309.49,128.21,312.82Zm-68.1-4v1.24h64v-1.24Z"/><path d="M128.23,95.77c-1.76.4-3.52,1.14-5.28,1.15-20.45.08-40.9.13-61.34-.07-1.89,0-4.76-1.3-5.44-2.78-1.66-3.66.24-6.12,4.35-6.13q31.66-.1,63.34,0c1.43,0,2.86.7,4.3,1.07C128.18,91.28,128.21,93.52,128.23,95.77ZM60,91.86V93h64.11V91.86Z"/><path d="M128.24,298.75c-1.75.41-3.51,1.16-5.27,1.17q-30.68.12-61.36,0c-2.4,0-5.25.36-5.69-3.27-.41-3.47.29-5.83,4.58-5.82,21.12.09,42.24,0,63.35.1,1.43,0,2.86.7,4.29,1.07C128.18,294.26,128.21,296.51,128.24,298.75ZM60.1,294.81l0,1.24h64v-1.24Z"/><path d="M128.23,37.77c-1.76.4-3.52,1.14-5.28,1.15-20.45.08-40.9.12-61.35-.07-1.88,0-4.75-1.31-5.42-2.79-1.67-3.66.23-6.11,4.34-6.13q31.66-.11,63.34,0A18.24,18.24,0,0,1,128.15,31C128.18,33.28,128.2,35.53,128.23,37.77ZM124,35l.08-1.23h-64V35Z"/><path d="M128.24,124.76c-1.76.41-3.51,1.18-5.27,1.19q-30.69.12-61.38,0c-2.67,0-5.49.13-5.74-3.82-.22-3.46.81-5.32,4.65-5.31,21.13.07,42.25,0,63.38.09,1.43,0,2.85.72,4.28,1.1C128.19,120.28,128.21,122.52,128.24,124.76Zm-68.14-4V122h64v-1.23Z"/><path d="M128.19,138.85c-1.91.43-3.83,1.21-5.74,1.22q-30.45.12-60.9,0c-5.07,0-6.3-1.42-5.65-5.73.6-3.94,3.67-3.3,6.18-3.31q29-.1,57.9,0a62.24,62.24,0,0,1,8.31,1.1C128.26,134.4,128.22,136.62,128.19,138.85ZM60.08,134.9l.08,1.23h64V134.9Z"/><path d="M128.21,254.81c-1.91.44-3.82,1.23-5.74,1.24q-30.45.13-60.91,0c-5.08,0-6.29-1.4-5.66-5.72.57-4,3.62-3.35,6.14-3.36q29-.09,57.92,0a63.6,63.6,0,0,1,8.3,1.12Q128.25,251.49,128.21,254.81Zm-4.19-2.7.09-1.23h-64v1.23Z"/><path d="M128.19,22.86c-1.91.43-3.83,1.21-5.74,1.22-20.3.09-40.59.05-60.88.05-3,0-5.68.05-5.77-4.23s2.44-4.86,5.76-4.85c14.64,0,29.28-.13,43.92,0,7.6.09,15.19.69,22.79,1.06Q128.24,19.51,128.19,22.86ZM60.17,19l-.08,1.23h64V19Z"/><path d="M128.24,240.75c-1.75.41-3.51,1.16-5.27,1.17-20.45.08-40.9.13-61.35-.07-1.89,0-4.76-1.29-5.44-2.78-1.69-3.64.22-6.12,4.32-6.13q31.68-.12,63.35,0a18.18,18.18,0,0,1,4.29,1.06Q128.2,237.38,128.24,240.75Zm-4.14-2.65-.07-1.24h-64v1.24Z"/><path d="M128.27,269.7c-2.27.4-4.54,1.13-6.81,1.14-19.78.09-39.56.12-59.34,0-2,0-4.92-.9-5.82-2.37-2.08-3.38.1-6.58,4.16-6.59q31.66-.1,63.32,0a18,18,0,0,1,4.27,1.08C128.12,265.18,128.2,267.44,128.27,269.7Zm-4.16-2.78c-4.76-2.64-61.18-2.27-64.26,0Z"/><path d="M128.17,283.9c-1.9.45-3.81,1.27-5.71,1.28-20.32.09-40.65.06-61,.05-2.69,0-5.45.26-5.66-3.79-.2-3.87,1.66-4.84,5.13-4.81,11.33.11,22.66,0,34,.06,11.15.09,22.29.36,33.44.55Zm-4.55-2.5v-.95h-63v.95Z"/><path d="M128.27,66.71a24,24,0,0,1-3.92.62c-21.29,0-42.58,0-63.87.06-3,0-4.65-.94-4.66-4.28s1.57-4.35,4.61-4.34c21.12,0,42.24,0,63.37.07,1.42,0,2.84.71,4.26,1.09Zm-4.64-3.12,0-.76H60v.76Z"/><path d="M128.28,153.7a25.35,25.35,0,0,1-3.92.62c-21.29,0-42.59,0-63.88.05-3,0-4.66-.92-4.66-4.27s1.56-4.35,4.61-4.35c21.12.05,42.25,0,63.38.08,1.42,0,2.84.72,4.25,1.1C128.14,149.19,128.21,151.44,128.28,153.7Zm-4.66-2.95c-7-2.57-61-1.9-63.65,0Z"/><path d="M128.17,225.89c-1.9.45-3.8,1.27-5.7,1.28-20.33.09-40.65.06-61,.05-2.69,0-5.5.27-5.65-3.79-.13-3.36,1.12-4.87,4.61-4.83,10.16.1,20.32,0,30.48,0,12.48.12,24.95.38,37.43.59Q128.27,222.56,128.17,225.89Zm-4.55-2.52v-.93H60v.93Z"/><path d="M128.27,211.71c-2.94.23-5.88.66-8.82.68-19.45.11-38.9.08-58.35.22-3,0-5.18-.22-5.3-4.05s1.75-4.83,5.18-4.82c20.78.07,41.56,0,62.34.09,1.59,0,3.17.73,4.76,1.12C128.14,207.2,128.21,209.45,128.27,211.71ZM125.58,209c-6.83-3-63.57-2.28-65.07,0Z"/><path d="M420.07,287.76c13.5,0,26.3-.19,39.09.14a16.07,16.07,0,0,1,9.11,3c5,4,4.75,25.05-.29,29a16.64,16.64,0,0,1-9.18,2.91c-10.81.36-21.65.34-32.48.09-4.78-.11-6.47,1.57-6.35,6.35.25,10.66.13,21.33,0,32-.07,9.5-3.64,13-13,13.07-3.83,0-7.67.1-11.49,0C389.06,374,385,370,385,363.41c-.14-11.66-.18-23.33,0-35,.07-4.07-1.25-5.62-5.45-5.53-10.16.22-20.33.1-30.49,0-2.65,0-5.71.32-7.85-.85-2.79-1.54-6.33-4.09-6.9-6.78-1.2-5.59-1.1-11.59-.73-17.37.43-7,4-10,11.13-10.09,11.16-.11,22.33,0,33.49-.05,6.7,0,6.72,0,6.73-6.52,0-10.83,0-21.66,0-32.49.05-9,3.41-12.55,12.3-12.66a127,127,0,0,1,14.45.7c5.07.5,8,3.91,8.21,10.22.34,8.82.16,17.66.18,26.49C420.08,278,420.07,282.46,420.07,287.76Z"/><path d="M128.15,110c-1.92.41-3.83,1.18-5.75,1.19-20.16.09-40.32.06-60.49.06-3.06,0-6.1.31-6.12-4.37,0-4.43,2.7-4.73,5.94-4.73,20,0,40,0,60,0,5.9,0,6.48.89,6.37,7.9Zm-67.56-3.52v1h63v-1Z"/><path d="M128.15,168c-1.41.42-2.82,1.2-4.23,1.2-21.17.08-42.33,0-63.49.1-3.94,0-5.22-2.09-4.39-5.33.35-1.38,2.38-3.32,3.67-3.33,21.33-.21,42.65-.17,64-.16,5.74,0,4.22,4.31,4.4,7.59Zm-4.59-2.38.06-1h-63v1Z"/><path d="M91.76,53.21c-10.15,0-20.29,0-30.44,0-3.12,0-5.59-.3-5.51-4.46.07-3.9,2.39-4.16,5.3-4.16q30.69,0,61.38,0c3.18,0,5.68.45,5.62,4.46-.07,4.18-2.94,4.16-5.91,4.16Q107,53.19,91.76,53.21ZM60.59,48.47v.92h63v-.92Z"/></g></g></svg>