<?xml version="1.0" encoding="utf-8"?>
<!-- Generator: Adobe Illustrator 24.0.1, SVG Export Plug-In . SVG Version: 6.00 Build 0)  -->
<svg version="1.1" id="Layer_1" xmlns="http://www.w3.org/2000/svg" xmlns:xlink="http://www.w3.org/1999/xlink" x="0px" y="0px"
	 viewBox="0 0 20 20" style="enable-background:new 0 0 20 20;" xml:space="preserve">
<style type="text/css">
	.st0{fill-rule:evenodd;clip-rule:evenodd;}
</style>
<path d="M3.2,1h1.4l3.2,8.5H6L5.3,7.7H2.4L1.8,9.5H0L3.2,1z M3.9,3.5L3,6.1h1.8L3.9,3.5z"/>
<path d="M6.8,13.2l-3.8,5.1h3.6V20H1.1v-1.7l3.7-5.1H0.9v-1.7h5.9V13.2z"/>
<path class="st0" d="M13.4,14h-1.7V2c0-0.5-0.4-1-0.8-1H9.9C9.5,1,9.1,1.4,9.1,2v12H7.4c-0.3,0-0.5,0.3-0.3,0.6l2.9,5.2
	c0.2,0.3,0.5,0.3,0.7,0l2.9-5.2C13.9,14.2,13.7,14,13.4,14z"/>
<path class="st0" d="M13.7,7h1.7v12c0,0.5,0.4,1,0.8,1h0.9c0.5,0,0.8-0.4,0.8-1V7h1.7c0.3,0,0.5-0.3,0.3-0.6L17,1.3
	c-0.2-0.3-0.5-0.3-0.7,0l-2.9,5.2C13.2,6.8,13.3,7,13.7,7z"/>
</svg>
