<?xml version="1.0" encoding="utf-8"?>
<!-- Generator: Adobe Illustrator 24.0.1, SVG Export Plug-In . SVG Version: 6.00 Build 0)  -->
<svg version="1.1" id="Layer_1" xmlns="http://www.w3.org/2000/svg" xmlns:xlink="http://www.w3.org/1999/xlink" x="0px" y="0px"
	 viewBox="0 0 676 419" style="enable-background:new 0 0 676 419;" xml:space="preserve">
<style type="text/css">
	.st0{fill:#2EC9D4;}
	.st1{fill:#2B95CD;}
	.st2{fill:#2EC8D4;}
	.st3{fill:#2CADD0;}
	.st4{fill:#2DB2D1;}
	.st5{fill:#2CAED1;}
	.st6{fill:#2B96CD;}
	.st7{fill:#2DB3D1;}
	.st8{fill:#2DB5D1;}
	.st9{fill:#2EC7D4;}
	.st10{fill:#2DB6D2;}
	.st11{fill:#2CB0D1;}
	.st12{fill:#2CB1D1;}
	.st13{fill:#2CAFD1;}
	.st14{fill:#2DB4D1;}
	.st15{fill:#2DB7D2;}
	.st16{fill:#2B97CE;}
	.st17{fill:#2EC6D4;}
	.st18{fill:#2B9ECE;}
	.st19{fill:#2B98CE;}
	.st20{fill:#2EC4D3;}
	.st21{fill:#2EC5D4;}
	.st22{fill:#2B99CE;}
	.st23{fill:#2EC3D3;}
	.st24{fill:#2B9CCE;}
	.st25{fill:#2B9ACE;}
	.st26{fill:#2B9BCE;}
	.st27{fill:#2DC2D3;}
	.st28{fill:#2DC0D3;}
	.st29{fill:#2DBFD3;}
	.st30{fill:#2DC1D3;}
	.st31{fill:#2B9DCE;}
	.st32{fill:#2CA0CF;}
	.st33{fill:#2DBED3;}
	.st34{fill:#2B9FCF;}
	.st35{fill:#2CA2CF;}
	.st36{fill:#2DBBD2;}
	.st37{fill:#2CA4CF;}
	.st38{fill:#2DBDD3;}
	.st39{fill:#2DBAD2;}
	.st40{fill:#2DBCD2;}
	.st41{fill:#2DB8D2;}
	.st42{fill:#2CA1CF;}
	.st43{fill:#2CAAD0;}
	.st44{fill:#2CA6CF;}
	.st45{fill:#2CA7D0;}
	.st46{fill:#2CA8D0;}
	.st47{fill:#2CA3CF;}
	.st48{fill:#2DB9D2;}
	.st49{fill:#2CA6D0;}
	.st50{fill:#2CABD0;}
	.st51{fill:#2CACD0;}
	.st52{fill:#2CA9D0;}
	.st53{fill:#2DB0D1;}
	.st54{fill:#2B94CD;}
	.st55{fill:#2DBDD2;}
	.st56{fill:#2C9FCF;}
</style>
<title>glogo</title>
<path class="st0" d="M96.2,105.1c-8.5,9.7-13.1,22.3-13,35.2c-0.4,47.5-0.3,95.1,0,142.6c0,9.9,2.8,19.6,7.9,28
	c2.1,3.4,0.9,7.9,4,10.9c1.1,1.1,0.5,2.8-0.6,3.5c-4.1,2.8-2.1,6-0.7,9c1.2,2.6,2.7,4.7-1.1,6.4c-0.9,0.4-1.9,2.6-1.4,3.1
	c3,4,0.1,7.6-0.6,11.3c-0.1,0.5-0.2,0.9-0.3,1.3c-1.2,3.5-2.2,6.9,1.8,9.4c0.2,0.4,0.4,0.8,0.6,1.3c0.1,0.5,0.1,0.9,0,1.4
	c-0.1,0.5-0.3,0.9-0.5,1.3c-0.6,1.3-1.8,1.5-3.1,1.8c3.9,2-0.8,6.2,2.5,8.7c4.1,3.2,3.9,7.4,1.5,11.6c-1.6,3,1.5,6.6-1.3,9.4
	c-0.1,0.4-0.3,0.9-0.5,1.3c-1,3.3-1.1,6.8-0.5,10.2c0.5,3,0.1,3.7-2.3,3.6c-1.7-0.1-1.9,1.7-3.1,1.9c-21.7-1.4-41.1-9.2-56.8-23.9
	c-17.6-16.5-26.4-37.6-28-61.6c-0.1-1.3,0.4-2.7-0.5-3.9V90.1c1-9,1.8-18.1,4.5-26.9C15.5,27.4,44.1,5.2,81.2,1
	c2.9-0.3,6,0.2,8.8-0.9h1c4.9,3.5,5.1,11,0.4,14.3c1.9,3-2,4.9-1.3,8.3c1,4.3,4,8.3,3,13.3c-0.4,2.2-0.3,3.8-2.5,5.1
	s-1.6,2.6,0.9,3.1c0.4,0.2,0.7,0.5,1,0.9c0.3,2,0.4,4-0.7,5.8c-0.3,0.3-0.6,0.5-1,0.7c-0.5,2.8,0,5.8,1.4,8.3
	c0.9,1.6,0.2,3.6,0.6,5.3c0,0.5,0,0.9,0,1.4c1.9,3.4-0.5,7.9,2.6,11.1c0.6,0.5,0.6,1.4,0,2c-0.2,0.2-0.4,0.3-0.7,0.4
	c-3.9,0.6-2.2,2.6-1.2,4.4c0.3,0.6,0.8,1.1,1.1,1.7c0.6,1.3,1,2.9-0.4,3.6c-1.8,0.8-1.6-1.6-2.2-2c-0.4,4.8,3,9.9-0.9,14.7
	C94.7,98.9,94.8,103.3,96.2,105.1z"/>
<path class="st1" d="M585.9,417.8l-1,1.2h-18c-1.8-2.7-1.7-4.3,2-5.1c5.1-1,5-1.3,2.5-5.9c-0.7-1.3-0.8-2.9-1.2-4.3
	c-0.7-2.3,2.2-3.5,1.6-5.4s-3.2-3.2-0.7-5.4c0.3-0.2,0.4-0.6,0.1-0.8c-5.9-2.8-1.8-7.6-1.9-11.3s-1.6-7.2-0.4-10.9
	c0.3-0.9-0.7-0.9-1.3-1c-2.2-0.5-2.2-1.7-0.9-3.2c0.3-0.4,0.9-1,0.7-1.2c-2.9-4,2.9-3.3,2.9-5.5c0-0.6,3.3,1.1,0.5-0.8
	c-1.6-1.1-2.5-2.5,0.2-3.5c0.5-0.2,0.4,0.3,0.3-0.4c-0.8-3.8-3.6-7.6-0.7-11.6c0.4-0.7,1.1-1.1,1.9-1.1c-1.5-1.3-4.3-0.9-4.5-3.1
	c-0.2-1.8,1.5-3.2,2.2-5c-4-1-4.4-3-1.3-6.4c5.6-4.7,10.9-9.8,15-16c2.3,0.3,4.7,1.4,5.7,3c1.5,2.4,0.8,5.7,2.4,8.4
	c0.5,0.8-1,1.5-1.9,1.8c-1.3,0.5-2.4,1.1-2.3,2.8c0.1,0.4,0.2,0.9,0.3,1.3c1,1.3,1.5,2.9,1.4,4.6c-0.5,3.7-0.4,7.4,0.3,11
	c1,4.1-1.5,7.6-5,11.5c2.5-2.5,4-4.8,6.9-2.8c1.3,0.9,2.7,2.9,1.7,3.7c-4.6,3.4-3.6,9.4-6.7,13.3c1.5,1,2.9-0.3,4.1,0.4
	c1.3,0.9,2.5,3,0.7,3.3c-5.3,1-4.1,6.5-7.2,8.8c1.4-1.1,3.4-1.1,4.8-0.1c1.5,0.9,1.2,2.1,0.6,3.5c-1.2,3.1,2,6,0.6,9.2
	c-1.9,1.4-2.6-1.8-4.9-1c2.7,2.3,3.4,5,4.1,8.2c0.9,3.9-0.3,3.8-3,3.9c-0.5,0-0.9,0.4-1.3,0.7c-0.6,0.3,0.3,1,0,0.4
	c-0.1-0.1,0-0.2,0.1-0.3c1-1.2,2.9-1.4,4.1-0.4c0.1,0.1,0.2,0.2,0.3,0.3c1.2,1.2,1.9,2.8,1.7,4.5c-0.1,0.9-0.7,2.1-1.3,1.9
	C584.7,411.2,587.3,416.1,585.9,417.8z"/>
<path class="st1" d="M584.9,0.1c0.2,1.2,1.3,0.9,2,1.2c0.6,0.4,1.8,0.5,1.8,0.7c-0.9,2.7,1.1,6,0.3,7.6c-2,3.8-0.6,7.1-0.4,10.6
	c0.1,1.2,0.4,2.1-0.4,3.2c-0.6,0.8-0.6,1.9-1,2.8c0.8-0.5,0.8-1.7,1.8-2s1.6,0.4,1.9,1.1c1.3,2.5,0.6,5.5-1.6,7.2
	c-2.2,1.7-3-1.5-4.6-2.4c-0.5-0.2-0.2-1.1-1-1.7c0,2.5,2.1,3,3.2,4.2s2.1,2.5-0.4,3.2c-0.4,0-0.5,0.1-0.3,0.4c0-0.4,0.2-0.5,0.7-0.4
	c5.1,3.4,4.9,4.5-1.2,8.8c1.1,1.1,4.2-0.8,3.9,1.7c-0.3,3.1,0.9,7.1-3.2,9c-0.6-0.3-1-0.8-1.6-1c-0.1,0-0.3,0.1-0.2,0.2
	c0.4,0.6,1.2,0.2,1.7,0.7c3.6,2,1.2,6.2,3.1,8.8c0.2,0.2-0.2,0.7-0.2,0.9c0.2,2-4-1.9-2.6,2c0.6,1.6-0.7,3.5-0.8,5.3
	c-0.1,0.4-0.2,0.9-0.3,1.3c1.5,3.3,3.3,6.2,0.3,10.2c-1.3,1.8,0,5.9,2.6,8c1.6,1.3,2.4,2.4,0.7,4c-1.3,1.2-0.7,2.3-0.3,3.6
	c0.5,1.6,0.1,3.4-1.6,3.7c-3.4,0.5-1.1,2.6-1.5,4c0.4-1.7,1-3.8,2.9-2.8c2.2,1.1,3.4,3.4,2.9,5.8c-0.2,1.1-1.9,1.4-0.9,3.2
	c0.9,1.5,0.7,4.1-1,5c-2.6,1.3-1.9-2.6-3.7-3c-3.9-7.3-9.8-12.8-15.9-18.2c1-4.1-1.4-8.4,1.5-12.7c1.1-1.6,1-5.5-1.1-7.8
	s-2.8-4.4,0.3-6.6c1.8-1.3,0.8-2.5-0.8-3.5c-5.2-3.3-4.5-3.1-1.8-9c1.5-3.4,2.8-7.9,2.1-11.9s1.4-8.5-3.1-11.4
	c-0.6-0.4-0.7-1.2-0.3-1.8c0,0,0,0,0,0c1.4-1.8,3-0.5,4.6-0.4c-1.7-2.7-2.5-5.8-2.2-9c0.3-3.8,0.3-7.1-2-10.3
	c-1.2-1.6-0.6-2.8,1.3-3.4c3.9-1.2,3.7-4.1,2-6.8c-1.5-2.5,1.1-1.6,1.5-2.5L584.9,0.1z"/>
<path class="st2" d="M91.4,51.3c0.4-2.1-0.6-4.4,0.7-6.2c-1.1-1.4-3.6,1.9-4.2-1.3c-0.5-2.4,1.4-3,2.6-4.4c1.9-2.4,2.2-5.6,1-8.3
	c-2-4.6-4.3-9.7-1.6-14c1.9-2.9-0.8-2.4-1.2-3.4c1.4-1.4,4.1,1.5,4.3-1s1.5-5.8,0.4-7.7c-0.9-1.6-0.8-3.8-2.4-5h14
	c2.4,1.9,4.1,4.4,4.9,7.3c0.7,2.3,2.3,4.4-1.7,5c-1.3,0.2-1.4,6.5,0.1,7.4c2.2,1.4,2.3,2.6,0.6,4.3c-0.4,0.3-0.8,0.5-1.2,0.6
	c-0.5,0-1-0.3-1.4-0.3c-1.5,0.3,0,0.6,0.1,0.7c2,2.2,3.9,4.6,3.5,7.9c-0.2,1.7-0.2,3.8-2.6,4.2c-1.3-1.2-2.2-2.9-2.3-4.7
	c0,1.8,0.8,3.5,2.2,4.7c1,0.4,1.6,1.5,1.3,2.5c0,0.1-0.1,0.2-0.1,0.3c-0.4,0.9-1.2,1.9,0.8,1.4c0.9-0.2,2-0.7,2.3,0.8
	c0.2,1-0.3,2-1.1,2.6c-1.9,1.4-4.8,2.2-3.6,5.6c0,0.1-0.8,0.3-1.3,0.2c-0.5-0.4,0.2,0-0.3-0.3c-0.4-0.2-0.7-0.6-1.2-0.5
	c0.4,0,0.8,0.2,1.1,0.5c0.3,0.4,0.7,0.9,0.7,1.3c-0.4,3.2,6.7,0.8,4,4.9c-1.6,2.5-1.3,5-1,7.1c0.5,3.3,0.6,5.9-1.7,8.5
	c-0.6,0.7,0.9,1.6,1.7,2.1c2.2,1.3,2.6,3.4,1.3,5.1c-1.7,2.3-1.7,4.4-0.9,7c1.3,4.1-2.4,6.6-3.2,10.1l-9.9,8.9
	c-2.4,0.2-1.8-2.5-3.1-3.4c-0.7,2.2-1.2,2.4-4.8,1.7c4.1-2.6,3.5-6.2,2.4-9.6c-0.6-2,2.8-5.3-1.8-6.1c0-0.4,0.2-0.9,0.4-1.2
	c0.4-0.5,1-1.1,1.6-0.5c0.9,0.9,1.8,1.9,2.6,2.8c1.3-1.5-0.3-2.3-1.1-3.4c-2.8-3.8-2.5-4.7,1.7-6.2c0.2-0.1,0.6-0.4,0.6-0.4
	c-0.3-0.9-0.4-1.9-1.6-2.3c-3-0.9-3.5-2.3-0.8-4.2c1.6-1.1,0.3-1.4-0.3-2c-1.3-1.4-1.6-2.9,0.1-4.2c0.5,0.2,0.8,0.5,1.2,0.3
	c-0.3-0.1-0.7-0.2-1-0.2c-0.6,0-0.1-0.9-0.4-0.3c-0.1,0.2,0,0.3,0.2,0.1c-0.5-0.9-1.2-1.8-1-2.4c1-4.1-0.8-5.1-5.1-3.8
	c3.8-3.4,3.8-3.4,2-10C89.2,50.4,90.1,50.8,91.4,51.3c0.5,0.2,0.5,0.1,0.4-0.1C91.3,50.7,92,51.5,91.4,51.3
	c-0.7-0.1-0.2-0.8-0.3-0.2C91.1,51.3,91.5,51.4,91.4,51.3z"/>
<path class="st2" d="M90,418l-4-0.3c-0.8-1.6-1.8-3.4,1.6-2.4c1,0.2,2.1,0.2,3.1,0c0.2-2.2-1.5-1.8-2.3-2.4
	c3.1-3.2-1.2-8.1,2.9-10.8l0,0c1.2-4.2-1.8-8.5,1.5-12.5c1.8-2.2,1.5-5.8-1.6-8.1c-2.2-1.7-3.6-3.9-1.7-6.8c0.3-0.4,0.4-0.9,0.3-1.4
	c-0.3-1.6,0.4-3.3,1.8-4.2c0.1-0.1,0.3-0.2,0.8,0l0.4,0.3c-0.2-0.6,0.1,0.1-0.4-0.3s0-0.8-0.4-0.2c0,0,0.5,0.4,0.4,0.2
	c-0.3-0.7-0.4-1.5-0.4-2.3c0.7-1.1,1.8-1.9,2.4-3.1c-0.6,1.2-1.8,2-2.4,3.1c-5.6-4.8-5.6-5.1-2-10.9c1.9,0.4,2.3,2,3.6,2.5
	c0.4-0.4,0.3-0.5-0.1-0.3c-0.1-2.4-1.9-2.2-3.5-2.2c-0.9-1.3-0.9-3,0.1-4.2c2-2.7,2.1-5-0.4-7.6c-0.4-0.4,1.1-3.1,2.1-4.4
	c0.6-0.8,3.3-0.5,2.1-2.1c-2.4-3.1-2.1-7.2-4.3-10.3c5.4-2.6,6-3.5,2.9-7.5c-2.2-2.9-1.2-5.9-1.4-9c4.3,6.4,9.7,11.9,15.9,16.3
	c0.2,2.9-0.9,6,1.9,8.3c0.5,0.4,0.8,1.6,0.4,1.8c-4.6,2.5-1,5.6-0.8,8.5c0.1,1.2-0.4,2.3-1.3,3.1c-0.4,0.3-1,0.1-1.1,0.2
	c-0.5,0.4-0.6-0.4-0.1,0s1,0,1.5-0.4c0.7-0.2,1.4,0.1,1.7,0.7c1.1,2.2-1.2,4-0.8,6.2c0.5,2.5-0.7,3.7-3.3,3.6
	c-1.1-0.1-0.1,0.5-0.2,0.8c-0.1,0.9-1.8,1.9,0.8,2.3c4.7,0.8,5.9,4.7,2.9,8.2c-1.9,2.1-2.2,2.5-2,3.2c0.7,2.8-0.9,5.2-1.2,7.8
	c-0.1,1.3,0.9,1.7,2,1.6c1.7-0.2,3.1,1.3,2.3,2.2c-2.8,2.9-0.3,6.6-1.9,9.5c-2.3,4.2-2.7,8.2,0.9,11.9c0.2,0.2,0.5,0.7,0.3,0.9
	c-4.2,4.8,1.5,7.6,2.2,11.3c0,0.1-0.2,0.3-0.3,0.4H94C92.9,417.5,91.4,418.3,90,418z"/>
<path class="st3" d="M348,251.1c7-0.4,7-0.4,7,6.5c0,53.8,0,107.5,0,161.3h-6c-1.2-1-2.8-1.2-4-2.1c-0.7-0.5-1.6-1.2-0.9-2
	c3.2-3.8,0.4-8.7,2.4-12.7c0-0.1,0.2-0.4-0.1-0.4c-2.4,0.2-3.2-0.3-2.8-2.5c0.8-4.2,0.4-8.5,2.5-12.7c1.6-3.4,1.2-7.4-1.1-10.4
	c-1.1-1.5-2.2-2.6,0-4c0.6-0.4,0.6-1,0.7-1.7c0.3-2-5.3-2.9-0.9-5.5c-2.1-5,0.2-9.6,1.2-14.3c0.2-1.4,0.2-2.8,0-4.1
	c-0.8-6.2,0.6-12.2-0.8-18.7c-1.5-7.1-0.7-15.1,0.8-22.7c0.1-0.8,1.2-1.2,0.6-2.2c-3.5-6.1-1.5-12.5-0.9-18.8
	c0.3-3.8-1.5-7.8,0.8-11.5c0.4-0.7-0.8-1.4-1.4-1.9c-2.8-2.5,0-4.2,0.7-6.4s-3.4-3.6-2.4-6.5c0.1-0.3,0.3-0.8,0.5-0.8
	C348.8,257.4,346.5,253,348,251.1z"/>
<path class="st4" d="M306,251.1h10c0.8,0.8,2.3,1.1,2,2.6c-0.6,2.4-0.8,4.9-0.6,7.3c0.8,3.6-0.1,7.3-2.4,9.3c3.5,0,4.4,1.4,2.5,4.2
	c-2.3,3.3,2,6.4,0.1,10c-1.7,3.3,1,7.4-1.5,10.8c-0.5,0.7,0.7,0.8,1,1.2c1,1.3,1.7,2.6,0.8,4.1c-1.2,2-1.2,3.3,0.6,5.1
	c1.3,1.2,1.4,4,0.1,5.1c-5.3,4.6-3.2,10.1-2.3,15.4c0.3,1.9,1.5,3.5-0.1,5.4c-0.6,0.6-0.7,1.5-0.1,2.1c0,0,0.1,0.1,0.1,0.1
	c2.5,1.9,1.2,3.8,0.1,5.6c-0.7,1.2-1.4,2.1-0.2,3.5c3,3.5,2.4,7.9,0.8,11.3c-1.4,3.1-1.6,5.4-0.3,8.2c0.3,0.6,0-0.2,0.1,0.5
	c0.2,2.9-1.4,5.9,0.8,8.6c-0.6,0.7-1.6,0.9-2.5,0.7c1.1,0.4,1.8-0.2,2.6-0.7c2.8,2.1,1.6,4.7,0.7,7.1c-0.6,1.6-1.5,3-0.5,4.6
	c1.4,2.3,2.6,4.5-1.4,5.5c-0.8,0.2-0.5,1.2-0.3,1.6c1.9,3.8,0.5,7.4,0.2,11.2c-0.3,3.4-0.5,7,1.6,10.4c1.3,2.1,1.5,5.2-1.7,6.8h-8
	c-1.2-1-2.3-2.3-2.2-3.8c0.3-6.1-0.9-12.2-0.5-18.3c0.3-4.4,3.1-8.7,0-13.4c-1-1.6-0.2-4.7,2.1-6.5c1.6-1.3,2.2-3.2,0-4.5
	c-1.9-1.1-1.6-2.7-1.5-4.3c0-3.2,1-6.2-0.7-9.6c-1-2,1.3-5.2,2.2-7.8c0.4-1.2,1.8-2.8,0.5-3.6c-2.9-1.9-2-4.8-2.6-7.4
	c-0.3-1.4-1.1-3,1.2-3.5c-0.3-1.3,1-3.1-0.2-3.8c-3.2-1.9,0.5-5.1-1.6-7c3.1-1.4-0.1-4.9,2.4-7c1.3-1.1-0.6-3.9-0.9-6
	c-0.8-6.9,0.3-13.7-0.1-20.5c-0.4-6.5,0.5-13-0.7-19.5c-0.1-0.8-0.7-1.8-0.4-2.4C308.2,263.8,304.2,257.3,306,251.1z"/>
<path class="st5" d="M348,251.1c0.3,0.9,0.6,1.9,0.7,2.9c0.5,5,0.4,5-4.4,3.8c0.2,1.2-0.2,2.6,1.2,3.5c2.7,1.7,3.6,3.5,0,5.5
	c-1.7,1-1.3,2.8,0.4,3.4c2.9,1.1,2.7,2.5,1.1,4.7c-1.3,1.6-1.5,3.9-0.4,5.6c1,1.8,1.5,3.7-0.3,5.5c-0.6,0.6-1.2,1.2-0.4,2
	c1.4,1.4,2.8,2.8-0.5,3.7c-0.5,0.1,1.4,10.4,2.1,10.6c1.4,0.4,1,0.7,0.4,1.5c-2.6,4-2.3,8.3-0.9,12.6c0.2,0.8,0.1,1.6-0.2,2.4
	c-2.1,5-1.3,9.9,1.1,14.5c0.8,1.5,1,2.8,0,4.1c-1.4,2-2.1,3.3,0.1,5.8c1.3,1.5-0.6,5-1.3,7.1c-1.4,4.1,0.7,8.5-2.4,12.5
	c-1.4,1.7,3.3,1.3,3.8,3.5c-1.5,1.3-2.8-1-4.5,0c1.3,1.4,3.1,2,3.7,4.1c1,3.2-1.4,2.9-3,3.5c2.5,1.9,3.9,5,3.7,8.2
	c-0.1,5.2-3.3,9.6-3.2,14.9c0,1.6-0.7,3.2,0.5,5c1.1-1.2-0.4-4,2.7-4c-1.5,4,0,8.3-1.9,12.1c-0.9,1.6,4.9,5-3,4.5
	c3.3,1.4,4.9,2.3,5.7,4.2h-11c-1.8-1.3-2.8-2.6-1.4-5c1.8-3,2.5-6.2,0.4-9.4c-0.4-0.7-0.9-1.7-0.4-2.4c4.3-5.7,0.7-11.8,0.6-17.5
	s0.7-11.7,0.3-17.5c-0.1-1.3,0.3-2-1.1-2.9c-1.3-0.9-1.9-2.5-1.5-4c1.4-3.1-0.1-7.1,3.1-9.5c0.4-0.3,0.8-1.1,0.5-1.3
	c-3.2-3.2,0-7.3-1.6-10.9c-1.1-2.4-2-5.8,1.1-8.1c1.5-1.1,1-2.1,0.2-3.7c-1.3-3.2-2-6.6-2.1-10c-0.2-2.8-1.3-5.2,2.1-6.6
	c-2-3,0.1-6.4-0.7-9.1c-1.8-5.6,0.5-10.8,0.8-16.1c0.1-1.5-0.5-1.1-1.2-1.7c-2.5-2.3,0-5.3,0-8c0-0.3,1.2-0.4,1.2-0.5
	c-3.8-6.3,3.6-12.9-0.6-19.2c-0.8-1.2-0.4-2.9,0.4-4.3L348,251.1z"/>
<path class="st6" d="M568.8,326.9c0.6,0.4,1.7,1.5,1.3,1.5c-5.7,0.1-0.3,3-1,4.3c0.5-0.7,1-1.4,1.8-2.5c1.3,3.6-0.8,5.9-2.1,8.3
	c5.1,0.6,5,3.5,2.3,6.6c-3.5,4,0.4,2.9,2.5,3.6c-3.8,2.6-4,4.8,1,5.6c-0.9,1.9-1.6,0.9-2.3,0.8c-0.8-0.1-1.8-0.3-1.9,0.9
	c-0.1,0.6,0.4,1.2,1,1.3c0.2,0,0.4,0,0.6-0.1c1.8-0.6,3.4,0.1,3.2,1.8c-0.2,2.7-2.3,0.7-3.4,0.7c-1.9,0-1.2,5.3-4.9,1.3
	c4.1,3.1,2.8,4.9-0.8,6c2.1,1.4,3.5,0.4,5.6-0.1c-3.7,5.7,0.1,11.4-1.5,16.9c-0.3,1,0.6,2.2-0.3,3.6c-1.1,1.6,0,3,2,3.5
	s2.3,0.7,1,1.8c-3.9,3.3-0.2,4.3,1.7,5.9c-3.4,1.9-4.2,5.4-2.2,8.9c3.2,5.5,3.3,6-2.5,7.2c-3.2,0.6-2.6,2.3-2.9,4.1H557
	c-0.9-3.1-1-6.5-2.8-9.4c-0.3-0.4-0.4-0.9-0.2-1.4c2.3-3.6,2.3-6.3-1.4-9.3c-1-0.8,0.3-5.3,1.2-7.3c1.1-2.6,0.2-5.7,2.2-8
	c0.4-0.5,0.4-1.5-0.3-1.7c-5.5-1.3-2.2-5.6-2.7-8.4c-0.2-1.1,0.6-2.5,0.3-3.8c-1-3.9,1-3.4,3.5-2.3c-2.4-1.1-2.7-3.2-2.2-5.3
	c0.9-4.1,0.4-8.2-0.1-12.3c-0.3-2.3,1.5-4.5-0.5-7.1c-0.7-0.8,2-2.6,4-2.8c0.5,0.2,0.6,0.8,0.8,1.3c0,0,0.2-0.1,0.2-0.3
	c-0.1-0.5-0.6-0.6-0.9-1c-5.9-1.8-6.1-2-3.9-6l0,0c1-0.4,2.4,0.5,3-1L568.8,326.9z"/>
<path class="st7" d="M306,251.1c0.7,3,1.1,6,1.2,9c0,0.1-0.3,0.4-0.2,0.4c3.8,5.1-3.9,11.2,1.4,16.2c-2.6,6.8-1.1,13.9-0.7,20.7
	c0.4,6.5-2.9,13.5,1.4,19.7c0.4,0.6,0.3,1.3-0.2,1.8c-1.3,1.4-2.9,2.8-0.6,4.7c0.2,0.1,0.2,0.9,0.1,0.9c-3.1,1-0.6,3-0.9,4.5
	c-0.5,2.6-0.6,2.5,2.4,1.8c-0.4,1.8-4.1,2.7-1.4,5.3c-3.5,1.4-0.4,4.3-1.5,6.1c-0.3,0.5-1,1.3-0.6,1.5c8.2,4.6,0.3,8.9-0.2,13.3
	c0,0.4-0.2,1.2,0,1.3c4,2.2,1.2,5.2,1.3,8c0.1,1.5-2.5,5.4,2.5,5.1c0.8,0,0.2,6.2-0.8,6.8c-2.7,1.5-3.4,4-1.7,6.4s1.5,4.2-0.6,6
	c-0.2,0.2-0.5,0.7-0.5,0.8c3.5,4.8-3.2,10.8,1.8,15.5c-3,4-0.9,8,0.1,12h-10c1-3.7-2.7-7.5,0.2-11.2c-3.7-4.2,3.6-6.5,1.9-10.4
	c-0.3-0.3-0.5-0.7-0.5-1.1c-2.5-3.7,0.4-7.5-0.2-11.3c-0.8-5.1,0.6-10.4-2.2-15.3c-1.3-2.2,1.9-4,1.2-7s-2.3-5.7-1.3-8.9
	c0.5-1.7,0.4-3.5,1.9-4.9c1.4-1.3,0.9-2.5-1.1-2.9c-1.4-0.3-1.6-1.2-1.3-2.1c2.2-6.4,1-13,1.8-19.4c0.3-2,0.1-4-0.6-5.9
	c-1.6-4.4-0.6-9.4,2.4-12.9c-4-1.1-4.5-3.8-2.8-7.3c1.8-3.9,1.6-7.9,0.4-12c-0.7-2-0.5-4.2,0.4-6.2c1.2-2.9-0.3-6.2-0.2-9.4
	c0.1-2.8-0.2-5.6,0.4-8.4c0.4-1.4,0.3-3-0.5-4.3c-2-3.2-0.6-5.3,2.1-7L306,251.1z"/>
<path class="st8" d="M282,251.1h8c1.9,2.5,3.7,5,4.2,8.2c0.4,2.6-1.9,4.5-1.4,7.3c0.3,1.9-0.2,3.7,1.5,5.3c2.1,2,0.8,5.5,0.1,6.5
	c-1.8,2.5-1.2,4.8-0.7,7.1c1,4.9-1.1,9.7-0.1,14.6c0.2,1.2-1,2.3-2.8,2.7c2.4,0.4,3.4,1.9,4.6,3s1.4,2.8-0.2,3.2
	c-3.2,0.8-2,2.6-1.6,4.5c0.8,5.1,0.3,10.3-1.3,15.3c-0.3,1-0.9,2.1,0,2.8c4.2,3.2,1.9,6.6,1.1,10.4c-0.7,3.3,1.1,7,0.2,10.3
	c-1.2,4.9,0.7,10.2-2.4,14.7c-1.1,2.6-0.8,3.9,2.4,2.8c1.6,4.4,1.4,4.9-2.7,6.4c2.6,3.6,3.2,8.4,1.5,12.5c-0.2,0.6-0.7,1.5-0.3,1.9
	c5.2,5,1,11.4,2.5,16.9c0.8,2.8-1.8,6-0.4,9.4c0.5,1.3-2,1.2-3,2.1h-7c-1.6-6.8-3.2-13.6-1.3-20.5c0.4-1.6,1.3-2.4,0-4.1
	c-1.1-1.5-1.2-3.6-0.4-5.2c0.5-1.1,0.5-2.3-0.1-3.3c-2.1-4.1-1.5-5.6,2.9-7.2c-1.6-2.9-3.9-5.6-0.9-9c0.1-0.1,0.2-0.3,0.1-0.5
	c-2.1-5.2-1.2-10.6-1.2-15.9c0-1.9-0.7-3.8-0.4-6c0.6-4.3,1.4-8.6-0.5-12.8c-1.3-2.9,1.3-5.4,0.5-8.5s-3.7-7.2,0.5-10.5
	c-2.8-4.4,1.6-9.9-2-14.2c-0.2-0.3-0.5-0.7-0.3-0.9c3.5-5.3-1.6-11.3,0.7-16c2.1-4.3-1.9-8.8,1.8-12.4c-4-3.5,1.8-8.2-1.6-12.3
	C280.2,257.6,282.5,254.1,282,251.1z"/>
<path class="st9" d="M105.1,50.1c0.6-0.1,1.6-0.1,1.3-1c-0.6-1.8-0.2-3,2-4.2c1.2-0.6,2.1-1.6,2.6-2.8c-2-0.9-2.7,3.2-4.6,1
	c-1.8-2,0.6-2.9,1.4-4.2c0.2-0.4-0.4-1.2-0.6-1.8c3.3-3.9,1.4-7.4-1-10.9c-0.7-1-4.1-0.2-2.1-2.9c1.8-2.5,2.6,1,4.1,0.8
	c0.3,0.9,0.2,2,0.5,2.8c0.2,0.8,0.8-0.6,0.4-0.1c-0.1,0.1-0.2,0-0.4-0.3c-0.4-0.7-0.1-1.6-0.6-2.3l1.3-2.1c-7-1.8-1.1-7.4-3.7-10.9
	c1.9,0.2,3.3,0.7,4.4-0.3c-1.1-3.8-3.2-7.2-5-10.7h15c1.7,0.5,3.1,1.6,2.9,3.4c-0.7,5,1.9,10.3-1.3,15.2c-0.1,0.5-0.2,0.9-0.4,1.3
	c-0.7,3-1.5,5.7,1.2,8.7c2,2.1,2.1,5.8,3,8.7c0.6,1.9-0.5,4-2.4,4.5c-0.1,0-0.2,0.1-0.4,0.1c-2.2,0.3-2.2-2.2-2.9-3.8
	c2.4,4.7,2.2,10.4,5.9,14.7c2.8,3.3,1.4,5.3-2.4,6.2c-0.6-0.4-0.4-1.1-0.7-1.6s0-0.7-0.2-0.2c-0.2,0.8,0.2,1.6,1,1.9
	c1.3,0.8,0.7,2,0.6,3.1c-0.1,2.2-1.8,4.4,0.5,6.7c1.1,1.1-0.5,2.5-1.7,3.5c-1.4,1.2-3.5,2-3,4.5c0,0.4-0.1,0.9-0.2,1.3
	c-0.1,1.7,0.6,3.9,1.9,4.2c6.6,1.7,2.6,4,0.6,6.3c-5.7,1.5-11.1,3.9-15.9,7.3c0-1.2-0.7-2.3,0.4-3.7c2-2.3,2.4-5.7,1-8.4
	c-0.7-1.7-2.2-3.7,1.3-4.8c1.1-0.8,1.4-2.4,0.6-3.5c-0.3-0.5-0.8-0.8-1.4-1c-3.3-1.3-5.1-3.1-0.5-5.4c1.2-0.6,1.6-2.5,0.9-2.9
	c-3.4-2,1-5.2-1.3-7.4c-0.3-0.3-0.2-3.9,3.3-4.1C106.1,55,103.4,54.6,105.1,50.1z"/>
<path class="st10" d="M282,251.1c0.9,2.1,3.2,4.1,0.4,6.6c-0.4,0.5-0.4,1.3,0.1,1.7c0.1,0.1,0.3,0.2,0.5,0.3
	c2.4,0.9,1.8,3.4,1.6,4.6c-0.4,2.6-3.8,5.2,0.9,7.3c0.4,0.2-0.2,0.6-0.7,0.8c-3.3,1.4-1.5,3.5-0.8,5.5c0.5,1.6,2.5,3.7-1.1,4.6
	c-1.3,0.3-0.5,2.1-0.2,2.5c1,1.8,1.2,3.2-0.1,4.9c-1,1.3-0.3,2.5,0.7,3.5c1.7,1.9,3.5,3.8-0.6,5c-0.1,0,0,0.3-0.1,0.5l1.9,9.8
	c1.4,0.3,0.9,1.7,0.5,1.8c-1.4,0.2-2.2,0.1-2,2c0.3,3.1,1.9,0.3,2.7,0.8c0.4,0.2,0.9,0.8,0.8,1c-0.2,0.6-1.1,1-1.1,1.5
	c0,1-5.4-1.4-1.2,2c-3.4,1.5-0.8,3.1-0.3,4.9c0.6,2.1-0.8,4.6,1.3,6.5c0.3,0.2,0.2,1.3,0.2,1.3c-5.3,1.1-1.1,4.3-0.9,6
	c0.5,4.3,0.2,8.6-1,12.8c-0.4,1.4,0.4,1,0.6,1.5c0.6,1.3,1.8,3.3,1.3,4c-3.5,5.1,0.2,9.6,0.9,14.4c0.1,0.7,0.4,1.1-0.2,1.7
	c-2.5,2.6-2.2,4.5,1.3,7.3c-0.4,1.5-1.7,0.8-2.5,0.8c-2.7,0-2.7,2.6-3.1,3.8c-0.8,2.3,1.9,0,2,0.9c0.4,1.8,0.9,3.8,0.5,5.4
	c-0.8,2.9-0.9,4.1,1.4,6.5c1,1,1,1.1-0.9,1.6c-0.4,0.1-1.2-0.3-1,0.2c1.3,4-2.7,7.7-0.1,12c1.5,2.8,1.6,6.1,0.4,9.1h-6
	c-2.9-2.2-6.1-4-3-8.6c0.6-0.9-0.9-3.8-1-5.6c0-2.4,1.4-4.5,0.4-7.4c-0.8-2.6,1.2-5.7-0.4-8.7c-0.5-1,1.5-1.6,2-2.6
	c0.1-0.4,0.2-0.8,0.3-1.3c0.1-2.8,0.6-5.6-1.8-7.8c-1-0.9-0.6-2,0-3.1c1.5-2.8,0.7-6.2,2.2-9c0.5-2.1-0.1-3.6-2.2-4.3
	c0.4-4.3-1.4-8.8-1-12.4c0.6-5.6-1.7-11.6,1.6-16.9c0.2-0.3,0.3-0.6,0.3-1c-0.2-2.8-2.9-5.9,0.9-8.3c-1.4-1.8-0.6-3.7-0.4-5.5
	c-1,0.5-0.1,2.8-2,2.8c-1.1,0-1.4-0.7-1.5-1.6c-0.2-1.5-0.2-3.1,1.4-3.9c1-0.5,0.6-0.6,0.6-1.5c0.2-3.3-1.7-6.2-0.8-9.9
	c1.3-5.3,0.4-11.2,2.3-16.5c0.1-0.2,0-0.3-0.1-0.5c-5.4-4.5-0.1-9.1,0-13.6c0.1-2.1-0.3-0.9-1.2-0.8c-2.1,0.1-2.7-1.8-1.7-3
	c1.7-1.8,2.2-4.4,1.2-6.6c-1.3-3.7,0.5-6.9,1.6-10.2L282,251.1z"/>
<path class="st9" d="M111.1,418.9c-2.5-1.2-1.8-5.4-5.3-5.6c-0.2,0-0.4-0.4-0.6-0.7c4.9-3.6,0.7-7.1-0.1-10.6
	c-0.7-2.1-0.3-4.4,1.1-6.2c2-2.9,2.3-7-1.8-9.4c1.1-1.3,1.8-0.7,2.4-0.2c1.1,0.8,1.9,0.6,2.1-0.8c0.4-2.4-1-1-1.9-1.1
	c-1.9-0.2-4.4-0.3-2.9-3.4c2-4.2,1.8-8.5,0.1-13.2c2.5,0.1,1.4,2.4,2.7,2.7c3.2-5.4,3.2-5.4-2.3-7.2c-1.5-0.6-2.9-1.4-4.2-2.2
	c1.3-1.5,2.4,0.2,3.9-0.4c-0.2-1.2-3-2-1.4-3.7c1.8-1.9,1.9,0.6,2.8,1.2c0.3,0.2,1,0,1.3-0.2c0.3-0.3,0.6-0.7,0.8-1.1
	c-3.8-2.3,3.3-5.5-0.7-7.9c-1.1-0.9,2.9-3.3-1-3.4c-0.2,0-0.6-0.7-0.7-1c-0.1-2.4-0.9-5.6-2-7c1.7-0.3,3.6,1.5,4.7-0.2
	s-1.4-2-1.8-3.2c-0.9-2.5-1.5-4.9,0.7-7.1l14.1,6.7c1,0.9,1.5,2.3,1.2,3.7c-1.4,4.3-3.4,8.4,1.8,11.8c0.8,0.5-0.2,2.6-1,3.6
	c-2.4,3.3-4.3,6.7-2,10.9c0.3,0.5-0.1,1.3-0.1,2c0,0.5,0.1,0.9,0.1,1.3c1.9,4.8,1,10.3,4.1,15c1.6,2.4-1.3,3-3.4,3
	c5.6,0.3,5.6,0.3,1,8.4c1.1,0.2,2.8-0.8,3.2,0.8c0.3,1.2-0.5,2.4-1.7,2.7c-3.8,0.6-3,3.6-2.8,5.6c0.3,3.7-0.7,7.5,0.9,11.2
	c0.7,1.5-0.1,3.7,1.6,5.1L111.1,418.9z"/>
<path class="st11" d="M326,251.1h3c2.6,3.1,7.4,5.5,3.6,10.8c-1.1,1.5,0.6,2.6,1.5,3.8c1.9,2.4,2.1,4.6-0.9,6.4
	c-0.8-0.6-1-1.6-1.7-2.8c-0.4,1.8,1.2,1.9,1.6,2.7c0.3,1.9-1.8,4,0.6,5.9c0.9,0.9,1,2.3,0.1,3.2c-0.1,0.1-0.2,0.2-0.3,0.3
	c-1.2,0.9-1.5,1.7-0.2,2.7c0.5,0.4,1.2,1.2,0.7,1.6c-3.1,2.8-0.9,5.3,0.3,7.9c0.4,0.9,0.2,2.5-0.9,2.5c-4.8-0.2-1.9,2.6-2,4.5
	c-0.3,6.1,0.2,12.2,0.3,18.3c0,3,0.5,6-0.5,9.1c-0.6,1.5,0,3.1,1.4,3.9c1.6,0.8,1.7,3,1,3.2c-4.5,1.6-1.1,4.6-1.1,6.7
	c0,2.3-0.2,4.6-0.7,6.8c-0.6,2.5,0.8,6.1,0,9.1c-1.7,6.9,1.2,13.3,1.5,19.9c0,0-1.3,13.9-1.4,13.9c-1.1,1.9-1,4.3,0.1,6.2
	c2,2.5,1.1,4.8,0.8,7.2c-0.1,1.1-1,2.3-0.1,3.3c4.1,4.3,0.7,7.3-1.7,10.5h-7c-2.2-1.7-2.6-3.2-2.4-6.5c0.2-4.4,2.3-9.1,0.1-13.6
	c4.5-5-1.4-10,0-15.5c1.1-4.3-1.1-9.6,0.3-14.4c1-3.4,0.1-6.2-0.5-9.5c-0.7-4.1-2.3-9.1,0.4-13.4c0.9-1.4,0.7-2.8,0.6-4.3
	c-0.4-6.7,1.5-14-0.8-19.8c-2.2-5.6,1.5-8.8,1.3-13.1c0-2.5-0.3-4.9-0.7-7.4c-0.5-1.9-1-3.3,0.6-4.9c1.5-1.4,0.3-2.6-0.6-3.9
	c-2-2.7-2.6-6.2-0.9-8.6c2.2-3,2.2-7.1,0-10.1c-3-4.2-1.3-8.8-0.2-11.6c1.2-3.1,1-5.1,0.4-8C321.1,251.9,324.6,252.5,326,251.1z"/>
<path class="st12" d="M326,251.1c-0.8,0.9-0.7,2.7-2.6,2.5c-1.2-0.1-1.4,1.3-1,1.3c4,0,0.9,3.1,2,4.5c1.4,1.9,1,2.1-1.5,2.2
	c-0.3-0.1-0.6-0.2-0.9-0.3c0,3.4-1.5,8.3,0.2,9.9c2.3,2.2-1,4.4,1.4,6c2.1,1.4,1.4,3-0.2,5.1c-2.2,3-2,6.8,0.6,10.1
	c1.5,1.9,3.1,3.9-0.5,5.4c-0.6,0.3-1.4,1.2-0.9,1.4c3.6,1.5-1.7,6.4,2.9,7.4c-0.1,0.6-0.2,1.2-0.4,1.8c-1,2.5-2,4.9-2.9,7.4
	c-0.5,1.3-1.8,2.7-0.4,4.1s2-1.8,3.7-0.3c-3,3-4,6.2-0.4,9.5c0.3,0.4,0.4,0.9,0.2,1.3c-4.2,2.3-1.6,5.6-1.2,8.5
	c0.6,4.1-2.1,7.8-1.5,11.5c0.5,3.6-1.6,7.3,0.8,11c0.9,1.3,2.4,1.6,3,3.2c-4.5,1.3-3.3,5.5-4,8.6c-1,4.6,3.2,9.6-0.6,14.3
	c-0.1,0.1,0.9,0.9,1,1.4c0.9,2.8,3.5,5.4,0.1,8.6c-0.9,0.8,1.3,4.2,0.7,6.5c-0.7,3.1-1.6,6.2,0.8,9.2c0.3,0.4-1.8-0.3-2.4,0.9
	c-0.4,0.9-0.1,1.5,1,1.6c2.9,0.3,0.3,2.2,0.9,3.1h-8c1.8-3,2.4-6.1-0.9-8.4c-1.4-1-0.3-1.6-0.3-2.4c0-3.8-1.5-8.3,0.2-11.1
	c1.8-3-1-4.2-0.3-6c0.4-1-1.1-3.8,2.1-3c0,0,2.2-1,1-2.1c-3.4-2.8-1.8-5.5-0.4-8.5c0.8-1.7,1.5-3.8-0.4-5.5c0-2.8-2.2-2.8-4.3-3.3
	c3.9-1.5,3.3-4.8,2.3-7.1c-1.1-2.6-3.7-4.7,0.9-6.2c-1.1-3.9,3-8.1-0.9-11.8c-1.1-1.1-3.3-2.5,0.2-3.4c-2.2-1.3,5.4-4.2-0.8-5
	c-0.4-0.7-0.5-1.5-0.3-2.3c2.9-4.5-0.1-8.8-0.3-13.1c-0.2-3.4,0.3-6.5,3.1-8.8c2-1.6,1.5-4.5,0.5-4.9c-3.5-1.3-2.8-2.5-1-4.9
	c2.6-3.4-1.1-4.2-3.8-6.1c4.2-0.1,4.7-1.7,2.7-4.4c2-0.7-4.2-4.8,1.6-4c0.1,0,0.2-0.2,0.3-0.3c-3.9-1.4,1.6-4.1-1-6.5
	c-2-1.8-2.1-5.5,2.5-7.7c-3.4-0.3-5.2-1.3-6.1-3.5c1.2-1.2,2.2,1.9,3.4,0.1c1-1.4,0.6-2.3-0.8-3.2c-1.1-0.7-0.5-1.3,0.5-1.6
	c1.9-0.6,2.2-1.4,0.2-2.4c-0.4-0.3-0.8-0.5-1.2-0.8c2.9-3-1.5-3.5-2-5.2c1.4-1.4,5.7-0.3,3.2-4.3L326,251.1z"/>
<path class="st6" d="M571.9,0.1l-1.2,1.5c4.7,2-0.2,5.7,1.5,8.2c0,0.1-0.1,0.3-0.2,0.4c-1,1.1-2.3,6.1-2,7.6
	c0.9,3.8,1.1,7.7,0.7,11.6c-0.2,2.4,2.8-0.3,3.3,1.5c-1.2,4.2-4.1,1.6-7.2,0.9c2.7,3.6,6.7,6.2,3.4,10.7c4.8,1.7-0.9,5.1,1.4,7.9
	c1.9,2.3-1.9,1.8-3.5,3c3.8,1.6,4,4.1,0.6,5.2c-2.5,0.9-2,2.6-2,3.8c0.1,1.7,1.5,2.9,3.2,2.8c0.1,0,0.2,0,0.2,0
	c4.6-1.2,0.6,3.5,2.9,3.9c0.6,0.1,0.8,1-0.4,1.1c-0.5,0-1.1-0.1-1.4,0.2c-1.5,1.1-3.1,2.3-0.8,4.2c2,1.7,4,3.2,2,6.4
	c-0.7,1.1,2.1,2,1.8,4c-3.2,0.3-5.4,1-2.5,5c1.5,2.1-2.7,4-1.8,6.7l-9-5.7c-2-1.6-2-4-2.8-6.2c-0.4-1,0-2.4-1.3-3
	c-1.8-0.7-3.6-1.2-2.9-3.7c0.7-2.3,2.8-1.7,4.5-2c-1.5,0.1-3.1,0.7-2.4-1.9c0.2-0.4,0.5-0.8,0.8-1.1c1.2-1.3,1.6-2.6-0.2-3.6
	c-1.2-0.7-3.3-0.8-3-2.8c0.4-2.2,2.9-1.8,4.4-2.7c-2.2-1.6-3.7-3.8-3.5-6.8c0.1-1.9,1.1-4-1.3-5.3c-0.4-0.2-0.5-1.2-0.2-1.3
	c5.7-2.8,0.7-8,2.7-11.6c0.5-0.5,1-0.8,1.6-1.1c-0.8,0.1-1.1,0.8-1.7,1.1c-3.8-1.2-2.4-3.7-0.9-5.3c3.2-3.3,0.5-5.6-1-7.8
	c-0.7-1.1-3.3-1.5-1.7-3.1c1.3-1.4,2.4-5.2,5.7-2.3c0.3,0.5,0.8,0.9,1.4,1c0,0-0.1-0.1-0.5-0.2c-0.3-0.1-0.6-0.2-0.7-0.5
	c-0.5-2,0.4-3.9,0.2-5.9c-0.3-2.6,0.2-5.5-3.6-6.4c-1.5-0.6-2.3-2.1-1.9-3.7c0.7-2.8,2.7-4.2,5.4-4.8L571.9,0.1z"/>
<path class="st13" d="M331,418.9c1.7-1.7,0.5-4.7,2.8-6.2c0.2-0.2,0-2-0.4-2.2c-5.1-1.7-2.2-5.6-1.4-7.9c0.5-1.4,0.5-1.5-0.2-2.7
	c-1.8-2.9-3.3-6.2-0.2-9.3c0.4-0.4,0.6-1,0.5-1.6c-0.3-3.2-3.2-6.8,1.1-9.5c-3.9-1.2,0.1-4.3-1.6-6.6c-1.5-2-0.9-5.5-2.9-7.8
	c3.2-2.6,1-6.4,2-9.5c1.1-2.4,0-5.2-2.3-6.2c3.5-2.7,4.3-8.1,1.5-10.4s-0.3-2.7,0.8-3.2c2.3-1.1,2.1-0.7,0.6-2.8
	c-1-1.4-2.4-3.2-1.7-5.3c2.6-8.7-0.7-17.6,0.7-26.4c0.2-1.4-0.8-2.1-1.1-3.1c-1-2.5-0.5-4.1,2.6-3c1.5,0.5,2,0.1,1.5-1.1
	c-0.6-1.7-1.6-3.3-2.7-4.7c-1.2-1.4-1-1.7,2.7-3.8c-0.8-1.6-8.6-2.7-0.4-5.1c1-0.3,0.2-2.4-0.2-2.6c-5.9-2.3,0.1-4.1,0.2-6.1
	c1.5-2.2,2.2-4.2-0.6-6.1c-2.3-1.6-2.8-3.3-0.4-5.5c1.5-1.5,2.9-3.5-1-4.4c-2-0.5-0.4-3.5-2-4.7h9c-0.5,3.6,4.3,6.6,1.3,10.5
	c3.7,1.4,0.2,2.8-0.1,4.1c-0.6,2.6-2.4,5.1,0.2,7.6c0.6,0.6,0.6,1.7,0.8,2.6c-5.5-0.4,0.1,5.5-3.8,5.8c1.4,1.7,2-1.6,2.9,0.1
	c0.3,0.6,1.2,1.1,0.5,2.5c-2,3.7-0.6,8.2-2,12.3c-0.5,1.3,1.5,4.3,0.8,6.9c-0.5,1.8-0.1,3,1,4.8c2.2,3.4-2.3,3.5-4,5
	c2.7,1,2.8,1.2,1.4,4c-0.4,0.8,2.6,8.8,3.7,9.4s1,1.2,0.4,1.9c-2.2,2.4-4,4.9-2.9,8.4c0.1,0.3-0.6,0.9-0.5,1.2
	c1.2,3.1,2,4.5,0.6,6.5c-2.4,3.4,2.7,0.1,2.1,2.9c-0.8,4,0,4.2-3.9,5.5c0.4,1.5,2.6,0.6,3,2.2c-2.9,0.8-4.7,6.3-2.3,8.3
	c3.5,2.9,1.6,6.9,2,10c0.4,3.5,0.7,7.7,0,11c-1.3,5.8,4.1,11.9-1,17.2c-0.6,0.5-0.7,1.4-0.2,2c0,0.1,0.1,0.1,0.2,0.2
	c3.1,3.5,2,7.5-0.1,10.4c-1.6,2.3,0.2,3.2,0.2,4.7L331,418.9z"/>
<path class="st14" d="M290,366.9c2.4-4.6,0.7-9.8,2.2-14.6c1.1-3.7-1.3-7.8-0.5-12.7c0,0,1,1.8,1.8,0.6c0.1-1.9-2.5-0.7-2.6-2.8
	l3.7-1.8c-2.8-2.6-7.4-4.8-2.3-9c-1.9-4.4,1.9-8.8-0.2-13.3c-0.7-1.4-3.2-5.6,2.4-4.7c0.8,0.1,1.4-1.4,0.5-1.8
	c-1.4-0.6-2.2-2.2-4.1-2.1c-1.1,0.1-1.3-1,0.1-2.5c1.8-1.9,2.5-3.3,0.5-5.8c-0.6-0.8,0.6-3.7,1-5.5c0.3-1.7,0.3-3.4,0-5.1
	c-0.3-2.5-3.1-5.8,1.3-7.5c-2.7-1.6,3.3-4.9-1.4-6.4c-1.6-0.5,0.4-7.5,0.8-10.6c0.3-2.3,0.1-6.2-3.2-7.8c-1-0.5-0.9-0.6,0.2-2.1h10
	c-1.9,2.6-2.6,5.3-0.2,8.1c1.2,1.3,0,2.2-0.2,3.4c-0.6,5.4-1.2,10.9,1,16.1c0.3,0.7,0.6,1.1-0.1,1.5c-4.1,2-1.6,4.7-1.1,7.5
	c0.7,4,0.9,8.2-1.2,11.9c-1.6,2.8-0.7,4.7,2.1,5.2c2.6,0.5,1.2,0.7,0.4,1.9c-2.4,3.5-1.9,7.8-2.4,11.8c-0.1,0.6-0.1,1,0.7,0.9
	c3-0.7,2.6,0.6,1.8,2.6c-0.7,1.8-2.2,3.8,0.6,5.3c-4.6,2.4-0.4,6.2-1.5,9s-0.6,6.1-2.7,8.4c0.8,1.9,2.5-2.2,3.2,0.9
	c0.6,2.7,0.6,2.8-1,4.2c-2.2,2.1-1.8,5.7-1.3,7.7c1.2,4.9,1.9,7.3-0.1,10.7c-0.2,0.4-0.2,0.8-0.1,1.3c6.6,2.4-1.9,9.6,3.9,12.2
	c-1.9,2.4,0.1,5.6-1.7,8c-1.2,1.6-1,3.4,0.3,4.3c2,1.5,0.3,2.1-0.5,3.4c-0.3,0.9-0.3,0.9-0.2,0.4c0-0.3,0.2-0.6,0.4-0.9
	c-0.2-0.1-0.3,0-0.3,0.4s-0.1,0.4,0.1,0c0.9-0.1,2.8-1,2,0.6c-1.2,2.7-0.9,6.2-4.4,7.4c1.3,2.1,2.7,0.7,4.5,1c-1,0.7-1.4,1.3-2,1.4
	c-1.6,0.5-3.2,2.3-2.2,3c4.6,2.9,0.5,5.5,0.2,8.1h-7c0.1-1.4,3.3-0.8,1.8-3.2s-2.5-4.1,0.4-6.6c1.1-1-0.2-5-1-7.5
	c-0.3-1-1.7-2-0.4-2.9c4.1-3,0.6-4.8-0.9-6.8c-0.5-0.6-1.8-1.2-1.2-1.8c2.2-2.7,2.2-5,1.5-8.6c-0.5-2.6-3.5-6.2-2.4-6.5
	c4.3-1.2,4.4-0.7,4.2-5c-0.1-0.2-0.3-0.4-0.4-0.5c-0.9-0.5,0.3-3-2-2.2L290,366.9z"/>
<path class="st15" d="M276,251.1c0.3,1.3,3.4,2.3,0.1,4.1c-2.3,1.2-1,8.1,1.5,9.9c-3.4,1.9-3.4,1.9-3.5,5.1c2.2,0.5,1.1-2.6,2.7-2.6
	c2.1,2.2-1.4,4.7,0.4,6.9c-2.1,1.2,1.3,5.6-3.2,5.7c-0.3,0,0.7,0.6,1.1,1c2.7,2.8,2.5,6.1,1.4,9.4c-1,3.3-1.2,6.8-0.5,10.2
	c0.4,2.1-1,5.1-0.6,8.3c0.4,2.5-0.7,2.7,3.1,4.4c-1.7,0.4-3.3,0.4-4.3,1.1c-1.5,1-0.1,2.5-0.8,5.1c2-2.6,1.6-6.1,5-4.3
	c-1.3,2-3.7,3.7-0.5,6.1c0.9,0.7,0.9,1.3-0.9,1.9c-3.5,1.1-1.6,3.4-0.7,4.3s1.6,1.3,0.7,2.6c-2.9,4.3-2.5,9-1.1,13.7
	c0.1,0.4,0,0.9-0.1,1.2c-4.2,0.5,1.2,4-1.5,4.9c4.9,3.3,0.3,7.1,0.6,10.7c0,0.2,0.1,0.4,0.1,0.6c0,1.4,1,2.7,2.5,2.9l0.4,0.5
	c-2.5,3,0.7,7.7-3.1,10.3c0,0.4,0.1,0.9,0.4,1.2c4.2,2.5,2.1,6.1,1.5,9.6l0,0c1,0.5,1.1,1.2,0.1,1.7c-0.6,0.2-1.3,0.3-1.9,0.4
	c2.3,2.3,1.4,4.8,0.5,7.5c-1,2.8,0.2,4.9,3.5,6c-8.8,0.5-1.1,5.8-3,8.2c-0.1,0.1,1.8,0.2,0.8,1c-3.2,2.4-2.1,4,0.5,5.9
	c0.5,0.4,0.5,1.5,0.8,2.3h-9c-5-1.4-5-1.4-2-5.8c0.7-0.9,1-2.1,0.8-3.2c-1.5-3.8-1-8-1-11.8c-0.1-5.3-1.2-10.6-0.5-15.9
	c0.3-1.7,0-3.3-0.7-4.9c-0.7-1.5-1.3-3,1.3-2.9c0.1,0,0.3,0.2,0.4,0c-3.7-1.4-1-3,0-4.4s1.5-3.4,0.7-4.2c-4.8-4.5-0.1-10.7-3.4-15.7
	c-1.6-2.5,1.7-2.1,3.8-2.3c-3.2-4-3.8-7.9-0.5-11.8c1.7-0.1,3.1-0.2,3.1-2.7c-0.1-13.6-0.1-27.2,0-40.7c0-3-2-3.3-4-3.9
	c-1.3-4.5-3-8.8-0.5-13.5c1.1-2.1,3-4.9-0.9-6.9c-1.8-1,0.1-3-0.1-4.6c-0.6-4.1-0.1-8.1,2.6-11.5C270.5,251.1,273.3,250.7,276,251.1
	z"/>
<path class="st16" d="M558,21.1c-3.4-2.2-3,3.2-6.1,2.6c7-1.1,2.2,7.4,7.2,7.4c-1.8,2.5-7.2,3.4-3.2,8c1.2,2.1-0.7,5.3,2.2,7
	c0.7,0.4-0.3,1.2-0.3,1.7c0.1,3.1-3.9,1-4.2,3.4c2.6,0.3,2.8,1.7,2.4,4c-0.8,4.8-0.3,5.7,3.7,9.3c-1,0.5-1.8,0.9-2.7,1.3
	s-2.1-0.2-2.6,1c5.8,3.4,6.3,4.9,2.4,6.9c-0.4-0.4-0.1-1.1-0.7-0.9c0.2,0.2,0.4,0.5,0.6,0.7c0.5,0.5-0.3,0.8,0.2,0.4
	c0.1-0.1,0-0.2-0.1-0.2c0.7,1.8,0.7,1.8,3.3,0.9c-0.1,2.6-0.1,2.8-2.1,2.5c-1.7-0.2-3.2,0-3.5,1.8c-0.3,2.2,1.3,1.6,2.7,1.6
	c0.9,0,2.2,0.3,1.9,1.7c-0.9,3.3,2.2,5.7,1.7,8.9l-15-4.3c-0.2-0.8-0.7-1.5-1.3-2.1c-3.7-3-3.7-3,0.3-5.4c0.6-0.4-0.8-0.9-0.3-0.4
	c0.2,0.2,0.2,0.4,0.1,0.5c-1.6,1.3-2.9,1.8-3.2-1.1c-0.2-3.9,0.1-7.8,1.1-11.6c0.4-1.7,1.1-3-1.1-4.6c-2.7-2,0.4-4.4,1-6.6
	c0.3-1.2,2.2-2.3-0.7-2.7c-0.9-0.2-1.5-1.1-1.4-2c0-0.1,0.1-0.3,0.1-0.4c0.7-1.7,0.3-2.7-1.1-3.8s-1.3-2.5,0.1-3.8
	c0.2-0.1,1.2-0.1,0.5-0.6c-1.8-1.3-1.5-2.3,0.2-3.3c1.1-0.8,1.8-2,1.9-3.4c0.3-1.2,2.1-3-1.2-3.2c-1,0-1.6-1.8-1.2-3
	c0.6-1.7,2.4-1.4,4-1.7c0.5,0.1-0.2-1.1,0-0.5c-1.4,0.2-2.8,0.4-3.4-1.2c-1.4-4.3,2.6-5.4,4.7-7.6c-1.4,0.1-2.1,3.1-3.9,1.4
	c-1.2-1.1-0.1-2.8,0.1-4.2c0.4-2.1,2.4-3.6,2.2-6c-0.1-0.4-0.2-0.9-0.2-1.3c0.3-2.8-3.9-5.4-0.4-8.4h15c0.3,2-2.4,1.2-2.2,1.6
	c0.9,2.5-3.2,2-2.3,4.1c0.7,1.6,2.1,1.6,3.7,2.1C559.6,8.6,559.8,16.9,558,21.1z"/>
<path class="st17" d="M120.1,367c-1.5-5.3-2.7-10.4,1.9-14.9c1.2-1.1,1.8-2.6-0.6-4c-4-2.4-2.4-5.4-0.6-8.7c0.8-1.4,0.2-3.7,0.2-5.6
	c4.2,1.5,8.9,0.2,13,2.3c2.5,1.3,2.9,3.5,2.4,5.9c-0.4,2.2-2.6,4.5,0.8,6.4c0.6,0.3-0.1,1.5-0.5,2.2c-3.4,5.1-3.3,6.3,0.8,11.2
	c1.4,1.7,0.7,3-0.5,4.3s-4.1,2.7,0.2,3.9c0.4,0.1,0.8,0.9,0.6,1.2c-2.3,3.3,0.4,8.3-3.7,11.1c-0.6,0.4,0.9,2.1,0.1,3.5
	c-0.5,0.8,0.4,0.4,0.7,0.1c1-0.9,2.1-2.1,3.2-0.4c0.9,1.5-0.1,2.8-1.1,4c-0.1,0.1-3.4,9-3.4,9.2c-0.1,0.3-0.1,0.6,0.1,0.9
	c4.8,4.8,5.6,8.9,1.2,13.8c-2,2.2,0.5,3.8-0.6,5.3h-10c-0.8-1.4-2.5-0.7-3.6-1.4c-0.5-0.3-1.1-1.2-1-1.5c0.4-1,1,0.2,1.6,0.1
	c1.7-0.3,1-1.5,0.5-2.1c-3-4,0-8.6-1.2-12.5c-1.6-5.1,3.9-4.4,4.9-7.1c-1.7-1-2,1-3.5,1.2c-0.3-3.7,1.8-6.3,4.1-8.7
	c-1.8-2-6.8,2.7-5.9-3.5c1.5-1.1,3.3,2.5,4.6,0.1c0.9-1.5-1.2-2.5-1.7-3.8c-1-2.8-3.3-5.4-1.5-8.6C122.6,369,117.7,369.1,120.1,367
	c0.6,0.7,1.8,0.2,2,0.4C121.9,367.2,120.8,367.5,120.1,367z"/>
<path class="st18" d="M475,418.9c0-20.1,0.1-40.2,0-60.4c-0.1-10.4,4.6-17.5,14.1-21.4c1.4,3.4,2.5,6.9,3.3,10.5
	c0.2,1.2-0.8,1.7-1.6,2.3c-0.9,0.5-1.4,1.5-1.3,2.5c1.1,6-1.2,12.4,0.5,18c1.5,5-0.8,9-0.4,13.1c0.6,6-2.1,12.4,2.1,18.4
	c2.5,3.5,0.2,8.5,0.2,12.8c0,0.3-0.2,0.6-0.5,0.9c-0.8,0.9-1.3,0-1.9-0.3c0.8,1.7,0.2,2.9-1.3,3.7L475,418.9z"/>
<path class="st17" d="M122,88.9c-2.4-3.4,2.6-1.7,2.4-3.6c-0.7-1.1-1.9-1.7-3.2-1.6c-0.6,0-1.1,1.4-1.9,0.2c3.4-2.1-5-3.6-0.3-5.8
	c-1.2-3.5-0.2-5.8,3.6-6.6c1.1-0.2,1.8-1.7,1.1-2.3c-3.8-2.9-0.4-5.8-0.2-8.7c-0.1-0.5-0.2-1-0.5-1.4c1.6-0.7,2.2-2.3,3.2-3.6
	c-2.6-1.4-1.9-5.6-4.1-6.4c-3.4-1.1-0.7-3.6-1.9-4.9c2.8-1,0.4-2.2-0.1-2.8c-2.2-2.8-1.5-4.4,2.6-5.1c-1.5,1.8-2.1,3.5-0.4,5.3
	c2.5-2.2,1.7-3.9,1.1-7.1c-1-5-8-9.4-1.9-15.2c0.3,0.1,0.6,0.2,0.9,0.3c0.2,0,0,0-0.4-0.2c-0.3-0.1-0.6-0.2-0.9-0.3
	c0.3,0.1,0.6,0.3,0.4,0.2c-0.9-1.8-0.7-4,0.6-5.5c1.1-1.7,0.9-4-0.4-5.5c-1-1.5-2.9-1.6,0.2-3c0.7-0.3-0.4-3.6-1.8-5.1h14
	c4.4,3.3,5,4.9,2.6,9.6c-0.9,1.7-1.7,3.4-1.3,5.2c0.7,3,0.7,5.1-2.3,7.1c-2.5,1.6,0.5,2.5,1.2,3.6s3.4-0.5,3.4,2
	c0.1,2.3-0.5,4.6-1.7,6.6c-1.1,1.5-3.1,2.4,0.2,3.9c1.6,0.7,1.6,2.9,0.6,4.4c-1.3,1.8-2.5,0-3.8-0.5c0.2,3-0.1,7,0.9,8.6
	c1.8,2.8,1.6,5.5,1.9,8.2c0.2,1.9-0.5,3.7,1.8,4.9c0.8,0.5,1,1.4,0.6,2.2c-4.6,5.3-1.8,11.3-1.6,17c0.1,4-2.9,2.9-4.4,4.1L122,88.9z
	"/>
<path class="st16" d="M553.9,333.9c-2.2,4.4,2.9,3.9,4.1,6.1l-3.5,2.7c0.9,1.6,6.8,2.8,0.6,5.4c2.1,2.8-0.7,6.4,1.1,8.7
	c1.4,1.8,0,1.9-0.2,2.9c-0.3,2.1-2.7,5.1,1.4,6.3c1.6,0.5,0.8,1.7,0.5,2.4c-0.7,1.6-1.1-0.1-1.7-0.3c-0.8-0.3-1.4-0.7-2.8-1.4
	c2.6,4.3-0.7,8,0.4,11.8c0.2,0.5-0.4,1.7,0.2,2.2c1.3,1,1-1.3,1.3-1c1.1,1.2,2.1,2.5,3,3.8c-4.7,1.1-0.1,6.5-3.9,8.3
	c-2.2,1,1.1,0.8,0.8,2.2c-0.4,1.8-0.2,3.6-1.9,4.9c2.8-0.2,2.4,3.1,4.2,3.9c-4.8,5.3,1.9,10.8-0.4,16.1H544
	c-4.5-2.7-1.2-3.9,1.2-5.2c-0.8,0-0.1-0.4-0.2-0.3c-4.5,1.3-4.1-2.1-3.3-4.1c0.9-2.5,0.2-5.5,0.8-7c1.2-3.4-2.3-4.2-2-6.6
	c0.3-3,0.9-6.1,1-9c0.1-2.9,0.5-5.7,1-8.5c0.1-0.3,0.3-0.7,0.2-1c-5.1-9.2,1.8-18.1,0.9-27.2c0-0.5,0.7-0.8,0.3-1.3
	c-0.2,0.4-0.3,1.1-0.8,1.2c-2.1,0.5-3.3-0.2-2.9-2.6c0.2-1.1,0.4-2.4,1.3-3.2c2.2-1.8,2.1-3.5,0-5.3c-1.2-1.1-0.4-2.1,0.6-2.9
	L553.9,333.9z"/>
<path class="st19" d="M543,0.1c-0.5,2.1-0.9,4,1.2,5.6c1.7,1.2,0,2.3-0.4,3.5c-0.5,0.1-0.8,0.1-1,0.2s0,0,0.5,0
	c0.3,0,0.6-0.1,0.8-0.3c0,0.2-0.1,0.2-0.2,0.1c1.3,0.6,2.9,1.4,1.1,2.8c-2.4,2-2.5,4.8-3.4,7.4c2.6,0.2,3.1-4.1,6-2.1
	c-1.3,1.4-2.5,3.3-4.1,4c-2.2,1-2.7,2.7-2.2,4.3c0.4,1.4,2,1,3.2,0.2c0.8-0.5,1.2,0.4,1.4,1c0.3,0.8,0.2,1.6-1,1.7
	c-1,0.1-2,0.4-2.9,0.5c-1.7,0.2-1.2,1.3-0.7,2.1c0.7,1.3,1.3,2.3,1.6-0.3c0.2-1.1,0.9-0.2,1.2,0.3c1.4,2.7-1.2,8.7-4.2,9.4
	c0.4,1.6,1.8,1.2,2.8,1.4s1.6,0.9,1.2,1.8c-0.5,1.2-1.2,0.5-1.9,0c-0.5-0.6-1.3-0.6-1.9-0.1c-0.2,0.2-0.4,0.5-0.4,0.8
	c-0.4,1.1,0.8,1.1,1.4,1.6c1.3,1,5,1.5,1.1,4.2c-1.5,1,0.2,2,0.9,1.9c4.3-0.4,2.1,2.5,1.2,3.1c-2,1.3-0.2,4.1-2.4,5.1
	c-0.1,0-0.1,0.6,0.1,0.8c2.8,3.7,2.5,5.7,0.9,10.5c-0.8,2.2,1.7,5.1-0.4,7.6c3,1,2.2-2.2,4-2.7c0.6,3.3-1.8,4.2-3.6,4.9
	c0.2,2.7,6.6,0.5,3.5,5.3H530c-0.8-1.7-0.1-3.3,0.6-4.8c0.9-2.1,2-3.9-1.1-5.1c-0.9-0.4-1.5-2.2-0.6-2.5c4.8-1.6,0.5-3.6,0.5-5.5
	c0.2-7-5.4-14.4,1.3-21c0.4-0.4,0.8-0.9,0.5-1.2c-3-3.2-0.2-7.4-2.3-11s-1-4.5,3.7-4.1c0.6,0.2,0.5,1,0.8,1.4c0,0,0.2-0.1,0.2-0.3
	c0-0.5-0.6-0.5-0.8-0.9c-0.5-0.4-1.5-0.8-1.5-1.2c0.2-5.6-1.3-11.2,0.4-16.7c0.6-1.9,0.1-3.1-1.8-3.1s-1.9-1.4-1.6-2.4
	c0.9-2.8,1.6-5.8,2.8-8.5L543,0.1z"/>
<path class="st20" d="M154,86.9h-8c-2.1-0.5-1.9-3-3.8-4.2s0.5-2.7,1.8-3.7c1.1-0.8,1.7-5,0.9-6c-2.9-3.4-1.3-7.4-0.9-11
	c0.6-5.4,0.2-11.1,2.8-16.2c0,0-0.2,0.1-0.3,0.2c-0.7,0.5-2,0.8-2.1,0c-0.2-2.3-3.4-4.1-1-6.8c0.6-0.7,2-1.5,0.1-2.6
	c-0.6-0.3-0.8-1.1-0.4-1.7c0.1-0.2,0.3-0.3,0.4-0.4c4.4-1.9,1.3-4.7,0.9-7.1c-0.1-0.8-0.9-1.4-1.2-2.1c-0.6-1.2-0.3-2.7,0.8-3.5
	c0.9-0.8-0.5-0.3-0.8-0.6c-1.3-1.4,0.5-2.5,0.4-3.5c-0.2-3.1,1.1-6,0.6-9c-0.6-3.8,0.4-6.6,3.8-8.6h8c0.7,1,0.3,2.7,1.3,3.1
	c5.9,2.5,2.6,7,2.1,10.6c-0.2,1.9-2.1,3.2,1.2,4.2c1.7,0.5,1.6,3.4,0.5,3.7c-3.4,0.6-1.9,4.8-4.9,5.6c-0.7,0.2-0.3,2.6,0.9,3.2
	c2.4,1.4,3,3,1.4,5.3c-0.4,0.6-0.5,1.2,0.2,1.7c4.8,2.9,1.2,6.4,0.6,9.6c-0.3,1.4-1.2,2.7-1,4.4c0.1,1.2-0.9,1.8,1.3,2.6
	s0.1,3.9,0.5,5.9c0.4,2.4,0.3,4.5-3.1,3.8c-0.2,0-0.3-0.5-0.4-0.3c-0.3,0.6-0.1,0.2,0.1,0.3c3.2,1-1.5,4.7,1.9,5.5
	c-1.9,3.7,1.1,6.6,1.6,9.9C160.8,83.5,157.8,85.7,154,86.9z"/>
<path class="st21" d="M134.1,418.9c-2.2-2.2-2.5-4.4,0.3-6.5c4-3,1.6-7.6,1.5-11s-2,2.2-4,0.3c0.1-5.6,2.5-10.7,5.7-15.9
	c-1.9,0.5-2.4,4.6-5,2.1c-2.1-1.9,1.8-2.3,1.2-4.2c-0.6-0.6-3,1.7-2.6-1.3c0.2-1.2-0.2-2.2,1.9-1.4c1.8,0.7,1.7,0.1,1.2-2.6
	s2.5-4.6,2.9-7.3c-1.2-1.2-3.4,0.2-4.1-1.8c2-0.6,0.2-3.7,3.1-4.1c2.3-0.4,2-2.7-0.1-3.2c-3.4-0.8-1.9-3.2-2.7-4.9
	c-2-4.6,1.1-5.8,4.2-8.2c-4.2,0.2-5.1-0.9-3.1-4.1c1.7-2.7,1.6-6.1-0.2-8.7h11c1.1,0.5,3.1,0.5,3,2.1c-0.1,3.2,2.1,6.5,1,9.3
	c-2,5.3-1.6,10.5-1.7,15.8c0,2.7-0.6,5,1.4,7.7c1.4,1.8-1.6,5-1.7,7.8c0,0.4-1.7,0.1-0.2,0.9c3.2,1.6,3.5,2.1,0.9,5
	c-1.9,2.1-1.2,3.4,0.8,4c4.2,1.2,3,4,1.7,6.3s-2.7,4.5-1.3,7.4c0.7,1.4-0.7,2.4-1.3,3.5c-1.2,2.2-2.4,4.5-0.1,6.8
	c1.4,1.3,0.6,2.5-0.8,3.1c-1.4,0.6-2.1,2-2.9,3.3L134.1,418.9z"/>
<path class="st21" d="M148,0.1c0.3,2.4-2.1,3.6-2.7,5.8s1.5,2.7,0.8,4.1c-1.1,2.3-2.4,4.5,0.3,7c0.9,0.8-3.1,0.8-3.1,3.4l5.2,0.8
	c-4.2,1.1-7.2,2.2-2.7,5.8c1.6,1.3,0.1,4.4,1.9,6.7c0.9,1.2-2.8,0.5-4.1,1.2c-0.5,3,2,0.8,2.6,1.9c-0.8,2.2-3.4,3.6-3,6.4
	c1.4,0.7,1.2-1.4,2.3-1.3c1.1,1.4-1,2.5-0.9,3.8c2.2,0,1.9-1.9,3.7-3.5c-1.7,3.7-0.9,6.7-2.1,9.7c-1,2.4-0.3,5.4-0.2,8
	c0,2.2-1,5.5-1.4,8.2c-0.2,1.6-1.3,4.9,3,3.6c1.1-0.3,1.5,1.1,0.8,2.1c-2,2.9-2.1,2.9,0,5.5c-2,0.7-5-1.1-5.6,2.7l2.9-0.4
	c-0.2,1.8-1.1,3.6,0.3,5.1h-13.8c0.7-1.8,6.3-2.1,1.4-5.7c-2-1.4,2.8-1.8,1.7-3.6c-1.5-2.7,0.1-5.6-0.8-8.4
	c-0.2-0.6-0.7-1.2-0.6-1.8c0.4-2,3.2-0.6,3.4-2c0.6-3.3-2.2,0.2-2.7-1.1c-0.4-1.1,1.1-3.1-1.5-3c3.1-1.6-0.1-4.3,1.1-6.3
	c0.6-1.1,1.8-3.2-1.4-1.9c-0.6,0.3-0.7-0.6-0.6-1c0.4-2.1,1.1-4.1,0.5-6.3c-0.6-2-1.3-3.9-1.1-6c2.4-0.3,2.5,2.3,5.3,2.9
	c-1.4-1.9,0.9-4.4-3.1-4.7c-1.2-0.1-0.9-3.6-0.3-3.8c3.4-1.4,1.8-5,3.8-6.4c-1.3-2.9-3.1,2.8-3.5-0.7c-0.3-2.7-4-0.5-3.5-3.4
	c0.4-2.4,2.2-3.1,3.8-4.2c3-2-2-4.3,0.1-6.4c0-0.1-1.1-1.5-0.2-2.1c4.7-3.6,3.1-7.3,0.2-11L148,0.1z"/>
<path class="st22" d="M519,336.1h12c2,2.9,6,5.3,1.7,9.4c-0.9,0.8,0.6,1.5,0.5,1.9c-0.4,4.3-1.3,8.6,1.7,12.6c0.4,0.5,0,5.2-2.7,6.9
	c-0.6,0.3-0.9,1.1-0.7,1.7c2.6,6.8-0.8,14.4,2.8,21c0.2,0.3,0.3,0.8,0.2,1c-3.8,4.6-0.5,10.1-1.6,15.2c-0.4,1.9-1.8,5.4,1.2,7.6
	c0.7,0.5,0.1,1.7-0.7,2c-1.7,0.7-2,2.6-3.4,3.5h-13c-1.8-2.1-2.3-4.4,0.2-5.9c1.8-1.2,2.6-3.5,1.8-5.6c-2.4-3.5,0.5-5,2.2-7.2
	c-1.9-0.1-3.7-0.4-4.1-2.2c-0.5-2.1,1.5-1.6,2.6-1.9c1.3-0.4,0.2-1,0.1-1.4c-0.8-2.4-0.9-4.9-0.2-7.4c1-3.9,3.3-7.7-1.7-10.6
	c1.1-3.7-4.6-8.2,1.9-11.5c1.9-1-0.5-4.4-1.8-5.5c-2.9-2.5-2.9-4.3,0-6.6c1-0.8,2.1-2.6,1.3-3.5C515.3,345.1,518.6,340.6,519,336.1z
	"/>
<path class="st19" d="M530,418.9c-1-3.1,1.1-4.2,5.2-4.7l-6.2-1.1c1.3-2,5.8-3.3,1.5-6.4c-0.3-0.2,2.2-3.6,1.2-6.5
	c-0.4-1.7-0.5-3.5-0.4-5.3c0-1.2-1-2.3,1-2.9c2.2-0.7,3.1-1.5-0.2-1.5c-0.2,0-0.6-0.6-0.6-0.6c3.1-3.2-1.8-6.3-0.1-9.5
	c0.8-1.4,0.1-2.1-1-2.8c-0.6-0.4-1.1-1.4-0.5-1.6c5.4-1.9,1.3-4.3,0.5-6.5c-0.2-0.6-0.4-1.2-0.6-1.8c4-1.6,2-6.5,5-8.7
	c-5.1-1.6-5.5-5.3-1.3-10.1c-1-1-5.4-1.4-2.7-3.1c5.8-3.6,0.3-6.5,0.3-9.6l11-0.3c-0.2,0.9-0.9,1.9,0.3,2.6c2.8,1.7,4.1,3.4,0.3,5.4
	c-1.8,1,0,3.3-1.7,4.3c0.3,0.3,0.5,0.8,0.8,0.9c0.8,0.4,1.2,0,1.3-0.9c0.1-1.1-0.2-1.9,1.6-1s0.4,1.1,0.3,2c-0.6,4.3-1,8.6-1.2,13
	c0,2,1.4,5.4-1.5,7.8c-2.5,2.1-1.8,3.6,1.3,4.6c0.8,0.3,1.1,0.6,0.8,1.4c-0.9,2.6-1.5,5.4-1.8,8.1c-0.3,3.7-1,7.4-1.1,11.2
	c0,0.5-0.8,4.5,2.9,2.5c1.3-0.7,1.2,1.6,0.6,1.9c-4.1,1.4-2,2.9-0.3,4.6s-0.6,2.2-1.1,3.2c-0.7,1.4-2.1,2.5-1.2,4.5
	c1.5,3.4,1.6-2,2.9-0.4c0.3,0.3,1.3-0.1,1.5,0.8c0.3,1.6-0.5,2.9-1.9,3c-4.5,0.2-1.6,2.2-1,3.6L530,418.9z"/>
<path class="st22" d="M531,0.1c0.4,3.5-0.5,7-2.6,9.7c2.2,0.1,1.5-1.8,2.9-2c1.3,0.8-1,3.7,2.2,3.8c1.2,0,1.2,1.3-1,3.5
	c-1.1,1.2-2.8,2,0.4,2.2c-0.5,1.9,0.2,3.7-0.1,5.7c-0.4,3-2.2,6.2,0.2,9.2c-4.2-0.5-5.2,1.2-2.5,4.4c1.2,1.4,0.8,2.5,0.7,4
	c-0.2,1.2-0.8,2.4-0.3,3.9s3.2,1,2.2,3.3c-0.6,1.1-1.3,2.2-2.8,1.5c1.1,3.3-3.3,6.3-0.5,9.8c0.6,0.7,1.1,2.1,0.8,2.8
	c-2.3,5.1,1.2,8.5,3.3,12.8l-4.3,0.7c0.4,3.3,3.7,1.2,5.2,3.1c-3,2.1-3.1,5.8-4.6,8.8h-10c-0.5-2.5-1-5-0.5-7.6
	c0.1-0.5,0.7-2.2-1.3-1.4c-0.7,0.3-1.5-1.2-1.3-1.8c1.4-3.7-0.8-8,2.1-11.4c1.6-1.9,3.3-4-0.3-5.9c-1.1-0.7-1.4-2.1-0.7-3.2
	c0.2-0.3,0.4-0.5,0.6-0.7c4.5-3.6,1.7-8.4,0.9-11.7c-0.7-3-1-6-1.1-9c-0.1-3-0.3-6-0.8-8.9c-0.2-1.3-0.2-2.8,2-2.4
	c0.4,0.2,0.4,0.8,0.8,1c-0.3-0.3-0.5-0.7-0.9-1c-0.1-1.2,0.2-2.2-0.7-3.5c-2-2.4-2.3-5.9-0.8-8.6c0.9-1.7,2-3.2,0.1-5.4
	c-1.6-1.8,0.9-3.4,1.8-5.1L531,0.1z"/>
<path class="st23" d="M154,86.9c0.3-0.8-1.2-2,0.2-2.5c5.6-2.1,6.3-5.4,1.8-9.7c-0.4-0.4-1-0.8-1.5-1.2c2.2-1.4,2.3-1.8,0.7-4.3
	c-0.1-0.2-0.2-0.8-0.1-0.9c3.6-2.9-0.2-4.7-1.4-7.4c2-0.1,2.5,1.3,3.4,2c1.2,1,2.8,0.1,2.1-0.9c-2-2.7,1.1-5,0.1-7.4
	c-1.7-0.5-1.6,3.1-3.4,1.5c-1.5-1.3,0.2-2.3,0.9-3.3c0.2-0.3,0.6-0.7,0.6-0.7c-3.3-3.6,1.9-5.2,1.9-8.1c0.1-2.3,2.1-4.7-2.1-5.5
	c-1-0.2-2.5-2,0.4-3c0.9-0.3,1.4-1.4,1.1-2.3c-0.2-0.5-0.6-0.9-1.1-1.1c-2.8-0.6-1.9-2.9-2.9-4.3s-1.2-2.2,1.1-1.4
	c0.8,0.3,2.4-0.3,1.4-2.2s0.4-2.6,1.7-2.5c1.6,0.1,2.1-0.4,2.1-1.8c0-1.7-1.4-1.3-2.2-1.2c-3.8,0.3-3.3-1.6-1.5-3.2
	c2.9-2.6,0.5-6.3,2.4-9c0.4-0.6-0.1-1.2-0.8-1.6c-3.4-1.6-3.4-1.6-2.8-4.7h10c2.2,1.5,6.2,1.9,2.6,6.3c-1,1.3,1.7,4.3,1.6,6.9
	c-0.1,2.3,1.4,5.2-2.8,5.5c-1.3,0.1-1.3,1.4-0.3,2.2c3.7,3.1,3.8,6.7,1.3,10.4c-1.3,2-0.6,3.6,0.9,4.8c2.5,1.9,4.1,3.6,1.6,6.9
	c-1.2,1.5-0.6,4-0.2,5.8c0.8,3.7,1.6,7.1-0.9,10.5c-0.6,0.8,0.6,1.2,0.5,1.6c-0.4,2.7,3.5,5.9-1.4,8.2c-1.4,0.7-0.9,3.9,0.6,5.4
	s1.6,2.6,0.1,4.1c-2.2,2.3-0.1,6.1-2.7,8.3L154,86.9z"/>
<path class="st24" d="M506,86.9h-7c-0.4-0.4-0.7-0.9-0.5-1.3c3.2-5.1,1.4-9.8-1.1-14.5c-1.2-2.5-1.6-5.4-1.1-8.2
	c0.6-3.4,0.5-6.9,1.1-10.3c0.5-2.8-1.8-5.7-1.2-9.1c0.2-1.3-0.1-2.8,0.6-4.2c0.7-1.7,1.2-3.2-0.8-4.8c-1.5-1.2,0.2-11.9,1.9-12.2
	c2.8-0.5,2.1-1.2,0.5-2.2s-3.3-1.9-3.7-4.2c-1-5-0.7-5.3,4.4-4.2c0.6,0.1,0.9-0.2,1.2-0.6c-4.2-3.7-4.3-4.7-1.3-11h10
	c1.6,3.1,2.3,6.6,4.2,9.6c1.1,1.8,1.8,4-0.9,5.5c-1.4,0.8-0.2,1.9-0.2,2.8c0,1.1,1.2,2,0.8,3.3c-0.9,2.5-5,3.5-2.7,7.8
	c1.4,2.7-0.6,6.8-0.8,10.3c-0.1,0.8-0.2,1.7-0.4,2.5c-0.3,0.4-0.8,0.8-0.6,1.4c0.2-0.4,0.1-1,0.6-1.3c2-2,3.4-0.8,3.1,1.2
	c-0.5,3.3,1.4,7.3-2.5,10c-1.7,1.2-0.2,3.1,0.6,4.4c1.6,2.2,1.9,5.1,0.8,7.5c-1,2.4-2.8,5.1,0.8,7.1c0.6,0.4,0.7,1.1,0.4,1.7
	c0,0,0,0.1-0.1,0.1c-3,3-2.9,6.9-3.2,10.6C508.8,86.2,507.2,86.4,506,86.9z"/>
<path class="st25" d="M506,86.9c1.5-1,2.4-2.8,2.2-4.6c-0.3-3.5-1-7.2,3.7-8.4c-0.9-2.1-2.6,0.8-3.3-1.4c-0.3-1.1-2.1-2.2,0.4-2.8
	c-2.2-3.2,1.7-5,1.7-7.7c0-1.9-1.2-3.3-2.2-4.8c-1.5-2.4-2.5-4.2,1.1-6.4c1.7-1,1.5-5.5,1.6-8.4c0.1-1.4-1.5-0.7-2.3-0.4
	c-1.5-2.1-0.3-4.3-0.3-6.5c0.2-4,2.4-8.5-3.5-11.5c5.2,0.5,6.1-0.8,5.3-4.8c-0.3-1.6,0.9-3.6-0.7-5.1c-0.1-0.1,0.1-0.6,0.3-0.7
	c2.6-1.9,2.2-1.7,0.8-5.1c-1-2.6-3.1-5.1-2-8.2h11c0.2,0.9,1.4,2.2,0.2,2.6c-2.8,0.8-1,2.3-0.6,3.3c0.8,2.2,1.9-0.8,3,0.2
	c-0.2,2.3-3.5,2.4-3.7,5.6s-0.2,5.8,1.7,8.1c1.4,1.7-1.3,2.1-0.6,3.3c-2.8,0.5-1,2.5-0.8,3.5c0.7,3.8,0.8,7.8,0.3,11.6
	c-0.1,0.5-0.4,1.3-0.3,1.4c4.4,2.8-0.2,8.3,3.3,11.5c0.2,0.2-1.7,3.3-3,4.6c-0.9,1-1.1,1.8-0.2,2.4c3.1,2.5,3.9,4.4,1.1,6.5
	c-3.1,2.4-0.3,4.9-1.4,7.2c-0.7,1.4-2.3,3.3-0.5,5.2c1.1-0.2,0.4-2.2,2.5-2.3c-2.4,2.8,2.9,6-1,8.9c-0.3,0.3,1.9,0.6,2.8,1.3
	c-0.2,1.6-2.1,0.8-2.6,1.9L506,86.9z"/>
<path class="st26" d="M498,336.1h12c1.2,1.7,3.5,3.2,1.5,5.7c-0.9,0.4-1.4,1.4-1.3,2.4c-0.3,1.8,0.7,3.2,1.5,4.6
	c1.6,2.9,0.9,5-2.2,6.2c0.7,1.1,4.4,1.2,1.2,4.1c-3,2.8,1,6.5-0.2,9.9c-0.1,0.4,0.7-0.3,1.1-0.2c2.7,0.5,3.8,3,1.6,4.5
	s-1.5,2.4-0.8,3.9c0.8,1.8,0.1,3.2-1.1,4.5c-0.3,0.3-0.6,0.6-1,0.9c-2.5,2.5,0,4.6,0.7,6.7c0.9,2.9,3.3,5.6-0.8,8.1
	c-1.1,0.6-0.7,2.1,0,3.1c0.5,0.8,1.6,1.6,0.6,2.5c-3.3,2.8-0.5,4.6,1,6.6s1.6,3.3,1,6.8c-0.2,0.8,2.1,0.8,1.5,2.3H499
	c-0.9-1-2.2-0.5-3.2-1c-0.8-0.3-1.3-1.2-1.2-2c0-0.7,0.6-1.3,1.3-1.3c0,0,0,0,0,0c4.5,0.5,3.9-1.8,2.7-4.7c-0.3-0.8-0.1-1.7,0.6-2.2
	c0.3,0,0.5,0,0.8,0.2c-0.3-0.1-0.5-0.3-0.6-0.6c-4.7-5-2.6-10.9-2.5-16.6c0-1.1,1.3-2.4,0.7-3.3c-4.1-6.2-1.2-11.2,3.1-16
	c-1-0.4-1.3,0.1-1.7,0s-1.1,0-1.4-0.4c-1.4-1.5,0.1-2,1-2.8c-1.5,0-3.3-0.9-2.5-2.1c2.5-4.3-1.2-8.4,0-12.6c0.4-1.6-0.3-3.2,2.2-3.5
	c1.4-0.2,1.3-1.5,0.5-2.3c-2.2-2.2-2.2-4.6-0.6-7C499.2,339.2,495.8,337.7,498,336.1z"/>
<path class="st23" d="M157,336.1h8.1c4.8,2.6,5.9,5.3,4.1,12c-1.1,3.8-1,7.8,0.3,11.5c1.3,3.6-1.1,7.4,0.3,11.2s0.1,8.4,0.8,12.5
	c0.1,0.9-0.2,1.7-0.8,2.3c-2.7,1.9-2,5.1-1,6.6c2.5,3.7,1.4,6.3-1.1,9.1c-0.3,0.5,1,0.5,0.4,0.1c-0.2-0.1-0.1-0.2,0.1-0.5
	c0.6-0.9,1.3-1.7,2.4-0.9c1.2,0.9,2.1,2.1,1.7,3.8c-0.2,1.2-0.9,2.2-1.9,2.8c-2.8,1.5-2.6,3.7-1.1,5.7c2.6,3.4,1.1,5-2.1,6.3h-10
	c-1-3-0.7-6.2-1.3-9.3c-0.5-2.6,1.3-3.8,3.8-4.2c-1.8-0.1-2.3-1.3-2.9-2.6c-2.2-4.8-1.8-9.8-1.6-14.7c0.2-1.2,0.8-2.2,1.7-3
	c1.9-2.1,2.2-3.8,1-6.9c-0.7-1.8-4.2-4.8-1.1-7.8c0.3-0.2-0.3,0.1-0.5,0c-3.1-2.1-3.4-6.4-1.5-9.4c1.4-2.3,5.1-5,0.7-8.2
	c-1.3-0.9-2.1-3.5-1-4.5c3.3-3.3,2.1-7,1.6-10.6C155.7,336.8,156.4,336.4,157,336.1z"/>
<path class="st20" d="M157,336.1c-0.9,2.4,0.9,4.5,0.9,7c0.1,1.3-0.3,2.6-1.1,3.7c-3,3-1.9,5.1,1.1,7c0.6,0.4,2,0.4,0.8,1.4
	c-2.1,2,0.4,6.7-4.4,7.1c-1.4,0.1-0.3,1.3-0.2,1.9c0.5,1.8,1.1,3.6,1.6,5.4c1.6,0.1,0.8-1.8,2-1.9c1.1,0.6,0.8,1.4,0.2,2
	c-1.5,1.8-0.6,3-0.1,5.1c0.7,3.1,4.9,7.2,0,10.8c-1.6,1-2.1,3.1-1.1,4.7c0,0.1,0.1,0.1,0.1,0.2c0.6,0.9,1.8,3.2-1.3,3.6
	c-1.4,0.2-0.5,1.3,0,1.8c1.4,1.2,1.4,2.9,1.8,4.5c0.5,1.7-0.5,5.1,3.4,3.7c0.9,3.6-4.2,1.5-4.1,4.3c0,1,0.1,2,0.5,2.9
	c0.9,2.5,0.9,5.2-0.1,7.7H144c-1.7-3.7,1.7-3.6,3.9-5c-3.5-1.6-3.7-4.8-2.1-7.1c3-4.3-0.1-10.1,4.1-14c0.8-0.7,1.7-3.6-2-2.8
	c-3.5,0.7-1.9-3-2.9-4.5c-1.3-2,1.2-0.8,1.9-1.1c1.8-1,2.1-2.3,1.3-4.1c-1.6-0.2-2.3,2.2-4.2,1.3c-0.8-0.9,0.1-1.7,0.6-2.4
	c0.8-1.1,3.8-1.5,0.9-3.5c0.2-0.7,0.6-1.4,1-2.1c0.5-0.9,2.8-0.4,2.1-2.1c-0.9-2-1.8,0.6-2.7,0.2c-0.7-0.2-1.5-0.8-1.1-1.3
	c2.4-3.9,2.1-8.1,1.1-12s1.7-6.3,1.9-9.5c0.3-4.4,0.1-8.8-2.6-12.6L157,336.1z"/>
<path class="st27" d="M167,86.9c1.7-3.1-2-7.9,2.9-10.1c-0.1-0.2-0.1-0.5-0.2-0.7c-2.5-5.5-2.5-5.5,0.9-8.9c0.2-0.2,0.2-0.6,0.3-0.9
	c-4.4-0.6,1.3-5.2-2.5-6.4c-1.5-0.5,0.7-0.8,0.9-1.3c0.8-2.4,1.9-4.8,0.8-7.5c-1.4-3.7-1.4-7.3,0.9-10.8c0.6-0.8,0.4-1.1-0.7-2
	c-2.8-2.3-7.2-4.2-2-8.3c-2.2-1.3,4.5-5-1.4-5.4c1.6-3-3.3-4-1.3-7.6c0.6-0.4,4,1.2,3.7-0.5c-0.6-3.4,1.2-8-3.6-9.7
	c0.3-2.3,2.6-1.3,3.5-2.8c0.4-2.3-3.2-1.8-3.2-4h12c2.6,5.2,2.2,10.7,1.4,16.2c-0.1,0.8-1.5,1.9,0.9,2.3c1.4,0.3,1.1,2.5,0,3.8
	c-2.9,3.3-1.5,7.6-2.7,11.3c-0.4,1.4,1.1,1.3,2,1.6c2.8,1,4.7,2.3,1.6,5.1c-1.2,1.1-0.2,2.5-0.4,3.8c0,0.5-0.1,0.9-0.2,1.4
	c-1.1,2.1-1.2,4.6-0.2,6.7c1.8,3.3,0.5,5.5-1.2,7.9c-1.4,2-2.1,3.7,0.4,5.4c2.1,1.4,2.1,3,0.2,4.9c-3.5,3.5,1,7.5-0.5,11.2
	c-0.1,0.2,0.4,0.5,0.7,0.6c1.3,0.4,3.5-0.5,3.4,1.9s-3.1,1.3-4.3,2.7L167,86.9z"/>
<path class="st28" d="M201,86.9h-12c-2.7-2.4-5.3-4.5-1.3-8.4c0.9-0.9,0-5.5-1.1-8.1c-1.7-3.9-1.6-7.7,1.6-10.2c1.2-1,0.2-1.7,0-1.7
	c-4.8-0.9-1.8-3.4-1.2-5.4c0.6-1.7,3.3-3.2,0.2-5.1c-0.6-0.4-0.2-1.3,0.2-1.8c1.8-2.6,3.4-5.2-1-7c-0.4-0.3-0.5-0.9-0.2-1.3
	c0,0,0,0,0-0.1c3-3.3,0.9-5.6-1.2-8.2c-1.1-1.4-0.9-3.2,0.5-5c2-2.5,3.1-5.4,0.7-8.5c-1.1-1.5-0.9-3.2-0.4-4.8
	c1.2-3.6,1.6-7.4,1.2-11.1h11c4.1,3.2,2.7,7.5,1.9,11.3c-1,4.4-1.8,8.6-0.4,13.1c1,2.6,0.6,5.6-1.1,7.9c-2.7,3.5-2.9,7.8,0.2,11.5
	c1.8,2.1,2,4.3,1.5,6.9c-0.7,3-0.8,6.1,1.4,8.7c0.7,0.8,0.8,1.6,0,2.1c-5.7,4-1.3,8.3-0.3,12.4c0.3,1,1.7,2.2,0.4,3.1
	C197.2,80.2,199.3,83.5,201,86.9z"/>
<path class="st18" d="M478,86.9h-9c-1.1-2.7,1.3-6.2-2.1-8.5c-0.4-0.3,0-1.6,0.3-2.4c1.8-3.9,0.8-8.1,1.4-12
	c0.8-4.5,0.7-9.2-0.2-13.7c-0.3-1.5-1-3.1-0.1-4.4c1.5-2.1,2.4-3.8-0.7-5.3c-0.9-0.5-1.2-1.7-0.7-2.5c0.1-0.2,0.2-0.3,0.4-0.5
	c2.1-1.9,0.8-5.3,3.2-7.1c0.6-0.4,0.6-1.5,0.1-1.8c-3.5-1.7-2-5.4-3.2-8c-0.5-1.1-1.1-2.3,0.8-3.3c1.3-0.7,1.7-3.2,0.5-3.7
	c-3.6-1.6,0.1-5-2-6.8c4.5-0.7,1.4-5,3.3-6.9h10c0.5,0.4,0.8,1.1,0.8,1.8c-1.6,8.1,0.8,16,1.3,24c0.1,2-2.2,3.8-2.2,6.3
	c0,2.2-3.6,5.5,2.5,4.9c1.9-0.2,1,2.3,0.2,3c-3.8,3.3-2.6,6.6-0.4,10.1c2.8,4.6,0.7,9-0.8,13.3c-0.2,0.7-1.4,0.8,0,1.6
	c1.1,0.6,1.6,1.9,1.1,3.1c-2.2,4-1.2,7.9-0.5,12.1C482.3,83,478.9,84.4,478,86.9z"/>
<path class="st28" d="M189,336.1h9c-0.1,6.3,0.6,12.6,2.1,18.8c0.2,0.6,0.1-0.1-0.1,0.5c-2.2,9.6,0.7,19,0.9,28.5c0,0.3,0,0.7,0,1
	c-1.2,4-3.7,7.9-0.1,12.1c1,1.3,0.8,3.1-0.5,4.1c-1.2,0.9-0.6,2-0.1,3.1c1.5,3.4,1.4,3.4-2.1,5.6c1.1,1.7,3.6,2.6,3.5,5.1
	c-0.1,1.9-1.4,2.9-2.6,4H188c-0.9-0.7-2.8-1.6-2.3-2.3c2.5-3.2-0.5-6.6,0.4-9c1.4-3.8-0.3-7.1,0-10.6c0.1-1-0.9-2.4-0.4-2.9
	c5.2-5.5-0.7-11.4,0.8-17c2.1-7.8-0.9-15.8,0.2-23.7c0.2-1.5,0-3-0.6-4.4c-1.2-2.5-1.5-4.5,1-6.5c1.2-0.9,1.4-2.6,0.5-3.7
	c0-0.1-0.1-0.1-0.1-0.2C185.8,336.6,188.1,336.7,189,336.1z"/>
<path class="st29" d="M201,86.9c-5.1-3.9-5.1-4.1,0-10.1c0.2-0.2,0.3-0.6,0.2-0.8c-1.5-1.9-2.4-4.2-2.7-6.5
	c-0.8-5.9-2.1-5.8,2.5-8.6c-3.9-3.1-3-7.6-2.1-11.3c0.6-2.3,0-3.2-1.1-4.6c-3.6-4.6-3.9-8.1-0.5-13c1.5-2,1.9-4.6,1.2-7
	c-2-5.2-0.6-9.6,0.5-14.6c0.5-2.3,2.3-6.3-1.7-8.4c0.2-0.6,0.4-1.2,0.6-1.8h9c1.1,3.6,3.3,6.9,1.6,11c-0.7,1.7-0.7,3.6,0.1,5.3
	c2.5,5.3-1.5,10.8,0.4,16.2c0.5,1.6-2.4,1.6-2.7,3.4c1.6-2.3,3.6-1.7,5-0.3c1.8,1.7,0.2,3.2-0.9,4.7c-0.4,0.5-2.1,0.6-1.3,1.5
	c3,3.3,1.4,5.8-0.8,8.6c-0.6,0.7-0.3,2,0.1,2.9c2.3,5.1-0.3,11,2.5,16.1c-6,5-0.2,12-3,17.5L201,86.9z"/>
<path class="st30" d="M187,0.1c3.3,3.6,0.7,7.3,0.1,10.8c-0.2,1.4-1.5,3.3-0.4,4c3.9,2.6,1.3,5.9,1.6,8.9c0.1,1.2-0.8,1.3-1.4,1.7
	c-3.7,1.9-1,4.5,0.2,5.6c2.3,2.3,2.5,1.9,1.4,4.7c-0.5,1.2-3.2,2.8,1,3.7s1,4.1,0,5.3c-2.9,3.4-1.3,3.9,2.4,3.7
	c-2.8,2.6-4,5.6-5.7,8.6c5.2-1.1,2.9,3.6,4.9,5.4c-3.7-2.6-4.3-1.8-4.5,2.2c-0.2,3.5,2.8,6,1.8,9.6c-0.6,2,1.6,4.2-1.3,6.5
	c-1.4,1,1,4.1,2,6.2h-10c-0.1-2.4,2.9-1.2,3.7-3.3c-6.1,1.7-5.5-1.6-4.5-5.3c0.5-2-3.2-3.5-0.8-5.9c0.5-0.5,0.2-2,0.6-2.2
	c3.1-1.5,4-2.3-0.2-3.6c-2.2-0.7-2.2-4-1.2-5.1c1.5-1.6,1.7-4,3.7-5.1c0.8-0.4,0.7-1,0.3-1.6c-2.5-3.2-2.6-5.7-0.2-9.5l0,0
	c-0.5-1.5-0.8-3.1-1-4.7c-0.1-0.7-0.8-1.7,0.6-1.9c0.7-0.1,1.9,1.6,2-0.5c0.1-1-0.6-1.8-1.6-1.9c-0.1,0-0.2,0-0.3,0
	c-4.5,0.6-4-1-3-4.6c0.5-2.3,0.7-4.7,0.7-7.1c0-1.1,0.1-1.9,1.1-2.5s2.3-1.1,1.4-2.6c-1.2-2.1-1.2,1.2-1.8,0.5
	c-0.3-0.7-0.4-1.5-0.2-2.3c0.7-5.9,0.3-11.8-0.2-17.7L187,0.1z"/>
<path class="st25" d="M514,418.9c-1-1.7-4.3-0.3-4.3-3.4c1.1-1.5,2.4,0.7,4.1-0.5c-2.8-0.7-1.2-5.2-5.1-4.8c1.5-2.3-4.7-5.9,1.2-7.6
	c0,0,0-0.6-0.1-0.7c-4.1-3.2-2-5,1.4-6.7c1.2-0.6,0-1.3-0.2-1.9c-1-2.6-1.5-5.6-3.1-7.8c-2.2-3.2,0.5-3,2.2-3.5
	c0.6,0.4,1.3,0.7,2,0.9c-0.7-0.4-1.6-0.4-2-0.9c0.4-0.9,1.3-1.7,1.4-2.6c0.2-2.3-2.5-3.9-1.8-6.4c3,0.9,2.8-1.6,4.2-3.3
	c-2.8-0.5-3.9,2-6.5,1.8c2.1-2.1,2.3-4.3,1.6-7c-0.6-2.5-2.5-6.1,2.8-7c-3.9-1.6-4-1.7-1.1-4.2c2-1.7,0.5-3-0.2-4.3
	c-0.9-1.7-3.1-3.1-0.4-5.1l0.5-0.1c0.9-0.1,1.4-0.5,0.6-1.4c0-0.2-0.1-0.3-0.1-0.5c2-2.4-2.2-3.6-1-5.8h9c1,2.2,1.6,4.2-0.6,6.3
	c-1.2,1.2,0.2,2.9,0.6,4.2c1.9,6,1.9,5.9-2.7,9.9c4.8,1,2.8,7.2,7.3,8.8c-3.7-0.3-4.3,3.4-8,4.1c3.7,1.1,5.5,2,3.6,5.4
	c-1.1,2.1,3.4,2.6,2.8,5.2c1.8,0.4,1.5,0.7,0.7,2.3c-2.3,4.4-3.4,9.3-0.5,14c-1.3,0.9-2.7,0.8-4.3,0.7c1.9,1.7,1.9,1.7,4.2,1.1
	c0.8,1.1,0.2,2.3-0.2,3.1c-1.1,2.6-1.8,6.2-0.8,8.9c0.5,1.2-0.1,1.6-0.8,1.8c-3.7,1-3.7,3.7-3.2,6.6L514,418.9z"/>
<path class="st27" d="M167,418.9c1.7-1.9,3.9-3.5,0.6-6.3c-0.8-0.6-4.3-4.9,1.4-6.2c1.9-0.4,3.8-3.5,0.4-5.7
	c-1.3,0.8-1.1,2.5-2.9,4.8c0.5-3.7-0.8-6.4,2.5-7.9c0.5-0.2,0.7-0.8,0.5-1.3c-0.1-0.1-0.1-0.2-0.2-0.3c-3.6-1.7-1.2-5.6-3-7.9
	c-1.3-1.6,0.5-1,0.9-1.4c2-1.8,2-1.7,0.4-4.3c-0.3-0.4-0.3-0.9-0.1-1.3c3.1-4.6,1.8-8.8-0.5-13.2c-0.4-0.8,1.3-3,1.7-4.8
	c0.6-2.9-1.8-4.7-1.7-7.7c0.2-4.6,2.1-9,1.5-13.7c-0.3-2.3-2.4-3.6-3.4-5.5h12c2.1,0.8,3.8,2,3.1,4.6c-0.3,0.9-0.1,2,0.6,2.7
	c1.5,1.7,2.3,3.1-0.5,4.6c-1.2,0.6-2,3-1.1,4c3.8,4,0.5,7.2-0.5,10.8c-0.2,0.4-0.3,0.8-0.5,1.2c1.6,2.7-0.1,6.3,2.2,8.9
	c0.5,0.6-0.8,1.2-1.3,1.9c-1.8,2.3-2.8,4.1,0.7,6.3c4.5,2.9-0.5,2.9-1.7,3.7c0.2,0.9,0.6,1.7,1.2,2.4c1.7,2.4,6.9,4.9-0.7,6.9
	c-1.4,0.4-1.8,4.4,0.6,6.4c2.1,1.7,3.3,3,0.6,5.5c-1.3,1.2-0.4,4,0.1,5.5c1.1,3.6-0.4,5.6-2.9,7.5H167z"/>
<path class="st30" d="M177,418.9c0-0.5,0.1-1,0.3-1.4c2.2-3.4,1.8-6.9,0.1-10.3c-0.7-1.4-0.1-2.1,1.1-2.7c2.2-1.2,2.2-1.2,0-2.6
	s-3.4-7-2-8.8c0.1-0.1,0.2-0.3,0.3-0.3c11.5,0.8-0.3-3.7,1.1-5.3c0.2-0.2-1.4-1.9-2.2-2.8c1.2-1.9,3.2-1.2,6.1-1.7
	c-0.7-0.3-1.4-0.6-2.1-1c-1.2-0.9-4,0.8-3.9-1.8c0-2.1,0.6-5.6,1.9-6.1c2.2-1,2.4-0.7,0.6-2.5c-0.8-0.8-3.6-2.7,0.1-4.3
	c0.8-0.3-0.8-1-1.4-1.4c-1.4-0.9-1.1-1.9,0.3-2.5l0,0c1.6-2,0-5.6,3-6.9c-0.1-0.6-0.3-1.2-0.6-1.7c-3.2-3.7-3.1-5.7,0.9-8
	c1.5-0.9,0.1-1.2,0-1.7c-0.4-1.3-1.5-1.5-2.6-1.8c2.1-2.7-0.1-4.8-1-7.1h12c-0.1,0.8-2.5,1.5-0.9,2.1c4.1,1.5,0.9,3.9,0.3,4.7
	c-1.6,2-1.6,3.3-1.1,5.8c1.1,5,1,10.2-0.2,15.1c-0.4,1.9,1.2,2.1,1.7,2.8c2.7,3.9-2.1,6.5-1.1,10.4s-0.7,8.4,2.9,11.7
	c0.7,0.6,0.3,1.2-0.7,1.8c-1.3,0.8-3.6,1.5-3.2,3.2c0.6,3.2,0.1,6.8,1.3,9.4c0.6,1.4,1.1,1.2,0,2.5c-1.4,1.6-3.4,3.5,1,4.8
	c2.9,0.8-2.6,2.8-0.5,4.8c-4.2,0.6-0.8,2.4-0.5,3.7L177,418.9z"/>
<path class="st31" d="M478,86.9c-0.1-0.6-0.5-1.7-0.3-1.9c4.5-4,1.9-8.7,1.7-13.2c-0.3-1.2,0.1-2.5,1.2-3.3c3.3-2.8-2.3-2.7-3-4.6
	c3.8-1.4,5.8-7.1,3.9-11.6c-2.1-5-5.8-9.8,1.6-13.9c-2.7-1.3-3.1,2.2-5,1.5c-1.7-4.7,2.4-9.1,0.5-13.7c2-1.3,0.8,2.2,2.4,1.3
	c0-9.1-4.3-18.1-1-27.4h8c3.1,1.9,4.4,5.7,3.2,9.6s-2,7.8,0.2,11.7c0.8,1.3,1.2,2.9-1,3.5c-1.3,0.3-1.2,0.6-0.7,1.9
	c1.2,3.2,3.2,6.5-0.5,9.7c-1,0.9,0.4,1.9,0.9,2.9c1.2,2.4,0.1,3.7-2.6,3.8c3,1.8,3.3,4.6,3.5,8c0.3,4.4-0.6,8.7-0.4,12.9
	c0.2,3.2,0.1,6.9,1.4,10.1c1.4,3.6-0.9,7-5.4,7c1.5,1.2,3.9,0.3,4.3,2.1c0.5,2.1-1.8,2.5-3,3.5L478,86.9z"/>
<path class="st24" d="M488,86.9c0-1.6,1.7-1.9,2.5-3.2c-1.7-1.5-7.5,0.5-4.5-4.9c5,5.2,3.6-3.2,6.5-2.5c-0.7-1.6-2.9-0.5-2.5-1.5
	c1.6-4-0.8-7.7-0.2-11.8c0.5-3.2,1.8-7.1,0.1-10.5c-0.3-0.6-1-1-0.6-1.9c1.2-3.1,0.6-5.6-2.8-6.6c-1.8-0.5-0.1-2.2-1.6-2.7
	c1.7-1.1,2,0.3,2.7,0.7c0.9,0.6,1.6,0.5,2-0.4c0.3-0.4,0.4-0.9,0.3-1.4c-1.6-4.9-1.6-4.9,1.2-8.6c-0.1-1.6-6.6,0.8-2.2-3.6
	c1-1,0.2-1.2-0.7-1.6c-2.2-1.2,0-2.7,0.4-2.7c5.2,0.5,1.7-2.8,1.2-3.3c-2.8-3.3-1.3-7.5-0.8-10.5c1.1-6.7,2-6.5-1-9.9h11
	c1.5,1.6-2.3,3.9,0.8,5.7c0.7,0.4-2.2-0.2-2.4,1.5c1.5,1.1,3,2.3,5.6,1.5c-1,1.6-2.1,2.6-2.5,3.9c-0.6,2-1.7,1.6-2.2,0.4
	c-0.7-1.6-1.7-1.7-2.6-1c-1.9,1.5,1.6,0.9,0.9,1.9c-2.9,4.1,1.1,4.5,3.1,5.7c2.7,1.7-1.1,4,1.9,5.4c-3.4,0.8-1.9-1.9-3.4-2.1
	c-1.4,1.5-1.7,3.7-0.6,5.4c0.7,1.4,1.5,2.8-0.8,3.5s-0.8,2.1-0.1,2.2c3.3,0.4,1.8,4,1.7,4.1c-3.2,2.6,1.9,6.9-1.9,9.3
	c-0.1,0.1,0.1,1.2,0.4,1.3c6,2.5,0.7,6.6,0.9,9.6c0.3,5.7-0.8,11.6,2.7,16.6c3.3,4.6-0.5,8-1.6,11.9H488z"/>
<path class="st32" d="M460,86.9h-9c-1.1-2.4,0.1-5.6-2.3-7.7c-0.4-0.6-0.3-1.5,0.3-1.9c0.1-0.1,0.2-0.1,0.3-0.2
	c2.2-0.6,1.5-1.6,0.6-2.8c-0.6-0.8-1.6-1.8-0.5-2.5c3.9-2.4,1.5-5.4,1-8.2c-0.1-0.3-0.6-0.6-0.5-0.8c3.2-5.1-1.5-10.2,0.1-15.6
	c1.1-3.7-0.3-8.1,2.3-11.8c0.8-1.1-0.4-2.5-0.7-3.8c-1.1-4.2-0.9-8.7-2.4-12.9c-1.2-3.3,0.8-4.4,4.3-3.2c-3.2-1.6-4.8-3.5-2.2-6.7
	c0.8-1,0.7-2.4-0.3-3.2c-2.1-2.3-0.4-3.9,1-5.5h11c0.7,0.5,1.5,1,1.2,2c-1.7,6.5-0.9,13.3-2.5,19.8c-0.3,1.2-0.8,2.2-1.5,3.2
	c1.4-0.3,3.7-1.5,3.7,0.7c0,2,2.7,5.1-1.1,6.2c-2.5,0.8-2.9,3.1-2.1,4.1c3.1,3.7,1.3,7.6,0.9,11.4c-0.2,1.9-0.6,3.6,1.8,4.4
	c0.7,0.2,1.1,1,0.9,1.7c0,0.1-0.1,0.2-0.2,0.3c-2,4.3-1.8,8.3-0.4,12.9c0.6,1.9,3.1,6.9-2.6,7.8c-0.6,0.2-1,0.9-0.8,1.5
	c0.1,0.2,0.2,0.4,0.3,0.5C463.6,80.3,461.8,83.6,460,86.9z"/>
<path class="st33" d="M208.1,336.1h9.9c1.2,5.7-0.3,11.8,2.1,17.4c0.2,0.8,0.1,1.7-0.5,2.4c-3.2,4.5-1.7,9.1,0,13.6
	c0.4,1.1,0.7,2.2,0.8,3.3c0.5,3-6.7,2-3,6.5c2.2,2.7-0.6,6.6,0.4,8.9c2.8,6.2-1.7,12.4,1.1,18.7c1.4,3.2,0.2,8.2-2,12H206
	c1.1-2.7,1.9-5-0.1-8c-1.3-1.9-2.2-5,1.2-6.8c1.2-0.6,0.9-1.6,0-2.4c-2.6-2-2.1-4.2-1-7c0.8-2.1,4-5.6-1.6-6.7
	c-1.3-0.2-0.6-2.2-0.1-3.1c3-4.6,3.7-10.3,1.9-15.4c-0.4-1.2,0.4-2.6,0.8-3.9c0.8-2.1,0.5-4.4-0.9-6.1c-1.4-1.6-1.8-3.8-1-5.8
	c1.4-3.7,1.5-7.8,0.3-11.6C204.7,339.6,206.3,337.8,208.1,336.1z"/>
<path class="st24" d="M498,336.1c0.5,2.5,3,4.9-0.2,7.6c-0.7,0.6,0.6,2.3,2,3.3s1.5,2.8,0.5,4.5c-1.3,2.1-2.2-0.8-2.1-0.9
	c-3.1,5.5,1.9,9.9-0.9,15.1c-1.9,3.7,2.9,0.7,4.1,2.4c-0.6,1.6-3.5,0-3.6,2.3c1.5,1.3,2.7-1,4.5,0c-1.9,1.1-1.9,3-2.5,4.7
	c-0.2,0.6,1.2,1.6-0.7,2.1c-4.7,1.1-1.5,3.8-1.1,6s2.1,4.4,0.5,6.9c-1.3,2.1-0.2,4.7-0.5,6.6c-0.8,4.3,1,7.6,2,11.2
	c-1.7,1.5,0,2.7,0.5,3.8s1.8,1.9,0.7,3.4c-1.2,1.8-2.4,0.8-3.7,0.3c-0.8-0.1-1.5,0-2.2,0.2c0.1,2.7,3.6,1,3.8,3.3h-11
	c2.7-2.7-1.4-4.4-1.2-7.3l3.4,3.9c-1.7-3.1,2.8-6.6-0.6-9.1c4.2-5.3-3.1-9-2.1-14.2c0.4-2.3,4.3-6-0.9-8c2.7-1.2,1.5-4.5,3.2-6.2
	c0.6-0.6,1.6-1.5,1-2c-3.8-3.4-1.7-7.9-2.5-11.8c-0.8-4.3,1.8-8.9-0.6-13.2c-0.1-0.1,0.3-0.8,0.5-0.8c4.1-0.6,1.2-4.6,3-6.3
	c0.5-0.5-0.2-0.6-0.7-0.8c-2.6-1.2-2.6-1.3-1-3.8c0.5-0.9-0.2-1.5-0.5-2.3C491.8,335.9,495,335.6,498,336.1z"/>
<path class="st33" d="M208,86.9c-0.6-2.8,0.7-5.5-2-8.5c-1.9-2.1,2.6-5,3-8.1c0-0.4,1.4-0.1,1.2-1.1c0-0.3-0.7-0.6-1.1-0.7
	c-2.1-0.2-1.8-0.9-0.6-2c0.3-0.3,0.8-1.2,0.7-1.2c-3.9-3.4,1-8.1-1.9-11.9c-1.2-1.7-1.6-4.1,1.6-6.2c2.9-2-1-4.3-2.5-6.5
	c2.6,0,4.7-1.1,4.6-3.7c-0.4-1.2-1.6-1.8-2.8-1.5c-0.7,0.2-1.2,0.8-1.5,1.5c-0.4,0.7-0.7-0.2-0.8-0.6c-0.1-0.7-0.9-1.9,0.2-2.1
	c3.3-0.6,0.9-2.6,1.2-3.9c0.5-2.5-2.5-5.7,1.5-7.4c-1.9-1.8-0.2-4.2-0.9-6c-1.1-2.9-1.5-5.6,0-8.3c0.5-0.9,1.2-2.1,0.1-2.6
	c-3.6-1.5-0.9-3.9-1.1-5.9h9c2.4,2.1,4.5,3.7,1.8,7.6c-1.1,1.6,0,5.4,0.9,8.1c0.5,1.6,1.3,3.5,0.1,4.8c-3.3,3.8-2.3,8.2-0.9,11.8
	c1.8,4.3,0.8,8,0,12c-0.4,1.8-1.1,3.2,0.9,5.1c1.2,1.2,1.4,4.9-0.8,6.9c-0.9,0.7-1.3,1.9-1,3.1c3,9.1,0,18.3,0.9,27.4L208,86.9z"/>
<path class="st34" d="M460,86.9c-1.1-2.4,1.8-4.3,0.8-6.7c-0.1-0.3,0.5-1.1,0.4-1.2c-4.9-3.9-1.7-4.7,1.9-6.9
	c2.8-1.7-1.9-2.6-2.4-4.3c0.8-1.3,2,0.8,2.6-0.4c0.3-0.7-0.1-1.5-0.8-1.8c-0.1,0-0.2-0.1-0.2-0.1c-2.5-0.7-3-2.1-0.8-3.6
	c1.6-1.2,0-1.9,0-2.8c0-2.2-1.6-5.2,2.7-5.9c-3.6-0.4-5.3-1.3-4-4.9c0.9-2.5,0.9-5.3,1.4-8c0.1-0.6,0.7-1.3-0.3-1.6
	c-3.4-1.1-2.5-3.1-1.3-5.4c0.4-1.2,0.7-2.4,0.9-3.7l2.8,1.9c0.8-2.3-3-3.9,0.1-6.1c-2.3-0.7-3,0.8-4.1,2.2c-0.2-0.6-0.2-1.2-0.2-1.7
	c0.7-3.7,3.2-6.9,2.4-11c-0.4-2-3.4-4.9,1.4-5.6c0.2,0,0.4-0.8,0.4-0.8c-4.2-2.7,1.5-5.7-0.4-8.5h7c0.1,1.3,0.3,2.6,0.6,3.8
	c0.8,3-0.2,4-3.2,2.6c0.5,1.9,4.5,2.7,0.7,4.9c-0.9,0.5,0,1.4,2.4,0.8c0.3-0.1,0.6-0.3,0.9-0.4c0.1,0,0.2,0.2,0.7,0.6
	c-2.7,1.3,0.1,5.8-4.2,6.2c0.8,1.6,1.1,3.7,3.8,3.4c-0.9,1.8-2.4,1.5-4.4,2.2c3.1,1.6,4.6,3.7,6.5,6c-4.6,0.9-3.4,5-4.6,7.8
	c-1.3,3,2.8,3.9,3.2,6.7c-3.4-0.7-3.8,1.6-3.1,3.8c1,3.5,1.6,7.1,1.6,10.8c0,2.2-2.1,4.5-0.9,6.6c1.1,1.8,2.2,2.8-0.7,3.6
	c-0.6,0.2,0.1,1.4,1.1,1.4c0.5,0,1.1-0.1,1.2,0.4c0.1,0.6-0.1,1.3-0.4,1.8c-3.1,3.8-3.1,3.8-0.1,7.1c0.9,1,0,1.4-0.2,2
	c-0.5,1.6-1,3.1-1.5,4.7L460,86.9z"/>
<path class="st35" d="M442,86.9h-8c-0.3-3.1-1.8-6.1-0.7-9.4c0-0.5,0.1-0.9,0.1-1.4c0.3-2.3,0-4.7-1-6.8c-1.4-2.7,1.4-5,0.9-8.2
	c-0.6-3.9,0.1-8.2-1.2-12.2c-0.3-1.1,0.1-2.4,1.2-3c1.6-1.2,0.9-2.2,0.1-3.4c-0.9-1.4-1.3-3.1-0.9-4.7c0.5-3.9-3.5-8.2,1.2-11.7
	c-2.5-2.6,1.4-5.6,0.6-6.5c-1.7-2.1-2.1-5-0.9-7.5c2-3.9-0.4-9.5,4.7-12.1h5c2.6,4.5,2,9.3,1.1,14.1c-0.2,1-0.8,1.8-0.1,2.8
	c3.6,4.7,2.4,10.6,2.5,15.7c0.1,2.8-1.7,6.2-2.1,9.6c-0.9,8.6-1.7,17.1,0.4,25.6c0.7,3.1,1.1,6.2-1.7,8.8c-1.2,1.1-1,2.1,0.1,3.4
	C446.6,84.2,446.5,84.3,442,86.9z"/>
<path class="st29" d="M208.1,336.1c-1.4,3.4-1.5,7.1-0.4,10.6c0.7,3.2-0.1,6.6-2.2,9.1c-0.5,0.6,0.2,1.2,0.6,1.7
	c3,3.1,3.5,6.4,1.5,10.3c-1,1.8-0.1,3.6,0.6,5.4c1.6,4.1-0.5,7.6-2.1,11.1c-0.5,1-1.9,2.2-1.2,3c1.4,1.9,1.5-1,2.3-0.9
	c0.4,0,0.7,1,1,1.5c1.7,2.8,0.4,6-0.9,7.8c-2.4,3.2-0.5,4.8,1.5,5.8c2.5,1.2,1.6,1.8,0.4,3c-3.6,3.4-3.4,6,0.5,9.5
	c0.3,0.4,0.6,0.8,0.9,1.2c-1,1.8-3.7,1.6-4.4,3.8h-7c0.8-2.8,3.9-6.3-2-7.3c-1-0.2-0.4-1.4-0.4-2.2c0.1-2.8,3-0.6,3.9-2.4
	c-0.8-1.3-1.7-2.8-2.6-4.4c-0.4-0.7-1-2.1-0.2-2.1c2.5-0.3,2.8-0.1,1.5-3c-1.1-2.7,0.1-3.2-5-3.7c7.3-4.9,4.8-11.7,4.8-17.9
	c0-2.8-0.3-5.5-0.4-8.3c-0.1-3.3-2.7-6.1-0.5-10.2c1.5-2.9,0.1-7.8-0.8-11.6c-0.8-3.2-0.6-6.6,0.6-9.7L208.1,336.1z"/>
<path class="st36" d="M242,86.9h-6c-1.9-1-4-1.7-2.6-4.7c0.6-1.4-0.3-3-0.7-4.3c-1.7-5.2-0.8-10.1,1.5-14.8c1-2.1,0.2-3.5-1-5
	c-1.3-1.6-2.5-3.8-1.2-5.5c3.4-4.4,0.6-8.3-0.5-12.3c-0.4-1.5-1.2-3,0.3-4c1.8-1.1,2.2,1.1,2.9,1.7c0.2-2.8-1.9-5.7-0.3-8.8
	c0.2-0.3,0.2-0.7,0.1-1c-3.2-4.9-1.5-10.5-2.5-15.6c-0.7-3.8,1.4-7.3-0.2-10.8c-0.4-0.9,0.5-1.5,1.1-2h9c0.4,0.3,1,0.9,0.9,1.1
	c-1.3,3,1,5.2,1.7,7.8c0.5,2.2,2.4,4.9-1.5,6.2c-1.1,0.4-0.3,1-0.1,1.5c1,2.8,2.1,5.7-0.4,8.4c-0.6,0.7-0.2,1,0.3,1.6
	c4,4.5,3.1,9.1,0.6,14.1c-0.8,1.6,0.1,5.7,0.8,6.1c2.9,1.6,0.7,2.7,0.5,4.2c-0.7,4.1-2.6,8.4,1.4,12c0.9,0.8-0.2,2.2-0.1,3
	c0.6,5.6-4.8,10.7-1.4,16.5C246.2,85.3,243.3,85.7,242,86.9z"/>
<path class="st37" d="M428,86.9h-11c0.6-4.5,1-8.9-1.7-13c-0.9-1.4-0.1-3.4,1-3.1c3.5,0.9,1.7-1.7,1.9-2.6c0.6-3.3-0.1-8-1.4-9.2
	c-3.2-3.3-1-6.4-1.6-9.4c-0.8-3.8,1.7-5,4.2-6.7c-1.5-0.2-2.7-1.5-2.7-3.1c0.4-5.2-1.5-10.4,0.5-15.5c0.2-0.6,0.8-1.4,0.5-1.9
	c-4.8-6.4,1.2-13.8-2-20.4c-0.4-0.8,0.7-1.4,1.3-1.9h11c0.4,1.8,4.3,3.7-0.5,5.5c-1.1,0.4-0.8,3.7,0.1,5.2c1.6,2.5,1.3,4-1.1,5.6
	c-1.3,0.9-1.8,2.6-1,4c0.2,0.4,0.4,0.8,0.6,1.2c1.4,2.5,1.1,5.1,1,7.9c-0.2,8.7,1.2,17.3,1.2,26c0,1.4,0.5,0.5,0.8,0.5
	c1,0.1,1.7,1,1.6,2c0,0.4-0.2,0.7-0.4,1c-3.2,2.4-0.9,5-0.6,7.5c0.2,2.2,1.9,4.4-1,6.1c-1.3,0.7,0.8,1.8,0.3,3
	c-0.2,0.6,1.1,2.4,0.1,3.1C425.4,81.1,427.7,84.1,428,86.9z"/>
<path class="st38" d="M218,86.9c-2.5-0.7-1.5-2-1.3-3.9c0.5-5.2,0.6-10.5,0.3-15.8c0-1.4-0.4-2.5,0.5-3.6c0.2-0.2,0.4-0.5,0.6-0.8
	c-6.6-0.5,0.5-5.9-3.1-7.4c1.5-1.3,2.2,1.1,3.8-0.2c-4.6-0.1,3.2-5.3-2.6-5.4c-1.2,0-1.1-1.5-0.5-2.4c0.8-1.3,1-2.8,1.6-4
	c2-4.6-0.1-8.7-0.9-13.1c-0.5-3.2-1.9-6.4,1.5-9.7c2.6-2.5-0.1-7.5-1.1-9.9c-1.8-4.1,0.7-4.9,3.1-7.4c-4,1-5.3,0-3.8-3.1h9
	c0.3,0.2,0.8,0.5,0.7,0.6c-1.1,4.4,1.6,7.8,2.6,11.7c0.4,2.2-0.5,4.4-2.4,5.6c-0.9,0.7-2,1.3-0.8,2.7c0.4,0.2,0.7,0.5,1,0.8
	c1.4,1.5,0.8,3.9,2.6,5.2c0.5,0.4,0.7,1.7,0.3,1.8c-4.3,0.9,0.4,3.1-0.7,4.7c-1.1,1.5,0.8,4.9-3,5.2c-1,0.1,0.1,0.2,0.2,0.3
	c1.8,3.4,2.7,6.7,1.4,10.7s-2.4,8,0.4,12c1.5,2.2,0.1,4.9-0.5,6.9c-0.9,3.2,0.1,6.5-0.9,9.6c-0.3,0.9,0.1,1.5,0.7,2.1
	c2.7,2.9,1.4,5.1-1.5,6.8L218,86.9z"/>
<path class="st39" d="M242,86.9c2.9-3.3,0.5-6.4-0.3-9.6c-0.2-0.9-1.3-2.1-0.1-2.5c4.5-1.3,2.7-4.2,2.2-7c-0.1-0.5-2.2-3.7,1.7-2.9
	c0.7,0.1-0.4-1.6-1.2-2.2c-2.9-2.5-2.3-12.2,1.2-14.6c-3.1,0.4-4.4-0.8-2.8-3.1c2.6-3.8-3.1-1.5-2.4-3.7c4.9-2.9,5.7-9.8,1.4-14.6
	c-0.5-0.5-2,0.1-0.8-1.7c2.5-3.6,2.2-6.7-0.8-10.4c4.4,0.5,4.7-2.4,3.2-4.7c-2.1-3.3-1.6-6.5-1.4-9.8h6c5.2,3,5.9,4.8,4,10
	c-0.2,0.4-1.1,0.8-0.9,1c4.2,4.6,1.3,10.1,2,15.1c0.7,5.3-1.9,10.7-1.2,15.8s2.9,9.4-0.2,14.2c-0.2,0.3,0.3,0.9,0.6,1.3
	c3.8,3.9,2.2,8,0.2,11.9c-0.9,1.7-1.1,2.6,0.1,4.2c1.9,2.2,2.3,5.3,1.2,8c-0.7,1.9-1.2,4,1.2,5.4L242,86.9z"/>
<path class="st40" d="M225.1,336.1h8.9c0.2,1.6,1.4,2.6,2.4,3.7c2.1,2.1,2.5,4,0.4,6.5s-0.9,5.4-1,8.2c0,2,3.4,4.9-1.4,5.6
	c-0.4,0.1-0.5,0.3-0.3,0.4c5.9,2.5,0.4,6.5,1.1,9.9c0.8,3.4,0.9,7,0.3,10.4c-0.5,3,0.4,6.9-0.8,10.3c-0.4,1.1,0.6,0.9,1,1
	c0.6,0.2,1.6,1,1.5,1.1c-3.4,3.3,2.2,7.3-1,10.6c-0.6,0.6-1.1,1.6-0.4,2.2c4.6,4-1.2,7.4-0.6,11.2c0.2,1.1-1.6,0.9-2.3,1.6h-7
	c-1.2-4.1-3.4-8-2.6-12.5c0.7-4.2,2.6-8.5-0.3-12.8c-1-1.4,1.8-2.7,1.6-4.5c-0.4-3.1,0.1-6.3-0.8-9.4c-0.8-2.7-0.7-2.8,2.1-4.6
	c0.2-0.2,0.3-0.2,0.2-0.3c-2.1-2.5-0.2-5.5-1-8.2c-0.4-1.2,0.2-2.9-1.1-3.7c-3.5-2.2-1.9-4.2,0.1-6.4s1.9-2.6-0.7-4.5
	c-1.8-1.3-2-3.5-0.9-4.2c4.1-2.7,2.5-6.3,2.2-9.7C224.7,337.4,224.8,336.7,225.1,336.1z"/>
<path class="st41" d="M268,86.9h-10c2.3-4.7,0.5-9.1-0.5-13.8c-0.7-3.3-1.9-7.3,2.6-9.7c-2.8-1.8-3.8-3.1-2.8-7.3
	c1.2-5.2,2.8-11.3,0.6-17c-0.5-1.6-0.6-3.3-0.2-4.9c1.2-6.1-0.3-12.3,1-18.5c0.7-3.2-0.1-7.5-1.5-10.8c-0.9-2.1-0.8-3.3,0.7-4.8h9
	c2.3,0.6,4,1,2.9,4.4s-0.3,7.4-0.5,11.1c-0.2,4.5,0.4,8.9,0.2,13.3c-0.1,2.3,0.7,4.4,0.5,6.7c-0.2,2.5-2.7,4.8-1.1,7.5
	c0.4,0.3,0.7,0.5,1.1,0.8c2.9,2.4,1.7,6,0.4,7.7c-3.8,5-1.3,10.1-1.5,15.2C268.7,73.5,270.3,80.3,268,86.9z"/>
<path class="st42" d="M442,86.9c0-2.1,2.4-1.9,3.2-3.3c-0.6-1.8-2.6-2.2-3.7-3.6c-0.8-1-1.6-1.3-0.4-2.4c5.6-5.6,1.6-11.8,1.2-17.9
	c-0.2-3.4-2.9-7.4,1-10.6c0.4-0.4,0.9-1.4,0.7-1.8c-2.6-4,1.5-8.8-0.3-11.6c-2.1-3.2,5.6-1.5,1.3-3.9c3-3.2-2-6.7,0.2-10
	c0.2-0.3,0.2-1.2,0-1.3c-4.5-2.2-3.1-7.6-2.2-9.4c1.9-4.1-0.3-7.4,0.1-11h9c0.1,1.9-1.8,4.1,0.8,5.8c0.4,0.3,0.8,1.6,0.6,1.8
	c-3.8,3.8-2.2,6.7,2.1,9.3c-2.4-0.3-5.2-2.7-5.4-0.4c-0.1,1.9-1,5.2,1.5,7.1c0.9,0.7,0.2,0.8,0.4,1.8c0.2,2-0.9,4.2,0.7,6.2
	c1.8,2.4,2,4.9-0.8,7c-1.3,0.9,0.1,2.9-1.3,3.8c2.8,2.7,0.3,5.7,0.3,8.5c0,2-0.7,3.9,1.3,5.7c1,1,1,2.6,0.1,3.6
	c-0.1,0.1-0.3,0.2-0.4,0.3c-2,1.4-0.7,1.8,0.2,3.2c1.1,1.8,1.2,4.3,1.2,6.5c0,1.9-2.2,1.4-3.4,2.2c1.2,1.6,4.1,2.4,2.7,5.2
	c-0.9,1.7-2-0.1-3.3,0.1c0.8,2.5,1.4,4.8,5.3,3.5c-2.3,1.5-4.1,2.9-3.5,5.6L442,86.9z"/>
<path class="st40" d="M226,20.2c-1.6,0.8-2.9,2-2.6,0.4c0.2-1.2-0.9-2.6,1.3-3.7c3.6-1.8,4.1-6.7,1-8.3s-3.4-2.8-0.6-4.9
	c1.2-0.9,0.6-2.4-0.1-3.6h8c-1.4,2.8,3.2,6.4-1.2,8.8c0.4,0.5,0.7,1.1,1.2,1.6c1.1,1.2,2.7,2,0.3,4c-1.6,1.3-1,4.7,0.3,6
	c2.5,2.5,1.2,3.6-1.3,4.8c4.4,1.2,5.1,3.3,2.5,6.4c3.6,2.3-1.2,5.8,0.8,8.5l-3-3.4c2.2,2.9-0.8,7.5,3.1,9.9c0.4,0.2,1.1,0.2,0.9,0.8
	s-0.9,0.9-1.2,1.5c-2.2,3.1-4.7,6.1-0.1,9.6c1.2,0.9,1.4,3,0.1,5.2c-3,5.2-2.8,10.9-0.5,16.5c0.3,0.7,1.4,1.7,0.8,2.1
	c-3.6,2.1,0.7,3,0.5,4.6h-11c0.1-2,4.5-4.1-0.3-6c-1-0.6-1.4-1.9-0.8-3c0,0,0,0,0,0c2.1-3.5-0.2-7.9,2.3-11.3
	c-2.8-1.6,3-4.1-0.8-6.3c-2.9-1.6-0.3-5.2-0.6-7.9c0-0.5,0.1-0.9,0.3-1.4c2.2-5,1.5-9.6-2.5-13.6c5.1,0.3,5.7-2.2,2.4-10.1
	c1.9-1.2,1.1,2.5,3,1.3l0.4-0.5C225.7,26.6,225.2,23.9,226,20.2c-0.1-0.3-0.4,0.1-0.7,0.5C225.8,20.5,226.2,20.2,226,20.2z"/>
<path class="st43" d="M378,86.9h-10c-0.7-0.8-0.4-1.4,0-2.2c0.1-0.2,3.3-1.1-0.1-1.3c-1.2,0-2.6-1.2-1.7-2.3
	c2.3-2.8,1.8-5.9,2.1-9.1c0.7-6.6,3.2-13.1,0.2-19.8c-0.5-1.1-0.6-2.7,0.1-3.4c3.5-3.2,0.7-5.8-0.6-8.4c-1-1.9-1.5-3.1-0.4-5.4
	c1.2-2.6,2.4-5.6-0.6-8.5c-2-2-1-4.9,0-7.5c1.3-3.2,5-6.3,1-10.1c-0.2-0.2-0.1-0.6,0-1c0.5-2.6,2-5.2,0.1-7.8h11
	c1.2,2.6,2.9,5.2-0.9,7c-0.4,0.2-0.6,0.3-0.4,0.5c4.3,5.1-0.3,10.4,0.5,15.6c0.1,0.5-0.2,1.1-0.1,1.5c1.2,3.1,4.7,6.1,0.2,9.4
	c3.9,2,1.3,5.3,1.5,7.9c0.5,5.6-1.2,11.4,1.3,16.9c0.3,0.6,0.5,0.1,0.1,0.4c-4,3.6-1.1,8.2-2.1,12.3c-0.2,0.4-0.5,0.8-0.7,1.1
	c-0.4,3.5,0.7,7,0.4,10.6C378.8,84.6,379.1,85.9,378,86.9z"/>
<path class="st39" d="M242,336.1h9c0,3.1-0.5,6.3,1.7,9c0.5,0.6,0.9,1.8,0.3,2.3c-3.1,3.1-0.2,5.7,0.6,8.4c1.5,4.8,0.2,9.7-0.5,14.2
	c-0.5,3.9-0.3,7.8,0.5,11.7c0.3,1.8,1,3.7-1.2,4.8c-1.6,0.7-0.4,1.2-0.2,2c0.7,3.4,1,6.9,2.4,10.1c0.2,0.5,0.3,1,0.1,1.5
	c-3.1,4.5-0.3,9,0,13.5c0.1,1.2,0,2-1,2.3c-1.8,0.5-2.3,2.3-3.7,3.2h-7c-2.4-8.1-0.6-16.8-3-24.9c-0.3-1.1,0.7-1.8,1.2-2.6
	c1.5-2.1,2.9-4.2-0.6-6c-1-0.5-1.1-1.8-0.2-3c2.1-2.8,1.4-5.9,0.7-9c-0.5-2-2.4-4.5,1-5.8c0.2-0.1,0.6,0.3,0.5,0
	c-0.1-0.7,0.2,0-0.3-0.2c-0.9-0.3-2.6,0.7-2.4-1.4c0.2-1.3,1.9-1.3,2.5-2c0.8-1,1-2.4,0.5-3.6c-0.9-1.8,0.1-3.2,0.2-4.8
	c0-0.4,2-1.2-0.1-1.6c-1-0.1-1.8-1.1-1.7-2.1c0,0,0,0,0,0C243,346.6,240.7,341.3,242,336.1z"/>
<path class="st44" d="M417,0.1c-0.1,0.2-0.2,0.4-0.2,0.4c2.5,1.8,0.4,4.3,0.9,6.5s1.9,4.7-1,6.9c-0.8,0.6-0.8,4,1.3,5.6s2.1,3,0.4,5
	c-1.3,1.5-2.5,2.9-0.4,5.3c1,1.2,0.2,4.4-0.4,6.5c-0.5,1.8-0.2,4.2,0.7,4.6c3.4,1.4,1,2.6,0.1,3.7c-1,1.4-2.2,6.6-2,9
	c0.2,1.3-0.2,2.7-0.9,3.8c1.7,0.8,1.9-1.4,3.8-1.8c-1.4,2-1.7,4.6-0.9,6.9c0.8,2.8,1.4,5.6,1.9,8.4c0.1,0.7-0.1,1.4-0.5,1.9
	c-1.3,0.8-0.7-0.9-1.3-1.2c-0.7-0.5-1.6-0.5-2.3,0c-1.1,0.8-0.1,1.3,0.3,2c2.3,4.3,3.6,8.7,0.5,13.3h-8c-2.4-2.1-1.8-6-0.9-7.2
	c2.8-3.6,0.1-6.3-0.7-9c-0.7-2.4-1-3.9,0.7-5.8c1.9-2.1,1.4-4.9,0.5-6.9c-1-2.2-0.9-4.5-1.5-6.7c-1.1-4,0.5-4.5,3.8-2.6
	c-0.4-2.4-1.7-4.2-2.6-6c-1-2.1-1.3-4.1-0.4-6.2c2.1-4.5-1-8.9-0.3-13.4c0.9-6.1,0.1-12.2-0.1-18.3c-0.1-1.7,3.1-2.5,1.4-4.7
	L417,0.1z"/>
<path class="st41" d="M268,336.1c-2.3,5,0.5,9.4,2.4,13.8c-2.5,0.7-3.4-1.1-5.4-1.1c4.2,2.3-0.2,7.8,4.4,9.6c-0.8,2-3.1,1.1-3.7,2.7
	c3.8,2.3,4.9,6,2.7,9.3c-2,3-2,3,2.1,4.3c-1.1,0.1-1.8,0.2-2.4,0.2s-1.3,0-2,0c0,0.5-0.1,0.8,0,1c1.9,3.2,2.1,7.4,0.5,11.7
	c-0.6,1.7,2.7,1.1,1.7,4c-1,3.1-1.1,6.4-0.2,9.6c0.5,1.7,2.9,3.7-0.4,5.4c-0.7,0.4-0.4,1.7,0.6,1.9c3.5,0.4-1.9,2.4,0.8,3.8
	c1.6,0.9-0.3,1.7-2,2.1c-2.2,0.5-1.4,2.8,1.8,4.6h-9c-3-1.3-2.6-4.7-2.5-6.5c0.3-6.3,2.7-12.5,0.3-19c-0.6-1.6,0.6-3.6,0.8-5.4
	c0.1-1,1-2.4,0.3-2.9c-5.4-4,0.5-9.5-1.9-14.2c-0.9-1.7,1.3-5,1.7-7.7c0.3-2.8-0.2-5.6-1.3-8.2c-1-2.8-2.3-5.1,0.3-7.6
	c0.5-0.7,0.5-1.6,0.1-2.4c-2.6-4.9,0.8-6.9,4.2-9L268,336.1z"/>
<path class="st12" d="M324,86.9h-9c-1.9-0.8-1.1-2.1-0.7-3.4c0.8-2.4-0.3-4.8-0.3-7c-0.1-4.6-0.9-9.1-1.2-13.7c-0.2-2.6,4-1,3.7-3.8
	c0.4-0.5-0.9-0.6-0.3-0.3c0.2,0.1,0.1,0.2,0,0.4c-0.6,2.1-2.1,1.8-2.6,0.4c-0.9-2.7-2.1-5.7-0.2-8.5c1.7-2.4,2-4.7,0.3-7.2
	c-0.8-1.2-1.3-2.5-0.1-3.6c3-2.6,3.6-7,1.5-10.4c-2.4-4.2-1.1-7.5,0.3-11.1c0.1-0.4,1.1-0.7,0.7-1.1c-6-5.5-0.6-11.7-1.1-17.5h10
	c0.7,0.5,1.7,1.2,1.2,2c-3.7,6-1.1,12.2-1.1,18.4c0,1.7-0.7,2.8,0.9,4.1c1.1,0.8,1.1,2.5,0.8,3.8c-1,4.5,0.1,9.4-2.6,13.6
	c-1.3,2.1,0.7,0.6,1.1,0.9c1.8,1.6,1.3,6.2-1.1,7.6c-0.6,0.4-1.6,0.4-0.9,1.1c3.2,3.4,0,8.1,2.5,11.5c0.3,0.4,0.6,1.3,0.4,1.4
	c-4.7,2.5-0.7,6.3-1.5,9.3c-0.3,1.1-0.1,2.4-1.2,3.1c-0.2,0.2-0.6,0.3-0.5,0.7c0.1-0.5,0.6-0.7,1-0.9c2.8-0.2,3.5,1.6,2.3,3.4
	C324.7,82.1,325.2,84.7,324,86.9z"/>
<path class="st45" d="M401,86.9h-7c-1.3-1-1.6-2.3-1.7-3.9c-0.3-4.9-0.7-9.6,0.5-14.6c1.4-5.7,0.9-11.6-1.5-16.9
	c-0.6-1.3-1.8-3-0.1-4.5c0.3,0,0.5,0.1,0.8,0.2c-0.3-0.1-0.5-0.3-0.6-0.6c-1.2-1-1.2-2.8-0.2-4c0.2-0.2,0.3-0.3,0.5-0.4
	c4-3.4,0.5-8.3,2.4-12.1c0.2-0.4-0.2-1-0.7-1.2c-5.3-1.6-3-5.3-1.8-8c2-4.4,2.5-8.1-0.1-12.6c-1.2-2.1-1.9-5.9,1.4-8.1h10
	c0.7,1.2,0.7,2.6,0.2,3.8c-1,3.4-1.1,6.5,1.5,9.3c1,1.1,1.2,2.8-0.5,3.2c-3.7,0.9-0.6,4.2-2.4,5.7c-0.1,0.1,0.1,0.3,0.4,0
	c3.4-2.5,3.3,1.4,2.8,2.1c-2,2.8-1.7,5.5-0.6,8.4c0.2,0.6-0.2,1.3-0.5,1.9c-2.4,5.4-2.4,10.7-0.4,16.4c1.4,4.1,2,9-1.2,13.1
	c5.1,1.8,5.3,2.3,1.3,5.6c-1.6,1.4-1.4,2.1-0.2,3.5c1.3,1.6,2.2,3.4,0,5.2c-1.3,1-0.1,2.1,0,3.2C403.6,83.7,402.7,85.7,401,86.9z"/>
<path class="st38" d="M225.1,336.1c2.4,3.7,2.2,8.9-0.9,11.2c-1.6,1.1-0.9,2.2-1,3.4c2.5-2,1.9,5.5,5.4,1.3
	c-1.5,2.4-1.8,4.9-4.3,6.1c-0.6,0.3-2,2,0.4,3.6s2.3,4.9,1.9,7.6s-0.4,5.1,2.2,7.7c-5-2.7-4.4,0-3.9,2.7c0.8,4.3,3.3,8.7-0.7,12.8
	c-0.2,0.2-0.3,0.5-0.5,0.8c5.8,0.7,0.8,4.5,1.8,6.6c1.2,2.6-0.6,5.3-1,7.9c-0.3,1.8-0.7,3.2,1.1,4.3c3.1,2-1.5,4.6,0.5,6.7h-9
	c-1.7-2.3,0.3-4,0.9-6s1.7-4.4-3.5-1.9c3.4-2.3,5.6-3.6,2.2-6.3c-2.1-1.7,0-5,0.4-6c2.1-5.6-2.1-11.1,0.5-16.5
	c0.3-0.6,0.4-2.8-0.5-2.5c-5.4,1.6-1.5-2.5-2.3-3.6s-0.5-1.5,1.1-1c2.1,0.5,4.6-2.7,3.4-4.1c-2.3-2.8-2.2-5.9-2.6-9.1
	c-0.2-2-0.7-3.5,1.1-4.7c2.6-1.7,0.5-4.3,0.2-5.7c-0.4-2.2-0.3-4.5,0.3-6.6c0.3-1.3,0.6-2.1-1.2-2.4c-2.3-0.4-2.1-1.4,0-2
	c1.6-0.5,0.7-1.4,0.1-1.7c-4.6-2.6,1.9-1.3,0.9-2.6L225.1,336.1z"/>
<path class="st46" d="M393,0.1c-1.1,3.5-1.5,6.8,1.1,10.1s0.4,6.7-0.7,10c-0.4,1.4-2.5,1.9-0.4,4.4c1.9,2.2-2.2-0.4-2.3,1.4
	c0.7,1.4,2.4,1,3.4,1.7c1.3,0.8,3.3,0.8,1,3.3c-1.6,1.9-1.3,4.7,0.6,6.2c0.1,0.1,0.1,0.1,0.2,0.2c1.7,1.3,1.2,2.5-0.7,3.1
	c-3.3,1.1-4,3.4-3.2,6.6c-0.4,3.2,0.3,5.9,4.2,7.3c-3.6,1.8-2.4,5-2,7.3c0.9,4.6,0.8,8.8-2,12.6c-1.7,2.3,1.8,2.5,1.6,4.5
	c-0.2,2.6-1.1,5.5,0.1,8.1h-11c-0.6-3.1,3.4-5.8,0.9-9.1c3-5-1.9-9.8-0.3-14.9c1.2-3.9-0.6-8.5,2.1-12.3c0.3-0.5,1-0.6,1.1-1.2
	c-0.6,0.1-0.5,0.9-1,1.1c-1.7,1.7-2.7,0.5-2.3-1c1-3.5-1.4-7.5,1.7-10.7c1.3-1.3,0.2-2.8-0.3-4.1c-1.6-3.7-3.4-7.3,0.2-11
	c1.2-1.2,0.4-2.8,0-4.2s-0.9-2.9,0.6-4.1c0.1-0.1,1.3,0.4,0.5-0.6c-3.9-4.8-3.6-9.4,0.8-14.5L393,0.1z"/>
<path class="st36" d="M242,336.1c1.2,5.6,2.1,11.3,0.3,17.3c2.3-0.4,1.1-2.1,2.3-2.5c0.6,1.3,0.6,2.9-0.1,4.1
	c-1.6,3.5,2.3,8.8-3.9,10.9c0.9,1.8,3.4-1.5,3.7,1.1c0.2,2.2-2.1,1.2-2.5,1.6c-1.6,2,0.2,4.7,0.9,6.1c1.5,3.5,0.1,5.8-1.4,8.1
	c-0.8,1.2-0.2,2.3,0.2,2.2c6.4-2,0.6,3.8,2.8,4.3c-5.3,4-1.4,9.2-1.8,13.8c-0.2,2.2,2.5,4.7-0.5,6.8c1.1,1,2.9,1.9,1.2,3.8
	c2.7,1.9-1.1,3.3-0.3,5.1h-10c3-2.5,0.1-7.5,4-9.6c-0.9-0.4-1.3-1.6-1.8-1.9c-1.6-0.8-2.1-1.9-1.1-3c3.3-3.6,1.9-6.3-1.6-9l4.2-1.4
	c-1-1.4-1.9-0.7-2.9-0.5c-1.9,0.4-2.3-1.4-1.5-1.9c2.4-1.3,0.8-3.9,1.5-4.6c3.2-3.2,0.1-4.8-1.6-7.2c3-0.1,2.8-1,2.6-3.8
	c-0.3-3.8-3-8,0.6-12.2c1.9-2.3-2.7-2.3-4.1-4.1c1.6-0.8,3.4,0.1,4.6-1.1c-2.5-4-2.8-8.8-0.6-12.2c2.8-4.2,0.1-5.7-2-7.9
	c-0.8-0.8-0.8-0.7,0.5-2.3L242,336.1z"/>
<path class="st7" d="M308,86.9h-9c-0.8-0.4-1.7-1.4-0.8-1.8c2.2-0.8,1.7-2.6,1.2-3.5c-1.5-2.9-1.1-5.5,0.5-8.1
	c1.2-2-2.8-1.9-1.8-4.5c1.3-3.3,1.1-7,0.5-10.7c-0.3-2,0-3.9-1.9-5.3c-0.7-0.5-1.3-1.5-0.8-2.2c3.7-5.4,0.7-11.9,2.9-17.5
	c1-2.6,1.2-4.9-1.6-6.7c-1.1-0.7-1.9-1.8-0.8-3.4c3.7-5.4,3.9-11.2,1.6-17.3C297.5,4,297.5,2,298,0.1h9c2.7,2.2,4.1,4.2,1.6,7.9
	c-1.4,2-1,4.8,0,7.7c2.2,6.5,3.8,13.4,0.2,20.2c-0.5,0.9-1.2,2-0.7,2.8c3.1,4.6-0.4,9.9,1.7,14.7c0.4,1,0.1,3.5-0.4,4.8
	c-2.2,5.2,1.1,10.1,0,15.2C308.4,77.8,308.8,82.4,308,86.9z"/>
<path class="st5" d="M346,86.9h-7c-1.3-2.9-1.9-6.1-1.6-9.3c0.5-5.1,1-10.7-0.9-15.7c-0.4-1.2-0.3-2.6,0.2-3.8
	c1.1-3.7,0.1-7.6,0.6-11.2c0.9-6.6-0.9-13.2,0.1-19.7c0.1-0.7,0.5-1.5,0.2-1.9c-3.4-4.4,0.5-7.9,1.3-11.8c0.2-0.9,1.2-2.1,0.4-2.7
	c-3.8-2.8-2-7.1-3.2-10.6h10c0,5.2,4.1,9.6,2.2,15.3c-1.6,4.9,0.3,10.4-1.2,15.4c-0.2,0.6-0.6,0.1-0.2,0.4c4.5,3.8-0.2,8.1,0.6,12.2
	c1,4.8,1.7,9.6,0,14.6c-0.7,2.8-0.4,5.7,0.7,8.4c2.4,4.9-3.6,9.8,0.7,14.4C349.5,81.6,347,84.8,346,86.9z"/>
<path class="st8" d="M292,86.9h-8c-2.6-5.4-2.3-11.1-1.2-16.8c0.5-0.5,1-0.9,1.7-1.1c-0.6,0.3-1.2,0.7-1.7,1.2
	c-3.1-3-2.6-4.8,2.1-7.8c-2.2-1.7-4.1-8.1-2.7-10c3.3-4.6,1.8-9.1-0.1-13.5c-0.8-1.7-1.8-2.7,0.5-3.9c1.1-0.6,1-2.1,0.8-3.2
	c-1.5-6-1.4-12.2-1.3-18.1c0-4.5-0.2-9.1,0-13.6h10c1.3,5.2-0.3,10.5,0.3,15.7c0.5,6,0.5,12.1-0.1,18.2c0,0.7,0.2,1.3,0.5,1.9
	c2.1,3.2,5,6.2-0.3,9.4c-0.7,0.4-0.2,3.1,0.6,4.7c1.7,3.1,2,6.7,0.7,10c-0.8,2,0,5-0.3,7.2c-0.5,3.8,1.4,8.1-1.7,11.5
	c0,0.4-0.1,0.9-0.2,1.3c-0.5,1.4,0.3,2.5,1,3.6S293.8,86.1,292,86.9z"/>
<path class="st14" d="M291,79.1c-0.6-0.4-1-1-0.5-1.6c1.5-2,1.8-3,1-4.6c-0.6-1.2-1.8-2.1,0.8-2.2c0.8-0.2,1.3-1,1.1-1.8
	c0-0.2-0.1-0.4-0.2-0.5c-2-3.7-0.7-7.3,0.5-10.9c0.9-2.5-0.5-4.5-1.3-6.6c-1.1-2.8-3.3-5.6,1.4-7.5c1.2-0.5,1.5-3,0.3-3.9
	c-3.3-2.5-2-5.9-2.8-8.9c-1.1-4.3,0.6-8.2-0.2-12.5c-0.9-6-0.6-12,1-17.9h6c4,7.7,3.3,21.5-1.3,24.2c1.1,2.1,5.1,3.2,4,5.7
	c-0.9,1.8,1.4,4.8-1.9,5.6c4,1.8-3.9,6.1,1.6,7.6c-1.3,1.8,0,4.6-2.4,6c-0.9,0.5-1.8,1.8-1.1,2.4c6.1,5.9,2.8,12.9,2.5,19.6
	c1.6,0.7,1.4-2.3,3.5-1.2c-2.2,1.9-1.2,4.9-3.2,7.1c-1.2,1.3,3,2.6,1.2,5.3c-0.6,0.9,1,3.4-2.1,3.1l0.3,1.4h-7
	c0.7-1.1,0.7-2.5-0.3-3C289,82.5,290.5,80.8,291,79.1z"/>
<path class="st10" d="M283,70.1c0.4,5.6,0.7,11.2,1,16.8h-9c0.2-4.8-2.2-9.6,0.3-14.3c0.3-0.6,0.4,0.1,0.1-0.4
	c-2.5-4.8-1.2-9.6-0.9-14.5c0.1-2.3-1-4.7,0.3-7.1c0.5-0.7,0.5-1.7,0-2.4c-3.1-3.4-1.3-7.5-0.8-10.7c0.9-5.5,0.9-10.8,1.1-16.3
	c0.2-3.2,0-6.5-0.5-9.6c-0.5-3,0.2-6.6-0.6-9.9c-0.2-0.7,0.6-1.1,1.1-1.5h7c0.7,3.2,2.7,6.2,1.8,9.5c-1.7,6,0.8,11.9,0.2,17.9
	c-0.2,2.5,1,4.7,0.7,7.3s-1.6,1.7-4.5,1.5c5,2.2,5.4,5.3,4.6,8.6c-0.4,1.9,0.3,3.2,1,4.7c0.3,0.7,1.1,2,0,2.1
	c-6.4,0.9-0.3,5.7-2.5,8.1c-0.6,0.6,1.9,1.4,2.8,2.4C284.3,64.6,279.3,65.6,283,70.1z"/>
<path class="st3" d="M346,86.9c-1-1.3-0.1-2.2,0.3-3.5c0.3-0.9,4-3.4-0.6-3.8c1.9-2.1-2.2-5.2,1.1-6.9c1.5-0.8,2.4-1.8,1.3-2.9
	c-3.5-3.3,1.5-8.4-2.6-11.5c4.6-5.9-0.2-12.6,1.4-18.7c0.5-2.1-0.2-3.1-2-3.9c1.2-1.4,2.6,0,3.8-0.5c0-0.3,0.1-0.8,0-0.9
	c-2.4-1.6-3-3.5-2.2-6.6c0.6-2.4,1.3-5.5-0.9-7.9c2.6-1.2-0.1-4.3,1.4-5.1c2.4-1.3,0.9-3.4,0.7-4.3C346.7,7,343.6,4,346,0.1h9
	c1.5,4.6,1.5,9.6,0.1,14.3c-0.9,3.5-1.7,7.9,1.5,11.2c0.9,1,2.1,2,0.6,3.3c-3.1,2.6-2.5,6.4-1.7,9.1c1.5,4.8,0.6,9.1-0.6,13.5
	c-0.5,1.8-0.6,3.1,1.2,4.2c2.4,1.4,2.3,3.1,0.4,4.8c-3.1,2.6-2.8,5.6-1.4,8.9c0.5,0.7,0.7,1.5,0.8,2.3c0,1.5-2,1.4-2.2,2.8
	c2-0.6,1.9,1.2,2.4,2.2c0.4,0.7,0.8,2,0.4,2.4c-2.5,2.5-0.1,5.3-0.7,7.9L346,86.9z"/>
<path class="st15" d="M275,0.1c0.3,2.9,2.1,5.6,1,8.9c-0.2,0.6-1,3.1,0.5,5c2.4,2.8-1.3,6.2-0.1,9.5c1.2,3.5,0.1,7.2-0.3,10.7
	c-0.2,2.1,0.5,4.9-1.3,7c-0.2,0.4-0.2,0.9,0,1.4c2,4.6,0.3,9.4,1.2,14c0.4,2,0.2,4.1-0.7,6c-0.2,0.4-1.4,0.5-0.9,1.2
	c3.2,4.7,1.3,10.1,1.7,15.1c0.4,2.7,0,5.5-1,8h-7c-2.3-1.6,0.6-3,0.1-4.6c-0.9-3.5,0.3-7.3-1.8-10.6c5-1.2,0.2-4.2,1.1-6.2
	c1.3-2.9-0.4-5.9-0.3-8.8c0-3.5,3-5.1,3.1-8.2c0.1-1.8,0-3.1-1.2-4.4c0.5-0.7-0.3-0.8,0.2-0.4c0,0,0,0.1-0.1,0.3
	c-0.4,0.6-0.8-0.1-0.2,0.3c0,0,0.1-0.1,0.1-0.2c-3,0.4-3.6-1.2-1.9-3c2.4-2.7,0.4-6,1.7-8.8c0.6-1.4-0.9-0.9-1.5-1.1
	c-0.9-0.3-1.5-1-1.2-1.8c2.1-6.1,2.1-6.1-0.8-10.6c3.6,0.1,4.9-0.3,2.5-4.2c-2-3.1-0.7-8.5,0.7-11c2-3.7-2.3-1.9-1.6-3.3L275,0.1z"
	/>
<path class="st47" d="M425.3,20.8c-1.9-0.9-2.5-2.6-0.8-3.8c4.8-3.2,0-7.3,1.3-10.8c0-0.1-1-0.5-1.9-1.3c4.2,0.3,5.4-1.3,4.1-4.8h10
	c-1.1,2.7-4.1,5.2-1.1,8.4c0.5,0.6,0.4,1-0.3,1.5c-2.7,2.2-3.2,6.1-1.1,8.9c0.3,0.4,0.7,0.8,1.1,1.1c-1.9,1.7-5.3,2.9-1.8,6.1
	c0.8,0.7,0.9,1-0.3,1.5c-3.6,1.6-2.7,4.1-0.8,6.5c0.9,1,1,2.5,0.1,3.5c-0.9,1.2-1.2,2.4-0.1,3.6c1.9,2.1,3.8,4-0.2,5.9
	c-0.4,0.2-0.5,1.1-0.7,1.7c4.8,1.1,0.4,4.4,1,5.1c2.9,3.3-0.4,6.9,1,10.1c0.3,0.8,1.6,2.7-0.9,3c-1.6,0.2-1.4,1-0.5,1.9
	c2.5,2.5,1.4,5.3,0.6,8.1c-1,3.3,2.4,6.6,0,9.8h-6c-1.8-2.6-5-5.2-0.2-8.1c2.5-1.5-1.6-3.1-0.1-4.7c-4.5-0.9-2.1-2,0-2.5
	s2.7-1.2,1.4-2.9c-2-2.7,0.4-7.1-4.2-8.3c1.5-1.6,2.4-1,3.3-0.8c2.1,0.4,0.9-1.6,1.5-2.3c-3.4,0.4-1.5-2.6-2.1-3.2
	c-2-2.1-0.2-4.2-0.9-6.4c-1.6-4.9-0.3-10.2-1.2-15.4C425,29,426.1,24.9,425.3,20.8C425.5,20.6,425.4,20.7,425.3,20.8
	C425.4,20.7,425.5,20.6,425.3,20.8z"/>
<path class="st48" d="M258,0.1c-0.3,1.8-1.6,3.9,1.7,4.5c0.7,0.1,1.1,0.8,1,1.4c0,0.2-0.1,0.4-0.3,0.6c-2.7,2.9-1,5.6,0.3,8.4
	c0.2,0.4,0.8,0.6,0.1,1c-3.6,2.8-1.1,6.5-0.9,9.7s-1.4,5.7-0.7,9.2c1.2,6.6-0.3,13.6,0,20.5c0.1,2.6-0.5,3.4-3.1,3.7l7.6,5.5
	c-7.6-0.9-6.2,5.4-5.4,7c1.7,3.1,0.9,5.8,1.4,8.6c0.6,3.8,1.1,3.7-1.7,6.7h-3c-4.7-0.6-3-4.7-2.2-6.2c1.2-2.3,0.5-4.5-0.4-5.2
	c-4-3-1.2-5.8-0.1-8.6s1.9-5.7-0.4-8.1c-2.5-2.6-1.9-5.1,0.2-7c1.8-1.7,1-4.4,0.5-4.6c-5.2-2.6-1.2-6.5-1.5-9.6
	c-0.3-4.1,0.3-8.5,0.8-12.2c0.4-3.3-3.8-7.5,0.9-10.2c0.1-0.3,0.1-0.6,0-0.9c-5.2-1.9-2-4.9-1-7.6c1.3-3.6-3.2-3.9-3.7-6.5L258,0.1z
	"/>
<path class="st13" d="M336,0.1c1.2,1.9,4.5,3.3,1.2,6.1c-0.1,0.3-0.1,0.6,0,0.9c8.2,4.4,1.1,8.8,0,13.1c-0.1,0.4-0.7,0.7-0.4,1.2
	c4,5.4-0.7,12,1.9,16.9c1.8,3.3-1.6,4.1-0.9,6.6c0.8,2.6,1,5.3,0.5,8c-0.4,2.2-1.8,6.6-1.1,7.1c4.9,3.9-1,8.5,1.3,12.4
	c1.3,2.2,2,4.8-0.4,7.2c-0.7,0.7-1.7,2.3,1.2,3c3.1,0.8-2.4,2.6-0.3,4.3h-8c-4.2-1.5-2.6-5.4-1.5-6.9c2.3-3.3-1.4-6.5,0.6-9.4
	c-3.4-1.9-1.1-4.3-0.6-6.5c0.6-2.5-0.4-5.1,0-7.4c1-5.7-0.8-11-1.4-16.5c-0.3-3,2.3-3.2,3.6-4.7c-1.1-2-7-3-1.2-6.4
	c0.4-0.2,1.1-0.5,0.6-0.8c-2.8-1.7-0.7-4.9-1.6-6.3c-2.2-3.4-0.3-5.2,1.3-7.4c0.2-0.4,0.3-0.8,0.4-1.2c-0.7-2.4-0.5-4.9-2-7.2
	c-1.3-2,0.4-4.3,1.9-6.1L336,0.1z"/>
<path class="st4" d="M308,86.9c-0.3-2.2-0.7-4.5-1-6.8c-0.2-1.6,0.1-1.8,1.9-3.6c1.5-1.5-1.4-1.9-0.9-3.7c0.7-2.5,1.1-5.3-1.2-7.6
	c-0.7-0.7,0-1.5,0-2.2c0-2.3,4.1-4.7-0.1-7.2c-0.8-0.4,2.6-0.4,2.5-2.4c-1.1-0.8-5-1.1-1-3.6c-2.3-2.9,2.5-6.3-0.9-9.3
	c-1.4-1.3-1-3.2,0.2-5.2c1.8-3,3.2-6.1,1.5-10.2c-1.5-3.7,0.6-8.6-3.5-11.7c2.1-2.1,0.2-5.4,2.2-7.4c1.8-1.8,3.2-3-0.9-3.5
	c-1.3-0.2,0-1.6,0.1-2.5h8c1.7,4.2,0.1,8.3-0.4,12.4c-0.2,1.4,0,1.5,0.8,2.1c3.1,2.3,0.8,5.5,1.1,8.2c0.2,1.5-2.2,0.1-2.8,1.7
	c5.1,3.6,2.8,9.3,3.7,14.1c0.2,1.2-1.2,0.8-1.8,1.2c-1.4,0.9-2.4,1.8-0.7,3.8c2.3,2.7,1.1,4.9-0.9,8.4c-1.1,1.8,0.2,4.9,0.4,8.2
	c1.6-1.6,0.4-3.8,2.6-4.4c0.2,2.5,2.1,4.9-2.4,6.2c-1.5,0.4-1.3,4.4,0.4,6.4c1.5,1.7,2.6,3,0,4.6c-0.5,0.3-1,1.9-0.8,2.1
	c3.8,3.7,1.2,7.8,0.9,11.8L308,86.9z"/>
<path class="st49" d="M401,86.9c0.6-2.6,2.8-5.2,0-7.8c4.8-3.1,0.8-5.4-0.4-8.1c-0.2-0.5,2.3-2.4,3.8-3.3c0.6-0.4,1.8-0.1,1-1.4
	c-0.3-0.5-0.9-0.8-1.5-0.5c-0.1,0-0.2,0.1-0.2,0.1c-0.9,0.6-2,1.8-3,0.6s0-2.9,0.6-3.6c3.4-4.2,2-8.7,0.5-12.8
	c-0.9-2.4-1.1-4.9-2.1-7.2c-1.3-3.2,2.2,0,2.7-1.8c-2.3-1.2-4.3-2.6-0.6-4.9c3.4-2.1,0.2-5.1,0.2-7.6c0-1.8-0.6-2.9,1.5-3.5
	c1.6-0.5,0.8-2,0.4-2.4c-1.4-1.6-0.6,1-1.5,0.9c-0.7,0-1.9,0.8-2.1,0.5c-0.6-0.7-0.5-1.7,0.1-2.2c0.6-0.5,1.9-0.5,1-1.6
	c-4-4.8,2-3.3,3-5.5c-5.8-4.1-2.8-9.5-1.5-14.7h6c0.5,1.4,1.8,1.8,4,2.6c-6.3,0.3-4,4.7-4,7.1c-0.1,3.9,0.8,7.8-0.2,11.9
	c-0.2,1-2.1,5.5,1.6,7l-1.3,6.6c1,2.9-1.4,6.6,1,8.8c1.9,1.7,0.3,4.8,3.6,5.5c-2.5,0.5-4.4,0.4-6.2-1c3,2.6-1.6,7.9,3.7,9.3
	c-2.8,2.2,1.4,6.1-2.4,8.4s1.8,4,0.8,6.5c-0.8,2.1-0.5,4.3,4,4.2c-6.6,2.4-3.9,6.8-4.8,10L401,86.9z"/>
<path class="st50" d="M368,0.1c0,3.2,3.3,0.4,4,2.3c-2.9,2.1-3.2,4.2-0.9,7.1c-2.3,1.6,3.4,4.5-1,5.8c-1.3,0.3-2.3,1-0.5,2.3
	c0.7,0.4,1.2,0.8-0.3,1.4c-3.5,1.5-2.8,4.7-1.7,7.2c2.4,5.5,2.6,5.4-0.1,10.8c-0.3,0.6-0.2,1.3,0.4,1.6c0,0,0.1,0,0.1,0.1
	c2.7,1.7,1.8,5.2,3.7,7.3c0.3,0.4,0.8,0.8,0.1,1.1c-5.6,2.2-1.7,6.4-1,8.8c1.6,5.8-1,10.9-1.2,16.2c0,0.2-1.3,0.7-0.8,1.3
	c3.6,4-1,5.9-2.1,9c0.8,0,1.6,0.1,2.4,0.3c0.8,0.4,2-1.4,2.4,0.5c0.3,1.7-0.5,1.7-2,1.6c-1.1-0.1-1.4,1.2-1.5,2.2h-6
	c-1.9-5.3-1.6-11-2.9-16.4c-0.6-2.2,0.1-4.6,1.9-6.1c1.7-1.6-0.4-4.6,0.8-6.8c0.2-0.4,0.4-0.8,0.6-1.2c-1.5-3.6-1.5-7.5-2.3-11.3
	c-0.7-2.9-1.8-5.9,2.4-7.2c0.5-0.1,0.1-1.2-0.1-1.8c-0.2-0.4-0.4-0.8-0.6-1.2c-4.6-6.2-1.4-12.8-0.3-19.1c0.5-3,1.5-5.5-0.1-8.5
	c-1.2-2.2-1.4-5,0.6-7.2L368,0.1z"/>
<path class="st51" d="M362.8,56.9c0.4,2.1-2,4.4,1.2,6.2c1.1,0.6-1,1.2-1.5,1.8c-1,0.9-1.6,2.2-1.6,3.5c-0.7,6.3,2.6,12.3,1.1,18.5
	h-6c-0.5-1.3-1.1-2.6-1.8-3.9c-0.8-1.2-3.8-2.2,0.6-2.4c2.2-0.1,0.5-2.4,0.3-3.6c-0.1-1,0.3-3.3-1.8-0.7c-0.4,0.5-0.3-2.3,0.1-2.6
	c2.3-1.9,1.1-2.9,0-5c-1.2-2.3-1.6-5.8,1.3-8c0.9-0.7,1.7-1.6,2.9-2.8c-4.9-1.6-4-4.6-3.3-8.6c0.6-2.9,3.3-6.5-0.2-10
	c-1-1,0.7-4.9,0.3-6.2c-1.1-3.4,1.3-4,2.8-5.4c-2.3-2.3-4.2-4-3.7-8.2c0.7-6.4,2.1-12.8,1.4-19.4h7c0.5,2.8-1.2,5.8,1.4,8.3
	c0.8,0.8,1.1,2,0.8,3.1c-2.4,4.4-1.3,9.8-2.9,13.8c-1.8,4.6,1.4,6.5,1.6,9.7c1.3,3.1,1.1,2.9-1.6,4.4c-1.5,0.9-0.6,2.7-0.6,4.3
	c0,2.5,3.4,4.8,0.4,7.5c-0.4,0.4,0.1,0.6,0.9,0.8C364,52.7,364.3,54.9,362.8,56.9c-0.3-0.1-0.6-0.3-0.9-0.5c0.2,0.2,0.4,0.3,0.7,0.4
	c0.6,0.2,0,0.8,0.4,0.3C363.1,57,362.9,56.9,362.8,56.9z"/>
<path class="st52" d="M386,50.1c-1,3.6-1.5,7.2,1.6,10c-1.6,1.7-2.6-1.8-4.2,0.4c1.7,1.8,2.9,3.8,1.2,6.5c-0.9,1.4,0.1,2.9,0.7,4.4
	s4.5,4.1-0.1,5.8c-0.2,0.2-0.4,0.4-0.5,0.7c4.4,4-1,6.1-1.8,9h-5c-0.6-4.3,0.1-8.6-1.1-12.9c-0.4-1.2-0.2-1.9,1.1-2
	c0.6,0.6,0.6,1.5,1,2.1c-0.2-0.8-0.5-1.5-1-2.1c2.5-2.8-1.8-4.8-1-7.7c0.2-0.9,0.1-2.3,1-2.6c4.1-1.8,0.1-4,0.4-5.9
	c-1.3-0.2-1-1.7-0.9-1.9c3.9-5-1.5-11.2,2.1-16.2c0.2-0.5,0.1-1-0.1-1.4c-1.7-3.9-1.8-3.9,1.1-7.1c-4.7-0.3-4.4-4-3.5-6.5
	c1.3-3.4-0.8-7,1.4-10.4c1.5-2.3-2.3-3.9-3.4-6.4c7.6,1.9,2.8-3.8,4-5.8h8c-0.4,2.5-2.7,4.6-2.3,7.2c0.4,3.2-0.1,7,4,8.8
	c-4.4-1.3-3.4,1.7-2.4,3c2,2.7,1.2,4.4-1,6.2c-2.9,2.3-0.8,5.5,0.1,7.1c1.9,3.4,1.8,5.6-0.3,9c-1.4,2.2-0.4,5.9-0.5,9L386,50.1z"/>
<path class="st48" d="M262,336.1c-1.9,3.1-6.3,5.6-2.7,10.2c0.3,0.4,0.5,0.9,0.4,1.4c-1.4,6.4-1.4,6.4,1.5,11.9
	c0.1,0.2,0.2,0.5,0.3,0.7c-3.4,1.7-0.3,5.5-1.1,6.3c-4.1,4.1-1.6,8.9-1.2,12.9c0.3,3-4.4-0.3-1.9,2.2c0.9,0.9,1.9,2.3,3.6,2.3
	c0.1,0.5,0,1-0.1,1.4c-3,5.5,0.5,11.3-0.5,16.6c-0.7,3.8,0.8,8.3-2.4,11.6c0.7,2,3.1-1.1,3.5,1c0.3,1.6-1.5,1.3-2.2,2
	c-1.2,1.2,0.9,1.3,1,2.2H250c-0.4-3.1,1.6-4,5-4.1c-2.1-0.9-3.2-2-2.6-3.2c1.4-3.1,0.2-5.5-1.3-8.1c-0.5-0.8-1.6-2.4,1.4-2.1
	s1.2-3.2,0.9-3.6c-1.6-2.1-2.2-4.7-1.7-7.3c0.6-2.9-2.3-1.6-2.8-3.5c5.9-0.7,4.2-5,3-8c-2-4.6,0.5-8.8,0.5-13.2
	c-0.1-3.8,1.7-8.2-0.5-11.4c-2-2.9-1.5-4.6,0.1-6.8c1.1-1.5-0.4-2.2-0.9-2.9c-2.2-2.9-1.8-5.7,0-8.6L262,336.1z"/>
<path class="st53" d="M331,0.1c-1.9,4.1,0.2,7.7,1.2,11.4c0.3,1,0.9,1.8-0.2,2.5c0.3,1.5-0.5,2.2-1.8,3c-0.9,0.6-2.1,2.2-0.6,3.3
	c1.8,1.4,5.2,2.1,0.4,4.3c-0.7,0.3,1.9,2.9,4.6,3.8l-5.8,2.7c1.4,2.4,7.8,4.2,0.7,7.2c-0.7,0.3-1.5,0.9-0.1,1.7
	c2.3,1.4,1.2,3.9,0.8,5.5c-0.8,3.6,0.2,6.1,3.5,8.6c-3.3,0-4.4,1-2.9,4c1.2,2.2,0.3,4.9-0.5,7.2c-0.3,1-1.2,2.1-1.1,3.1
	c0.2,2.4,1.7-0.8,2.4,0.4c0.1,0.1,0.3,0.4,0.3,0.4c-3.6,3.1,1.2,6.9-1,10.5c-1.1,1.7-3,4.8-0.1,7.1h-7c-0.5-2.4-1.9-4.6,0.9-7
	c2.5-2.2,0.1-2.7-1.9-2.8c0.5-2.8,1.2-5.6-0.5-8.4c-1.4-2.3-2.5-5.6,2.7-3.5c0.1-3.1-4.7-4.8-0.9-8.3c1.6-1.5-3.2-2.9-1.9-5.7
	c0.4-0.9-1.1-2.8,1.6-1.6c1,0.4,1.9-1.5,1.2-2c-1.6-1.2,1.4-3.4-0.8-3.8c-2.6-0.4-2.1-2-1.3-3c3.5-4.2,1.2-9.4,2.7-13.9
	c0.8-2.4-2-3.3-4.2-4.3c0.3-1.2,5.1-0.8,1.3-3.5c-1.9-1.4,2.4-2.7,0.4-5.2c-0.8-1,0.2-4.1-1.9-5.7c3.7,0.1-0.2-4.8,3.4-5
	c0.9-0.1,0.9-2,0.3-3.1L331,0.1z"/>
<path class="st0" d="M90,418c1.4-0.1,3.4-2.4,4.1,0.9h-4C90.1,418.6,90,418.3,90,418z"/>
<path class="st54" d="M585.9,36.1c2.3-2.2,0.2-2.5-1.2-3.6c-3.3-2.5-3.2-2.6,0.3-6c-1,3.6,2.2,4,3.6,5.7c0.8-2.2,3.1-4.3,1.2-7.1
	c-0.3,0-0.5,0-0.8,0.1c-1.6,0.7,0.3,4.2-1.8,3.6c-2-0.6-0.8-3.5-0.6-5.2c0.4-2.8,0.5-8.2-0.9-11c-0.5-0.9,0-1,0.5-1.3
	c3.3-2.9,3.3-2.9-0.9-5.1c1-1.4,5.2-1.8,1.8-4.8c10.7,0.4,20.9,3.2,30.8,6.9c20.8,7.7,36.2,21.6,45.9,41.5
	c5.8,11.9,8.7,24.8,10.4,38c0.9,7,0.8,13.9,0.8,20.8c0.1,71.8,0.6,143.5-0.3,215.3c-0.3,26.1-8.8,50.3-28.3,69.1
	c-12.8,12.4-28.6,19.3-45.9,23c-4.8,1-9.5,2.7-14.5,1.9c0.3-1.9-0.8-2.9-2.6-3.8c2.5,0,3.2-4.6,6.5-1.9c0.2,0.2,0.4-2.1-0.1-3.6
	c-0.7-1.9-1.3-3.1-3.4-2c-0.8,0.5-1.3,1.7-1.9,2.6c-0.7-3.5-0.7-3.5,4.7-4.6c0.4-2-5.3-3.2-0.8-6c0.2-0.1-2.9-2.8-5.3-3.2
	c1.8-3.9,3.6-5.7,6.7-1.2c-0.6-2.1-1.2-4.2-1.8-6.2c-0.2-0.6-0.4-1.2-0.6-1.9c-0.2-1.2,3.9-1.6,0.6-3.5c-2.2-1.2-3.2,0.5-4.8,2
	c-0.1-4.3,3.3-7,3.4-10.9c0-0.9,1.7-1.3,3-0.9c0.7,0.2,1.8,0.5,1.7-0.9c-0.1-0.9-0.7-1.4-1.8-1.1c-6.5,1.7-6.8,0.2-2.2-4.2
	c1.6-1.5-1.6-3.1-0.7-5c1.5-0.6,1.3,1.8,2,1.4c0.7-0.7,1-1.6,1.1-2.5c-4-2.6,0.7-3.6,1.1-3.6c2-0.2,2.5-0.8,1.4-2.4
	c-1-1.4-2.5-2.7-3.9-1c-0.8,0.8-1.6,1.5-2.6,2c-0.6,0.4-1.1,1.5-2,0.4c-0.7-0.9,0.1-1.4,0.7-2c3.5-3.8,6.8-7.6,2.8-13.1
	c-0.5-0.7,1.8-2.1,1-4.1c-1.1-2.7,0.9-5.9-0.7-8.5c1,0.3,0.7-0.8,0.8-0.1c0,0.1-0.2,0-0.4,0.1s-0.6,0.1-0.8-0.1
	c0.2,0.3,0.5,0.4,0.4,0.1c-1.1-4.1-1.1-4.1,3.4-5.3c-1.2-4.5-2.2-9.3-6.9-11.9c5.7-9.5,8-20,8.1-30.9c0.1-43.1-0.1-86.2,0.1-129.4
	c0.1-12.3-1-24.2-6.2-35.5c3-1.6,1.5,2.1,3.3,2.6c0-1.9,2.1-3.8-0.4-5.4c-1.6-1.1-0.5-0.8,0.3-1.2c4.6-2.4-1.2-4.1-0.5-6.3
	c-0.7,0.2-2-0.5-1.6,1.5c0.4,1.5-0.5,3.1-2,3.5c-0.5-2.9-0.9-5.7-1.3-8.5c1.7-1.6,2.2,3.1,3.8,0.7c1.1-1.6,0-2.3-1.2-3.7
	c-2-2.5,2.6-2.4,3-4.4c-4.8-2.3-6.4-9.4-3-13.1c1.3-1.4,0.7-2.5-0.5-3.8c-0.9-0.9-3.9-1.9-0.6-3.7c1.1,0.7,1.9,0.3,2.9,0.3
	c-1-0.8-2.2,0.8-2.9-0.3c0.2-1.4-1.5-2.5-0.4-3.8c1.8-2.2,1.1-4-2-5.3c2.7-1.3,4,1.3,6.3,0.2c-4.6-2.1,0-6.6-3-9.2
	c3.7-1.3,1.4-4.8,2.4-7.2c1.7-4-5.8,1.7-4.3-3.8c2.4,0.2,2.9-3.4,5.5-4.1C589,38.1,587.5,37,585.9,36.1z"/>
<path class="st30" d="M197.1,201c-1,1.7-1.9,0.7-2.7-0.2c-2.7-2.9-5.6-5.5-8.8-7.9c-3.7-2.5-5-6-4.7-10.6c0.3-6,0.3-11.9,0-17.9
	c-0.1-2.9,0.9-3.7,3.7-3.6c4.5,0.2,8.9,0.2,13.4,0.2c0.5,0.2,1.1,0.8,1,0.9c-3.6,3.4,0.3,7.1-0.6,10.7c-1,4-0.4,8.3,1.6,11.9
	c0.5,0.9,0.9,2.3,0.1,2.8c-4,2.5-2.9,6.2-2.4,9.7C198,198.6,197.2,199.7,197.1,201z"/>
<path class="st42" d="M442.9,193.9c4.6-1.5,12.1,0.9,15.3,4.8c4.4,5.3,5,12.8,1.6,18.8c-3.3,5.6-9.2,9.4-18.8,7.3
	c-0.1-5.1,0.9-6.8,3.7-6c-4.9-4.5-4.9-4.8-1-9.1c-3.8-1.4-6-7.4-3-9.2c2-1.2-0.6-5.4,3.4-4.3C444,195.3,442.2,195.2,442.9,193.9z"/>
<path class="st29" d="M197.1,201c-0.9-3.2,0-6.7-1.4-9.9c-0.3-0.8,0.1-1.6,0.8-1.9c0.1,0,0.1,0,0.2-0.1c4.6-2,2.9-4.9,0.6-7.3
	c-2-2.1-0.2-4.2-0.3-6.1c-0.2-3.8,1-7.6-1.3-11.3c-0.4-0.7-0.3-2.2,1.8-1.2c1.3,0.6,0.8-1.2,0.5-2.1c13-0.7,13-0.7,13,11.9
	c0,4-0.2,8,0.1,11.9c0.4,2.5-0.8,5-2.9,6.3C204,194,201,198,197.1,201z"/>
<path class="st25" d="M510,193.2c9.2,0,16.5,6.4,17,14.2c1,13-7.5,16.9-15.4,18.5c-0.8,0.1-1.8-0.7-2.7-1.1
	c-1.2-0.3-1.8-1.5-1.5-2.6c0,0,0-0.1,0-0.1c0.6-1.9,0.3-4-0.9-5.6c-1-1.4-0.6-3,0.5-4.8c1.8-3.2,5.2-6.9,0.3-10.5
	c-1.2-0.9-0.4-2.2,0.4-3.1C509,196.6,509.4,194.9,510,193.2z"/>
<path class="st34" d="M476.9,257.8c-5.8,0-12.5-4.8-13.9-9.9c-2-7.1,0.5-15.9,5.8-18.8c3.1-1.7,6.3-3.7,10.2-3
	c1.8,2.3,0.3,5.7,2.8,7.9c0.8,0.7-0.3,1.8-0.8,2.6c-1.5,2-2.1,4-0.5,6.3s0,3.1-2.2,3.1c1.4,1,3.3,1.6,2.7,4c-0.3,1.2-1.8,0.7-2.9,2
	c1.6-0.6,2.9-1.2,3.7-0.1s-0.3,2.1-0.8,3.1C480.1,256.8,478.1,256.7,476.9,257.8z"/>
<path class="st29" d="M199.1,219.9c3.1,2.2,5.3,5.4,8.6,7.4c2.5,1.5,3.5,3.9,3.4,7.1c-0.3,6.3-0.3,12.6,0,18.9
	c0.2,3.7-0.8,5.2-4.6,4.7c-1.8-0.2-3.6-0.3-5.5-0.2c-5.4-2.6-5.6-3.1-2.7-8.2c1-1.7,0.2-2.7-0.5-4c-1.8-3-2.7-6-1-9.7
	c0.7-1.5,1.4-4.1-1.3-5.3c-0.6-0.3-0.9-1.4-0.5-1.7c3.1-2.3,1.8-6.4,3.8-9.1C198.9,219.8,199,219.9,199.1,219.9z"/>
<path class="st27" d="M170.1,194.2c2.8-0.8,5.8,0.3,7.3,2.7c3,4.2,8.1,7.1,9.9,11.5c2.1,5.2-5.4,6.6-7.5,10.8
	c-2.2,4.6-6.3,7.1-11.8,5.7c-2.2-1.8-2.9-3.6-1-6.2c1.2-1.7,1.3-4.1,2.9-6.2c0.2-0.2-1.3,0.1-0.7,0.3c0.2,0,0.2,0.2-0.1,0.5
	c-0.9,1-1.6,2.4-3.2,1.6c-1.1-0.6-1.6-1.9-1.1-3c1-2.6-2.2-6.8,3-7.9c0.9-0.2,1.1-1.8,0.5-2.7C166.5,198.2,168.4,196.2,170.1,194.2z
	"/>
<path class="st31" d="M476.9,257.8c0-2.8,4.2-2.4,4-5.4c-1.5-1.3-1.8,1.5-3.7,0.9c4.3-3.7,0.7-6.4-1.4-9.3c2.2-0.9,2.8,2.4,4.2,1.1
	c1.7-1.6-1.3-1.7-1.4-3c-0.1-2-1-3.9,0.8-5.6c0.9-0.9,3.2-2.8-0.7-2.8c-0.3,0-0.7-0.6-1-1c2.9-1.7-0.7-4.7,1.3-6.6
	c9.4,0.9,16.6,8,15.9,16.5C494,252.4,486.5,259.6,476.9,257.8z"/>
<path class="st31" d="M480,161.2c10.8-0.5,18.3,12.9,12.9,23.1c-3,5.5-7.7,8.2-13.9,8.5c-0.8-1.4-4-2.5-0.7-4.6
	c0.1-0.1,0.3-0.2,0.5-0.2c-5-3.1,2.3-8.5-2.2-12c-1.1-0.9-1.6-3.6,1.5-5.6C480.4,168.8,478.7,164.2,480,161.2z"/>
<path class="st28" d="M199.1,219.9c0.5,1.6-2.7,3.6,0.9,4.9c1.1,0.4-0.5,1-1.1,1.3c-1.4,0.6-2.8,1.2-3.2,2.8
	c-0.2,0.7,0.1,1.5,0.9,1.3c0.4-0.1,0.7-0.9,1.2-1.6c0.9,2.1-1.2,4.5,1.1,6.2c0.6,0.5,0.8,1.1,0.1,1.6c-3.6,3-1.7,5.8,0.2,8.7
	c1.2,1.9,3.4,4-0.4,5.9c-2.5,1.2-1.5,3.3,0.1,4.6c0.8,0.7,2.3,0.6,2.3,2.1h-14c2.7-4.6,1.6-8.8-1.3-13c-1.4-2.2-1.4-5,0-7.2
	c2.5-4,3.3-8.8,2.3-13.4l6.9-6.3c1,0.3,2.1,0.7,3.2,1.1L199.1,219.9z"/>
<path class="st26" d="M510,193.2c0.2,1.3,0.9,3.5,0.6,3.7c-4,2-1.7,3.8,0,5.6c1.3,1.4,1.8,2.6-0.1,4c-0.8,0.6-1.5,1.7-0.8,2.6
	c1.6,2.1,0.7,2.8-1.3,3.3c-1,0.3-2.3,0.8-1.1,2.2c2.5,3.1,1.3,6.8,1.7,10.2c-10.3,0.5-15.4-12-13.6-18.7
	C497.3,198.5,502.3,194.3,510,193.2z"/>
<path class="st23" d="M170.1,194.2c0.2,0.7,1.3,1.9,0.4,2.1c-3,0.7-2.2,1.9-1.1,3.8c1.8,2.9,1.6,5.2-2.6,5.1c-1.3,0-0.7,0.7-0.8,1.1
	c-0.2,2.6,0.9,5.2-0.3,8c2.6-0.5,2.7-2.4,3.7-4.4c2.4,5.7-3.9,10-1.4,15h-13c-0.6-2.5-3.8-5.1,0.5-7.4c0.7-0.4,1.2-1,2.2-0.6
	c0.7,0.3,0.5,1.2,1.2,1.4c0.1-0.8,0.1-1.8-0.7-2.2c-3.2-1.6-4.8-3.4-2.1-6.9c1.1-1.5-2.1-3-0.8-5c0.6-1,0.2-2.3,1.1-3.2
	c0.3-0.3,2.1,0.6,0.7-1.3c-1.5-2.1-1.9-4.6,2.1-4.7c0.7-0.1,1.3-0.3,1.9-0.7H170.1z"/>
<path class="st36" d="M234,194.2c11-0.6,11-0.6,11,10.4c0,5.3-0.2,10.6,0.1,15.9c0.2,3.8-1,5.1-4.7,4.6c-1.8-0.2-3.6-0.2-5.5-0.2
	c-2-0.3-2.9-1.4-2.6-3.5c0.8-5,1.3-9.8,0-15.1C231.4,202.7,233.3,198.2,234,194.2z"/>
<path class="st20" d="M161,194.2c-0.8,2.1-3.4,0.9-4.2,3c1.5,0.4,1.2,3.1,4.4,3c-4,1.3-3,3.4-3.7,6.8c-1,4.6-0.9,7.4,2.9,10
	c0.1,0.1-0.3,2.1,0.3,3.3c-2.1-1.3-3.6-1.3-6.9,0c1.4,1.2,4.4,2,1.4,4.5c-0.3,0-0.6,0.1-1,0.1c-7.1,0.2-7.1,0.2-7.1-7
	c0-6.8,0.1-13.6,0-20.4c-0.1-2.8,0.8-3.9,3.6-3.6C154.1,194.2,157.5,194.1,161,194.2z"/>
<path class="st35" d="M442.9,193.9c0.9,1.3,3,2.3,1.8,4.1c-0.9,1.5-1.3,1.5-0.4,2.8c-1,1.9-3.1-2-4,0.7c3.7,0.9-3.4,7.5,3.5,6.7
	c1-0.1,1.9,0.6,2,1.7c0,0.1,0,0.1,0,0.2c0.1,2-1,1-1.9,0.6c0.2,1.7-4.6,2.8-0.4,5.1c1.1,0.6,1.9,1.5,2.4,2.6
	c0.2,0.5,0.3,1.4-0.5,1.6c-2.9,0.8-2.9,0.8-4.4,4.7c-5.7-1.4-10-6.1-10.9-11.9c-1.4-7.2,1-13.3,7.2-17.6
	C439,194.2,440.9,193.7,442.9,193.9z"/>
<path class="st41" d="M268,252.1c0.6,1.2,0.9,2.4,0,3.6c-0.6,0.7-0.8,0.8-0.1,1.5s0.1,1.1-0.2,1.6c-1.3,1.7-2.9,3.2-0.3,5.2
	c0.7,0.6,0.4,1.6-0.7,1.8s-1.2,0.9-0.8,1.8s1.2-0.1,1.5,0.1c3.2,1.7,1.9,5.6,1,6.5c-4.2,4.7-0.4,9.8-1.5,14.5
	c-5.6-3.3-10.1-7.2-11.2-14.4C254.3,264.4,259.5,255,268,252.1z"/>
<path class="st18" d="M480,161.2c2.1,3.5-1.1,7.2,0.2,10.8c0,0.1-0.5,0.4-0.8,0.5c-2.3,0.8-3.1,2.5-1.7,4.3c2.3,3,2.9,5.7-0.3,8.4
	c-1.1,1,0.2,0.8,0.5,0.9c1.8,0.1,3.3,1.4,3.8,3.1h-4c0.5,1.4,1.5,2.4,1.2,3.8c-4.3,0.4-7.8-1.4-11.1-3.8c-0.3-1.1-0.2-2.3,0.2-3.4
	c1.8-3.6,4-7.1-0.2-10.5c-0.2-0.2-0.4-0.7-0.3-0.9c2.5-3.4,2.1-7.6,3.4-11.3C473.5,160.2,476.8,161.1,480,161.2z"/>
<path class="st55" d="M216,195.9c2.8-3.7,6.7-1.3,10-1.7c1,2.4,0.1,9.7,1,12.3c2.2,6.7-2.8,12.2-2,18.4c-4.2,0.4-8.5,1-11-3.7
	c4.6-3.8,3-8,1-12.5c-1.1-2.5-2.3-5.4,1.4-7.7C218.5,199.6,214,197.8,216,195.9z"/>
<path class="st40" d="M225,224.8c-2.2-5.2,0.5-9.8,1.8-14.6c0.4-1.6,1.8-4-2.7-2.4c2.9-2,4-3.3,1.6-6.2c-1.2-1.4,0.1-4.9,0.3-7.5
	h8.1c1,2.9,0.5,5.6-0.3,8.5c-0.7,2.3-1.5,4.8,1.1,7.3c1.1,1.1-0.1,4.7-0.4,7.1c-0.3,2.7-2.3,5.4,0.6,7.9L225,224.8z"/>
<path class="st30" d="M188.1,224.2c2.2,3.9,2.7,7.3-0.4,11.6c-2.7,3.7-2.4,8.5,1.3,12.2c1.3,1.3,1.1,2.6,1,4.5
	c-0.1,2.8-2.3,3.5-2.9,5.4c-4.6,1.1-6.6-0.3-6.1-5.4c0.5-5,0.5-10,0-14.9C180.2,231.1,183,227.1,188.1,224.2z"/>
<path class="st33" d="M216,195.9c0.1,1,0.2,2.2,1.2,2.5c3,1,2.1,2.7,0.3,3.4c-4.1,1.4-1.6,4.2-1.7,6.5c-0.1,1.2,0.9,2.4,1.4,3.6
	c2.2,5.9,2.1,6.6-3.2,9.3c-4.4-3.1-6.3-8.4-11.2-11.5C208.1,205.5,210.9,199.6,216,195.9z"/>
<path class="st56" d="M470.9,162.9c-0.2,0.8-0.9,2.1-0.7,2.2c3.8,2.8,0.7,5-0.8,6.9c-1.3,1.6-1.3,2.7,0.2,3.6c3.8,2.1,2.4,5,0.9,7.4
	c-1.2,1.9-1.5,4.1-2.8,6C459.3,181.6,460.4,167.3,470.9,162.9z"/>
<path class="st29" d="M198.1,219c-1.4,0.8-2.6,0.7-3.1-1.1C196.8,215.9,197.2,218.1,198.1,219z"/>
<path class="st16" d="M556.9,332.8c-0.1,3-1.2,2.9-3,1C554.5,332.5,555.9,333.2,556.9,332.8z"/>
<path class="st54" d="M582.7,52.5c1.7,0.2,3.2,0.7,3.1,2.6c0,0.5-1,1.3-1.3,1.2C582.5,55.9,583.9,53.5,582.7,52.5z"/>
<path class="st54" d="M585.9,36.4c-0.2,0.7-0.4,1.4-1.2,1.3c-0.4-0.1-0.8-0.4-1-0.8c-0.2-1,0.7-0.8,1.2-0.8
	C585.3,36.1,586,35.6,585.9,36.4z"/>
<path class="st9" d="M107.3,37.1c-1.6-0.2-2.8-1.4-3-3c-0.4-1.3-1.4-3.3,1-3.4c2.9-0.1-0.1,1.8,0.5,2.7
	C106.4,34.6,106.9,35.9,107.3,37.1z"/>
<path class="st0" d="M95.1,49.5c-1,2.6-2.6,2.9-4.6,3.5C91.2,50.3,92.9,50.2,95.1,49.5z"/>
<path class="st0" d="M91.6,26.7c-0.2-1.5-0.3-2.6,0.5-3.4c0.1-0.2,1.1,0.1,1.2,0.2C93.6,24.8,92.9,25.6,91.6,26.7z"/>
<path class="st0" d="M95.1,81.7c0.4,1-0.1,1.3-0.6,1.2c-0.6-0.1-1.2-0.4-1.6-0.9c-0.5-0.6,0.2-0.9,0.7-0.9
	C94.1,81.3,94.6,81.5,95.1,81.7z"/>
<path class="st0" d="M92.5,42.5c0.3,0.2,0.8,0.5,0.9,0.8c0.2,0.7-0.4,1.2-0.9,1.5c-0.9,0.5-0.6-0.5-0.8-0.7
	C91.3,43.4,91.7,42.9,92.5,42.5z"/>
<path class="st0" d="M94.1,34.8c0.1,0.3,0.4,0.8,0.4,1.1c-0.1,0.6-0.8,1-1.4,0.9c0,0,0,0-0.1,0c-0.1,0-0.3-0.6-0.2-0.8
	C93,35.4,93,34.7,94.1,34.8z"/>
<path class="st0" d="M95.1,14.7c0.2,0.2,0.4,0.4,0.6,0.6c-0.3,0.5-0.7,1-1.2,1.4c-0.5,0.3-1,0-0.7-0.7
	C94.2,15.5,94.6,15.1,95.1,14.7z"/>
<path class="st0" d="M91.8,66c1.4,0.1,2.8-0.2,4.5,1.1C94.7,67.5,93.1,67.1,91.8,66z"/>
<path class="st9" d="M105.1,50.1l-4.3,0.2C102.7,48.8,103.9,48.8,105.1,50.1z"/>
<path class="st0" d="M90,355.9c1-0.6,2.1-1.1,3.2-1.4c0.9-0.1,3.1-0.5,1.1,1.9s3.6,0.1,2,2.7C92.5,358.8,92.5,358.8,90,355.9z"/>
<path class="st0" d="M91.6,367c1.3-2.3,2-4.4,4.6-5.1C95.3,364.3,94.4,366.3,91.6,367z"/>
<path class="st9" d="M106.1,349.8c-1.4,0.2-1.9-0.6-2.3-1.6c-0.2-0.3-0.1-0.8,0.3-1c0.1,0,0.2-0.1,0.3-0.1c1.5-0.3,1.7,1.4,2.7,1.8
	L106.1,349.8z"/>
<path class="st0" d="M92,368.9c1.7,0.1,3.1,1.2,3.7,2.8C93.6,371.5,92.8,370.2,92,368.9z"/>
<path class="st0" d="M91.2,405.4c-1.2-1.4,0.1-2.4-0.2-3.5c0.4,0.2,1.2,0.3,1.2,0.5C92.5,403.5,92.1,404.7,91.2,405.4z"/>
<path class="st12" d="M316.9,372c-2.7,1.5-2.7,1.5-4.4-1.7C314.5,369.9,315.2,372.7,316.9,372z"/>
<path class="st16" d="M558.3,343.8c-0.4-1.9-0.8-3,0.1-3.8c0.2-0.2,0.9,0.1,1.4,0.2L558.3,343.8z"/>
<path class="st14" d="M293,369.9l-3,2.9c-1.3-2.2-1.5-4,0.1-5.9C291,367.9,292,368.9,293,369.9z"/>
<path class="st2" d="M108.1,24l3,4.8C108.2,27.7,107,26.6,108.1,24z"/>
<path class="st17" d="M123.5,60.3c-2.2-2.1-2.5-3.3-1.6-4.6c0.4-0.2,0.9-0.2,1.4,0C124.6,57.1,122.6,57.9,123.5,60.3z"/>
<path class="st15" d="M275,360.9l1.5-1.1c0.1,1.8,3.3,2.8,1.5,5.1C276.2,364.2,274.3,363.6,275,360.9z"/>
<path class="st8" d="M283.6,364.3c0.1,0.9-0.3,1.3-0.8,1.1c-0.5-0.3-0.9-0.8-1.1-1.3c-0.3-0.6,0.2-1,0.7-0.8
	C282.9,363.6,283.3,363.9,283.6,364.3z"/>
<path class="st17" d="M120.7,351c-1.3,1.4-1.8,2.8-4,2.8C117.7,352.4,118.1,351.2,120.7,351z"/>
<path class="st13" d="M329.5,267.3c3.6,0.8,3.7,2.5,3.5,4.1c-0.2,1.2-1.4,0.5-1.9,0.4C327.8,271,331.9,269,329.5,267.3z"/>
<path class="st16" d="M555.8,39.1c0.6-1.6,1.8-2.9,3.4-3.4C559.6,38.4,558.2,39.2,555.8,39.1z"/>
<path class="st16" d="M557.7,21.1c1.4,0.1,2.7-0.2,4.5,1.1C560.6,22.5,559,22.1,557.7,21.1z"/>
<path class="st11" d="M332.8,318.4c1.1,0.1,1.2,0.8,1.2,1.4c-0.1,0.4-0.2,0.9-0.4,1.2c-0.4-0.5-0.8-1-1-1.5
	C332.3,319.2,332.6,318.8,332.8,318.4z"/>
<path class="st8" d="M293,369.9c-1.5,0.1-2.9-1-3-2.6c0-0.1,0-0.3,0-0.4l3-2.6V369.9z"/>
<path class="st7" d="M300.4,396c-0.8,2.1,0.5,3.9-1.6,4.5c-0.3,0-0.6-0.1-0.8-0.4C297.5,398.4,299.4,398,300.4,396z"/>
<path class="st10" d="M275,360.9c0.5,1.7,1.8,2.8,3,4C274.1,365.8,272.8,364.6,275,360.9z"/>
<path class="st10" d="M276.6,386.3c-2-0.2-2.3-1.3-2.1-3C276.6,383.6,275.7,385.6,276.6,386.3z"/>
<path class="st10" d="M274.9,380.2c0.2,0.2,0.4,0.5,0.6,0.7c-0.3,0.3-0.6,0.8-1,0.9s-1.1-0.1-0.8-0.8
	C274,380.6,274.5,380.5,274.9,380.2z"/>
<path class="st6" d="M557,74.3l-4.1-3.3C556.3,70.8,556.3,70.8,557,74.3z"/>
<path class="st6" d="M555.4,62c-0.3,0.4-0.5,0.8-0.7,0.7c-0.8,0-1.6-0.5-2-1.2c0.3-0.1,0.6-0.4,0.9-0.3
	C554.2,61.4,554.8,61.7,555.4,62z"/>
<path class="st9" d="M119.2,367.3c4.4-1.3,4.7,1,6,3.5C122.5,369.9,121.9,367.6,119.2,367.3z"/>
<path class="st9" d="M124.5,21.9c-1.6-0.3-2.9-1.3-3.5-2.8c0.7-0.3,1.6-0.9,2.2-0.7C125.4,18.9,124.2,20.5,124.5,21.9z"/>
<path class="st21" d="M130.9,4.6h4.7C134.2,6.5,133,6.2,130.9,4.6z"/>
<path class="st21" d="M133.6,30.9c-0.6,0.3-1,0.7-1.3,0.6c-0.8-0.3-1.2-1.1-1.1-1.9c0-0.5,0.3-1,0.8-0.5
	C132.6,29.7,133.1,30.3,133.6,30.9z"/>
<path class="st9" d="M121.3,78.8c0.1,0.5,0,1.1-0.6,0.9c-0.6-0.2-1.1-0.7-1.4-1.2c-0.6-0.9,0.4-0.7,0.7-0.8
	C120.9,77.4,121.1,78.2,121.3,78.8z"/>
<path class="st22" d="M536.4,33.1l-4.4,1.1c0-0.5-0.2-0.8,0-1C533.1,31.6,534.3,31.9,536.4,33.1z"/>
<path class="st16" d="M544.2,9.2c-2.2,1.3-3.2,0.8-4.1-1.1C541.8,7.5,542.8,8.7,544.2,9.2z"/>
<path class="st23" d="M156,12.8c0.1,0.3,0.4,0.8,0.4,1.1c-0.1,0.6-0.8,1-1.4,0.9c0,0,0,0,0,0c-0.1,0-0.3-0.6-0.2-0.8
	C154.9,13.4,155,12.7,156,12.8z"/>
<path class="st20" d="M144.7,348.5c-1.4-1.3-1.9-3.4-1.3-5.2C144.7,344.9,146,346,144.7,348.5z"/>
<path class="st25" d="M519.7,22.5c1.7,1.8,3.5,2.3,2.8,4.2c-0.1,0.3-0.9,0.8-1.1,0.7C519.3,26.5,520.3,24.6,519.7,22.5z"/>
<path class="st25" d="M508,46c-0.3-1.4-0.6-2.6,0-3.7c0.1-0.2,0.6-0.1,0.9-0.2C508.7,43.2,510.3,44.6,508,46z"/>
<path class="st24" d="M503.1,354.6c-0.9,1.1-2.3,1.7-3.8,1.5C500,354.6,501.2,354.8,503.1,354.6z"/>
<path class="st24" d="M501.7,406.4c0.7,0,1,0.5,0.8,1c-0.3,0.5-0.8,1-1.4,1.2c-0.3,0.1-0.8-0.4-1.2-0.6L501.7,406.4z"/>
<path class="st25" d="M510,344c-0.1-0.9-2-0.9-1.1-2.1c0.6-0.9,1.4,0,2.1,0.1C511.5,343.1,511.8,344,510,344z"/>
<path class="st27" d="M180,44.9c2.1,0.8,1.3,2.3,1.8,3.7C179.8,47.8,180.1,46.4,180,44.9z"/>
<path class="st26" d="M510,344c0.7-0.4,1.1-1.2,1-2l3.8,2.2C512.4,344.1,511.2,345.6,510,344z"/>
<path class="st26" d="M513.2,382.2c-0.9,1.3-2.1,1.8-2.7,0.5c-0.8-1.7,0.9-0.4,1.4-0.7C512.1,381.8,512.7,382.1,513.2,382.2z"/>
<path class="st27" d="M180.8,363.1c-1.6,0.8-2.8,1.9-3.5,0.7c-1-1.5,0.7-0.7,1.2-0.8C179.3,362.9,180,363,180.8,363.1z"/>
<path class="st38" d="M226.4,52.8c1.2,1.2,2,2.3,1,3.8c-0.3,0.3-0.8,0.4-1.2,0.3C225.3,55.5,226.1,54.2,226.4,52.8z"/>
<path class="st38" d="M228.5,19.7c-1.1,1.6-2.3,1.3-3.4,1.4c0.1-0.7-0.1-1.6,0.3-1.9C226.4,18.2,227.4,19,228.5,19.7z"/>
<path class="st48" d="M262.6,390.2l-0.8,1c-0.2-0.3-0.7-0.7-0.7-1s-0.5-1.5,0.7-1.3C262.1,389,262.3,389.7,262.6,390.2z"/>
<path class="st53" d="M324.7,78.6c-0.6,0.4-1.3,0.7-2,0.9c-0.6,0.1-1.2-0.3-1.4-0.9c0,0,0-0.1,0-0.2c-0.1-0.5,0.2-1.1,0.8-1.2
	c0.1,0,0.3,0,0.4,0C323.3,77.5,324,78,324.7,78.6z"/>
<path class="st46" d="M394.2,47.7c0.2,0.6,0,1.2-0.5,1c-0.6-0.2-1.1-0.7-1.5-1.2c-0.6-0.9,0.5-0.7,0.7-0.8
	C393.8,46.4,394,47.2,394.2,47.7z"/>
<path class="st46" d="M396.2,43.2c-0.4,0.1-0.9,0.5-1.3,0.4c-0.3,0-0.6-0.3-0.5-0.6c0-0.2,0.1-0.3,0.2-0.4c0.4-0.2,0.9-0.3,1.3-0.3
	C396,42.3,396.1,42.8,396.2,43.2z"/>
<path class="st52" d="M386.9,48.1c0.3,0.8,1.8,0.1,1.8,1.2c0,0.7-0.5,1.2-1.2,1.2c0,0-0.1,0-0.1,0c-0.8-0.1-1.7-0.2-1.4-1.4
	C386.1,48.6,385.8,47.6,386.9,48.1z"/>
<path class="st10" d="M283,70.1c0.3-2,1.8-2.2,2.6-3.6C286.5,69.5,285.2,70.1,283,70.1z"/>
<path class="st8" d="M292.5,77.4c0.4,0.5,0.6,1.1,0.8,1.7c0,0.3-0.2,0.6-0.5,0.6c-0.2,0-0.3,0-0.5-0.1c-0.4-0.3-1.5,0-1.1-1
	C291.4,78.2,291.9,78,292.5,77.4z"/>
<path class="st8" d="M294.5,18.9c-0.3,0.4-0.5,0.9-0.7,1s-0.8-0.3-1.1-0.5l0.8-1.6L294.5,18.9z"/>
<path class="st8" d="M283.4,50.8l-1.5-1.1c0.3-0.2,0.8-0.6,1-0.5c0.5,0.3,1,0.7,1.5,1.1L283.4,50.8z"/>
<path class="st41" d="M269.6,41.2c1,0.3,0.9,0.9,0.5,1.5c-0.3,0.5-0.7,1-1.1,1.4c-0.1-0.6-0.2-1.2-0.3-1.8
	C268.5,41.3,269.1,41.3,269.6,41.2z"/>
<path class="st37" d="M424.9,21.1c0.4-1.8,1-2.9,2.4-3.1c0.1,0,0.6,0.7,0.6,1C428,21,426.5,21.1,424.9,21.1z"/>
<path class="st35" d="M432.6,77.6c-0.8-0.1-1.3-0.5-1-1.3c0.1-0.3,0.9-0.7,1.1-0.6c0.5,0.4,0.9,0.9,1.3,1.4L432.6,77.6z"/>
<path class="st50" d="M363.5,57.4c-2-0.7-3.2-0.7-3.6-1.9c0-0.1,0.4-0.5,0.7-0.6C362.6,54.2,362.2,56.3,363.5,57.4z"/>
<path class="st50" d="M363,35c-0.2,1.7-0.8,2.5-2.3,2.9C360.9,36.2,362,35.7,363,35z"/>
<path class="st43" d="M378,75.9v-3.9c0.9,0.4,1.8,0.9,1.3,2.1C379,74.8,378.5,75.4,378,75.9z"/>
<path class="st13" d="M330.8,14.7c-0.7,0.2-1.3,0.1-1.1-0.5s0.6-1,1-1.4c0.4,0.3,0.9,0.5,1.1,0.9C332.3,14.9,330.6,13.8,330.8,14.7z
	"/>
<path class="st1" d="M589.8,74.2H585C587.3,71.9,587.3,71.9,589.8,74.2z"/>
<path class="st1" d="M588.6,325.7c0.4,1.2,0.6,2.7-0.4,2.8c-2.4,0.2-0.3-1-0.3-1.6C587.9,326.5,588.3,326.2,588.6,325.7z"/>
<path class="st38" d="M219.2,13.1c7.7,0,7.7-12,0-12S211.5,13.1,219.2,13.1z"/>
<path class="st38" d="M224.5,12.4c7.7,0,7.7-12,0-12S216.8,12.4,224.5,12.4z"/>
<path class="st38" d="M227.7,14.8c7.7,0,7.7-12,0-12S220,14.8,227.7,14.8z"/>
<path class="st38" d="M229.4,21.6c7.7,0,7.7-12,0-12S221.6,21.6,229.4,21.6z"/>
<path class="st38" d="M229.8,32.1c7.7,0,7.7-12,0-12S222,32.1,229.8,32.1z"/>
<path class="st38" d="M225.6,27.5c7.7,0,7.7-12,0-12S217.9,27.5,225.6,27.5z"/>
<path class="st36" d="M245.1,51.6c7.7,0,7.7-12,0-12S237.4,51.6,245.1,51.6z"/>
<path class="st10" d="M283.5,66.4c7.7,0,7.7-12,0-12S275.7,66.4,283.5,66.4z"/>
<path class="st4" d="M307.8,81.7c7.7,0,7.7-12,0-12S300.1,81.7,307.8,81.7z"/>
<path class="st12" d="M322.3,83.5c7.7,0,7.7-12,0-12S314.5,83.5,322.3,83.5z"/>
<path class="st12" d="M323.7,71.7c7.7,0,7.7-12,0-12S316,71.7,323.7,71.7z"/>
<path class="st13" d="M339.4,86.8c7.7,0,7.7-12,0-12S331.6,86.8,339.4,86.8z"/>
<path class="st48" d="M256.7,63.8c7.7,0,7.7-12,0-12S249,63.8,256.7,63.8z"/>
<path class="st10" d="M281.3,43.5c7.7,0,7.7-12,0-12S273.6,43.5,281.3,43.5z"/>
<path class="st4" d="M313.9,30.3c7.7,0,7.7-12,0-12S306.2,30.3,313.9,30.3z"/>
<path class="st50" d="M368.1,12.1c7.7,0,7.7-12,0-12S360.4,12.1,368.1,12.1z"/>
<path class="st52" d="M379.3,37.3c7.7,0,7.7-12,0-12S371.6,37.3,379.3,37.3z"/>
<path class="st51" d="M361.5,58.5c7.7,0,7.7-12,0-12S353.8,58.5,361.5,58.5z"/>
<path class="st52" d="M382.7,66.3c7.7,0,7.7-12,0-12S375,66.3,382.7,66.3z"/>
<path class="st49" d="M402.6,49.2c7.7,0,7.7-12,0-12S394.8,49.2,402.6,49.2z"/>
<path class="st34" d="M466.8,30.2c7.7,0,7.7-12,0-12S459.1,30.2,466.8,30.2z"/>
<path class="st34" d="M465.9,15c7.7,0,7.7-12,0-12S458.2,15,465.9,15z"/>
<path class="st31" d="M488.3,43.7c7.7,0,7.7-12,0-12S480.6,43.7,488.3,43.7z"/>
<path class="st31" d="M494.5,53.9c7.7,0,7.7-12,0-12S486.7,53.9,494.5,53.9z"/>
<path class="st6" d="M569.5,59.5c7.7,0,7.7-12,0-12S561.7,59.5,569.5,59.5z"/>
<path class="st1" d="M572.9,97.6c7.7,0,7.7-12,0-12S565.2,97.6,572.9,97.6z"/>
<path class="st19" d="M540.6,379.8c7.7,0,7.7-12,0-12S532.8,379.8,540.6,379.8z"/>
<path class="st19" d="M534.9,365c7.7,0,7.7-12,0-12S527.2,365,534.9,365z"/>
<path class="st25" d="M515,376.1c7.7,0,7.7-12,0-12S507.3,376.1,515,376.1z"/>
<path class="st24" d="M491.3,384.1c7.7,0,7.7-12,0-12S483.6,384.1,491.3,384.1z"/>
<path class="st25" d="M513.4,418.2c7.7,0,7.7-12,0-12S505.7,418.2,513.4,418.2z"/>
<path class="st19" d="M536.1,417.5c7.7,0,7.7-12,0-12S528.4,417.5,536.1,417.5z"/>
<path class="st21" d="M135.6,407.4c7.7,0,7.7-12,0-12S127.9,407.4,135.6,407.4z"/>
<path class="st20" d="M155.3,398.3c7.7,0,7.7-12,0-12S147.5,398.3,155.3,398.3z"/>
<path class="st40" d="M227.8,211.6c7.7,0,7.7-12,0-12S220,211.6,227.8,211.6z"/>
</svg>
